M48
; DRILL file {KiCad (6.0.7-1)-1} date 2022 September 23, Friday 21:02:06
; FORMAT={-:-/ absolute / inch / decimal}
; #@! TF.CreationDate,2022-09-23T21:02:06+07:00
; #@! TF.GenerationSoftware,Kicad,Pcbnew,(6.0.7-1)-1
; #@! TF.FileFunction,Plated,1,2,PTH
FMAT,2
INCH
; #@! TA.AperFunction,Plated,PTH,ComponentDrill
T1C0.1260
; #@! TA.AperFunction,Plated,PTH,ComponentDrill
T2C0.2520
; #@! TA.AperFunction,Plated,PTH,ComponentDrill
T3C0.2953
%
G90
G05
T2
X0.937Y-2.0689
X0.937Y-2.5807
X0.937Y-3.4055
X0.937Y-3.9173
X0.937Y-4.7539
X0.937Y-5.2657
X1.311Y-2.0689
X1.311Y-2.5807
X1.311Y-3.4055
X1.311Y-3.9173
X1.311Y-4.7539
X1.311Y-5.2657
X1.879Y-2.7028
X1.879Y-3.6193
X1.879Y-5.2657
X1.8792Y-4.5236
X1.8796Y-1.8122
X2.3154Y-5.2657
X2.3156Y-4.5243
X2.7523Y-5.2657
X2.7694Y-4.5243
X3.189Y-5.2657
X3.6256Y-5.2657
X4.0623Y-5.2657
X4.4992Y-5.2657
T3
X2.7678Y-1.8122
X2.7678Y-2.7028
X2.7678Y-3.6193
X3.6335Y-1.8122
X3.6335Y-2.7028
X3.6335Y-3.6193
X3.6335Y-4.5243
X4.4992Y-1.8122
X4.4992Y-2.7028
X4.4992Y-3.6193
X4.4992Y-4.5243
T1
G00X1.0098Y-1.128
M15
G01X1.0413Y-1.128
M16
G05
G00X1.0098Y-5.9508
M15
G01X1.0413Y-5.9508
M16
G05
G00X1.8435Y-1.128
M15
G01X1.9144Y-1.128
M16
G05
G00X1.8435Y-5.9508
M15
G01X1.9144Y-5.9508
M16
G05
G00X4.4638Y-1.128
M15
G01X4.5346Y-1.128
M16
G05
G00X4.4638Y-5.9508
M15
G01X4.5346Y-5.9508
M16
G05
T0
M30
