%TF.GenerationSoftware,KiCad,Pcbnew,(6.0.7-1)-1*%
%TF.CreationDate,2022-09-24T04:55:17+07:00*%
%TF.ProjectId,benjolin_1.6_panel,62656e6a-6f6c-4696-9e5f-312e365f7061,rev?*%
%TF.SameCoordinates,Original*%
%TF.FileFunction,Soldermask,Bot*%
%TF.FilePolarity,Negative*%
%FSLAX46Y46*%
G04 Gerber Fmt 4.6, Leading zero omitted, Abs format (unit mm)*
G04 Created by KiCad (PCBNEW (6.0.7-1)-1) date 2022-09-24 04:55:17*
%MOMM*%
%LPD*%
G01*
G04 APERTURE LIST*
%ADD10C,0.500000*%
%ADD11C,9.500000*%
%ADD12C,8.400000*%
%ADD13O,5.600000X3.800000*%
%ADD14O,4.600000X3.800000*%
G04 APERTURE END LIST*
D10*
%TO.C,mouse-bite-2mm-slot*%
X40300000Y-41925000D03*
X38800000Y-40425000D03*
X40300000Y-40425000D03*
X38800000Y-41925000D03*
X38800000Y-41175000D03*
X40300000Y-41175000D03*
%TD*%
%TO.C,mouse-bite-2mm-slot*%
X40300000Y-61925000D03*
X38800000Y-60425000D03*
X40300000Y-60425000D03*
X38800000Y-61925000D03*
X38800000Y-61175000D03*
X40300000Y-61175000D03*
%TD*%
%TO.C,mouse-bite-2mm-slot*%
X40300000Y-81925000D03*
X38800000Y-80425000D03*
X40300000Y-80425000D03*
X38800000Y-81925000D03*
X38800000Y-81175000D03*
X40300000Y-81175000D03*
%TD*%
%TO.C,mouse-bite-2mm-slot*%
X40300000Y-101925000D03*
X38800000Y-100425000D03*
X40300000Y-100425000D03*
X38800000Y-101925000D03*
X38800000Y-101175000D03*
X40300000Y-101175000D03*
%TD*%
%TO.C,mouse-bite-2mm-slot*%
X40300000Y-121925000D03*
X38800000Y-120425000D03*
X40300000Y-120425000D03*
X38800000Y-121925000D03*
X38800000Y-121175000D03*
X40300000Y-121175000D03*
%TD*%
%TO.C,mouse-bite-2mm-slot*%
X40300000Y-141175000D03*
X38800000Y-141175000D03*
X38800000Y-141925000D03*
X40300000Y-140425000D03*
X38800000Y-140425000D03*
X40300000Y-141925000D03*
%TD*%
D11*
%TO.C,REF\u002A\u002A*%
X70303291Y-68650000D03*
%TD*%
D12*
%TO.C,H2*%
X33300000Y-52550000D03*
%TD*%
D11*
%TO.C,REF\u002A\u002A*%
X92290079Y-68650000D03*
%TD*%
%TO.C,REF\u002A\u002A*%
X114279479Y-68650000D03*
%TD*%
D13*
%TO.C,*%
X47726000Y-151150000D03*
%TD*%
D12*
%TO.C,H2*%
X114279479Y-133749661D03*
%TD*%
%TO.C,H2*%
X58810521Y-133750000D03*
%TD*%
%TO.C,H2*%
X33300000Y-120750000D03*
%TD*%
D11*
%TO.C,REF\u002A\u002A*%
X92290079Y-91929918D03*
%TD*%
D12*
%TO.C,H6*%
X23800000Y-86500000D03*
%TD*%
%TO.C,H2*%
X23800000Y-65550000D03*
%TD*%
D11*
%TO.C,REF\u002A\u002A*%
X70303291Y-91929918D03*
%TD*%
D12*
%TO.C,H2*%
X23800000Y-52550000D03*
%TD*%
%TO.C,H2*%
X33300000Y-86500000D03*
%TD*%
D14*
%TO.C,H1*%
X26050000Y-28650000D03*
%TD*%
D12*
%TO.C,H2*%
X92090521Y-133749661D03*
%TD*%
%TO.C,H2*%
X47726000Y-133750000D03*
%TD*%
%TO.C,H2*%
X23800000Y-99500000D03*
%TD*%
%TO.C,H2*%
X69908668Y-133749661D03*
%TD*%
%TO.C,H6*%
X33300000Y-133750000D03*
%TD*%
D11*
%TO.C,REF\u002A\u002A*%
X92290079Y-46030082D03*
%TD*%
D12*
%TO.C,H2*%
X81000521Y-133750000D03*
%TD*%
D14*
%TO.C,H14*%
X26050000Y-151150000D03*
%TD*%
D13*
%TO.C,*%
X114279479Y-28650000D03*
%TD*%
D12*
%TO.C,H2*%
X33300000Y-65550000D03*
%TD*%
%TO.C,H2*%
X47726000Y-91929918D03*
%TD*%
D13*
%TO.C,*%
X114279479Y-151150000D03*
%TD*%
D11*
%TO.C,REF\u002A\u002A*%
X114279479Y-114918361D03*
%TD*%
D12*
%TO.C,H2*%
X47726000Y-68650000D03*
%TD*%
D11*
%TO.C,REF\u002A\u002A*%
X70303291Y-46030082D03*
%TD*%
D12*
%TO.C,H2*%
X70342579Y-114918361D03*
%TD*%
%TO.C,H2*%
X47742272Y-46030082D03*
%TD*%
D11*
%TO.C,REF\u002A\u002A*%
X92290079Y-114918361D03*
%TD*%
D12*
%TO.C,H2*%
X23800000Y-120750000D03*
%TD*%
%TO.C,H6*%
X23800000Y-133750000D03*
%TD*%
%TO.C,H2*%
X33300000Y-99500000D03*
%TD*%
%TO.C,H2*%
X58816000Y-114918361D03*
%TD*%
D11*
%TO.C,REF\u002A\u002A*%
X114279479Y-91929918D03*
%TD*%
D13*
%TO.C,*%
X47726000Y-28650000D03*
%TD*%
D12*
%TO.C,H2*%
X47731479Y-114900000D03*
%TD*%
D11*
%TO.C,REF\u002A\u002A*%
X114279479Y-46030082D03*
%TD*%
D12*
%TO.C,H2*%
X103182667Y-133749661D03*
%TD*%
M02*
