%TF.GenerationSoftware,KiCad,Pcbnew,(6.0.7-1)-1*%
%TF.CreationDate,2022-09-24T04:55:16+07:00*%
%TF.ProjectId,benjolin_1.6_panel,62656e6a-6f6c-4696-9e5f-312e365f7061,rev?*%
%TF.SameCoordinates,Original*%
%TF.FileFunction,Copper,L2,Bot*%
%TF.FilePolarity,Positive*%
%FSLAX46Y46*%
G04 Gerber Fmt 4.6, Leading zero omitted, Abs format (unit mm)*
G04 Created by KiCad (PCBNEW (6.0.7-1)-1) date 2022-09-24 04:55:16*
%MOMM*%
%LPD*%
G01*
G04 APERTURE LIST*
%TA.AperFunction,ComponentPad*%
%ADD10C,9.500000*%
%TD*%
%TA.AperFunction,ComponentPad*%
%ADD11C,8.400000*%
%TD*%
%TA.AperFunction,ComponentPad*%
%ADD12O,5.600000X3.800000*%
%TD*%
%TA.AperFunction,ComponentPad*%
%ADD13O,4.600000X3.800000*%
%TD*%
G04 APERTURE END LIST*
D10*
%TO.P,REF\u002A\u002A,*%
%TO.N,*%
X70303291Y-68650000D03*
%TD*%
D11*
%TO.P,H2,1*%
%TO.N,GND*%
X33300000Y-52550000D03*
%TD*%
D10*
%TO.P,REF\u002A\u002A,*%
%TO.N,*%
X92290079Y-68650000D03*
%TD*%
%TO.P,REF\u002A\u002A,*%
%TO.N,*%
X114279479Y-68650000D03*
%TD*%
D12*
%TO.P,,1*%
%TO.N,GND*%
X47726000Y-151150000D03*
%TD*%
D11*
%TO.P,H2,1*%
%TO.N,GND*%
X114279479Y-133749661D03*
%TD*%
%TO.P,H2,1*%
%TO.N,GND*%
X58810521Y-133750000D03*
%TD*%
%TO.P,H2,1*%
%TO.N,GND*%
X33300000Y-120750000D03*
%TD*%
D10*
%TO.P,REF\u002A\u002A,*%
%TO.N,*%
X92290079Y-91929918D03*
%TD*%
D11*
%TO.P,H6,1*%
%TO.N,GND*%
X23800000Y-86500000D03*
%TD*%
%TO.P,H2,1*%
%TO.N,GND*%
X23800000Y-65550000D03*
%TD*%
D10*
%TO.P,REF\u002A\u002A,*%
%TO.N,*%
X70303291Y-91929918D03*
%TD*%
D11*
%TO.P,H2,1*%
%TO.N,GND*%
X23800000Y-52550000D03*
%TD*%
%TO.P,H2,1*%
%TO.N,GND*%
X33300000Y-86500000D03*
%TD*%
D13*
%TO.P,H1,1*%
%TO.N,GND*%
X26050000Y-28650000D03*
%TD*%
D11*
%TO.P,H2,1*%
%TO.N,GND*%
X92090521Y-133749661D03*
%TD*%
%TO.P,H2,1*%
%TO.N,GND*%
X47726000Y-133750000D03*
%TD*%
%TO.P,H2,1*%
%TO.N,GND*%
X23800000Y-99500000D03*
%TD*%
%TO.P,H2,1*%
%TO.N,GND*%
X69908668Y-133749661D03*
%TD*%
%TO.P,H6,1*%
%TO.N,GND*%
X33300000Y-133750000D03*
%TD*%
D10*
%TO.P,REF\u002A\u002A,*%
%TO.N,*%
X92290079Y-46030082D03*
%TD*%
D11*
%TO.P,H2,1*%
%TO.N,GND*%
X81000521Y-133750000D03*
%TD*%
D13*
%TO.P,H14,1*%
%TO.N,GND*%
X26050000Y-151150000D03*
%TD*%
D12*
%TO.P,,1*%
%TO.N,GND*%
X114279479Y-28650000D03*
%TD*%
D11*
%TO.P,H2,1*%
%TO.N,GND*%
X33300000Y-65550000D03*
%TD*%
%TO.P,H2,1*%
%TO.N,GND*%
X47726000Y-91929918D03*
%TD*%
D12*
%TO.P,,1*%
%TO.N,GND*%
X114279479Y-151150000D03*
%TD*%
D10*
%TO.P,REF\u002A\u002A,*%
%TO.N,*%
X114279479Y-114918361D03*
%TD*%
D11*
%TO.P,H2,1*%
%TO.N,GND*%
X47726000Y-68650000D03*
%TD*%
D10*
%TO.P,REF\u002A\u002A,*%
%TO.N,*%
X70303291Y-46030082D03*
%TD*%
D11*
%TO.P,H2,1*%
%TO.N,GND*%
X70342579Y-114918361D03*
%TD*%
%TO.P,H2,1*%
%TO.N,GND*%
X47742272Y-46030082D03*
%TD*%
D10*
%TO.P,REF\u002A\u002A,*%
%TO.N,*%
X92290079Y-114918361D03*
%TD*%
D11*
%TO.P,H2,1*%
%TO.N,GND*%
X23800000Y-120750000D03*
%TD*%
%TO.P,H6,1*%
%TO.N,GND*%
X23800000Y-133750000D03*
%TD*%
%TO.P,H2,1*%
%TO.N,GND*%
X33300000Y-99500000D03*
%TD*%
%TO.P,H2,1*%
%TO.N,GND*%
X58816000Y-114918361D03*
%TD*%
D10*
%TO.P,REF\u002A\u002A,*%
%TO.N,*%
X114279479Y-91929918D03*
%TD*%
D12*
%TO.P,,1*%
%TO.N,GND*%
X47726000Y-28650000D03*
%TD*%
D11*
%TO.P,H2,1*%
%TO.N,GND*%
X47731479Y-114900000D03*
%TD*%
D10*
%TO.P,REF\u002A\u002A,*%
%TO.N,*%
X114279479Y-46030082D03*
%TD*%
D11*
%TO.P,H2,1*%
%TO.N,GND*%
X103182667Y-133749661D03*
%TD*%
%TA.AperFunction,Conductor*%
%TO.N,GND*%
G36*
X45975910Y-26178502D02*
G01*
X46022403Y-26232158D01*
X46032507Y-26302432D01*
X46003013Y-26367012D01*
X45947248Y-26404162D01*
X45929813Y-26409911D01*
X45922369Y-26412904D01*
X45652437Y-26541945D01*
X45645446Y-26545851D01*
X45394084Y-26708153D01*
X45387653Y-26712913D01*
X45158957Y-26905834D01*
X45153172Y-26911382D01*
X44950847Y-27131794D01*
X44945814Y-27138032D01*
X44773134Y-27382369D01*
X44768939Y-27389188D01*
X44628705Y-27653484D01*
X44625406Y-27660790D01*
X44519895Y-27940758D01*
X44517548Y-27948434D01*
X44448468Y-28239526D01*
X44447115Y-28247444D01*
X44433279Y-28377985D01*
X44435943Y-28392623D01*
X44448291Y-28396000D01*
X51004824Y-28396000D01*
X51018223Y-28392066D01*
X51020215Y-28377884D01*
X50985060Y-28144048D01*
X50983367Y-28136220D01*
X50901654Y-27848412D01*
X50898971Y-27840835D01*
X50781355Y-27565754D01*
X50777733Y-27558583D01*
X50626108Y-27300661D01*
X50621618Y-27294029D01*
X50438450Y-27057463D01*
X50433137Y-27051437D01*
X50221400Y-26840070D01*
X50215375Y-26834777D01*
X49978502Y-26652030D01*
X49971829Y-26647530D01*
X49713652Y-26496360D01*
X49706499Y-26492762D01*
X49489530Y-26400441D01*
X49434679Y-26355364D01*
X49412906Y-26287788D01*
X49431123Y-26219169D01*
X49483547Y-26171291D01*
X49538863Y-26158500D01*
X112461268Y-26158500D01*
X112529389Y-26178502D01*
X112575882Y-26232158D01*
X112585986Y-26302432D01*
X112556492Y-26367012D01*
X112500727Y-26404162D01*
X112483292Y-26409911D01*
X112475848Y-26412904D01*
X112205916Y-26541945D01*
X112198925Y-26545851D01*
X111947563Y-26708153D01*
X111941132Y-26712913D01*
X111712436Y-26905834D01*
X111706651Y-26911382D01*
X111504326Y-27131794D01*
X111499293Y-27138032D01*
X111326613Y-27382369D01*
X111322418Y-27389188D01*
X111182184Y-27653484D01*
X111178885Y-27660790D01*
X111073374Y-27940758D01*
X111071027Y-27948434D01*
X111001947Y-28239526D01*
X111000594Y-28247444D01*
X110986758Y-28377985D01*
X110989422Y-28392623D01*
X111001770Y-28396000D01*
X117558303Y-28396000D01*
X117571702Y-28392066D01*
X117573694Y-28377884D01*
X117538539Y-28144048D01*
X117536846Y-28136220D01*
X117455133Y-27848412D01*
X117452450Y-27840835D01*
X117334834Y-27565754D01*
X117331212Y-27558583D01*
X117179587Y-27300661D01*
X117175097Y-27294029D01*
X116991929Y-27057463D01*
X116986616Y-27051437D01*
X116774879Y-26840070D01*
X116768854Y-26834777D01*
X116531981Y-26652030D01*
X116525308Y-26647530D01*
X116267131Y-26496360D01*
X116259978Y-26492762D01*
X116043009Y-26400441D01*
X115988158Y-26355364D01*
X115966385Y-26287788D01*
X115984602Y-26219169D01*
X116037026Y-26171291D01*
X116092342Y-26158500D01*
X120815500Y-26158500D01*
X120883621Y-26178502D01*
X120930114Y-26232158D01*
X120941500Y-26284500D01*
X120941500Y-153515500D01*
X120921498Y-153583621D01*
X120867842Y-153630114D01*
X120815500Y-153641500D01*
X116097690Y-153641500D01*
X116029569Y-153621498D01*
X115983076Y-153567842D01*
X115972972Y-153497568D01*
X116002466Y-153432988D01*
X116058231Y-153395838D01*
X116075666Y-153390089D01*
X116083110Y-153387096D01*
X116353042Y-153258055D01*
X116360033Y-153254149D01*
X116611395Y-153091847D01*
X116617826Y-153087087D01*
X116846522Y-152894166D01*
X116852307Y-152888618D01*
X117054632Y-152668206D01*
X117059665Y-152661968D01*
X117232345Y-152417631D01*
X117236540Y-152410812D01*
X117376774Y-152146516D01*
X117380073Y-152139210D01*
X117485584Y-151859242D01*
X117487931Y-151851566D01*
X117557011Y-151560474D01*
X117558364Y-151552556D01*
X117572200Y-151422015D01*
X117569536Y-151407377D01*
X117557188Y-151404000D01*
X111000655Y-151404000D01*
X110987256Y-151407934D01*
X110985264Y-151422116D01*
X111020419Y-151655952D01*
X111022112Y-151663780D01*
X111103825Y-151951588D01*
X111106508Y-151959165D01*
X111224124Y-152234246D01*
X111227746Y-152241417D01*
X111379371Y-152499339D01*
X111383861Y-152505971D01*
X111567029Y-152742537D01*
X111572342Y-152748563D01*
X111784079Y-152959930D01*
X111790104Y-152965223D01*
X112026977Y-153147970D01*
X112033650Y-153152470D01*
X112291827Y-153303640D01*
X112298980Y-153307238D01*
X112515949Y-153399559D01*
X112570800Y-153444636D01*
X112592573Y-153512212D01*
X112574356Y-153580831D01*
X112521932Y-153628709D01*
X112466616Y-153641500D01*
X49544211Y-153641500D01*
X49476090Y-153621498D01*
X49429597Y-153567842D01*
X49419493Y-153497568D01*
X49448987Y-153432988D01*
X49504752Y-153395838D01*
X49522187Y-153390089D01*
X49529631Y-153387096D01*
X49799563Y-153258055D01*
X49806554Y-153254149D01*
X50057916Y-153091847D01*
X50064347Y-153087087D01*
X50293043Y-152894166D01*
X50298828Y-152888618D01*
X50501153Y-152668206D01*
X50506186Y-152661968D01*
X50678866Y-152417631D01*
X50683061Y-152410812D01*
X50823295Y-152146516D01*
X50826594Y-152139210D01*
X50932105Y-151859242D01*
X50934452Y-151851566D01*
X51003532Y-151560474D01*
X51004885Y-151552556D01*
X51018721Y-151422015D01*
X51016057Y-151407377D01*
X51003709Y-151404000D01*
X44447176Y-151404000D01*
X44433777Y-151407934D01*
X44431785Y-151422116D01*
X44466940Y-151655952D01*
X44468633Y-151663780D01*
X44550346Y-151951588D01*
X44553029Y-151959165D01*
X44670645Y-152234246D01*
X44674267Y-152241417D01*
X44825892Y-152499339D01*
X44830382Y-152505971D01*
X45013550Y-152742537D01*
X45018863Y-152748563D01*
X45230600Y-152959930D01*
X45236625Y-152965223D01*
X45473498Y-153147970D01*
X45480171Y-153152470D01*
X45738348Y-153303640D01*
X45745501Y-153307238D01*
X45962470Y-153399559D01*
X46017321Y-153444636D01*
X46039094Y-153512212D01*
X46020877Y-153580831D01*
X45968453Y-153628709D01*
X45913137Y-153641500D01*
X41184500Y-153641500D01*
X41116379Y-153621498D01*
X41069886Y-153567842D01*
X41058500Y-153515500D01*
X41058500Y-150877985D01*
X44433279Y-150877985D01*
X44435943Y-150892623D01*
X44448291Y-150896000D01*
X47453885Y-150896000D01*
X47469124Y-150891525D01*
X47470329Y-150890135D01*
X47472000Y-150882452D01*
X47472000Y-150877885D01*
X47980000Y-150877885D01*
X47984475Y-150893124D01*
X47985865Y-150894329D01*
X47993548Y-150896000D01*
X51004824Y-150896000D01*
X51018223Y-150892066D01*
X51020201Y-150877985D01*
X110986758Y-150877985D01*
X110989422Y-150892623D01*
X111001770Y-150896000D01*
X114007364Y-150896000D01*
X114022603Y-150891525D01*
X114023808Y-150890135D01*
X114025479Y-150882452D01*
X114025479Y-150877885D01*
X114533479Y-150877885D01*
X114537954Y-150893124D01*
X114539344Y-150894329D01*
X114547027Y-150896000D01*
X117558303Y-150896000D01*
X117571702Y-150892066D01*
X117573694Y-150877884D01*
X117538539Y-150644048D01*
X117536846Y-150636220D01*
X117455133Y-150348412D01*
X117452450Y-150340835D01*
X117334834Y-150065754D01*
X117331212Y-150058583D01*
X117179587Y-149800661D01*
X117175097Y-149794029D01*
X116991929Y-149557463D01*
X116986616Y-149551437D01*
X116774879Y-149340070D01*
X116768854Y-149334777D01*
X116531981Y-149152030D01*
X116525308Y-149147530D01*
X116267131Y-148996360D01*
X116259978Y-148992762D01*
X115984664Y-148875615D01*
X115977100Y-148872952D01*
X115689147Y-148791740D01*
X115681308Y-148790060D01*
X115384691Y-148745995D01*
X115378054Y-148745365D01*
X115299096Y-148742056D01*
X115296448Y-148742000D01*
X114551594Y-148742000D01*
X114536355Y-148746475D01*
X114535150Y-148747865D01*
X114533479Y-148755548D01*
X114533479Y-150877885D01*
X114025479Y-150877885D01*
X114025479Y-148760115D01*
X114021004Y-148744876D01*
X114019614Y-148743671D01*
X114011931Y-148742000D01*
X113303769Y-148742000D01*
X113299739Y-148742129D01*
X113076885Y-148756344D01*
X113068938Y-148757362D01*
X112775183Y-148814196D01*
X112767438Y-148816214D01*
X112483292Y-148909912D01*
X112475848Y-148912904D01*
X112205916Y-149041945D01*
X112198925Y-149045851D01*
X111947563Y-149208153D01*
X111941132Y-149212913D01*
X111712436Y-149405834D01*
X111706651Y-149411382D01*
X111504326Y-149631794D01*
X111499293Y-149638032D01*
X111326613Y-149882369D01*
X111322418Y-149889188D01*
X111182184Y-150153484D01*
X111178885Y-150160790D01*
X111073374Y-150440758D01*
X111071027Y-150448434D01*
X111001947Y-150739526D01*
X111000594Y-150747444D01*
X110986758Y-150877985D01*
X51020201Y-150877985D01*
X51020215Y-150877884D01*
X50985060Y-150644048D01*
X50983367Y-150636220D01*
X50901654Y-150348412D01*
X50898971Y-150340835D01*
X50781355Y-150065754D01*
X50777733Y-150058583D01*
X50626108Y-149800661D01*
X50621618Y-149794029D01*
X50438450Y-149557463D01*
X50433137Y-149551437D01*
X50221400Y-149340070D01*
X50215375Y-149334777D01*
X49978502Y-149152030D01*
X49971829Y-149147530D01*
X49713652Y-148996360D01*
X49706499Y-148992762D01*
X49431185Y-148875615D01*
X49423621Y-148872952D01*
X49135668Y-148791740D01*
X49127829Y-148790060D01*
X48831212Y-148745995D01*
X48824575Y-148745365D01*
X48745617Y-148742056D01*
X48742969Y-148742000D01*
X47998115Y-148742000D01*
X47982876Y-148746475D01*
X47981671Y-148747865D01*
X47980000Y-148755548D01*
X47980000Y-150877885D01*
X47472000Y-150877885D01*
X47472000Y-148760115D01*
X47467525Y-148744876D01*
X47466135Y-148743671D01*
X47458452Y-148742000D01*
X46750290Y-148742000D01*
X46746260Y-148742129D01*
X46523406Y-148756344D01*
X46515459Y-148757362D01*
X46221704Y-148814196D01*
X46213959Y-148816214D01*
X45929813Y-148909912D01*
X45922369Y-148912904D01*
X45652437Y-149041945D01*
X45645446Y-149045851D01*
X45394084Y-149208153D01*
X45387653Y-149212913D01*
X45158957Y-149405834D01*
X45153172Y-149411382D01*
X44950847Y-149631794D01*
X44945814Y-149638032D01*
X44773134Y-149882369D01*
X44768939Y-149889188D01*
X44628705Y-150153484D01*
X44625406Y-150160790D01*
X44519895Y-150440758D01*
X44517548Y-150448434D01*
X44448468Y-150739526D01*
X44447115Y-150747444D01*
X44433279Y-150877985D01*
X41058500Y-150877985D01*
X41058500Y-143228250D01*
X41060246Y-143207345D01*
X41062770Y-143192344D01*
X41062770Y-143192341D01*
X41063576Y-143187552D01*
X41063729Y-143175000D01*
X41063039Y-143170182D01*
X41063036Y-143170135D01*
X41062162Y-143162256D01*
X41044923Y-142943223D01*
X41044535Y-142938289D01*
X40989105Y-142707406D01*
X40987211Y-142702832D01*
X40901883Y-142496832D01*
X40894294Y-142426242D01*
X40912974Y-142383315D01*
X40911490Y-142382453D01*
X40919165Y-142369239D01*
X41000326Y-142229510D01*
X41029436Y-142133398D01*
X41049473Y-142067239D01*
X41051595Y-142060233D01*
X41062547Y-141883702D01*
X41032594Y-141709386D01*
X41029728Y-141702650D01*
X40987199Y-141602700D01*
X40978933Y-141532186D01*
X40994186Y-141490083D01*
X40996646Y-141485847D01*
X40996649Y-141485841D01*
X41000326Y-141479510D01*
X41029436Y-141383398D01*
X41049473Y-141317239D01*
X41051595Y-141310233D01*
X41062547Y-141133702D01*
X41032594Y-140959386D01*
X41029728Y-140952650D01*
X40987199Y-140852700D01*
X40978933Y-140782186D01*
X40994186Y-140740083D01*
X40996646Y-140735847D01*
X40996649Y-140735841D01*
X41000326Y-140729510D01*
X41012849Y-140688165D01*
X41049473Y-140567239D01*
X41051595Y-140560233D01*
X41062547Y-140383702D01*
X41032594Y-140209386D01*
X40963343Y-140046636D01*
X40959009Y-140040747D01*
X40959004Y-140040738D01*
X40914866Y-139980761D01*
X40890600Y-139914040D01*
X40899939Y-139857862D01*
X40987211Y-139647168D01*
X40987213Y-139647161D01*
X40989105Y-139642594D01*
X41044535Y-139411711D01*
X41060512Y-139208704D01*
X41061871Y-139197684D01*
X41062768Y-139192356D01*
X41062768Y-139192351D01*
X41063576Y-139187552D01*
X41063729Y-139175000D01*
X41059773Y-139147376D01*
X41058500Y-139129514D01*
X41058500Y-137256889D01*
X44584651Y-137256889D01*
X44584732Y-137258022D01*
X44589710Y-137265594D01*
X44619522Y-137294182D01*
X44623799Y-137297927D01*
X44953535Y-137561152D01*
X44958118Y-137564482D01*
X45310349Y-137796735D01*
X45315245Y-137799653D01*
X45687033Y-137999004D01*
X45692206Y-138001483D01*
X46080550Y-138166325D01*
X46085885Y-138168309D01*
X46487575Y-138297278D01*
X46493076Y-138298773D01*
X46904808Y-138390805D01*
X46910420Y-138391794D01*
X47328785Y-138446131D01*
X47334491Y-138446610D01*
X47756040Y-138462804D01*
X47761766Y-138462764D01*
X48183055Y-138440686D01*
X48188736Y-138440129D01*
X48606312Y-138379955D01*
X48611907Y-138378887D01*
X49022311Y-138281115D01*
X49027792Y-138279544D01*
X49427635Y-138144982D01*
X49432965Y-138142914D01*
X49818968Y-137972667D01*
X49824075Y-137970132D01*
X50193059Y-137765601D01*
X50197925Y-137762607D01*
X50546843Y-137525483D01*
X50551438Y-137522045D01*
X50859934Y-137268643D01*
X50867934Y-137256889D01*
X55669172Y-137256889D01*
X55669253Y-137258022D01*
X55674231Y-137265594D01*
X55704043Y-137294182D01*
X55708320Y-137297927D01*
X56038056Y-137561152D01*
X56042639Y-137564482D01*
X56394870Y-137796735D01*
X56399766Y-137799653D01*
X56771554Y-137999004D01*
X56776727Y-138001483D01*
X57165071Y-138166325D01*
X57170406Y-138168309D01*
X57572096Y-138297278D01*
X57577597Y-138298773D01*
X57989329Y-138390805D01*
X57994941Y-138391794D01*
X58413306Y-138446131D01*
X58419012Y-138446610D01*
X58840561Y-138462804D01*
X58846287Y-138462764D01*
X59267576Y-138440686D01*
X59273257Y-138440129D01*
X59690833Y-138379955D01*
X59696428Y-138378887D01*
X60106832Y-138281115D01*
X60112313Y-138279544D01*
X60512156Y-138144982D01*
X60517486Y-138142914D01*
X60903489Y-137972667D01*
X60908596Y-137970132D01*
X61277580Y-137765601D01*
X61282446Y-137762607D01*
X61631364Y-137525483D01*
X61635959Y-137522045D01*
X61944455Y-137268643D01*
X61952685Y-137256550D01*
X66767319Y-137256550D01*
X66767400Y-137257683D01*
X66772378Y-137265255D01*
X66802190Y-137293843D01*
X66806467Y-137297588D01*
X67136203Y-137560813D01*
X67140786Y-137564143D01*
X67493017Y-137796396D01*
X67497913Y-137799314D01*
X67869701Y-137998665D01*
X67874874Y-138001144D01*
X68263218Y-138165986D01*
X68268553Y-138167970D01*
X68670243Y-138296939D01*
X68675744Y-138298434D01*
X69087476Y-138390466D01*
X69093088Y-138391455D01*
X69511453Y-138445792D01*
X69517159Y-138446271D01*
X69938708Y-138462465D01*
X69944434Y-138462425D01*
X70365723Y-138440347D01*
X70371404Y-138439790D01*
X70788980Y-138379616D01*
X70794575Y-138378548D01*
X71204979Y-138280776D01*
X71210460Y-138279205D01*
X71610303Y-138144643D01*
X71615633Y-138142575D01*
X72001636Y-137972328D01*
X72006743Y-137969793D01*
X72375727Y-137765262D01*
X72380593Y-137762268D01*
X72729511Y-137525144D01*
X72734106Y-137521706D01*
X73042602Y-137268304D01*
X73050371Y-137256889D01*
X77859172Y-137256889D01*
X77859253Y-137258022D01*
X77864231Y-137265594D01*
X77894043Y-137294182D01*
X77898320Y-137297927D01*
X78228056Y-137561152D01*
X78232639Y-137564482D01*
X78584870Y-137796735D01*
X78589766Y-137799653D01*
X78961554Y-137999004D01*
X78966727Y-138001483D01*
X79355071Y-138166325D01*
X79360406Y-138168309D01*
X79762096Y-138297278D01*
X79767597Y-138298773D01*
X80179329Y-138390805D01*
X80184941Y-138391794D01*
X80603306Y-138446131D01*
X80609012Y-138446610D01*
X81030561Y-138462804D01*
X81036287Y-138462764D01*
X81457576Y-138440686D01*
X81463257Y-138440129D01*
X81880833Y-138379955D01*
X81886428Y-138378887D01*
X82296832Y-138281115D01*
X82302313Y-138279544D01*
X82702156Y-138144982D01*
X82707486Y-138142914D01*
X83093489Y-137972667D01*
X83098596Y-137970132D01*
X83467580Y-137765601D01*
X83472446Y-137762607D01*
X83821364Y-137525483D01*
X83825959Y-137522045D01*
X84134455Y-137268643D01*
X84142685Y-137256550D01*
X88949172Y-137256550D01*
X88949253Y-137257683D01*
X88954231Y-137265255D01*
X88984043Y-137293843D01*
X88988320Y-137297588D01*
X89318056Y-137560813D01*
X89322639Y-137564143D01*
X89674870Y-137796396D01*
X89679766Y-137799314D01*
X90051554Y-137998665D01*
X90056727Y-138001144D01*
X90445071Y-138165986D01*
X90450406Y-138167970D01*
X90852096Y-138296939D01*
X90857597Y-138298434D01*
X91269329Y-138390466D01*
X91274941Y-138391455D01*
X91693306Y-138445792D01*
X91699012Y-138446271D01*
X92120561Y-138462465D01*
X92126287Y-138462425D01*
X92547576Y-138440347D01*
X92553257Y-138439790D01*
X92970833Y-138379616D01*
X92976428Y-138378548D01*
X93386832Y-138280776D01*
X93392313Y-138279205D01*
X93792156Y-138144643D01*
X93797486Y-138142575D01*
X94183489Y-137972328D01*
X94188596Y-137969793D01*
X94557580Y-137765262D01*
X94562446Y-137762268D01*
X94911364Y-137525144D01*
X94915959Y-137521706D01*
X95224455Y-137268304D01*
X95232455Y-137256550D01*
X100041318Y-137256550D01*
X100041399Y-137257683D01*
X100046377Y-137265255D01*
X100076189Y-137293843D01*
X100080466Y-137297588D01*
X100410202Y-137560813D01*
X100414785Y-137564143D01*
X100767016Y-137796396D01*
X100771912Y-137799314D01*
X101143700Y-137998665D01*
X101148873Y-138001144D01*
X101537217Y-138165986D01*
X101542552Y-138167970D01*
X101944242Y-138296939D01*
X101949743Y-138298434D01*
X102361475Y-138390466D01*
X102367087Y-138391455D01*
X102785452Y-138445792D01*
X102791158Y-138446271D01*
X103212707Y-138462465D01*
X103218433Y-138462425D01*
X103639722Y-138440347D01*
X103645403Y-138439790D01*
X104062979Y-138379616D01*
X104068574Y-138378548D01*
X104478978Y-138280776D01*
X104484459Y-138279205D01*
X104884302Y-138144643D01*
X104889632Y-138142575D01*
X105275635Y-137972328D01*
X105280742Y-137969793D01*
X105649726Y-137765262D01*
X105654592Y-137762268D01*
X106003510Y-137525144D01*
X106008105Y-137521706D01*
X106316601Y-137268304D01*
X106324601Y-137256550D01*
X111138130Y-137256550D01*
X111138211Y-137257683D01*
X111143189Y-137265255D01*
X111173001Y-137293843D01*
X111177278Y-137297588D01*
X111507014Y-137560813D01*
X111511597Y-137564143D01*
X111863828Y-137796396D01*
X111868724Y-137799314D01*
X112240512Y-137998665D01*
X112245685Y-138001144D01*
X112634029Y-138165986D01*
X112639364Y-138167970D01*
X113041054Y-138296939D01*
X113046555Y-138298434D01*
X113458287Y-138390466D01*
X113463899Y-138391455D01*
X113882264Y-138445792D01*
X113887970Y-138446271D01*
X114309519Y-138462465D01*
X114315245Y-138462425D01*
X114736534Y-138440347D01*
X114742215Y-138439790D01*
X115159791Y-138379616D01*
X115165386Y-138378548D01*
X115575790Y-138280776D01*
X115581271Y-138279205D01*
X115981114Y-138144643D01*
X115986444Y-138142575D01*
X116372447Y-137972328D01*
X116377554Y-137969793D01*
X116746538Y-137765262D01*
X116751404Y-137762268D01*
X117100322Y-137525144D01*
X117104917Y-137521706D01*
X117413413Y-137268304D01*
X117421874Y-137255872D01*
X117415624Y-137245016D01*
X114292291Y-134121683D01*
X114278347Y-134114069D01*
X114276514Y-134114200D01*
X114269899Y-134118451D01*
X111145744Y-137242606D01*
X111138130Y-137256550D01*
X106324601Y-137256550D01*
X106325062Y-137255872D01*
X106318812Y-137245016D01*
X103195479Y-134121683D01*
X103181535Y-134114069D01*
X103179702Y-134114200D01*
X103173087Y-134118451D01*
X100048932Y-137242606D01*
X100041318Y-137256550D01*
X95232455Y-137256550D01*
X95232916Y-137255872D01*
X95226666Y-137245016D01*
X92103333Y-134121683D01*
X92089389Y-134114069D01*
X92087556Y-134114200D01*
X92080941Y-134118451D01*
X88956786Y-137242606D01*
X88949172Y-137256550D01*
X84142685Y-137256550D01*
X84142916Y-137256211D01*
X84136666Y-137245355D01*
X81013333Y-134122022D01*
X80999389Y-134114408D01*
X80997556Y-134114539D01*
X80990941Y-134118790D01*
X77866786Y-137242945D01*
X77859172Y-137256889D01*
X73050371Y-137256889D01*
X73051063Y-137255872D01*
X73044813Y-137245016D01*
X69921480Y-134121683D01*
X69907536Y-134114069D01*
X69905703Y-134114200D01*
X69899088Y-134118451D01*
X66774933Y-137242606D01*
X66767319Y-137256550D01*
X61952685Y-137256550D01*
X61952916Y-137256211D01*
X61946666Y-137245355D01*
X58823333Y-134122022D01*
X58809389Y-134114408D01*
X58807556Y-134114539D01*
X58800941Y-134118790D01*
X55676786Y-137242945D01*
X55669172Y-137256889D01*
X50867934Y-137256889D01*
X50868395Y-137256211D01*
X50862145Y-137245355D01*
X47738812Y-134122022D01*
X47724868Y-134114408D01*
X47723035Y-134114539D01*
X47716420Y-134118790D01*
X44592265Y-137242945D01*
X44584651Y-137256889D01*
X41058500Y-137256889D01*
X41058500Y-133911625D01*
X43015872Y-133911625D01*
X43016071Y-133917330D01*
X43049905Y-134337846D01*
X43050623Y-134343523D01*
X43122426Y-134759222D01*
X43123657Y-134764822D01*
X43232847Y-135172325D01*
X43234571Y-135177758D01*
X43380247Y-135573694D01*
X43382455Y-135578948D01*
X43563417Y-135960054D01*
X43566098Y-135965094D01*
X43780844Y-136328209D01*
X43783985Y-136333009D01*
X44030752Y-136675161D01*
X44034307Y-136679648D01*
X44209754Y-136881477D01*
X44222884Y-136889885D01*
X44232797Y-136883993D01*
X47353978Y-133762812D01*
X47360356Y-133751132D01*
X48090408Y-133751132D01*
X48090539Y-133752965D01*
X48094790Y-133759580D01*
X51218612Y-136883402D01*
X51232058Y-136890744D01*
X51241894Y-136883824D01*
X51458238Y-136627817D01*
X51461724Y-136623290D01*
X51703705Y-136277704D01*
X51706762Y-136272888D01*
X51916423Y-135906799D01*
X51919035Y-135901717D01*
X52094655Y-135518129D01*
X52096794Y-135512836D01*
X52236924Y-135114915D01*
X52238577Y-135109441D01*
X52342064Y-134700465D01*
X52343215Y-134694859D01*
X52409211Y-134278171D01*
X52409846Y-134272509D01*
X52433816Y-133911625D01*
X54100393Y-133911625D01*
X54100592Y-133917330D01*
X54134426Y-134337846D01*
X54135144Y-134343523D01*
X54206947Y-134759222D01*
X54208178Y-134764822D01*
X54317368Y-135172325D01*
X54319092Y-135177758D01*
X54464768Y-135573694D01*
X54466976Y-135578948D01*
X54647938Y-135960054D01*
X54650619Y-135965094D01*
X54865365Y-136328209D01*
X54868506Y-136333009D01*
X55115273Y-136675161D01*
X55118828Y-136679648D01*
X55294275Y-136881477D01*
X55307405Y-136889885D01*
X55317318Y-136883993D01*
X58438499Y-133762812D01*
X58444877Y-133751132D01*
X59174929Y-133751132D01*
X59175060Y-133752965D01*
X59179311Y-133759580D01*
X62303133Y-136883402D01*
X62316579Y-136890744D01*
X62326415Y-136883824D01*
X62542759Y-136627817D01*
X62546245Y-136623290D01*
X62788226Y-136277704D01*
X62791283Y-136272888D01*
X63000944Y-135906799D01*
X63003556Y-135901717D01*
X63179176Y-135518129D01*
X63181315Y-135512836D01*
X63321445Y-135114915D01*
X63323098Y-135109441D01*
X63426585Y-134700465D01*
X63427736Y-134694859D01*
X63493732Y-134278171D01*
X63494367Y-134272509D01*
X63518359Y-133911286D01*
X65198540Y-133911286D01*
X65198739Y-133916991D01*
X65232573Y-134337507D01*
X65233291Y-134343184D01*
X65305094Y-134758883D01*
X65306325Y-134764483D01*
X65415515Y-135171986D01*
X65417239Y-135177419D01*
X65562915Y-135573355D01*
X65565123Y-135578609D01*
X65746085Y-135959715D01*
X65748766Y-135964755D01*
X65963512Y-136327870D01*
X65966653Y-136332670D01*
X66213420Y-136674822D01*
X66216975Y-136679309D01*
X66392422Y-136881138D01*
X66405552Y-136889546D01*
X66415465Y-136883654D01*
X69536646Y-133762473D01*
X69543024Y-133750793D01*
X70273076Y-133750793D01*
X70273207Y-133752626D01*
X70277458Y-133759241D01*
X73401280Y-136883063D01*
X73414726Y-136890405D01*
X73424562Y-136883485D01*
X73640906Y-136627478D01*
X73644392Y-136622951D01*
X73886373Y-136277365D01*
X73889430Y-136272549D01*
X74099091Y-135906460D01*
X74101703Y-135901378D01*
X74277323Y-135517790D01*
X74279462Y-135512497D01*
X74419592Y-135114576D01*
X74421245Y-135109102D01*
X74524732Y-134700126D01*
X74525883Y-134694520D01*
X74591879Y-134277832D01*
X74592514Y-134272170D01*
X74616461Y-133911625D01*
X76290393Y-133911625D01*
X76290592Y-133917330D01*
X76324426Y-134337846D01*
X76325144Y-134343523D01*
X76396947Y-134759222D01*
X76398178Y-134764822D01*
X76507368Y-135172325D01*
X76509092Y-135177758D01*
X76654768Y-135573694D01*
X76656976Y-135578948D01*
X76837938Y-135960054D01*
X76840619Y-135965094D01*
X77055365Y-136328209D01*
X77058506Y-136333009D01*
X77305273Y-136675161D01*
X77308828Y-136679648D01*
X77484275Y-136881477D01*
X77497405Y-136889885D01*
X77507318Y-136883993D01*
X80628499Y-133762812D01*
X80634877Y-133751132D01*
X81364929Y-133751132D01*
X81365060Y-133752965D01*
X81369311Y-133759580D01*
X84493133Y-136883402D01*
X84506579Y-136890744D01*
X84516415Y-136883824D01*
X84732759Y-136627817D01*
X84736245Y-136623290D01*
X84978226Y-136277704D01*
X84981283Y-136272888D01*
X85190944Y-135906799D01*
X85193556Y-135901717D01*
X85369176Y-135518129D01*
X85371315Y-135512836D01*
X85511445Y-135114915D01*
X85513098Y-135109441D01*
X85616585Y-134700465D01*
X85617736Y-134694859D01*
X85683732Y-134278171D01*
X85684367Y-134272509D01*
X85708359Y-133911286D01*
X87380393Y-133911286D01*
X87380592Y-133916991D01*
X87414426Y-134337507D01*
X87415144Y-134343184D01*
X87486947Y-134758883D01*
X87488178Y-134764483D01*
X87597368Y-135171986D01*
X87599092Y-135177419D01*
X87744768Y-135573355D01*
X87746976Y-135578609D01*
X87927938Y-135959715D01*
X87930619Y-135964755D01*
X88145365Y-136327870D01*
X88148506Y-136332670D01*
X88395273Y-136674822D01*
X88398828Y-136679309D01*
X88574275Y-136881138D01*
X88587405Y-136889546D01*
X88597318Y-136883654D01*
X91718499Y-133762473D01*
X91724877Y-133750793D01*
X92454929Y-133750793D01*
X92455060Y-133752626D01*
X92459311Y-133759241D01*
X95583133Y-136883063D01*
X95596579Y-136890405D01*
X95606415Y-136883485D01*
X95822759Y-136627478D01*
X95826245Y-136622951D01*
X96068226Y-136277365D01*
X96071283Y-136272549D01*
X96280944Y-135906460D01*
X96283556Y-135901378D01*
X96459176Y-135517790D01*
X96461315Y-135512497D01*
X96601445Y-135114576D01*
X96603098Y-135109102D01*
X96706585Y-134700126D01*
X96707736Y-134694520D01*
X96773732Y-134277832D01*
X96774367Y-134272170D01*
X96798337Y-133911286D01*
X98472539Y-133911286D01*
X98472738Y-133916991D01*
X98506572Y-134337507D01*
X98507290Y-134343184D01*
X98579093Y-134758883D01*
X98580324Y-134764483D01*
X98689514Y-135171986D01*
X98691238Y-135177419D01*
X98836914Y-135573355D01*
X98839122Y-135578609D01*
X99020084Y-135959715D01*
X99022765Y-135964755D01*
X99237511Y-136327870D01*
X99240652Y-136332670D01*
X99487419Y-136674822D01*
X99490974Y-136679309D01*
X99666421Y-136881138D01*
X99679551Y-136889546D01*
X99689464Y-136883654D01*
X102810645Y-133762473D01*
X102817023Y-133750793D01*
X103547075Y-133750793D01*
X103547206Y-133752626D01*
X103551457Y-133759241D01*
X106675279Y-136883063D01*
X106688725Y-136890405D01*
X106698561Y-136883485D01*
X106914905Y-136627478D01*
X106918391Y-136622951D01*
X107160372Y-136277365D01*
X107163429Y-136272549D01*
X107373090Y-135906460D01*
X107375702Y-135901378D01*
X107551322Y-135517790D01*
X107553461Y-135512497D01*
X107693591Y-135114576D01*
X107695244Y-135109102D01*
X107798731Y-134700126D01*
X107799882Y-134694520D01*
X107865878Y-134277832D01*
X107866513Y-134272170D01*
X107890483Y-133911286D01*
X109569351Y-133911286D01*
X109569550Y-133916991D01*
X109603384Y-134337507D01*
X109604102Y-134343184D01*
X109675905Y-134758883D01*
X109677136Y-134764483D01*
X109786326Y-135171986D01*
X109788050Y-135177419D01*
X109933726Y-135573355D01*
X109935934Y-135578609D01*
X110116896Y-135959715D01*
X110119577Y-135964755D01*
X110334323Y-136327870D01*
X110337464Y-136332670D01*
X110584231Y-136674822D01*
X110587786Y-136679309D01*
X110763233Y-136881138D01*
X110776363Y-136889546D01*
X110786276Y-136883654D01*
X113907457Y-133762473D01*
X113913835Y-133750793D01*
X114643887Y-133750793D01*
X114644018Y-133752626D01*
X114648269Y-133759241D01*
X117772091Y-136883063D01*
X117785537Y-136890405D01*
X117795373Y-136883485D01*
X118011717Y-136627478D01*
X118015203Y-136622951D01*
X118257184Y-136277365D01*
X118260241Y-136272549D01*
X118469902Y-135906460D01*
X118472514Y-135901378D01*
X118648134Y-135517790D01*
X118650273Y-135512497D01*
X118790403Y-135114576D01*
X118792056Y-135109102D01*
X118895543Y-134700126D01*
X118896694Y-134694520D01*
X118962690Y-134277832D01*
X118963325Y-134272170D01*
X118991358Y-133850114D01*
X118991492Y-133846607D01*
X118992489Y-133751434D01*
X118992427Y-133747886D01*
X118973240Y-133325358D01*
X118972724Y-133319680D01*
X118915467Y-132901696D01*
X118914440Y-132896096D01*
X118819534Y-132485017D01*
X118818000Y-132479521D01*
X118686233Y-132078747D01*
X118684203Y-132073405D01*
X118516656Y-131686229D01*
X118514152Y-131681095D01*
X118312206Y-131310697D01*
X118309243Y-131305806D01*
X118074559Y-130955238D01*
X118071164Y-130950635D01*
X117805681Y-130622791D01*
X117801876Y-130618504D01*
X117798712Y-130615251D01*
X117784882Y-130607447D01*
X117783512Y-130607526D01*
X117776190Y-130612160D01*
X114651501Y-133736849D01*
X114643887Y-133750793D01*
X113913835Y-133750793D01*
X113915071Y-133748529D01*
X113914940Y-133746696D01*
X113910689Y-133740081D01*
X110788307Y-130617699D01*
X110774363Y-130610085D01*
X110774170Y-130610098D01*
X110765348Y-130616077D01*
X110649955Y-130743338D01*
X110646303Y-130747752D01*
X110392417Y-131084670D01*
X110389183Y-131089394D01*
X110166884Y-131447926D01*
X110164090Y-131452925D01*
X109975199Y-131830131D01*
X109972865Y-131835373D01*
X109818939Y-132228147D01*
X109817096Y-132233560D01*
X109699396Y-132638685D01*
X109698054Y-132644235D01*
X109617555Y-133058365D01*
X109616722Y-133064006D01*
X109574089Y-133483719D01*
X109573769Y-133489443D01*
X109569351Y-133911286D01*
X107890483Y-133911286D01*
X107894546Y-133850114D01*
X107894680Y-133846607D01*
X107895677Y-133751434D01*
X107895615Y-133747886D01*
X107876428Y-133325358D01*
X107875912Y-133319680D01*
X107818655Y-132901696D01*
X107817628Y-132896096D01*
X107722722Y-132485017D01*
X107721188Y-132479521D01*
X107589421Y-132078747D01*
X107587391Y-132073405D01*
X107419844Y-131686229D01*
X107417340Y-131681095D01*
X107215394Y-131310697D01*
X107212431Y-131305806D01*
X106977747Y-130955238D01*
X106974352Y-130950635D01*
X106708869Y-130622791D01*
X106705064Y-130618504D01*
X106701900Y-130615251D01*
X106688070Y-130607447D01*
X106686700Y-130607526D01*
X106679378Y-130612160D01*
X103554689Y-133736849D01*
X103547075Y-133750793D01*
X102817023Y-133750793D01*
X102818259Y-133748529D01*
X102818128Y-133746696D01*
X102813877Y-133740081D01*
X99691495Y-130617699D01*
X99677551Y-130610085D01*
X99677358Y-130610098D01*
X99668536Y-130616077D01*
X99553143Y-130743338D01*
X99549491Y-130747752D01*
X99295605Y-131084670D01*
X99292371Y-131089394D01*
X99070072Y-131447926D01*
X99067278Y-131452925D01*
X98878387Y-131830131D01*
X98876053Y-131835373D01*
X98722127Y-132228147D01*
X98720284Y-132233560D01*
X98602584Y-132638685D01*
X98601242Y-132644235D01*
X98520743Y-133058365D01*
X98519910Y-133064006D01*
X98477277Y-133483719D01*
X98476957Y-133489443D01*
X98472539Y-133911286D01*
X96798337Y-133911286D01*
X96802400Y-133850114D01*
X96802534Y-133846607D01*
X96803531Y-133751434D01*
X96803469Y-133747886D01*
X96784282Y-133325358D01*
X96783766Y-133319680D01*
X96726509Y-132901696D01*
X96725482Y-132896096D01*
X96630576Y-132485017D01*
X96629042Y-132479521D01*
X96497275Y-132078747D01*
X96495245Y-132073405D01*
X96327698Y-131686229D01*
X96325194Y-131681095D01*
X96123248Y-131310697D01*
X96120285Y-131305806D01*
X95885601Y-130955238D01*
X95882206Y-130950635D01*
X95616723Y-130622791D01*
X95612918Y-130618504D01*
X95609754Y-130615251D01*
X95595924Y-130607447D01*
X95594554Y-130607526D01*
X95587232Y-130612160D01*
X92462543Y-133736849D01*
X92454929Y-133750793D01*
X91724877Y-133750793D01*
X91726113Y-133748529D01*
X91725982Y-133746696D01*
X91721731Y-133740081D01*
X88599349Y-130617699D01*
X88585405Y-130610085D01*
X88585212Y-130610098D01*
X88576390Y-130616077D01*
X88460997Y-130743338D01*
X88457345Y-130747752D01*
X88203459Y-131084670D01*
X88200225Y-131089394D01*
X87977926Y-131447926D01*
X87975132Y-131452925D01*
X87786241Y-131830131D01*
X87783907Y-131835373D01*
X87629981Y-132228147D01*
X87628138Y-132233560D01*
X87510438Y-132638685D01*
X87509096Y-132644235D01*
X87428597Y-133058365D01*
X87427764Y-133064006D01*
X87385131Y-133483719D01*
X87384811Y-133489443D01*
X87380393Y-133911286D01*
X85708359Y-133911286D01*
X85712400Y-133850453D01*
X85712534Y-133846946D01*
X85713531Y-133751773D01*
X85713469Y-133748225D01*
X85694282Y-133325697D01*
X85693766Y-133320019D01*
X85636509Y-132902035D01*
X85635482Y-132896435D01*
X85540576Y-132485356D01*
X85539042Y-132479860D01*
X85407275Y-132079086D01*
X85405245Y-132073744D01*
X85237698Y-131686568D01*
X85235194Y-131681434D01*
X85033248Y-131311036D01*
X85030285Y-131306145D01*
X84795601Y-130955577D01*
X84792206Y-130950974D01*
X84526723Y-130623130D01*
X84522918Y-130618843D01*
X84519754Y-130615590D01*
X84505924Y-130607786D01*
X84504554Y-130607865D01*
X84497232Y-130612499D01*
X81372543Y-133737188D01*
X81364929Y-133751132D01*
X80634877Y-133751132D01*
X80636113Y-133748868D01*
X80635982Y-133747035D01*
X80631731Y-133740420D01*
X77509349Y-130618038D01*
X77495405Y-130610424D01*
X77495212Y-130610437D01*
X77486390Y-130616416D01*
X77370997Y-130743677D01*
X77367345Y-130748091D01*
X77113459Y-131085009D01*
X77110225Y-131089733D01*
X76887926Y-131448265D01*
X76885132Y-131453264D01*
X76696241Y-131830470D01*
X76693907Y-131835712D01*
X76539981Y-132228486D01*
X76538138Y-132233899D01*
X76420438Y-132639024D01*
X76419096Y-132644574D01*
X76338597Y-133058704D01*
X76337764Y-133064345D01*
X76295131Y-133484058D01*
X76294811Y-133489782D01*
X76290393Y-133911625D01*
X74616461Y-133911625D01*
X74620547Y-133850114D01*
X74620681Y-133846607D01*
X74621678Y-133751434D01*
X74621616Y-133747886D01*
X74602429Y-133325358D01*
X74601913Y-133319680D01*
X74544656Y-132901696D01*
X74543629Y-132896096D01*
X74448723Y-132485017D01*
X74447189Y-132479521D01*
X74315422Y-132078747D01*
X74313392Y-132073405D01*
X74145845Y-131686229D01*
X74143341Y-131681095D01*
X73941395Y-131310697D01*
X73938432Y-131305806D01*
X73703748Y-130955238D01*
X73700353Y-130950635D01*
X73434870Y-130622791D01*
X73431065Y-130618504D01*
X73427901Y-130615251D01*
X73414071Y-130607447D01*
X73412701Y-130607526D01*
X73405379Y-130612160D01*
X70280690Y-133736849D01*
X70273076Y-133750793D01*
X69543024Y-133750793D01*
X69544260Y-133748529D01*
X69544129Y-133746696D01*
X69539878Y-133740081D01*
X66417496Y-130617699D01*
X66403552Y-130610085D01*
X66403359Y-130610098D01*
X66394537Y-130616077D01*
X66279144Y-130743338D01*
X66275492Y-130747752D01*
X66021606Y-131084670D01*
X66018372Y-131089394D01*
X65796073Y-131447926D01*
X65793279Y-131452925D01*
X65604388Y-131830131D01*
X65602054Y-131835373D01*
X65448128Y-132228147D01*
X65446285Y-132233560D01*
X65328585Y-132638685D01*
X65327243Y-132644235D01*
X65246744Y-133058365D01*
X65245911Y-133064006D01*
X65203278Y-133483719D01*
X65202958Y-133489443D01*
X65198540Y-133911286D01*
X63518359Y-133911286D01*
X63522400Y-133850453D01*
X63522534Y-133846946D01*
X63523531Y-133751773D01*
X63523469Y-133748225D01*
X63504282Y-133325697D01*
X63503766Y-133320019D01*
X63446509Y-132902035D01*
X63445482Y-132896435D01*
X63350576Y-132485356D01*
X63349042Y-132479860D01*
X63217275Y-132079086D01*
X63215245Y-132073744D01*
X63047698Y-131686568D01*
X63045194Y-131681434D01*
X62843248Y-131311036D01*
X62840285Y-131306145D01*
X62605601Y-130955577D01*
X62602206Y-130950974D01*
X62336723Y-130623130D01*
X62332918Y-130618843D01*
X62329754Y-130615590D01*
X62315924Y-130607786D01*
X62314554Y-130607865D01*
X62307232Y-130612499D01*
X59182543Y-133737188D01*
X59174929Y-133751132D01*
X58444877Y-133751132D01*
X58446113Y-133748868D01*
X58445982Y-133747035D01*
X58441731Y-133740420D01*
X55319349Y-130618038D01*
X55305405Y-130610424D01*
X55305212Y-130610437D01*
X55296390Y-130616416D01*
X55180997Y-130743677D01*
X55177345Y-130748091D01*
X54923459Y-131085009D01*
X54920225Y-131089733D01*
X54697926Y-131448265D01*
X54695132Y-131453264D01*
X54506241Y-131830470D01*
X54503907Y-131835712D01*
X54349981Y-132228486D01*
X54348138Y-132233899D01*
X54230438Y-132639024D01*
X54229096Y-132644574D01*
X54148597Y-133058704D01*
X54147764Y-133064345D01*
X54105131Y-133484058D01*
X54104811Y-133489782D01*
X54100393Y-133911625D01*
X52433816Y-133911625D01*
X52437879Y-133850453D01*
X52438013Y-133846946D01*
X52439010Y-133751773D01*
X52438948Y-133748225D01*
X52419761Y-133325697D01*
X52419245Y-133320019D01*
X52361988Y-132902035D01*
X52360961Y-132896435D01*
X52266055Y-132485356D01*
X52264521Y-132479860D01*
X52132754Y-132079086D01*
X52130724Y-132073744D01*
X51963177Y-131686568D01*
X51960673Y-131681434D01*
X51758727Y-131311036D01*
X51755764Y-131306145D01*
X51521080Y-130955577D01*
X51517685Y-130950974D01*
X51252202Y-130623130D01*
X51248397Y-130618843D01*
X51245233Y-130615590D01*
X51231403Y-130607786D01*
X51230033Y-130607865D01*
X51222711Y-130612499D01*
X48098022Y-133737188D01*
X48090408Y-133751132D01*
X47360356Y-133751132D01*
X47361592Y-133748868D01*
X47361461Y-133747035D01*
X47357210Y-133740420D01*
X44234828Y-130618038D01*
X44220884Y-130610424D01*
X44220691Y-130610437D01*
X44211869Y-130616416D01*
X44096476Y-130743677D01*
X44092824Y-130748091D01*
X43838938Y-131085009D01*
X43835704Y-131089733D01*
X43613405Y-131448265D01*
X43610611Y-131453264D01*
X43421720Y-131830470D01*
X43419386Y-131835712D01*
X43265460Y-132228486D01*
X43263617Y-132233899D01*
X43145917Y-132639024D01*
X43144575Y-132644574D01*
X43064076Y-133058704D01*
X43063243Y-133064345D01*
X43020610Y-133484058D01*
X43020290Y-133489782D01*
X43015872Y-133911625D01*
X41058500Y-133911625D01*
X41058500Y-130247162D01*
X44586172Y-130247162D01*
X44586184Y-130247593D01*
X44591551Y-130256341D01*
X47713188Y-133377978D01*
X47727132Y-133385592D01*
X47728965Y-133385461D01*
X47735580Y-133381210D01*
X50858788Y-130258002D01*
X50864707Y-130247162D01*
X55670693Y-130247162D01*
X55670705Y-130247593D01*
X55676072Y-130256341D01*
X58797709Y-133377978D01*
X58811653Y-133385592D01*
X58813486Y-133385461D01*
X58820101Y-133381210D01*
X61943309Y-130258002D01*
X61949413Y-130246823D01*
X66768840Y-130246823D01*
X66768852Y-130247254D01*
X66774219Y-130256002D01*
X69895856Y-133377639D01*
X69909800Y-133385253D01*
X69911633Y-133385122D01*
X69918248Y-133380871D01*
X73041456Y-130257663D01*
X73047190Y-130247162D01*
X77860693Y-130247162D01*
X77860705Y-130247593D01*
X77866072Y-130256341D01*
X80987709Y-133377978D01*
X81001653Y-133385592D01*
X81003486Y-133385461D01*
X81010101Y-133381210D01*
X84133309Y-130258002D01*
X84139413Y-130246823D01*
X88950693Y-130246823D01*
X88950705Y-130247254D01*
X88956072Y-130256002D01*
X92077709Y-133377639D01*
X92091653Y-133385253D01*
X92093486Y-133385122D01*
X92100101Y-133380871D01*
X95223309Y-130257663D01*
X95229228Y-130246823D01*
X100042839Y-130246823D01*
X100042851Y-130247254D01*
X100048218Y-130256002D01*
X103169855Y-133377639D01*
X103183799Y-133385253D01*
X103185632Y-133385122D01*
X103192247Y-133380871D01*
X106315455Y-130257663D01*
X106321374Y-130246823D01*
X111139651Y-130246823D01*
X111139663Y-130247254D01*
X111145030Y-130256002D01*
X114266667Y-133377639D01*
X114280611Y-133385253D01*
X114282444Y-133385122D01*
X114289059Y-133380871D01*
X117412267Y-130257663D01*
X117419675Y-130244096D01*
X117412933Y-130234440D01*
X117183276Y-130037601D01*
X117178783Y-130034090D01*
X116834906Y-129789709D01*
X116830083Y-129786601D01*
X116465480Y-129574397D01*
X116460415Y-129571750D01*
X116078071Y-129393459D01*
X116072778Y-129391278D01*
X115675850Y-129248374D01*
X115670390Y-129246685D01*
X115262142Y-129140344D01*
X115256552Y-129139156D01*
X114840340Y-129070253D01*
X114834675Y-129069577D01*
X114413920Y-129038679D01*
X114408219Y-129038520D01*
X113986396Y-129045882D01*
X113980708Y-129046240D01*
X113561306Y-129091802D01*
X113555636Y-129092680D01*
X113142101Y-129176063D01*
X113136556Y-129177445D01*
X112732262Y-129297971D01*
X112726858Y-129299853D01*
X112335166Y-129456518D01*
X112329959Y-129458880D01*
X111954060Y-129650410D01*
X111949095Y-129653231D01*
X111592111Y-129878036D01*
X111587416Y-129881299D01*
X111252278Y-130137531D01*
X111247898Y-130141205D01*
X111147838Y-130233216D01*
X111139651Y-130246823D01*
X106321374Y-130246823D01*
X106322863Y-130244096D01*
X106316121Y-130234440D01*
X106086464Y-130037601D01*
X106081971Y-130034090D01*
X105738094Y-129789709D01*
X105733271Y-129786601D01*
X105368668Y-129574397D01*
X105363603Y-129571750D01*
X104981259Y-129393459D01*
X104975966Y-129391278D01*
X104579038Y-129248374D01*
X104573578Y-129246685D01*
X104165330Y-129140344D01*
X104159740Y-129139156D01*
X103743528Y-129070253D01*
X103737863Y-129069577D01*
X103317108Y-129038679D01*
X103311407Y-129038520D01*
X102889584Y-129045882D01*
X102883896Y-129046240D01*
X102464494Y-129091802D01*
X102458824Y-129092680D01*
X102045289Y-129176063D01*
X102039744Y-129177445D01*
X101635450Y-129297971D01*
X101630046Y-129299853D01*
X101238354Y-129456518D01*
X101233147Y-129458880D01*
X100857248Y-129650410D01*
X100852283Y-129653231D01*
X100495299Y-129878036D01*
X100490604Y-129881299D01*
X100155466Y-130137531D01*
X100151086Y-130141205D01*
X100051026Y-130233216D01*
X100042839Y-130246823D01*
X95229228Y-130246823D01*
X95230717Y-130244096D01*
X95223975Y-130234440D01*
X94994318Y-130037601D01*
X94989825Y-130034090D01*
X94645948Y-129789709D01*
X94641125Y-129786601D01*
X94276522Y-129574397D01*
X94271457Y-129571750D01*
X93889113Y-129393459D01*
X93883820Y-129391278D01*
X93486892Y-129248374D01*
X93481432Y-129246685D01*
X93073184Y-129140344D01*
X93067594Y-129139156D01*
X92651382Y-129070253D01*
X92645717Y-129069577D01*
X92224962Y-129038679D01*
X92219261Y-129038520D01*
X91797438Y-129045882D01*
X91791750Y-129046240D01*
X91372348Y-129091802D01*
X91366678Y-129092680D01*
X90953143Y-129176063D01*
X90947598Y-129177445D01*
X90543304Y-129297971D01*
X90537900Y-129299853D01*
X90146208Y-129456518D01*
X90141001Y-129458880D01*
X89765102Y-129650410D01*
X89760137Y-129653231D01*
X89403153Y-129878036D01*
X89398458Y-129881299D01*
X89063320Y-130137531D01*
X89058940Y-130141205D01*
X88958880Y-130233216D01*
X88950693Y-130246823D01*
X84139413Y-130246823D01*
X84140717Y-130244435D01*
X84133975Y-130234779D01*
X83904318Y-130037940D01*
X83899825Y-130034429D01*
X83555948Y-129790048D01*
X83551125Y-129786940D01*
X83186522Y-129574736D01*
X83181457Y-129572089D01*
X82799113Y-129393798D01*
X82793820Y-129391617D01*
X82396892Y-129248713D01*
X82391432Y-129247024D01*
X81983184Y-129140683D01*
X81977594Y-129139495D01*
X81561382Y-129070592D01*
X81555717Y-129069916D01*
X81134962Y-129039018D01*
X81129261Y-129038859D01*
X80707438Y-129046221D01*
X80701750Y-129046579D01*
X80282348Y-129092141D01*
X80276678Y-129093019D01*
X79863143Y-129176402D01*
X79857598Y-129177784D01*
X79453304Y-129298310D01*
X79447900Y-129300192D01*
X79056208Y-129456857D01*
X79051001Y-129459219D01*
X78675102Y-129650749D01*
X78670137Y-129653570D01*
X78313153Y-129878375D01*
X78308458Y-129881638D01*
X77973320Y-130137870D01*
X77968940Y-130141544D01*
X77868880Y-130233555D01*
X77860693Y-130247162D01*
X73047190Y-130247162D01*
X73048864Y-130244096D01*
X73042122Y-130234440D01*
X72812465Y-130037601D01*
X72807972Y-130034090D01*
X72464095Y-129789709D01*
X72459272Y-129786601D01*
X72094669Y-129574397D01*
X72089604Y-129571750D01*
X71707260Y-129393459D01*
X71701967Y-129391278D01*
X71305039Y-129248374D01*
X71299579Y-129246685D01*
X70891331Y-129140344D01*
X70885741Y-129139156D01*
X70469529Y-129070253D01*
X70463864Y-129069577D01*
X70043109Y-129038679D01*
X70037408Y-129038520D01*
X69615585Y-129045882D01*
X69609897Y-129046240D01*
X69190495Y-129091802D01*
X69184825Y-129092680D01*
X68771290Y-129176063D01*
X68765745Y-129177445D01*
X68361451Y-129297971D01*
X68356047Y-129299853D01*
X67964355Y-129456518D01*
X67959148Y-129458880D01*
X67583249Y-129650410D01*
X67578284Y-129653231D01*
X67221300Y-129878036D01*
X67216605Y-129881299D01*
X66881467Y-130137531D01*
X66877087Y-130141205D01*
X66777027Y-130233216D01*
X66768840Y-130246823D01*
X61949413Y-130246823D01*
X61950717Y-130244435D01*
X61943975Y-130234779D01*
X61714318Y-130037940D01*
X61709825Y-130034429D01*
X61365948Y-129790048D01*
X61361125Y-129786940D01*
X60996522Y-129574736D01*
X60991457Y-129572089D01*
X60609113Y-129393798D01*
X60603820Y-129391617D01*
X60206892Y-129248713D01*
X60201432Y-129247024D01*
X59793184Y-129140683D01*
X59787594Y-129139495D01*
X59371382Y-129070592D01*
X59365717Y-129069916D01*
X58944962Y-129039018D01*
X58939261Y-129038859D01*
X58517438Y-129046221D01*
X58511750Y-129046579D01*
X58092348Y-129092141D01*
X58086678Y-129093019D01*
X57673143Y-129176402D01*
X57667598Y-129177784D01*
X57263304Y-129298310D01*
X57257900Y-129300192D01*
X56866208Y-129456857D01*
X56861001Y-129459219D01*
X56485102Y-129650749D01*
X56480137Y-129653570D01*
X56123153Y-129878375D01*
X56118458Y-129881638D01*
X55783320Y-130137870D01*
X55778940Y-130141544D01*
X55678880Y-130233555D01*
X55670693Y-130247162D01*
X50864707Y-130247162D01*
X50866196Y-130244435D01*
X50859454Y-130234779D01*
X50629797Y-130037940D01*
X50625304Y-130034429D01*
X50281427Y-129790048D01*
X50276604Y-129786940D01*
X49912001Y-129574736D01*
X49906936Y-129572089D01*
X49524592Y-129393798D01*
X49519299Y-129391617D01*
X49122371Y-129248713D01*
X49116911Y-129247024D01*
X48708663Y-129140683D01*
X48703073Y-129139495D01*
X48286861Y-129070592D01*
X48281196Y-129069916D01*
X47860441Y-129039018D01*
X47854740Y-129038859D01*
X47432917Y-129046221D01*
X47427229Y-129046579D01*
X47007827Y-129092141D01*
X47002157Y-129093019D01*
X46588622Y-129176402D01*
X46583077Y-129177784D01*
X46178783Y-129298310D01*
X46173379Y-129300192D01*
X45781687Y-129456857D01*
X45776480Y-129459219D01*
X45400581Y-129650749D01*
X45395616Y-129653570D01*
X45038632Y-129878375D01*
X45033937Y-129881638D01*
X44698799Y-130137870D01*
X44694419Y-130141544D01*
X44594359Y-130233555D01*
X44586172Y-130247162D01*
X41058500Y-130247162D01*
X41058500Y-123228250D01*
X41060246Y-123207345D01*
X41062770Y-123192344D01*
X41062770Y-123192341D01*
X41063576Y-123187552D01*
X41063729Y-123175000D01*
X41063039Y-123170182D01*
X41063036Y-123170135D01*
X41062162Y-123162256D01*
X41053153Y-123047790D01*
X41044535Y-122938289D01*
X40989105Y-122707406D01*
X40987211Y-122702832D01*
X40901883Y-122496832D01*
X40894294Y-122426242D01*
X40912974Y-122383315D01*
X40911490Y-122382453D01*
X40919165Y-122369239D01*
X41000326Y-122229510D01*
X41029125Y-122134425D01*
X41049473Y-122067239D01*
X41051595Y-122060233D01*
X41062547Y-121883702D01*
X41041158Y-121759222D01*
X41033834Y-121716602D01*
X41033834Y-121716601D01*
X41032594Y-121709386D01*
X41028798Y-121700465D01*
X40987199Y-121602700D01*
X40978933Y-121532186D01*
X40994186Y-121490083D01*
X40996646Y-121485847D01*
X40996649Y-121485841D01*
X41000326Y-121479510D01*
X41051595Y-121310233D01*
X41062547Y-121133702D01*
X41032594Y-120959386D01*
X41029728Y-120952650D01*
X40987199Y-120852700D01*
X40978933Y-120782186D01*
X40994186Y-120740083D01*
X40996646Y-120735847D01*
X40996649Y-120735841D01*
X41000326Y-120729510D01*
X41012849Y-120688165D01*
X41049473Y-120567239D01*
X41051595Y-120560233D01*
X41062547Y-120383702D01*
X41032594Y-120209386D01*
X40963343Y-120046636D01*
X40959009Y-120040747D01*
X40959004Y-120040738D01*
X40914866Y-119980761D01*
X40890600Y-119914040D01*
X40899939Y-119857862D01*
X40987211Y-119647168D01*
X40987213Y-119647161D01*
X40989105Y-119642594D01*
X41017927Y-119522543D01*
X41043380Y-119416524D01*
X41043381Y-119416518D01*
X41044535Y-119411711D01*
X41060512Y-119208704D01*
X41061871Y-119197684D01*
X41062768Y-119192356D01*
X41062768Y-119192351D01*
X41063576Y-119187552D01*
X41063729Y-119175000D01*
X41059773Y-119147376D01*
X41058500Y-119129514D01*
X41058500Y-118406889D01*
X44590130Y-118406889D01*
X44590211Y-118408022D01*
X44595189Y-118415594D01*
X44625001Y-118444182D01*
X44629278Y-118447927D01*
X44959014Y-118711152D01*
X44963597Y-118714482D01*
X45315828Y-118946735D01*
X45320724Y-118949653D01*
X45692512Y-119149004D01*
X45697685Y-119151483D01*
X46086029Y-119316325D01*
X46091364Y-119318309D01*
X46493054Y-119447278D01*
X46498555Y-119448773D01*
X46910287Y-119540805D01*
X46915899Y-119541794D01*
X47334264Y-119596131D01*
X47339970Y-119596610D01*
X47761519Y-119612804D01*
X47767245Y-119612764D01*
X48188534Y-119590686D01*
X48194215Y-119590129D01*
X48611791Y-119529955D01*
X48617386Y-119528887D01*
X49027790Y-119431115D01*
X49033271Y-119429544D01*
X49433114Y-119294982D01*
X49438444Y-119292914D01*
X49824447Y-119122667D01*
X49829554Y-119120132D01*
X50198538Y-118915601D01*
X50203404Y-118912607D01*
X50552322Y-118675483D01*
X50556917Y-118672045D01*
X50857370Y-118425250D01*
X55674651Y-118425250D01*
X55674732Y-118426383D01*
X55679710Y-118433955D01*
X55709522Y-118462543D01*
X55713799Y-118466288D01*
X56043535Y-118729513D01*
X56048118Y-118732843D01*
X56400349Y-118965096D01*
X56405245Y-118968014D01*
X56777033Y-119167365D01*
X56782206Y-119169844D01*
X57170550Y-119334686D01*
X57175885Y-119336670D01*
X57577575Y-119465639D01*
X57583076Y-119467134D01*
X57994808Y-119559166D01*
X58000420Y-119560155D01*
X58418785Y-119614492D01*
X58424491Y-119614971D01*
X58846040Y-119631165D01*
X58851766Y-119631125D01*
X59273055Y-119609047D01*
X59278736Y-119608490D01*
X59696312Y-119548316D01*
X59701907Y-119547248D01*
X60112311Y-119449476D01*
X60117792Y-119447905D01*
X60517635Y-119313343D01*
X60522965Y-119311275D01*
X60908968Y-119141028D01*
X60914075Y-119138493D01*
X61283059Y-118933962D01*
X61287925Y-118930968D01*
X61636843Y-118693844D01*
X61641438Y-118690406D01*
X61949934Y-118437004D01*
X61957934Y-118425250D01*
X67201230Y-118425250D01*
X67201311Y-118426383D01*
X67206289Y-118433955D01*
X67236101Y-118462543D01*
X67240378Y-118466288D01*
X67570114Y-118729513D01*
X67574697Y-118732843D01*
X67926928Y-118965096D01*
X67931824Y-118968014D01*
X68303612Y-119167365D01*
X68308785Y-119169844D01*
X68697129Y-119334686D01*
X68702464Y-119336670D01*
X69104154Y-119465639D01*
X69109655Y-119467134D01*
X69521387Y-119559166D01*
X69526999Y-119560155D01*
X69945364Y-119614492D01*
X69951070Y-119614971D01*
X70372619Y-119631165D01*
X70378345Y-119631125D01*
X70799634Y-119609047D01*
X70805315Y-119608490D01*
X71222891Y-119548316D01*
X71228486Y-119547248D01*
X71638890Y-119449476D01*
X71644371Y-119447905D01*
X72044214Y-119313343D01*
X72049544Y-119311275D01*
X72435547Y-119141028D01*
X72440654Y-119138493D01*
X72809638Y-118933962D01*
X72814504Y-118930968D01*
X73163422Y-118693844D01*
X73168017Y-118690406D01*
X73476513Y-118437004D01*
X73484974Y-118424572D01*
X73478724Y-118413716D01*
X70355391Y-115290383D01*
X70341447Y-115282769D01*
X70339614Y-115282900D01*
X70332999Y-115287151D01*
X67208844Y-118411306D01*
X67201230Y-118425250D01*
X61957934Y-118425250D01*
X61958395Y-118424572D01*
X61952145Y-118413716D01*
X58828812Y-115290383D01*
X58814868Y-115282769D01*
X58813035Y-115282900D01*
X58806420Y-115287151D01*
X55682265Y-118411306D01*
X55674651Y-118425250D01*
X50857370Y-118425250D01*
X50865413Y-118418643D01*
X50873874Y-118406211D01*
X50867624Y-118395355D01*
X47744291Y-115272022D01*
X47730347Y-115264408D01*
X47728514Y-115264539D01*
X47721899Y-115268790D01*
X44597744Y-118392945D01*
X44590130Y-118406889D01*
X41058500Y-118406889D01*
X41058500Y-115061625D01*
X43021351Y-115061625D01*
X43021550Y-115067330D01*
X43055384Y-115487846D01*
X43056102Y-115493523D01*
X43127905Y-115909222D01*
X43129136Y-115914822D01*
X43238326Y-116322325D01*
X43240050Y-116327758D01*
X43385726Y-116723694D01*
X43387934Y-116728948D01*
X43568896Y-117110054D01*
X43571577Y-117115094D01*
X43786323Y-117478209D01*
X43789464Y-117483009D01*
X44036231Y-117825161D01*
X44039786Y-117829648D01*
X44215233Y-118031477D01*
X44228363Y-118039885D01*
X44238276Y-118033993D01*
X47359457Y-114912812D01*
X47365835Y-114901132D01*
X48095887Y-114901132D01*
X48096018Y-114902965D01*
X48100269Y-114909580D01*
X51224091Y-118033402D01*
X51237537Y-118040744D01*
X51247373Y-118033824D01*
X51463717Y-117777817D01*
X51467203Y-117773290D01*
X51709184Y-117427704D01*
X51712241Y-117422888D01*
X51921902Y-117056799D01*
X51924514Y-117051717D01*
X52100134Y-116668129D01*
X52102273Y-116662836D01*
X52242403Y-116264915D01*
X52244056Y-116259441D01*
X52347543Y-115850465D01*
X52348694Y-115844859D01*
X52414690Y-115428171D01*
X52415325Y-115422509D01*
X52438075Y-115079986D01*
X54105872Y-115079986D01*
X54106071Y-115085691D01*
X54139905Y-115506207D01*
X54140623Y-115511884D01*
X54212426Y-115927583D01*
X54213657Y-115933183D01*
X54322847Y-116340686D01*
X54324571Y-116346119D01*
X54470247Y-116742055D01*
X54472455Y-116747309D01*
X54653417Y-117128415D01*
X54656098Y-117133455D01*
X54870844Y-117496570D01*
X54873985Y-117501370D01*
X55120752Y-117843522D01*
X55124307Y-117848009D01*
X55299754Y-118049838D01*
X55312884Y-118058246D01*
X55322797Y-118052354D01*
X58443978Y-114931173D01*
X58450356Y-114919493D01*
X59180408Y-114919493D01*
X59180539Y-114921326D01*
X59184790Y-114927941D01*
X62308612Y-118051763D01*
X62322058Y-118059105D01*
X62331894Y-118052185D01*
X62548238Y-117796178D01*
X62551724Y-117791651D01*
X62793705Y-117446065D01*
X62796762Y-117441249D01*
X63006423Y-117075160D01*
X63009035Y-117070078D01*
X63184655Y-116686490D01*
X63186794Y-116681197D01*
X63326924Y-116283276D01*
X63328577Y-116277802D01*
X63432064Y-115868826D01*
X63433215Y-115863220D01*
X63499211Y-115446532D01*
X63499846Y-115440870D01*
X63523816Y-115079986D01*
X65632451Y-115079986D01*
X65632650Y-115085691D01*
X65666484Y-115506207D01*
X65667202Y-115511884D01*
X65739005Y-115927583D01*
X65740236Y-115933183D01*
X65849426Y-116340686D01*
X65851150Y-116346119D01*
X65996826Y-116742055D01*
X65999034Y-116747309D01*
X66179996Y-117128415D01*
X66182677Y-117133455D01*
X66397423Y-117496570D01*
X66400564Y-117501370D01*
X66647331Y-117843522D01*
X66650886Y-117848009D01*
X66826333Y-118049838D01*
X66839463Y-118058246D01*
X66849376Y-118052354D01*
X69970557Y-114931173D01*
X69976935Y-114919493D01*
X70706987Y-114919493D01*
X70707118Y-114921326D01*
X70711369Y-114927941D01*
X73835191Y-118051763D01*
X73848637Y-118059105D01*
X73858473Y-118052185D01*
X74074817Y-117796178D01*
X74078303Y-117791651D01*
X74320284Y-117446065D01*
X74323341Y-117441249D01*
X74533002Y-117075160D01*
X74535614Y-117070078D01*
X74711234Y-116686490D01*
X74713373Y-116681197D01*
X74853503Y-116283276D01*
X74855156Y-116277802D01*
X74958643Y-115868826D01*
X74959794Y-115863220D01*
X75025790Y-115446532D01*
X75026425Y-115440870D01*
X75054458Y-115018814D01*
X75054592Y-115015307D01*
X75055589Y-114920134D01*
X75055558Y-114918361D01*
X87026569Y-114918361D01*
X87046598Y-115377106D01*
X87106534Y-115832360D01*
X87205919Y-116280658D01*
X87206747Y-116283283D01*
X87206748Y-116283288D01*
X87328088Y-116668129D01*
X87343997Y-116718587D01*
X87489590Y-117070078D01*
X87515842Y-117133455D01*
X87519719Y-117142816D01*
X87731746Y-117550116D01*
X87978464Y-117937386D01*
X88257996Y-118301680D01*
X88568215Y-118640225D01*
X88906760Y-118950444D01*
X88908922Y-118952103D01*
X88908928Y-118952108D01*
X89032936Y-119047262D01*
X89271054Y-119229976D01*
X89658324Y-119476694D01*
X90065624Y-119688721D01*
X90489853Y-119864443D01*
X90492473Y-119865269D01*
X90492481Y-119865272D01*
X90925152Y-120001692D01*
X90925157Y-120001693D01*
X90927782Y-120002521D01*
X91376080Y-120101906D01*
X91378800Y-120102264D01*
X91378805Y-120102265D01*
X91517238Y-120120490D01*
X91831334Y-120161842D01*
X92290079Y-120181871D01*
X92748824Y-120161842D01*
X93062920Y-120120490D01*
X93201353Y-120102265D01*
X93201358Y-120102264D01*
X93204078Y-120101906D01*
X93652376Y-120002521D01*
X93655001Y-120001693D01*
X93655006Y-120001692D01*
X94087677Y-119865272D01*
X94087685Y-119865269D01*
X94090305Y-119864443D01*
X94514534Y-119688721D01*
X94921834Y-119476694D01*
X95309104Y-119229976D01*
X95547222Y-119047262D01*
X95671230Y-118952108D01*
X95671236Y-118952103D01*
X95673398Y-118950444D01*
X96011943Y-118640225D01*
X96322162Y-118301680D01*
X96601694Y-117937386D01*
X96848412Y-117550116D01*
X97060439Y-117142816D01*
X97064317Y-117133455D01*
X97090568Y-117070078D01*
X97236161Y-116718587D01*
X97252071Y-116668129D01*
X97373410Y-116283288D01*
X97373411Y-116283283D01*
X97374239Y-116280658D01*
X97473624Y-115832360D01*
X97533560Y-115377106D01*
X97553589Y-114918361D01*
X109015969Y-114918361D01*
X109035998Y-115377106D01*
X109095934Y-115832360D01*
X109195319Y-116280658D01*
X109196147Y-116283283D01*
X109196148Y-116283288D01*
X109317488Y-116668129D01*
X109333397Y-116718587D01*
X109478990Y-117070078D01*
X109505242Y-117133455D01*
X109509119Y-117142816D01*
X109721146Y-117550116D01*
X109967864Y-117937386D01*
X110247396Y-118301680D01*
X110557615Y-118640225D01*
X110896160Y-118950444D01*
X110898322Y-118952103D01*
X110898328Y-118952108D01*
X111022336Y-119047262D01*
X111260454Y-119229976D01*
X111647724Y-119476694D01*
X112055024Y-119688721D01*
X112479253Y-119864443D01*
X112481873Y-119865269D01*
X112481881Y-119865272D01*
X112914552Y-120001692D01*
X112914557Y-120001693D01*
X112917182Y-120002521D01*
X113365480Y-120101906D01*
X113368200Y-120102264D01*
X113368205Y-120102265D01*
X113506638Y-120120490D01*
X113820734Y-120161842D01*
X114279479Y-120181871D01*
X114738224Y-120161842D01*
X115052320Y-120120490D01*
X115190753Y-120102265D01*
X115190758Y-120102264D01*
X115193478Y-120101906D01*
X115641776Y-120002521D01*
X115644401Y-120001693D01*
X115644406Y-120001692D01*
X116077077Y-119865272D01*
X116077085Y-119865269D01*
X116079705Y-119864443D01*
X116503934Y-119688721D01*
X116911234Y-119476694D01*
X117298504Y-119229976D01*
X117536622Y-119047262D01*
X117660630Y-118952108D01*
X117660636Y-118952103D01*
X117662798Y-118950444D01*
X118001343Y-118640225D01*
X118311562Y-118301680D01*
X118591094Y-117937386D01*
X118837812Y-117550116D01*
X119049839Y-117142816D01*
X119053717Y-117133455D01*
X119079968Y-117070078D01*
X119225561Y-116718587D01*
X119241471Y-116668129D01*
X119362810Y-116283288D01*
X119362811Y-116283283D01*
X119363639Y-116280658D01*
X119463024Y-115832360D01*
X119522960Y-115377106D01*
X119542989Y-114918361D01*
X119522960Y-114459616D01*
X119471718Y-114070396D01*
X119463383Y-114007087D01*
X119463382Y-114007082D01*
X119463024Y-114004362D01*
X119363639Y-113556064D01*
X119315145Y-113402260D01*
X119226390Y-113120763D01*
X119226387Y-113120755D01*
X119225561Y-113118135D01*
X119049839Y-112693906D01*
X118837812Y-112286606D01*
X118591094Y-111899336D01*
X118311562Y-111535042D01*
X118001343Y-111196497D01*
X117662798Y-110886278D01*
X117660636Y-110884619D01*
X117660630Y-110884614D01*
X117448822Y-110722089D01*
X117298504Y-110606746D01*
X116911234Y-110360028D01*
X116503934Y-110148001D01*
X116079705Y-109972279D01*
X116077085Y-109971453D01*
X116077077Y-109971450D01*
X115644406Y-109835030D01*
X115644401Y-109835029D01*
X115641776Y-109834201D01*
X115193478Y-109734816D01*
X115190758Y-109734458D01*
X115190753Y-109734457D01*
X115020744Y-109712075D01*
X114738224Y-109674880D01*
X114279479Y-109654851D01*
X113820734Y-109674880D01*
X113538214Y-109712075D01*
X113368205Y-109734457D01*
X113368200Y-109734458D01*
X113365480Y-109734816D01*
X112917182Y-109834201D01*
X112914557Y-109835029D01*
X112914552Y-109835030D01*
X112481881Y-109971450D01*
X112481873Y-109971453D01*
X112479253Y-109972279D01*
X112055024Y-110148001D01*
X111647724Y-110360028D01*
X111260454Y-110606746D01*
X111110136Y-110722089D01*
X110898328Y-110884614D01*
X110898322Y-110884619D01*
X110896160Y-110886278D01*
X110557615Y-111196497D01*
X110247396Y-111535042D01*
X109967864Y-111899336D01*
X109721146Y-112286606D01*
X109509119Y-112693906D01*
X109333397Y-113118135D01*
X109332571Y-113120755D01*
X109332568Y-113120763D01*
X109243813Y-113402260D01*
X109195319Y-113556064D01*
X109095934Y-114004362D01*
X109095576Y-114007082D01*
X109095575Y-114007087D01*
X109087240Y-114070396D01*
X109035998Y-114459616D01*
X109015969Y-114918361D01*
X97553589Y-114918361D01*
X97533560Y-114459616D01*
X97482318Y-114070396D01*
X97473983Y-114007087D01*
X97473982Y-114007082D01*
X97473624Y-114004362D01*
X97374239Y-113556064D01*
X97325745Y-113402260D01*
X97236990Y-113120763D01*
X97236987Y-113120755D01*
X97236161Y-113118135D01*
X97060439Y-112693906D01*
X96848412Y-112286606D01*
X96601694Y-111899336D01*
X96322162Y-111535042D01*
X96011943Y-111196497D01*
X95673398Y-110886278D01*
X95671236Y-110884619D01*
X95671230Y-110884614D01*
X95459422Y-110722089D01*
X95309104Y-110606746D01*
X94921834Y-110360028D01*
X94514534Y-110148001D01*
X94090305Y-109972279D01*
X94087685Y-109971453D01*
X94087677Y-109971450D01*
X93655006Y-109835030D01*
X93655001Y-109835029D01*
X93652376Y-109834201D01*
X93204078Y-109734816D01*
X93201358Y-109734458D01*
X93201353Y-109734457D01*
X93031344Y-109712075D01*
X92748824Y-109674880D01*
X92290079Y-109654851D01*
X91831334Y-109674880D01*
X91548814Y-109712075D01*
X91378805Y-109734457D01*
X91378800Y-109734458D01*
X91376080Y-109734816D01*
X90927782Y-109834201D01*
X90925157Y-109835029D01*
X90925152Y-109835030D01*
X90492481Y-109971450D01*
X90492473Y-109971453D01*
X90489853Y-109972279D01*
X90065624Y-110148001D01*
X89658324Y-110360028D01*
X89271054Y-110606746D01*
X89120736Y-110722089D01*
X88908928Y-110884614D01*
X88908922Y-110884619D01*
X88906760Y-110886278D01*
X88568215Y-111196497D01*
X88257996Y-111535042D01*
X87978464Y-111899336D01*
X87731746Y-112286606D01*
X87519719Y-112693906D01*
X87343997Y-113118135D01*
X87343171Y-113120755D01*
X87343168Y-113120763D01*
X87254413Y-113402260D01*
X87205919Y-113556064D01*
X87106534Y-114004362D01*
X87106176Y-114007082D01*
X87106175Y-114007087D01*
X87097840Y-114070396D01*
X87046598Y-114459616D01*
X87026569Y-114918361D01*
X75055558Y-114918361D01*
X75055527Y-114916586D01*
X75036340Y-114494058D01*
X75035824Y-114488380D01*
X74978567Y-114070396D01*
X74977540Y-114064796D01*
X74882634Y-113653717D01*
X74881100Y-113648221D01*
X74749333Y-113247447D01*
X74747303Y-113242105D01*
X74579756Y-112854929D01*
X74577252Y-112849795D01*
X74375306Y-112479397D01*
X74372343Y-112474506D01*
X74137659Y-112123938D01*
X74134264Y-112119335D01*
X73868781Y-111791491D01*
X73864976Y-111787204D01*
X73861812Y-111783951D01*
X73847982Y-111776147D01*
X73846612Y-111776226D01*
X73839290Y-111780860D01*
X70714601Y-114905549D01*
X70706987Y-114919493D01*
X69976935Y-114919493D01*
X69978171Y-114917229D01*
X69978040Y-114915396D01*
X69973789Y-114908781D01*
X66851407Y-111786399D01*
X66837463Y-111778785D01*
X66837270Y-111778798D01*
X66828448Y-111784777D01*
X66713055Y-111912038D01*
X66709403Y-111916452D01*
X66455517Y-112253370D01*
X66452283Y-112258094D01*
X66229984Y-112616626D01*
X66227190Y-112621625D01*
X66038299Y-112998831D01*
X66035965Y-113004073D01*
X65882039Y-113396847D01*
X65880196Y-113402260D01*
X65762496Y-113807385D01*
X65761154Y-113812935D01*
X65680655Y-114227065D01*
X65679822Y-114232706D01*
X65637189Y-114652419D01*
X65636869Y-114658143D01*
X65632451Y-115079986D01*
X63523816Y-115079986D01*
X63527879Y-115018814D01*
X63528013Y-115015307D01*
X63529010Y-114920134D01*
X63528948Y-114916586D01*
X63509761Y-114494058D01*
X63509245Y-114488380D01*
X63451988Y-114070396D01*
X63450961Y-114064796D01*
X63356055Y-113653717D01*
X63354521Y-113648221D01*
X63222754Y-113247447D01*
X63220724Y-113242105D01*
X63053177Y-112854929D01*
X63050673Y-112849795D01*
X62848727Y-112479397D01*
X62845764Y-112474506D01*
X62611080Y-112123938D01*
X62607685Y-112119335D01*
X62342202Y-111791491D01*
X62338397Y-111787204D01*
X62335233Y-111783951D01*
X62321403Y-111776147D01*
X62320033Y-111776226D01*
X62312711Y-111780860D01*
X59188022Y-114905549D01*
X59180408Y-114919493D01*
X58450356Y-114919493D01*
X58451592Y-114917229D01*
X58451461Y-114915396D01*
X58447210Y-114908781D01*
X55324828Y-111786399D01*
X55310884Y-111778785D01*
X55310691Y-111778798D01*
X55301869Y-111784777D01*
X55186476Y-111912038D01*
X55182824Y-111916452D01*
X54928938Y-112253370D01*
X54925704Y-112258094D01*
X54703405Y-112616626D01*
X54700611Y-112621625D01*
X54511720Y-112998831D01*
X54509386Y-113004073D01*
X54355460Y-113396847D01*
X54353617Y-113402260D01*
X54235917Y-113807385D01*
X54234575Y-113812935D01*
X54154076Y-114227065D01*
X54153243Y-114232706D01*
X54110610Y-114652419D01*
X54110290Y-114658143D01*
X54105872Y-115079986D01*
X52438075Y-115079986D01*
X52443358Y-115000453D01*
X52443492Y-114996946D01*
X52444489Y-114901773D01*
X52444427Y-114898225D01*
X52425240Y-114475697D01*
X52424724Y-114470019D01*
X52367467Y-114052035D01*
X52366440Y-114046435D01*
X52271534Y-113635356D01*
X52270000Y-113629860D01*
X52138233Y-113229086D01*
X52136203Y-113223744D01*
X51968656Y-112836568D01*
X51966152Y-112831434D01*
X51764206Y-112461036D01*
X51761243Y-112456145D01*
X51526559Y-112105577D01*
X51523164Y-112100974D01*
X51257681Y-111773130D01*
X51253876Y-111768843D01*
X51250712Y-111765590D01*
X51236882Y-111757786D01*
X51235512Y-111757865D01*
X51228190Y-111762499D01*
X48103501Y-114887188D01*
X48095887Y-114901132D01*
X47365835Y-114901132D01*
X47367071Y-114898868D01*
X47366940Y-114897035D01*
X47362689Y-114890420D01*
X44240307Y-111768038D01*
X44226363Y-111760424D01*
X44226170Y-111760437D01*
X44217348Y-111766416D01*
X44101955Y-111893677D01*
X44098303Y-111898091D01*
X43844417Y-112235009D01*
X43841183Y-112239733D01*
X43618884Y-112598265D01*
X43616090Y-112603264D01*
X43427199Y-112980470D01*
X43424865Y-112985712D01*
X43270939Y-113378486D01*
X43269096Y-113383899D01*
X43151396Y-113789024D01*
X43150054Y-113794574D01*
X43069555Y-114208704D01*
X43068722Y-114214345D01*
X43026089Y-114634058D01*
X43025769Y-114639782D01*
X43021351Y-115061625D01*
X41058500Y-115061625D01*
X41058500Y-111397162D01*
X44591651Y-111397162D01*
X44591663Y-111397593D01*
X44597030Y-111406341D01*
X47718667Y-114527978D01*
X47732611Y-114535592D01*
X47734444Y-114535461D01*
X47741059Y-114531210D01*
X50856746Y-111415523D01*
X55676172Y-111415523D01*
X55676184Y-111415954D01*
X55681551Y-111424702D01*
X58803188Y-114546339D01*
X58817132Y-114553953D01*
X58818965Y-114553822D01*
X58825580Y-114549571D01*
X61948788Y-111426363D01*
X61954707Y-111415523D01*
X67202751Y-111415523D01*
X67202763Y-111415954D01*
X67208130Y-111424702D01*
X70329767Y-114546339D01*
X70343711Y-114553953D01*
X70345544Y-114553822D01*
X70352159Y-114549571D01*
X73475367Y-111426363D01*
X73482775Y-111412796D01*
X73476033Y-111403140D01*
X73246376Y-111206301D01*
X73241883Y-111202790D01*
X72898006Y-110958409D01*
X72893183Y-110955301D01*
X72528580Y-110743097D01*
X72523515Y-110740450D01*
X72141171Y-110562159D01*
X72135878Y-110559978D01*
X71738950Y-110417074D01*
X71733490Y-110415385D01*
X71325242Y-110309044D01*
X71319652Y-110307856D01*
X70903440Y-110238953D01*
X70897775Y-110238277D01*
X70477020Y-110207379D01*
X70471319Y-110207220D01*
X70049496Y-110214582D01*
X70043808Y-110214940D01*
X69624406Y-110260502D01*
X69618736Y-110261380D01*
X69205201Y-110344763D01*
X69199656Y-110346145D01*
X68795362Y-110466671D01*
X68789958Y-110468553D01*
X68398266Y-110625218D01*
X68393059Y-110627580D01*
X68017160Y-110819110D01*
X68012195Y-110821931D01*
X67655211Y-111046736D01*
X67650516Y-111049999D01*
X67315378Y-111306231D01*
X67310998Y-111309905D01*
X67210938Y-111401916D01*
X67202751Y-111415523D01*
X61954707Y-111415523D01*
X61956196Y-111412796D01*
X61949454Y-111403140D01*
X61719797Y-111206301D01*
X61715304Y-111202790D01*
X61371427Y-110958409D01*
X61366604Y-110955301D01*
X61002001Y-110743097D01*
X60996936Y-110740450D01*
X60614592Y-110562159D01*
X60609299Y-110559978D01*
X60212371Y-110417074D01*
X60206911Y-110415385D01*
X59798663Y-110309044D01*
X59793073Y-110307856D01*
X59376861Y-110238953D01*
X59371196Y-110238277D01*
X58950441Y-110207379D01*
X58944740Y-110207220D01*
X58522917Y-110214582D01*
X58517229Y-110214940D01*
X58097827Y-110260502D01*
X58092157Y-110261380D01*
X57678622Y-110344763D01*
X57673077Y-110346145D01*
X57268783Y-110466671D01*
X57263379Y-110468553D01*
X56871687Y-110625218D01*
X56866480Y-110627580D01*
X56490581Y-110819110D01*
X56485616Y-110821931D01*
X56128632Y-111046736D01*
X56123937Y-111049999D01*
X55788799Y-111306231D01*
X55784419Y-111309905D01*
X55684359Y-111401916D01*
X55676172Y-111415523D01*
X50856746Y-111415523D01*
X50864267Y-111408002D01*
X50871675Y-111394435D01*
X50864933Y-111384779D01*
X50635276Y-111187940D01*
X50630783Y-111184429D01*
X50286906Y-110940048D01*
X50282083Y-110936940D01*
X49917480Y-110724736D01*
X49912415Y-110722089D01*
X49530071Y-110543798D01*
X49524778Y-110541617D01*
X49127850Y-110398713D01*
X49122390Y-110397024D01*
X48714142Y-110290683D01*
X48708552Y-110289495D01*
X48292340Y-110220592D01*
X48286675Y-110219916D01*
X47865920Y-110189018D01*
X47860219Y-110188859D01*
X47438396Y-110196221D01*
X47432708Y-110196579D01*
X47013306Y-110242141D01*
X47007636Y-110243019D01*
X46594101Y-110326402D01*
X46588556Y-110327784D01*
X46184262Y-110448310D01*
X46178858Y-110450192D01*
X45787166Y-110606857D01*
X45781959Y-110609219D01*
X45406060Y-110800749D01*
X45401095Y-110803570D01*
X45044111Y-111028375D01*
X45039416Y-111031638D01*
X44704278Y-111287870D01*
X44699898Y-111291544D01*
X44599838Y-111383555D01*
X44591651Y-111397162D01*
X41058500Y-111397162D01*
X41058500Y-103228250D01*
X41060246Y-103207345D01*
X41062770Y-103192344D01*
X41062770Y-103192341D01*
X41063576Y-103187552D01*
X41063729Y-103175000D01*
X41063039Y-103170182D01*
X41063036Y-103170135D01*
X41062162Y-103162256D01*
X41049934Y-103006889D01*
X41044535Y-102938289D01*
X40989105Y-102707406D01*
X40987211Y-102702832D01*
X40901883Y-102496832D01*
X40894294Y-102426242D01*
X40912974Y-102383315D01*
X40911490Y-102382453D01*
X40919165Y-102369239D01*
X41000326Y-102229510D01*
X41029436Y-102133398D01*
X41049473Y-102067239D01*
X41051595Y-102060233D01*
X41062547Y-101883702D01*
X41032594Y-101709386D01*
X41029728Y-101702650D01*
X40987199Y-101602700D01*
X40978933Y-101532186D01*
X40994186Y-101490083D01*
X40996646Y-101485847D01*
X40996649Y-101485841D01*
X41000326Y-101479510D01*
X41029436Y-101383398D01*
X41049473Y-101317239D01*
X41051595Y-101310233D01*
X41062547Y-101133702D01*
X41032594Y-100959386D01*
X41019136Y-100927758D01*
X40987199Y-100852700D01*
X40978933Y-100782186D01*
X40994186Y-100740083D01*
X40996646Y-100735847D01*
X40996649Y-100735841D01*
X41000326Y-100729510D01*
X41006507Y-100709104D01*
X41049473Y-100567239D01*
X41051595Y-100560233D01*
X41062547Y-100383702D01*
X41032594Y-100209386D01*
X40963343Y-100046636D01*
X40959009Y-100040747D01*
X40959004Y-100040738D01*
X40914866Y-99980761D01*
X40890600Y-99914040D01*
X40899939Y-99857862D01*
X40987211Y-99647168D01*
X40987213Y-99647161D01*
X40989105Y-99642594D01*
X41023067Y-99501132D01*
X41043380Y-99416524D01*
X41043381Y-99416518D01*
X41044535Y-99411711D01*
X41060512Y-99208704D01*
X41061871Y-99197684D01*
X41062768Y-99192356D01*
X41062768Y-99192351D01*
X41063576Y-99187552D01*
X41063729Y-99175000D01*
X41059773Y-99147376D01*
X41058500Y-99129514D01*
X41058500Y-95436807D01*
X44584651Y-95436807D01*
X44584732Y-95437940D01*
X44589710Y-95445512D01*
X44619522Y-95474100D01*
X44623799Y-95477845D01*
X44953535Y-95741070D01*
X44958118Y-95744400D01*
X45310349Y-95976653D01*
X45315245Y-95979571D01*
X45687033Y-96178922D01*
X45692206Y-96181401D01*
X46080550Y-96346243D01*
X46085885Y-96348227D01*
X46487575Y-96477196D01*
X46493076Y-96478691D01*
X46904808Y-96570723D01*
X46910420Y-96571712D01*
X47328785Y-96626049D01*
X47334491Y-96626528D01*
X47756040Y-96642722D01*
X47761766Y-96642682D01*
X48183055Y-96620604D01*
X48188736Y-96620047D01*
X48606312Y-96559873D01*
X48611907Y-96558805D01*
X49022311Y-96461033D01*
X49027792Y-96459462D01*
X49427635Y-96324900D01*
X49432965Y-96322832D01*
X49818968Y-96152585D01*
X49824075Y-96150050D01*
X50193059Y-95945519D01*
X50197925Y-95942525D01*
X50546843Y-95705401D01*
X50551438Y-95701963D01*
X50859934Y-95448561D01*
X50868395Y-95436129D01*
X50862145Y-95425273D01*
X47738812Y-92301940D01*
X47724868Y-92294326D01*
X47723035Y-92294457D01*
X47716420Y-92298708D01*
X44592265Y-95422863D01*
X44584651Y-95436807D01*
X41058500Y-95436807D01*
X41058500Y-92091543D01*
X43015872Y-92091543D01*
X43016071Y-92097248D01*
X43049905Y-92517764D01*
X43050623Y-92523441D01*
X43122426Y-92939140D01*
X43123657Y-92944740D01*
X43232847Y-93352243D01*
X43234571Y-93357676D01*
X43380247Y-93753612D01*
X43382455Y-93758866D01*
X43563417Y-94139972D01*
X43566098Y-94145012D01*
X43780844Y-94508127D01*
X43783985Y-94512927D01*
X44030752Y-94855079D01*
X44034307Y-94859566D01*
X44209754Y-95061395D01*
X44222884Y-95069803D01*
X44232797Y-95063911D01*
X47353978Y-91942730D01*
X47360356Y-91931050D01*
X48090408Y-91931050D01*
X48090539Y-91932883D01*
X48094790Y-91939498D01*
X51218612Y-95063320D01*
X51232058Y-95070662D01*
X51241894Y-95063742D01*
X51458238Y-94807735D01*
X51461724Y-94803208D01*
X51703705Y-94457622D01*
X51706762Y-94452806D01*
X51916423Y-94086717D01*
X51919035Y-94081635D01*
X52094655Y-93698047D01*
X52096794Y-93692754D01*
X52236924Y-93294833D01*
X52238577Y-93289359D01*
X52342064Y-92880383D01*
X52343215Y-92874777D01*
X52409211Y-92458089D01*
X52409846Y-92452427D01*
X52437879Y-92030371D01*
X52438013Y-92026864D01*
X52439010Y-91931691D01*
X52438979Y-91929918D01*
X65039781Y-91929918D01*
X65059810Y-92388663D01*
X65119746Y-92843917D01*
X65219131Y-93292215D01*
X65219959Y-93294840D01*
X65219960Y-93294845D01*
X65239771Y-93357676D01*
X65357209Y-93730144D01*
X65502802Y-94081635D01*
X65529054Y-94145012D01*
X65532931Y-94154373D01*
X65744958Y-94561673D01*
X65991676Y-94948943D01*
X66271208Y-95313237D01*
X66581427Y-95651782D01*
X66919972Y-95962001D01*
X66922134Y-95963660D01*
X66922140Y-95963665D01*
X67046148Y-96058819D01*
X67284266Y-96241533D01*
X67671536Y-96488251D01*
X68078836Y-96700278D01*
X68503065Y-96876000D01*
X68505685Y-96876826D01*
X68505693Y-96876829D01*
X68938364Y-97013249D01*
X68938369Y-97013250D01*
X68940994Y-97014078D01*
X69389292Y-97113463D01*
X69392012Y-97113821D01*
X69392017Y-97113822D01*
X69562026Y-97136204D01*
X69844546Y-97173399D01*
X70303291Y-97193428D01*
X70762036Y-97173399D01*
X71044556Y-97136204D01*
X71214565Y-97113822D01*
X71214570Y-97113821D01*
X71217290Y-97113463D01*
X71665588Y-97014078D01*
X71668213Y-97013250D01*
X71668218Y-97013249D01*
X72100889Y-96876829D01*
X72100897Y-96876826D01*
X72103517Y-96876000D01*
X72527746Y-96700278D01*
X72935046Y-96488251D01*
X73322316Y-96241533D01*
X73560434Y-96058819D01*
X73684442Y-95963665D01*
X73684448Y-95963660D01*
X73686610Y-95962001D01*
X74025155Y-95651782D01*
X74335374Y-95313237D01*
X74614906Y-94948943D01*
X74861624Y-94561673D01*
X75073651Y-94154373D01*
X75077529Y-94145012D01*
X75103780Y-94081635D01*
X75249373Y-93730144D01*
X75366812Y-93357676D01*
X75386622Y-93294845D01*
X75386623Y-93294840D01*
X75387451Y-93292215D01*
X75486836Y-92843917D01*
X75546772Y-92388663D01*
X75566801Y-91929918D01*
X87026569Y-91929918D01*
X87046598Y-92388663D01*
X87106534Y-92843917D01*
X87205919Y-93292215D01*
X87206747Y-93294840D01*
X87206748Y-93294845D01*
X87226559Y-93357676D01*
X87343997Y-93730144D01*
X87489590Y-94081635D01*
X87515842Y-94145012D01*
X87519719Y-94154373D01*
X87731746Y-94561673D01*
X87978464Y-94948943D01*
X88257996Y-95313237D01*
X88568215Y-95651782D01*
X88906760Y-95962001D01*
X88908922Y-95963660D01*
X88908928Y-95963665D01*
X89032936Y-96058819D01*
X89271054Y-96241533D01*
X89658324Y-96488251D01*
X90065624Y-96700278D01*
X90489853Y-96876000D01*
X90492473Y-96876826D01*
X90492481Y-96876829D01*
X90925152Y-97013249D01*
X90925157Y-97013250D01*
X90927782Y-97014078D01*
X91376080Y-97113463D01*
X91378800Y-97113821D01*
X91378805Y-97113822D01*
X91548814Y-97136204D01*
X91831334Y-97173399D01*
X92290079Y-97193428D01*
X92748824Y-97173399D01*
X93031344Y-97136204D01*
X93201353Y-97113822D01*
X93201358Y-97113821D01*
X93204078Y-97113463D01*
X93652376Y-97014078D01*
X93655001Y-97013250D01*
X93655006Y-97013249D01*
X94087677Y-96876829D01*
X94087685Y-96876826D01*
X94090305Y-96876000D01*
X94514534Y-96700278D01*
X94921834Y-96488251D01*
X95309104Y-96241533D01*
X95547222Y-96058819D01*
X95671230Y-95963665D01*
X95671236Y-95963660D01*
X95673398Y-95962001D01*
X96011943Y-95651782D01*
X96322162Y-95313237D01*
X96601694Y-94948943D01*
X96848412Y-94561673D01*
X97060439Y-94154373D01*
X97064317Y-94145012D01*
X97090568Y-94081635D01*
X97236161Y-93730144D01*
X97353600Y-93357676D01*
X97373410Y-93294845D01*
X97373411Y-93294840D01*
X97374239Y-93292215D01*
X97473624Y-92843917D01*
X97533560Y-92388663D01*
X97553589Y-91929918D01*
X109015969Y-91929918D01*
X109035998Y-92388663D01*
X109095934Y-92843917D01*
X109195319Y-93292215D01*
X109196147Y-93294840D01*
X109196148Y-93294845D01*
X109215959Y-93357676D01*
X109333397Y-93730144D01*
X109478990Y-94081635D01*
X109505242Y-94145012D01*
X109509119Y-94154373D01*
X109721146Y-94561673D01*
X109967864Y-94948943D01*
X110247396Y-95313237D01*
X110557615Y-95651782D01*
X110896160Y-95962001D01*
X110898322Y-95963660D01*
X110898328Y-95963665D01*
X111022336Y-96058819D01*
X111260454Y-96241533D01*
X111647724Y-96488251D01*
X112055024Y-96700278D01*
X112479253Y-96876000D01*
X112481873Y-96876826D01*
X112481881Y-96876829D01*
X112914552Y-97013249D01*
X112914557Y-97013250D01*
X112917182Y-97014078D01*
X113365480Y-97113463D01*
X113368200Y-97113821D01*
X113368205Y-97113822D01*
X113538214Y-97136204D01*
X113820734Y-97173399D01*
X114279479Y-97193428D01*
X114738224Y-97173399D01*
X115020744Y-97136204D01*
X115190753Y-97113822D01*
X115190758Y-97113821D01*
X115193478Y-97113463D01*
X115641776Y-97014078D01*
X115644401Y-97013250D01*
X115644406Y-97013249D01*
X116077077Y-96876829D01*
X116077085Y-96876826D01*
X116079705Y-96876000D01*
X116503934Y-96700278D01*
X116911234Y-96488251D01*
X117298504Y-96241533D01*
X117536622Y-96058819D01*
X117660630Y-95963665D01*
X117660636Y-95963660D01*
X117662798Y-95962001D01*
X118001343Y-95651782D01*
X118311562Y-95313237D01*
X118591094Y-94948943D01*
X118837812Y-94561673D01*
X119049839Y-94154373D01*
X119053717Y-94145012D01*
X119079968Y-94081635D01*
X119225561Y-93730144D01*
X119343000Y-93357676D01*
X119362810Y-93294845D01*
X119362811Y-93294840D01*
X119363639Y-93292215D01*
X119463024Y-92843917D01*
X119522960Y-92388663D01*
X119542989Y-91929918D01*
X119522960Y-91471173D01*
X119471718Y-91081953D01*
X119463383Y-91018644D01*
X119463382Y-91018639D01*
X119463024Y-91015919D01*
X119363639Y-90567621D01*
X119315145Y-90413817D01*
X119226390Y-90132320D01*
X119226387Y-90132312D01*
X119225561Y-90129692D01*
X119049839Y-89705463D01*
X118837812Y-89298163D01*
X118591094Y-88910893D01*
X118311562Y-88546599D01*
X118001343Y-88208054D01*
X117662798Y-87897835D01*
X117660636Y-87896176D01*
X117660630Y-87896171D01*
X117472751Y-87752007D01*
X117298504Y-87618303D01*
X116911234Y-87371585D01*
X116503934Y-87159558D01*
X116079705Y-86983836D01*
X116077085Y-86983010D01*
X116077077Y-86983007D01*
X115644406Y-86846587D01*
X115644401Y-86846586D01*
X115641776Y-86845758D01*
X115193478Y-86746373D01*
X115190758Y-86746015D01*
X115190753Y-86746014D01*
X115020744Y-86723632D01*
X114738224Y-86686437D01*
X114279479Y-86666408D01*
X113820734Y-86686437D01*
X113538214Y-86723632D01*
X113368205Y-86746014D01*
X113368200Y-86746015D01*
X113365480Y-86746373D01*
X112917182Y-86845758D01*
X112914557Y-86846586D01*
X112914552Y-86846587D01*
X112481881Y-86983007D01*
X112481873Y-86983010D01*
X112479253Y-86983836D01*
X112055024Y-87159558D01*
X111647724Y-87371585D01*
X111260454Y-87618303D01*
X111086207Y-87752007D01*
X110898328Y-87896171D01*
X110898322Y-87896176D01*
X110896160Y-87897835D01*
X110557615Y-88208054D01*
X110247396Y-88546599D01*
X109967864Y-88910893D01*
X109721146Y-89298163D01*
X109509119Y-89705463D01*
X109333397Y-90129692D01*
X109332571Y-90132312D01*
X109332568Y-90132320D01*
X109243813Y-90413817D01*
X109195319Y-90567621D01*
X109095934Y-91015919D01*
X109095576Y-91018639D01*
X109095575Y-91018644D01*
X109087240Y-91081953D01*
X109035998Y-91471173D01*
X109015969Y-91929918D01*
X97553589Y-91929918D01*
X97533560Y-91471173D01*
X97482318Y-91081953D01*
X97473983Y-91018644D01*
X97473982Y-91018639D01*
X97473624Y-91015919D01*
X97374239Y-90567621D01*
X97325745Y-90413817D01*
X97236990Y-90132320D01*
X97236987Y-90132312D01*
X97236161Y-90129692D01*
X97060439Y-89705463D01*
X96848412Y-89298163D01*
X96601694Y-88910893D01*
X96322162Y-88546599D01*
X96011943Y-88208054D01*
X95673398Y-87897835D01*
X95671236Y-87896176D01*
X95671230Y-87896171D01*
X95483351Y-87752007D01*
X95309104Y-87618303D01*
X94921834Y-87371585D01*
X94514534Y-87159558D01*
X94090305Y-86983836D01*
X94087685Y-86983010D01*
X94087677Y-86983007D01*
X93655006Y-86846587D01*
X93655001Y-86846586D01*
X93652376Y-86845758D01*
X93204078Y-86746373D01*
X93201358Y-86746015D01*
X93201353Y-86746014D01*
X93031344Y-86723632D01*
X92748824Y-86686437D01*
X92290079Y-86666408D01*
X91831334Y-86686437D01*
X91548814Y-86723632D01*
X91378805Y-86746014D01*
X91378800Y-86746015D01*
X91376080Y-86746373D01*
X90927782Y-86845758D01*
X90925157Y-86846586D01*
X90925152Y-86846587D01*
X90492481Y-86983007D01*
X90492473Y-86983010D01*
X90489853Y-86983836D01*
X90065624Y-87159558D01*
X89658324Y-87371585D01*
X89271054Y-87618303D01*
X89096807Y-87752007D01*
X88908928Y-87896171D01*
X88908922Y-87896176D01*
X88906760Y-87897835D01*
X88568215Y-88208054D01*
X88257996Y-88546599D01*
X87978464Y-88910893D01*
X87731746Y-89298163D01*
X87519719Y-89705463D01*
X87343997Y-90129692D01*
X87343171Y-90132312D01*
X87343168Y-90132320D01*
X87254413Y-90413817D01*
X87205919Y-90567621D01*
X87106534Y-91015919D01*
X87106176Y-91018639D01*
X87106175Y-91018644D01*
X87097840Y-91081953D01*
X87046598Y-91471173D01*
X87026569Y-91929918D01*
X75566801Y-91929918D01*
X75546772Y-91471173D01*
X75495530Y-91081953D01*
X75487195Y-91018644D01*
X75487194Y-91018639D01*
X75486836Y-91015919D01*
X75387451Y-90567621D01*
X75338957Y-90413817D01*
X75250202Y-90132320D01*
X75250199Y-90132312D01*
X75249373Y-90129692D01*
X75073651Y-89705463D01*
X74861624Y-89298163D01*
X74614906Y-88910893D01*
X74335374Y-88546599D01*
X74025155Y-88208054D01*
X73686610Y-87897835D01*
X73684448Y-87896176D01*
X73684442Y-87896171D01*
X73496563Y-87752007D01*
X73322316Y-87618303D01*
X72935046Y-87371585D01*
X72527746Y-87159558D01*
X72103517Y-86983836D01*
X72100897Y-86983010D01*
X72100889Y-86983007D01*
X71668218Y-86846587D01*
X71668213Y-86846586D01*
X71665588Y-86845758D01*
X71217290Y-86746373D01*
X71214570Y-86746015D01*
X71214565Y-86746014D01*
X71044556Y-86723632D01*
X70762036Y-86686437D01*
X70303291Y-86666408D01*
X69844546Y-86686437D01*
X69562026Y-86723632D01*
X69392017Y-86746014D01*
X69392012Y-86746015D01*
X69389292Y-86746373D01*
X68940994Y-86845758D01*
X68938369Y-86846586D01*
X68938364Y-86846587D01*
X68505693Y-86983007D01*
X68505685Y-86983010D01*
X68503065Y-86983836D01*
X68078836Y-87159558D01*
X67671536Y-87371585D01*
X67284266Y-87618303D01*
X67110019Y-87752007D01*
X66922140Y-87896171D01*
X66922134Y-87896176D01*
X66919972Y-87897835D01*
X66581427Y-88208054D01*
X66271208Y-88546599D01*
X65991676Y-88910893D01*
X65744958Y-89298163D01*
X65532931Y-89705463D01*
X65357209Y-90129692D01*
X65356383Y-90132312D01*
X65356380Y-90132320D01*
X65267625Y-90413817D01*
X65219131Y-90567621D01*
X65119746Y-91015919D01*
X65119388Y-91018639D01*
X65119387Y-91018644D01*
X65111052Y-91081953D01*
X65059810Y-91471173D01*
X65039781Y-91929918D01*
X52438979Y-91929918D01*
X52438948Y-91928143D01*
X52419761Y-91505615D01*
X52419245Y-91499937D01*
X52361988Y-91081953D01*
X52360961Y-91076353D01*
X52266055Y-90665274D01*
X52264521Y-90659778D01*
X52132754Y-90259004D01*
X52130724Y-90253662D01*
X51963177Y-89866486D01*
X51960673Y-89861352D01*
X51758727Y-89490954D01*
X51755764Y-89486063D01*
X51521080Y-89135495D01*
X51517685Y-89130892D01*
X51252202Y-88803048D01*
X51248397Y-88798761D01*
X51245233Y-88795508D01*
X51231403Y-88787704D01*
X51230033Y-88787783D01*
X51222711Y-88792417D01*
X48098022Y-91917106D01*
X48090408Y-91931050D01*
X47360356Y-91931050D01*
X47361592Y-91928786D01*
X47361461Y-91926953D01*
X47357210Y-91920338D01*
X44234828Y-88797956D01*
X44220884Y-88790342D01*
X44220691Y-88790355D01*
X44211869Y-88796334D01*
X44096476Y-88923595D01*
X44092824Y-88928009D01*
X43838938Y-89264927D01*
X43835704Y-89269651D01*
X43613405Y-89628183D01*
X43610611Y-89633182D01*
X43421720Y-90010388D01*
X43419386Y-90015630D01*
X43265460Y-90408404D01*
X43263617Y-90413817D01*
X43145917Y-90818942D01*
X43144575Y-90824492D01*
X43064076Y-91238622D01*
X43063243Y-91244263D01*
X43020610Y-91663976D01*
X43020290Y-91669700D01*
X43015872Y-92091543D01*
X41058500Y-92091543D01*
X41058500Y-88427080D01*
X44586172Y-88427080D01*
X44586184Y-88427511D01*
X44591551Y-88436259D01*
X47713188Y-91557896D01*
X47727132Y-91565510D01*
X47728965Y-91565379D01*
X47735580Y-91561128D01*
X50858788Y-88437920D01*
X50866196Y-88424353D01*
X50859454Y-88414697D01*
X50629797Y-88217858D01*
X50625304Y-88214347D01*
X50281427Y-87969966D01*
X50276604Y-87966858D01*
X49912001Y-87754654D01*
X49906936Y-87752007D01*
X49524592Y-87573716D01*
X49519299Y-87571535D01*
X49122371Y-87428631D01*
X49116911Y-87426942D01*
X48708663Y-87320601D01*
X48703073Y-87319413D01*
X48286861Y-87250510D01*
X48281196Y-87249834D01*
X47860441Y-87218936D01*
X47854740Y-87218777D01*
X47432917Y-87226139D01*
X47427229Y-87226497D01*
X47007827Y-87272059D01*
X47002157Y-87272937D01*
X46588622Y-87356320D01*
X46583077Y-87357702D01*
X46178783Y-87478228D01*
X46173379Y-87480110D01*
X45781687Y-87636775D01*
X45776480Y-87639137D01*
X45400581Y-87830667D01*
X45395616Y-87833488D01*
X45038632Y-88058293D01*
X45033937Y-88061556D01*
X44698799Y-88317788D01*
X44694419Y-88321462D01*
X44594359Y-88413473D01*
X44586172Y-88427080D01*
X41058500Y-88427080D01*
X41058500Y-83228250D01*
X41060246Y-83207345D01*
X41062770Y-83192344D01*
X41062770Y-83192341D01*
X41063576Y-83187552D01*
X41063729Y-83175000D01*
X41063039Y-83170182D01*
X41063036Y-83170135D01*
X41062162Y-83162256D01*
X41053153Y-83047790D01*
X41044535Y-82938289D01*
X41032431Y-82887870D01*
X41007597Y-82784429D01*
X40989105Y-82707406D01*
X40987211Y-82702832D01*
X40901883Y-82496832D01*
X40894294Y-82426242D01*
X40912974Y-82383315D01*
X40911490Y-82382453D01*
X40919165Y-82369239D01*
X41000326Y-82229510D01*
X41029436Y-82133398D01*
X41049473Y-82067239D01*
X41051595Y-82060233D01*
X41062547Y-81883702D01*
X41055557Y-81843019D01*
X41033834Y-81716602D01*
X41033834Y-81716601D01*
X41032594Y-81709386D01*
X41029728Y-81702650D01*
X40987199Y-81602700D01*
X40978933Y-81532186D01*
X40994186Y-81490083D01*
X40996646Y-81485847D01*
X40996649Y-81485841D01*
X41000326Y-81479510D01*
X41029436Y-81383398D01*
X41049473Y-81317239D01*
X41051595Y-81310233D01*
X41062547Y-81133702D01*
X41032594Y-80959386D01*
X41029728Y-80952650D01*
X40987199Y-80852700D01*
X40978933Y-80782186D01*
X40994186Y-80740083D01*
X40996646Y-80735847D01*
X40996649Y-80735841D01*
X41000326Y-80729510D01*
X41012849Y-80688165D01*
X41049473Y-80567239D01*
X41051595Y-80560233D01*
X41062547Y-80383702D01*
X41032594Y-80209386D01*
X40963343Y-80046636D01*
X40959009Y-80040747D01*
X40959004Y-80040738D01*
X40914866Y-79980761D01*
X40890600Y-79914040D01*
X40899939Y-79857862D01*
X40987211Y-79647168D01*
X40987213Y-79647161D01*
X40989105Y-79642594D01*
X41044535Y-79411711D01*
X41060512Y-79208704D01*
X41061871Y-79197684D01*
X41062768Y-79192356D01*
X41062768Y-79192351D01*
X41063576Y-79187552D01*
X41063729Y-79175000D01*
X41059773Y-79147376D01*
X41058500Y-79129514D01*
X41058500Y-72156889D01*
X44584651Y-72156889D01*
X44584732Y-72158022D01*
X44589710Y-72165594D01*
X44619522Y-72194182D01*
X44623799Y-72197927D01*
X44953535Y-72461152D01*
X44958118Y-72464482D01*
X45310349Y-72696735D01*
X45315245Y-72699653D01*
X45687033Y-72899004D01*
X45692206Y-72901483D01*
X46080550Y-73066325D01*
X46085885Y-73068309D01*
X46487575Y-73197278D01*
X46493076Y-73198773D01*
X46904808Y-73290805D01*
X46910420Y-73291794D01*
X47328785Y-73346131D01*
X47334491Y-73346610D01*
X47756040Y-73362804D01*
X47761766Y-73362764D01*
X48183055Y-73340686D01*
X48188736Y-73340129D01*
X48606312Y-73279955D01*
X48611907Y-73278887D01*
X49022311Y-73181115D01*
X49027792Y-73179544D01*
X49427635Y-73044982D01*
X49432965Y-73042914D01*
X49818968Y-72872667D01*
X49824075Y-72870132D01*
X50193059Y-72665601D01*
X50197925Y-72662607D01*
X50546843Y-72425483D01*
X50551438Y-72422045D01*
X50859934Y-72168643D01*
X50868395Y-72156211D01*
X50862145Y-72145355D01*
X47738812Y-69022022D01*
X47724868Y-69014408D01*
X47723035Y-69014539D01*
X47716420Y-69018790D01*
X44592265Y-72142945D01*
X44584651Y-72156889D01*
X41058500Y-72156889D01*
X41058500Y-68811625D01*
X43015872Y-68811625D01*
X43016071Y-68817330D01*
X43049905Y-69237846D01*
X43050623Y-69243523D01*
X43122426Y-69659222D01*
X43123657Y-69664822D01*
X43232847Y-70072325D01*
X43234571Y-70077758D01*
X43380247Y-70473694D01*
X43382455Y-70478948D01*
X43563417Y-70860054D01*
X43566098Y-70865094D01*
X43780844Y-71228209D01*
X43783985Y-71233009D01*
X44030752Y-71575161D01*
X44034307Y-71579648D01*
X44209754Y-71781477D01*
X44222884Y-71789885D01*
X44232797Y-71783993D01*
X47353978Y-68662812D01*
X47360356Y-68651132D01*
X48090408Y-68651132D01*
X48090539Y-68652965D01*
X48094790Y-68659580D01*
X51218612Y-71783402D01*
X51232058Y-71790744D01*
X51241894Y-71783824D01*
X51458238Y-71527817D01*
X51461724Y-71523290D01*
X51703705Y-71177704D01*
X51706762Y-71172888D01*
X51916423Y-70806799D01*
X51919035Y-70801717D01*
X52094655Y-70418129D01*
X52096794Y-70412836D01*
X52236924Y-70014915D01*
X52238577Y-70009441D01*
X52342064Y-69600465D01*
X52343215Y-69594859D01*
X52409211Y-69178171D01*
X52409846Y-69172509D01*
X52437879Y-68750453D01*
X52438013Y-68746946D01*
X52439010Y-68651773D01*
X52438979Y-68650000D01*
X65039781Y-68650000D01*
X65059810Y-69108745D01*
X65119746Y-69563999D01*
X65219131Y-70012297D01*
X65219959Y-70014922D01*
X65219960Y-70014927D01*
X65298103Y-70262764D01*
X65357209Y-70450226D01*
X65502802Y-70801717D01*
X65529054Y-70865094D01*
X65532931Y-70874455D01*
X65744958Y-71281755D01*
X65991676Y-71669025D01*
X66271208Y-72033319D01*
X66581427Y-72371864D01*
X66919972Y-72682083D01*
X66922134Y-72683742D01*
X66922140Y-72683747D01*
X67046148Y-72778901D01*
X67284266Y-72961615D01*
X67671536Y-73208333D01*
X68078836Y-73420360D01*
X68503065Y-73596082D01*
X68505685Y-73596908D01*
X68505693Y-73596911D01*
X68938364Y-73733331D01*
X68938369Y-73733332D01*
X68940994Y-73734160D01*
X69389292Y-73833545D01*
X69392012Y-73833903D01*
X69392017Y-73833904D01*
X69562026Y-73856286D01*
X69844546Y-73893481D01*
X70303291Y-73913510D01*
X70762036Y-73893481D01*
X71044556Y-73856286D01*
X71214565Y-73833904D01*
X71214570Y-73833903D01*
X71217290Y-73833545D01*
X71665588Y-73734160D01*
X71668213Y-73733332D01*
X71668218Y-73733331D01*
X72100889Y-73596911D01*
X72100897Y-73596908D01*
X72103517Y-73596082D01*
X72527746Y-73420360D01*
X72935046Y-73208333D01*
X73322316Y-72961615D01*
X73560434Y-72778901D01*
X73684442Y-72683747D01*
X73684448Y-72683742D01*
X73686610Y-72682083D01*
X74025155Y-72371864D01*
X74335374Y-72033319D01*
X74614906Y-71669025D01*
X74861624Y-71281755D01*
X75073651Y-70874455D01*
X75077529Y-70865094D01*
X75103780Y-70801717D01*
X75249373Y-70450226D01*
X75308480Y-70262764D01*
X75386622Y-70014927D01*
X75386623Y-70014922D01*
X75387451Y-70012297D01*
X75486836Y-69563999D01*
X75546772Y-69108745D01*
X75566801Y-68650000D01*
X87026569Y-68650000D01*
X87046598Y-69108745D01*
X87106534Y-69563999D01*
X87205919Y-70012297D01*
X87206747Y-70014922D01*
X87206748Y-70014927D01*
X87284891Y-70262764D01*
X87343997Y-70450226D01*
X87489590Y-70801717D01*
X87515842Y-70865094D01*
X87519719Y-70874455D01*
X87731746Y-71281755D01*
X87978464Y-71669025D01*
X88257996Y-72033319D01*
X88568215Y-72371864D01*
X88906760Y-72682083D01*
X88908922Y-72683742D01*
X88908928Y-72683747D01*
X89032936Y-72778901D01*
X89271054Y-72961615D01*
X89658324Y-73208333D01*
X90065624Y-73420360D01*
X90489853Y-73596082D01*
X90492473Y-73596908D01*
X90492481Y-73596911D01*
X90925152Y-73733331D01*
X90925157Y-73733332D01*
X90927782Y-73734160D01*
X91376080Y-73833545D01*
X91378800Y-73833903D01*
X91378805Y-73833904D01*
X91548814Y-73856286D01*
X91831334Y-73893481D01*
X92290079Y-73913510D01*
X92748824Y-73893481D01*
X93031344Y-73856286D01*
X93201353Y-73833904D01*
X93201358Y-73833903D01*
X93204078Y-73833545D01*
X93652376Y-73734160D01*
X93655001Y-73733332D01*
X93655006Y-73733331D01*
X94087677Y-73596911D01*
X94087685Y-73596908D01*
X94090305Y-73596082D01*
X94514534Y-73420360D01*
X94921834Y-73208333D01*
X95309104Y-72961615D01*
X95547222Y-72778901D01*
X95671230Y-72683747D01*
X95671236Y-72683742D01*
X95673398Y-72682083D01*
X96011943Y-72371864D01*
X96322162Y-72033319D01*
X96601694Y-71669025D01*
X96848412Y-71281755D01*
X97060439Y-70874455D01*
X97064317Y-70865094D01*
X97090568Y-70801717D01*
X97236161Y-70450226D01*
X97295268Y-70262764D01*
X97373410Y-70014927D01*
X97373411Y-70014922D01*
X97374239Y-70012297D01*
X97473624Y-69563999D01*
X97533560Y-69108745D01*
X97553589Y-68650000D01*
X109015969Y-68650000D01*
X109035998Y-69108745D01*
X109095934Y-69563999D01*
X109195319Y-70012297D01*
X109196147Y-70014922D01*
X109196148Y-70014927D01*
X109274291Y-70262764D01*
X109333397Y-70450226D01*
X109478990Y-70801717D01*
X109505242Y-70865094D01*
X109509119Y-70874455D01*
X109721146Y-71281755D01*
X109967864Y-71669025D01*
X110247396Y-72033319D01*
X110557615Y-72371864D01*
X110896160Y-72682083D01*
X110898322Y-72683742D01*
X110898328Y-72683747D01*
X111022336Y-72778901D01*
X111260454Y-72961615D01*
X111647724Y-73208333D01*
X112055024Y-73420360D01*
X112479253Y-73596082D01*
X112481873Y-73596908D01*
X112481881Y-73596911D01*
X112914552Y-73733331D01*
X112914557Y-73733332D01*
X112917182Y-73734160D01*
X113365480Y-73833545D01*
X113368200Y-73833903D01*
X113368205Y-73833904D01*
X113538214Y-73856286D01*
X113820734Y-73893481D01*
X114279479Y-73913510D01*
X114738224Y-73893481D01*
X115020744Y-73856286D01*
X115190753Y-73833904D01*
X115190758Y-73833903D01*
X115193478Y-73833545D01*
X115641776Y-73734160D01*
X115644401Y-73733332D01*
X115644406Y-73733331D01*
X116077077Y-73596911D01*
X116077085Y-73596908D01*
X116079705Y-73596082D01*
X116503934Y-73420360D01*
X116911234Y-73208333D01*
X117298504Y-72961615D01*
X117536622Y-72778901D01*
X117660630Y-72683747D01*
X117660636Y-72683742D01*
X117662798Y-72682083D01*
X118001343Y-72371864D01*
X118311562Y-72033319D01*
X118591094Y-71669025D01*
X118837812Y-71281755D01*
X119049839Y-70874455D01*
X119053717Y-70865094D01*
X119079968Y-70801717D01*
X119225561Y-70450226D01*
X119284668Y-70262764D01*
X119362810Y-70014927D01*
X119362811Y-70014922D01*
X119363639Y-70012297D01*
X119463024Y-69563999D01*
X119522960Y-69108745D01*
X119542989Y-68650000D01*
X119522960Y-68191255D01*
X119471718Y-67802035D01*
X119463383Y-67738726D01*
X119463382Y-67738721D01*
X119463024Y-67736001D01*
X119363639Y-67287703D01*
X119315145Y-67133899D01*
X119226390Y-66852402D01*
X119226387Y-66852394D01*
X119225561Y-66849774D01*
X119054552Y-66436922D01*
X119050892Y-66428087D01*
X119050891Y-66428086D01*
X119049839Y-66425545D01*
X118837812Y-66018245D01*
X118591094Y-65630975D01*
X118311562Y-65266681D01*
X118001343Y-64928136D01*
X117662798Y-64617917D01*
X117660636Y-64616258D01*
X117660630Y-64616253D01*
X117472751Y-64472089D01*
X117298504Y-64338385D01*
X116911234Y-64091667D01*
X116503934Y-63879640D01*
X116079705Y-63703918D01*
X116077085Y-63703092D01*
X116077077Y-63703089D01*
X115644406Y-63566669D01*
X115644401Y-63566668D01*
X115641776Y-63565840D01*
X115193478Y-63466455D01*
X115190758Y-63466097D01*
X115190753Y-63466096D01*
X115020744Y-63443714D01*
X114738224Y-63406519D01*
X114279479Y-63386490D01*
X113820734Y-63406519D01*
X113538214Y-63443714D01*
X113368205Y-63466096D01*
X113368200Y-63466097D01*
X113365480Y-63466455D01*
X112917182Y-63565840D01*
X112914557Y-63566668D01*
X112914552Y-63566669D01*
X112481881Y-63703089D01*
X112481873Y-63703092D01*
X112479253Y-63703918D01*
X112055024Y-63879640D01*
X111647724Y-64091667D01*
X111260454Y-64338385D01*
X111086207Y-64472089D01*
X110898328Y-64616253D01*
X110898322Y-64616258D01*
X110896160Y-64617917D01*
X110557615Y-64928136D01*
X110247396Y-65266681D01*
X109967864Y-65630975D01*
X109721146Y-66018245D01*
X109509119Y-66425545D01*
X109508067Y-66428086D01*
X109508066Y-66428087D01*
X109504406Y-66436922D01*
X109333397Y-66849774D01*
X109332571Y-66852394D01*
X109332568Y-66852402D01*
X109243813Y-67133899D01*
X109195319Y-67287703D01*
X109095934Y-67736001D01*
X109095576Y-67738721D01*
X109095575Y-67738726D01*
X109087240Y-67802035D01*
X109035998Y-68191255D01*
X109015969Y-68650000D01*
X97553589Y-68650000D01*
X97533560Y-68191255D01*
X97482318Y-67802035D01*
X97473983Y-67738726D01*
X97473982Y-67738721D01*
X97473624Y-67736001D01*
X97374239Y-67287703D01*
X97325745Y-67133899D01*
X97236990Y-66852402D01*
X97236987Y-66852394D01*
X97236161Y-66849774D01*
X97065152Y-66436922D01*
X97061492Y-66428087D01*
X97061491Y-66428086D01*
X97060439Y-66425545D01*
X96848412Y-66018245D01*
X96601694Y-65630975D01*
X96322162Y-65266681D01*
X96011943Y-64928136D01*
X95673398Y-64617917D01*
X95671236Y-64616258D01*
X95671230Y-64616253D01*
X95483351Y-64472089D01*
X95309104Y-64338385D01*
X94921834Y-64091667D01*
X94514534Y-63879640D01*
X94090305Y-63703918D01*
X94087685Y-63703092D01*
X94087677Y-63703089D01*
X93655006Y-63566669D01*
X93655001Y-63566668D01*
X93652376Y-63565840D01*
X93204078Y-63466455D01*
X93201358Y-63466097D01*
X93201353Y-63466096D01*
X93031344Y-63443714D01*
X92748824Y-63406519D01*
X92290079Y-63386490D01*
X91831334Y-63406519D01*
X91548814Y-63443714D01*
X91378805Y-63466096D01*
X91378800Y-63466097D01*
X91376080Y-63466455D01*
X90927782Y-63565840D01*
X90925157Y-63566668D01*
X90925152Y-63566669D01*
X90492481Y-63703089D01*
X90492473Y-63703092D01*
X90489853Y-63703918D01*
X90065624Y-63879640D01*
X89658324Y-64091667D01*
X89271054Y-64338385D01*
X89096807Y-64472089D01*
X88908928Y-64616253D01*
X88908922Y-64616258D01*
X88906760Y-64617917D01*
X88568215Y-64928136D01*
X88257996Y-65266681D01*
X87978464Y-65630975D01*
X87731746Y-66018245D01*
X87519719Y-66425545D01*
X87518667Y-66428086D01*
X87518666Y-66428087D01*
X87515006Y-66436922D01*
X87343997Y-66849774D01*
X87343171Y-66852394D01*
X87343168Y-66852402D01*
X87254413Y-67133899D01*
X87205919Y-67287703D01*
X87106534Y-67736001D01*
X87106176Y-67738721D01*
X87106175Y-67738726D01*
X87097840Y-67802035D01*
X87046598Y-68191255D01*
X87026569Y-68650000D01*
X75566801Y-68650000D01*
X75546772Y-68191255D01*
X75495530Y-67802035D01*
X75487195Y-67738726D01*
X75487194Y-67738721D01*
X75486836Y-67736001D01*
X75387451Y-67287703D01*
X75338957Y-67133899D01*
X75250202Y-66852402D01*
X75250199Y-66852394D01*
X75249373Y-66849774D01*
X75078364Y-66436922D01*
X75074704Y-66428087D01*
X75074703Y-66428086D01*
X75073651Y-66425545D01*
X74861624Y-66018245D01*
X74614906Y-65630975D01*
X74335374Y-65266681D01*
X74025155Y-64928136D01*
X73686610Y-64617917D01*
X73684448Y-64616258D01*
X73684442Y-64616253D01*
X73496563Y-64472089D01*
X73322316Y-64338385D01*
X72935046Y-64091667D01*
X72527746Y-63879640D01*
X72103517Y-63703918D01*
X72100897Y-63703092D01*
X72100889Y-63703089D01*
X71668218Y-63566669D01*
X71668213Y-63566668D01*
X71665588Y-63565840D01*
X71217290Y-63466455D01*
X71214570Y-63466097D01*
X71214565Y-63466096D01*
X71044556Y-63443714D01*
X70762036Y-63406519D01*
X70303291Y-63386490D01*
X69844546Y-63406519D01*
X69562026Y-63443714D01*
X69392017Y-63466096D01*
X69392012Y-63466097D01*
X69389292Y-63466455D01*
X68940994Y-63565840D01*
X68938369Y-63566668D01*
X68938364Y-63566669D01*
X68505693Y-63703089D01*
X68505685Y-63703092D01*
X68503065Y-63703918D01*
X68078836Y-63879640D01*
X67671536Y-64091667D01*
X67284266Y-64338385D01*
X67110019Y-64472089D01*
X66922140Y-64616253D01*
X66922134Y-64616258D01*
X66919972Y-64617917D01*
X66581427Y-64928136D01*
X66271208Y-65266681D01*
X65991676Y-65630975D01*
X65744958Y-66018245D01*
X65532931Y-66425545D01*
X65531879Y-66428086D01*
X65531878Y-66428087D01*
X65528218Y-66436922D01*
X65357209Y-66849774D01*
X65356383Y-66852394D01*
X65356380Y-66852402D01*
X65267625Y-67133899D01*
X65219131Y-67287703D01*
X65119746Y-67736001D01*
X65119388Y-67738721D01*
X65119387Y-67738726D01*
X65111052Y-67802035D01*
X65059810Y-68191255D01*
X65039781Y-68650000D01*
X52438979Y-68650000D01*
X52438948Y-68648225D01*
X52419761Y-68225697D01*
X52419245Y-68220019D01*
X52361988Y-67802035D01*
X52360961Y-67796435D01*
X52266055Y-67385356D01*
X52264521Y-67379860D01*
X52132754Y-66979086D01*
X52130724Y-66973744D01*
X51963177Y-66586568D01*
X51960673Y-66581434D01*
X51758727Y-66211036D01*
X51755764Y-66206145D01*
X51521080Y-65855577D01*
X51517685Y-65850974D01*
X51252202Y-65523130D01*
X51248397Y-65518843D01*
X51245233Y-65515590D01*
X51231403Y-65507786D01*
X51230033Y-65507865D01*
X51222711Y-65512499D01*
X48098022Y-68637188D01*
X48090408Y-68651132D01*
X47360356Y-68651132D01*
X47361592Y-68648868D01*
X47361461Y-68647035D01*
X47357210Y-68640420D01*
X44234828Y-65518038D01*
X44220884Y-65510424D01*
X44220691Y-65510437D01*
X44211869Y-65516416D01*
X44096476Y-65643677D01*
X44092824Y-65648091D01*
X43838938Y-65985009D01*
X43835704Y-65989733D01*
X43613405Y-66348265D01*
X43610611Y-66353264D01*
X43421720Y-66730470D01*
X43419386Y-66735712D01*
X43265460Y-67128486D01*
X43263617Y-67133899D01*
X43145917Y-67539024D01*
X43144575Y-67544574D01*
X43064076Y-67958704D01*
X43063243Y-67964345D01*
X43020610Y-68384058D01*
X43020290Y-68389782D01*
X43015872Y-68811625D01*
X41058500Y-68811625D01*
X41058500Y-65147162D01*
X44586172Y-65147162D01*
X44586184Y-65147593D01*
X44591551Y-65156341D01*
X47713188Y-68277978D01*
X47727132Y-68285592D01*
X47728965Y-68285461D01*
X47735580Y-68281210D01*
X50858788Y-65158002D01*
X50866196Y-65144435D01*
X50859454Y-65134779D01*
X50629797Y-64937940D01*
X50625304Y-64934429D01*
X50281427Y-64690048D01*
X50276604Y-64686940D01*
X49912001Y-64474736D01*
X49906936Y-64472089D01*
X49524592Y-64293798D01*
X49519299Y-64291617D01*
X49122371Y-64148713D01*
X49116911Y-64147024D01*
X48708663Y-64040683D01*
X48703073Y-64039495D01*
X48286861Y-63970592D01*
X48281196Y-63969916D01*
X47860441Y-63939018D01*
X47854740Y-63938859D01*
X47432917Y-63946221D01*
X47427229Y-63946579D01*
X47007827Y-63992141D01*
X47002157Y-63993019D01*
X46588622Y-64076402D01*
X46583077Y-64077784D01*
X46178783Y-64198310D01*
X46173379Y-64200192D01*
X45781687Y-64356857D01*
X45776480Y-64359219D01*
X45400581Y-64550749D01*
X45395616Y-64553570D01*
X45038632Y-64778375D01*
X45033937Y-64781638D01*
X44698799Y-65037870D01*
X44694419Y-65041544D01*
X44594359Y-65133555D01*
X44586172Y-65147162D01*
X41058500Y-65147162D01*
X41058500Y-63228250D01*
X41060246Y-63207345D01*
X41062770Y-63192344D01*
X41062770Y-63192341D01*
X41063576Y-63187552D01*
X41063729Y-63175000D01*
X41063039Y-63170182D01*
X41063036Y-63170135D01*
X41062162Y-63162256D01*
X41044923Y-62943223D01*
X41044535Y-62938289D01*
X40989105Y-62707406D01*
X40987211Y-62702832D01*
X40901883Y-62496832D01*
X40894294Y-62426242D01*
X40912974Y-62383315D01*
X40911490Y-62382453D01*
X40919165Y-62369239D01*
X41000326Y-62229510D01*
X41029436Y-62133398D01*
X41049473Y-62067239D01*
X41051595Y-62060233D01*
X41062547Y-61883702D01*
X41054081Y-61834429D01*
X41033834Y-61716602D01*
X41033834Y-61716601D01*
X41032594Y-61709386D01*
X41019399Y-61678375D01*
X40987199Y-61602700D01*
X40978933Y-61532186D01*
X40994186Y-61490083D01*
X40996646Y-61485847D01*
X40996649Y-61485841D01*
X41000326Y-61479510D01*
X41008183Y-61453570D01*
X41049473Y-61317239D01*
X41051595Y-61310233D01*
X41062547Y-61133702D01*
X41032594Y-60959386D01*
X41024636Y-60940683D01*
X40987199Y-60852700D01*
X40978933Y-60782186D01*
X40994186Y-60740083D01*
X40996646Y-60735847D01*
X40996649Y-60735841D01*
X41000326Y-60729510D01*
X41012849Y-60688165D01*
X41049473Y-60567239D01*
X41051595Y-60560233D01*
X41062547Y-60383702D01*
X41032594Y-60209386D01*
X40963343Y-60046636D01*
X40959009Y-60040747D01*
X40959004Y-60040738D01*
X40914866Y-59980761D01*
X40890600Y-59914040D01*
X40899939Y-59857862D01*
X40987211Y-59647168D01*
X40987213Y-59647161D01*
X40989105Y-59642594D01*
X41044535Y-59411711D01*
X41060512Y-59208704D01*
X41061871Y-59197684D01*
X41062768Y-59192356D01*
X41062768Y-59192351D01*
X41063576Y-59187552D01*
X41063729Y-59175000D01*
X41059773Y-59147376D01*
X41058500Y-59129514D01*
X41058500Y-49536971D01*
X44600923Y-49536971D01*
X44601004Y-49538104D01*
X44605982Y-49545676D01*
X44635794Y-49574264D01*
X44640071Y-49578009D01*
X44969807Y-49841234D01*
X44974390Y-49844564D01*
X45326621Y-50076817D01*
X45331517Y-50079735D01*
X45703305Y-50279086D01*
X45708478Y-50281565D01*
X46096822Y-50446407D01*
X46102157Y-50448391D01*
X46503847Y-50577360D01*
X46509348Y-50578855D01*
X46921080Y-50670887D01*
X46926692Y-50671876D01*
X47345057Y-50726213D01*
X47350763Y-50726692D01*
X47772312Y-50742886D01*
X47778038Y-50742846D01*
X48199327Y-50720768D01*
X48205008Y-50720211D01*
X48622584Y-50660037D01*
X48628179Y-50658969D01*
X49038583Y-50561197D01*
X49044064Y-50559626D01*
X49443907Y-50425064D01*
X49449237Y-50422996D01*
X49835240Y-50252749D01*
X49840347Y-50250214D01*
X50209331Y-50045683D01*
X50214197Y-50042689D01*
X50563115Y-49805565D01*
X50567710Y-49802127D01*
X50876206Y-49548725D01*
X50884667Y-49536293D01*
X50878417Y-49525437D01*
X47755084Y-46402104D01*
X47741140Y-46394490D01*
X47739307Y-46394621D01*
X47732692Y-46398872D01*
X44608537Y-49523027D01*
X44600923Y-49536971D01*
X41058500Y-49536971D01*
X41058500Y-46191707D01*
X43032144Y-46191707D01*
X43032343Y-46197412D01*
X43066177Y-46617928D01*
X43066895Y-46623605D01*
X43138698Y-47039304D01*
X43139929Y-47044904D01*
X43249119Y-47452407D01*
X43250843Y-47457840D01*
X43396519Y-47853776D01*
X43398727Y-47859030D01*
X43579689Y-48240136D01*
X43582370Y-48245176D01*
X43797116Y-48608291D01*
X43800257Y-48613091D01*
X44047024Y-48955243D01*
X44050579Y-48959730D01*
X44226026Y-49161559D01*
X44239156Y-49169967D01*
X44249069Y-49164075D01*
X47370250Y-46042894D01*
X47376628Y-46031214D01*
X48106680Y-46031214D01*
X48106811Y-46033047D01*
X48111062Y-46039662D01*
X51234884Y-49163484D01*
X51248330Y-49170826D01*
X51258166Y-49163906D01*
X51474510Y-48907899D01*
X51477996Y-48903372D01*
X51719977Y-48557786D01*
X51723034Y-48552970D01*
X51932695Y-48186881D01*
X51935307Y-48181799D01*
X52110927Y-47798211D01*
X52113066Y-47792918D01*
X52253196Y-47394997D01*
X52254849Y-47389523D01*
X52358336Y-46980547D01*
X52359487Y-46974941D01*
X52425483Y-46558253D01*
X52426118Y-46552591D01*
X52454151Y-46130535D01*
X52454285Y-46127028D01*
X52455282Y-46031855D01*
X52455251Y-46030082D01*
X65039781Y-46030082D01*
X65059810Y-46488827D01*
X65119746Y-46944081D01*
X65219131Y-47392379D01*
X65219959Y-47395004D01*
X65219960Y-47395009D01*
X65239771Y-47457840D01*
X65357209Y-47830308D01*
X65468999Y-48100192D01*
X65529054Y-48245176D01*
X65532931Y-48254537D01*
X65744958Y-48661837D01*
X65991676Y-49049107D01*
X66079894Y-49164075D01*
X66268934Y-49410437D01*
X66271208Y-49413401D01*
X66581427Y-49751946D01*
X66919972Y-50062165D01*
X66922134Y-50063824D01*
X66922140Y-50063829D01*
X66977288Y-50106145D01*
X67284266Y-50341697D01*
X67671536Y-50588415D01*
X68078836Y-50800442D01*
X68503065Y-50976164D01*
X68505685Y-50976990D01*
X68505693Y-50976993D01*
X68938364Y-51113413D01*
X68938369Y-51113414D01*
X68940994Y-51114242D01*
X69389292Y-51213627D01*
X69392012Y-51213985D01*
X69392017Y-51213986D01*
X69562026Y-51236368D01*
X69844546Y-51273563D01*
X70303291Y-51293592D01*
X70762036Y-51273563D01*
X71044556Y-51236368D01*
X71214565Y-51213986D01*
X71214570Y-51213985D01*
X71217290Y-51213627D01*
X71665588Y-51114242D01*
X71668213Y-51113414D01*
X71668218Y-51113413D01*
X72100889Y-50976993D01*
X72100897Y-50976990D01*
X72103517Y-50976164D01*
X72527746Y-50800442D01*
X72935046Y-50588415D01*
X73322316Y-50341697D01*
X73629294Y-50106145D01*
X73684442Y-50063829D01*
X73684448Y-50063824D01*
X73686610Y-50062165D01*
X74025155Y-49751946D01*
X74335374Y-49413401D01*
X74337649Y-49410437D01*
X74526688Y-49164075D01*
X74614906Y-49049107D01*
X74861624Y-48661837D01*
X75073651Y-48254537D01*
X75077529Y-48245176D01*
X75137583Y-48100192D01*
X75249373Y-47830308D01*
X75366812Y-47457840D01*
X75386622Y-47395009D01*
X75386623Y-47395004D01*
X75387451Y-47392379D01*
X75486836Y-46944081D01*
X75546772Y-46488827D01*
X75566801Y-46030082D01*
X87026569Y-46030082D01*
X87046598Y-46488827D01*
X87106534Y-46944081D01*
X87205919Y-47392379D01*
X87206747Y-47395004D01*
X87206748Y-47395009D01*
X87226559Y-47457840D01*
X87343997Y-47830308D01*
X87455787Y-48100192D01*
X87515842Y-48245176D01*
X87519719Y-48254537D01*
X87731746Y-48661837D01*
X87978464Y-49049107D01*
X88066682Y-49164075D01*
X88255722Y-49410437D01*
X88257996Y-49413401D01*
X88568215Y-49751946D01*
X88906760Y-50062165D01*
X88908922Y-50063824D01*
X88908928Y-50063829D01*
X88964076Y-50106145D01*
X89271054Y-50341697D01*
X89658324Y-50588415D01*
X90065624Y-50800442D01*
X90489853Y-50976164D01*
X90492473Y-50976990D01*
X90492481Y-50976993D01*
X90925152Y-51113413D01*
X90925157Y-51113414D01*
X90927782Y-51114242D01*
X91376080Y-51213627D01*
X91378800Y-51213985D01*
X91378805Y-51213986D01*
X91548814Y-51236368D01*
X91831334Y-51273563D01*
X92290079Y-51293592D01*
X92748824Y-51273563D01*
X93031344Y-51236368D01*
X93201353Y-51213986D01*
X93201358Y-51213985D01*
X93204078Y-51213627D01*
X93652376Y-51114242D01*
X93655001Y-51113414D01*
X93655006Y-51113413D01*
X94087677Y-50976993D01*
X94087685Y-50976990D01*
X94090305Y-50976164D01*
X94514534Y-50800442D01*
X94921834Y-50588415D01*
X95309104Y-50341697D01*
X95616082Y-50106145D01*
X95671230Y-50063829D01*
X95671236Y-50063824D01*
X95673398Y-50062165D01*
X96011943Y-49751946D01*
X96322162Y-49413401D01*
X96324437Y-49410437D01*
X96513476Y-49164075D01*
X96601694Y-49049107D01*
X96848412Y-48661837D01*
X97060439Y-48254537D01*
X97064317Y-48245176D01*
X97124371Y-48100192D01*
X97236161Y-47830308D01*
X97353600Y-47457840D01*
X97373410Y-47395009D01*
X97373411Y-47395004D01*
X97374239Y-47392379D01*
X97473624Y-46944081D01*
X97533560Y-46488827D01*
X97553589Y-46030082D01*
X109015969Y-46030082D01*
X109035998Y-46488827D01*
X109095934Y-46944081D01*
X109195319Y-47392379D01*
X109196147Y-47395004D01*
X109196148Y-47395009D01*
X109215959Y-47457840D01*
X109333397Y-47830308D01*
X109445187Y-48100192D01*
X109505242Y-48245176D01*
X109509119Y-48254537D01*
X109721146Y-48661837D01*
X109967864Y-49049107D01*
X110056082Y-49164075D01*
X110245122Y-49410437D01*
X110247396Y-49413401D01*
X110557615Y-49751946D01*
X110896160Y-50062165D01*
X110898322Y-50063824D01*
X110898328Y-50063829D01*
X110953476Y-50106145D01*
X111260454Y-50341697D01*
X111647724Y-50588415D01*
X112055024Y-50800442D01*
X112479253Y-50976164D01*
X112481873Y-50976990D01*
X112481881Y-50976993D01*
X112914552Y-51113413D01*
X112914557Y-51113414D01*
X112917182Y-51114242D01*
X113365480Y-51213627D01*
X113368200Y-51213985D01*
X113368205Y-51213986D01*
X113538214Y-51236368D01*
X113820734Y-51273563D01*
X114279479Y-51293592D01*
X114738224Y-51273563D01*
X115020744Y-51236368D01*
X115190753Y-51213986D01*
X115190758Y-51213985D01*
X115193478Y-51213627D01*
X115641776Y-51114242D01*
X115644401Y-51113414D01*
X115644406Y-51113413D01*
X116077077Y-50976993D01*
X116077085Y-50976990D01*
X116079705Y-50976164D01*
X116503934Y-50800442D01*
X116911234Y-50588415D01*
X117298504Y-50341697D01*
X117605482Y-50106145D01*
X117660630Y-50063829D01*
X117660636Y-50063824D01*
X117662798Y-50062165D01*
X118001343Y-49751946D01*
X118311562Y-49413401D01*
X118313837Y-49410437D01*
X118502876Y-49164075D01*
X118591094Y-49049107D01*
X118837812Y-48661837D01*
X119049839Y-48254537D01*
X119053717Y-48245176D01*
X119113771Y-48100192D01*
X119225561Y-47830308D01*
X119343000Y-47457840D01*
X119362810Y-47395009D01*
X119362811Y-47395004D01*
X119363639Y-47392379D01*
X119463024Y-46944081D01*
X119522960Y-46488827D01*
X119542989Y-46030082D01*
X119522960Y-45571337D01*
X119471718Y-45182117D01*
X119463383Y-45118808D01*
X119463382Y-45118803D01*
X119463024Y-45116083D01*
X119363639Y-44667785D01*
X119315145Y-44513981D01*
X119226390Y-44232484D01*
X119226387Y-44232476D01*
X119225561Y-44229856D01*
X119049839Y-43805627D01*
X118837812Y-43398327D01*
X118591094Y-43011057D01*
X118352602Y-42700247D01*
X118313226Y-42648931D01*
X118313221Y-42648925D01*
X118311562Y-42646763D01*
X118001343Y-42308218D01*
X117662798Y-41997999D01*
X117660636Y-41996340D01*
X117660630Y-41996335D01*
X117391424Y-41789767D01*
X117298504Y-41718467D01*
X116911234Y-41471749D01*
X116503934Y-41259722D01*
X116079705Y-41084000D01*
X116077085Y-41083174D01*
X116077077Y-41083171D01*
X115644406Y-40946751D01*
X115644401Y-40946750D01*
X115641776Y-40945922D01*
X115193478Y-40846537D01*
X115190758Y-40846179D01*
X115190753Y-40846178D01*
X115020744Y-40823796D01*
X114738224Y-40786601D01*
X114279479Y-40766572D01*
X113820734Y-40786601D01*
X113538214Y-40823796D01*
X113368205Y-40846178D01*
X113368200Y-40846179D01*
X113365480Y-40846537D01*
X112917182Y-40945922D01*
X112914557Y-40946750D01*
X112914552Y-40946751D01*
X112481881Y-41083171D01*
X112481873Y-41083174D01*
X112479253Y-41084000D01*
X112055024Y-41259722D01*
X111647724Y-41471749D01*
X111260454Y-41718467D01*
X111167534Y-41789767D01*
X110898328Y-41996335D01*
X110898322Y-41996340D01*
X110896160Y-41997999D01*
X110557615Y-42308218D01*
X110247396Y-42646763D01*
X110245737Y-42648925D01*
X110245732Y-42648931D01*
X110206356Y-42700247D01*
X109967864Y-43011057D01*
X109721146Y-43398327D01*
X109509119Y-43805627D01*
X109333397Y-44229856D01*
X109332571Y-44232476D01*
X109332568Y-44232484D01*
X109243813Y-44513981D01*
X109195319Y-44667785D01*
X109095934Y-45116083D01*
X109095576Y-45118803D01*
X109095575Y-45118808D01*
X109087240Y-45182117D01*
X109035998Y-45571337D01*
X109015969Y-46030082D01*
X97553589Y-46030082D01*
X97533560Y-45571337D01*
X97482318Y-45182117D01*
X97473983Y-45118808D01*
X97473982Y-45118803D01*
X97473624Y-45116083D01*
X97374239Y-44667785D01*
X97325745Y-44513981D01*
X97236990Y-44232484D01*
X97236987Y-44232476D01*
X97236161Y-44229856D01*
X97060439Y-43805627D01*
X96848412Y-43398327D01*
X96601694Y-43011057D01*
X96363202Y-42700247D01*
X96323826Y-42648931D01*
X96323821Y-42648925D01*
X96322162Y-42646763D01*
X96011943Y-42308218D01*
X95673398Y-41997999D01*
X95671236Y-41996340D01*
X95671230Y-41996335D01*
X95402024Y-41789767D01*
X95309104Y-41718467D01*
X94921834Y-41471749D01*
X94514534Y-41259722D01*
X94090305Y-41084000D01*
X94087685Y-41083174D01*
X94087677Y-41083171D01*
X93655006Y-40946751D01*
X93655001Y-40946750D01*
X93652376Y-40945922D01*
X93204078Y-40846537D01*
X93201358Y-40846179D01*
X93201353Y-40846178D01*
X93031344Y-40823796D01*
X92748824Y-40786601D01*
X92290079Y-40766572D01*
X91831334Y-40786601D01*
X91548814Y-40823796D01*
X91378805Y-40846178D01*
X91378800Y-40846179D01*
X91376080Y-40846537D01*
X90927782Y-40945922D01*
X90925157Y-40946750D01*
X90925152Y-40946751D01*
X90492481Y-41083171D01*
X90492473Y-41083174D01*
X90489853Y-41084000D01*
X90065624Y-41259722D01*
X89658324Y-41471749D01*
X89271054Y-41718467D01*
X89178134Y-41789767D01*
X88908928Y-41996335D01*
X88908922Y-41996340D01*
X88906760Y-41997999D01*
X88568215Y-42308218D01*
X88257996Y-42646763D01*
X88256337Y-42648925D01*
X88256332Y-42648931D01*
X88216956Y-42700247D01*
X87978464Y-43011057D01*
X87731746Y-43398327D01*
X87519719Y-43805627D01*
X87343997Y-44229856D01*
X87343171Y-44232476D01*
X87343168Y-44232484D01*
X87254413Y-44513981D01*
X87205919Y-44667785D01*
X87106534Y-45116083D01*
X87106176Y-45118803D01*
X87106175Y-45118808D01*
X87097840Y-45182117D01*
X87046598Y-45571337D01*
X87026569Y-46030082D01*
X75566801Y-46030082D01*
X75546772Y-45571337D01*
X75495530Y-45182117D01*
X75487195Y-45118808D01*
X75487194Y-45118803D01*
X75486836Y-45116083D01*
X75387451Y-44667785D01*
X75338957Y-44513981D01*
X75250202Y-44232484D01*
X75250199Y-44232476D01*
X75249373Y-44229856D01*
X75073651Y-43805627D01*
X74861624Y-43398327D01*
X74614906Y-43011057D01*
X74376414Y-42700247D01*
X74337038Y-42648931D01*
X74337033Y-42648925D01*
X74335374Y-42646763D01*
X74025155Y-42308218D01*
X73686610Y-41997999D01*
X73684448Y-41996340D01*
X73684442Y-41996335D01*
X73415236Y-41789767D01*
X73322316Y-41718467D01*
X72935046Y-41471749D01*
X72527746Y-41259722D01*
X72103517Y-41084000D01*
X72100897Y-41083174D01*
X72100889Y-41083171D01*
X71668218Y-40946751D01*
X71668213Y-40946750D01*
X71665588Y-40945922D01*
X71217290Y-40846537D01*
X71214570Y-40846179D01*
X71214565Y-40846178D01*
X71044556Y-40823796D01*
X70762036Y-40786601D01*
X70303291Y-40766572D01*
X69844546Y-40786601D01*
X69562026Y-40823796D01*
X69392017Y-40846178D01*
X69392012Y-40846179D01*
X69389292Y-40846537D01*
X68940994Y-40945922D01*
X68938369Y-40946750D01*
X68938364Y-40946751D01*
X68505693Y-41083171D01*
X68505685Y-41083174D01*
X68503065Y-41084000D01*
X68078836Y-41259722D01*
X67671536Y-41471749D01*
X67284266Y-41718467D01*
X67191346Y-41789767D01*
X66922140Y-41996335D01*
X66922134Y-41996340D01*
X66919972Y-41997999D01*
X66581427Y-42308218D01*
X66271208Y-42646763D01*
X66269549Y-42648925D01*
X66269544Y-42648931D01*
X66230168Y-42700247D01*
X65991676Y-43011057D01*
X65744958Y-43398327D01*
X65532931Y-43805627D01*
X65357209Y-44229856D01*
X65356383Y-44232476D01*
X65356380Y-44232484D01*
X65267625Y-44513981D01*
X65219131Y-44667785D01*
X65119746Y-45116083D01*
X65119388Y-45118803D01*
X65119387Y-45118808D01*
X65111052Y-45182117D01*
X65059810Y-45571337D01*
X65039781Y-46030082D01*
X52455251Y-46030082D01*
X52455220Y-46028307D01*
X52436033Y-45605779D01*
X52435517Y-45600101D01*
X52378260Y-45182117D01*
X52377233Y-45176517D01*
X52282327Y-44765438D01*
X52280793Y-44759942D01*
X52149026Y-44359168D01*
X52146996Y-44353826D01*
X51979449Y-43966650D01*
X51976945Y-43961516D01*
X51774999Y-43591118D01*
X51772036Y-43586227D01*
X51537352Y-43235659D01*
X51533957Y-43231056D01*
X51268474Y-42903212D01*
X51264669Y-42898925D01*
X51261505Y-42895672D01*
X51247675Y-42887868D01*
X51246305Y-42887947D01*
X51238983Y-42892581D01*
X48114294Y-46017270D01*
X48106680Y-46031214D01*
X47376628Y-46031214D01*
X47377864Y-46028950D01*
X47377733Y-46027117D01*
X47373482Y-46020502D01*
X44251100Y-42898120D01*
X44237156Y-42890506D01*
X44236963Y-42890519D01*
X44228141Y-42896498D01*
X44112748Y-43023759D01*
X44109096Y-43028173D01*
X43855210Y-43365091D01*
X43851976Y-43369815D01*
X43629677Y-43728347D01*
X43626883Y-43733346D01*
X43437992Y-44110552D01*
X43435658Y-44115794D01*
X43281732Y-44508568D01*
X43279889Y-44513981D01*
X43162189Y-44919106D01*
X43160847Y-44924656D01*
X43080348Y-45338786D01*
X43079515Y-45344427D01*
X43036882Y-45764140D01*
X43036562Y-45769864D01*
X43032144Y-46191707D01*
X41058500Y-46191707D01*
X41058500Y-43228250D01*
X41060246Y-43207345D01*
X41062770Y-43192344D01*
X41062770Y-43192341D01*
X41063576Y-43187552D01*
X41063729Y-43175000D01*
X41063039Y-43170182D01*
X41063036Y-43170135D01*
X41062162Y-43162256D01*
X41044923Y-42943223D01*
X41044535Y-42938289D01*
X41034892Y-42898120D01*
X41008360Y-42787609D01*
X40989105Y-42707406D01*
X40987211Y-42702832D01*
X40914480Y-42527244D01*
X44602444Y-42527244D01*
X44602456Y-42527675D01*
X44607823Y-42536423D01*
X47729460Y-45658060D01*
X47743404Y-45665674D01*
X47745237Y-45665543D01*
X47751852Y-45661292D01*
X50875060Y-42538084D01*
X50882468Y-42524517D01*
X50875726Y-42514861D01*
X50646069Y-42318022D01*
X50641576Y-42314511D01*
X50297699Y-42070130D01*
X50292876Y-42067022D01*
X49928273Y-41854818D01*
X49923208Y-41852171D01*
X49540864Y-41673880D01*
X49535571Y-41671699D01*
X49138643Y-41528795D01*
X49133183Y-41527106D01*
X48724935Y-41420765D01*
X48719345Y-41419577D01*
X48303133Y-41350674D01*
X48297468Y-41349998D01*
X47876713Y-41319100D01*
X47871012Y-41318941D01*
X47449189Y-41326303D01*
X47443501Y-41326661D01*
X47024099Y-41372223D01*
X47018429Y-41373101D01*
X46604894Y-41456484D01*
X46599349Y-41457866D01*
X46195055Y-41578392D01*
X46189651Y-41580274D01*
X45797959Y-41736939D01*
X45792752Y-41739301D01*
X45416853Y-41930831D01*
X45411888Y-41933652D01*
X45054904Y-42158457D01*
X45050209Y-42161720D01*
X44715071Y-42417952D01*
X44710691Y-42421626D01*
X44610631Y-42513637D01*
X44602444Y-42527244D01*
X40914480Y-42527244D01*
X40901883Y-42496832D01*
X40894294Y-42426242D01*
X40912974Y-42383315D01*
X40911490Y-42382453D01*
X40953436Y-42310238D01*
X41000326Y-42229510D01*
X41029436Y-42133398D01*
X41049473Y-42067239D01*
X41051595Y-42060233D01*
X41062547Y-41883702D01*
X41037329Y-41736939D01*
X41033834Y-41716602D01*
X41033834Y-41716601D01*
X41032594Y-41709386D01*
X41016558Y-41671699D01*
X40987199Y-41602700D01*
X40978933Y-41532186D01*
X40994186Y-41490083D01*
X40996646Y-41485847D01*
X40996649Y-41485841D01*
X41000326Y-41479510D01*
X41003063Y-41470475D01*
X41049473Y-41317239D01*
X41051595Y-41310233D01*
X41062547Y-41133702D01*
X41032594Y-40959386D01*
X41026611Y-40945325D01*
X40987199Y-40852700D01*
X40978933Y-40782186D01*
X40994186Y-40740083D01*
X40996646Y-40735847D01*
X40996649Y-40735841D01*
X41000326Y-40729510D01*
X41012849Y-40688165D01*
X41049473Y-40567239D01*
X41051595Y-40560233D01*
X41062547Y-40383702D01*
X41032594Y-40209386D01*
X40963343Y-40046636D01*
X40959009Y-40040747D01*
X40959004Y-40040738D01*
X40914866Y-39980761D01*
X40890600Y-39914040D01*
X40899939Y-39857862D01*
X40987211Y-39647168D01*
X40987213Y-39647161D01*
X40989105Y-39642594D01*
X41044535Y-39411711D01*
X41060512Y-39208704D01*
X41061871Y-39197684D01*
X41062768Y-39192356D01*
X41062768Y-39192351D01*
X41063576Y-39187552D01*
X41063729Y-39175000D01*
X41059773Y-39147376D01*
X41058500Y-39129514D01*
X41058500Y-28922116D01*
X44431785Y-28922116D01*
X44466940Y-29155952D01*
X44468633Y-29163780D01*
X44550346Y-29451588D01*
X44553029Y-29459165D01*
X44670645Y-29734246D01*
X44674267Y-29741417D01*
X44825892Y-29999339D01*
X44830382Y-30005971D01*
X45013550Y-30242537D01*
X45018863Y-30248563D01*
X45230600Y-30459930D01*
X45236625Y-30465223D01*
X45473498Y-30647970D01*
X45480171Y-30652470D01*
X45738348Y-30803640D01*
X45745501Y-30807238D01*
X46020815Y-30924385D01*
X46028379Y-30927048D01*
X46316332Y-31008260D01*
X46324171Y-31009940D01*
X46620788Y-31054005D01*
X46627425Y-31054635D01*
X46706383Y-31057944D01*
X46709031Y-31058000D01*
X47453885Y-31058000D01*
X47469124Y-31053525D01*
X47470329Y-31052135D01*
X47472000Y-31044452D01*
X47472000Y-31039885D01*
X47980000Y-31039885D01*
X47984475Y-31055124D01*
X47985865Y-31056329D01*
X47993548Y-31058000D01*
X48701710Y-31058000D01*
X48705740Y-31057871D01*
X48928594Y-31043656D01*
X48936541Y-31042638D01*
X49230296Y-30985804D01*
X49238041Y-30983786D01*
X49522187Y-30890088D01*
X49529631Y-30887096D01*
X49799563Y-30758055D01*
X49806554Y-30754149D01*
X50057916Y-30591847D01*
X50064347Y-30587087D01*
X50293043Y-30394166D01*
X50298828Y-30388618D01*
X50501153Y-30168206D01*
X50506186Y-30161968D01*
X50678866Y-29917631D01*
X50683061Y-29910812D01*
X50823295Y-29646516D01*
X50826594Y-29639210D01*
X50932105Y-29359242D01*
X50934452Y-29351566D01*
X51003532Y-29060474D01*
X51004885Y-29052556D01*
X51018710Y-28922116D01*
X110985264Y-28922116D01*
X111020419Y-29155952D01*
X111022112Y-29163780D01*
X111103825Y-29451588D01*
X111106508Y-29459165D01*
X111224124Y-29734246D01*
X111227746Y-29741417D01*
X111379371Y-29999339D01*
X111383861Y-30005971D01*
X111567029Y-30242537D01*
X111572342Y-30248563D01*
X111784079Y-30459930D01*
X111790104Y-30465223D01*
X112026977Y-30647970D01*
X112033650Y-30652470D01*
X112291827Y-30803640D01*
X112298980Y-30807238D01*
X112574294Y-30924385D01*
X112581858Y-30927048D01*
X112869811Y-31008260D01*
X112877650Y-31009940D01*
X113174267Y-31054005D01*
X113180904Y-31054635D01*
X113259862Y-31057944D01*
X113262510Y-31058000D01*
X114007364Y-31058000D01*
X114022603Y-31053525D01*
X114023808Y-31052135D01*
X114025479Y-31044452D01*
X114025479Y-31039885D01*
X114533479Y-31039885D01*
X114537954Y-31055124D01*
X114539344Y-31056329D01*
X114547027Y-31058000D01*
X115255189Y-31058000D01*
X115259219Y-31057871D01*
X115482073Y-31043656D01*
X115490020Y-31042638D01*
X115783775Y-30985804D01*
X115791520Y-30983786D01*
X116075666Y-30890088D01*
X116083110Y-30887096D01*
X116353042Y-30758055D01*
X116360033Y-30754149D01*
X116611395Y-30591847D01*
X116617826Y-30587087D01*
X116846522Y-30394166D01*
X116852307Y-30388618D01*
X117054632Y-30168206D01*
X117059665Y-30161968D01*
X117232345Y-29917631D01*
X117236540Y-29910812D01*
X117376774Y-29646516D01*
X117380073Y-29639210D01*
X117485584Y-29359242D01*
X117487931Y-29351566D01*
X117557011Y-29060474D01*
X117558364Y-29052556D01*
X117572200Y-28922015D01*
X117569536Y-28907377D01*
X117557188Y-28904000D01*
X114551594Y-28904000D01*
X114536355Y-28908475D01*
X114535150Y-28909865D01*
X114533479Y-28917548D01*
X114533479Y-31039885D01*
X114025479Y-31039885D01*
X114025479Y-28922115D01*
X114021004Y-28906876D01*
X114019614Y-28905671D01*
X114011931Y-28904000D01*
X111000655Y-28904000D01*
X110987256Y-28907934D01*
X110985264Y-28922116D01*
X51018710Y-28922116D01*
X51018721Y-28922015D01*
X51016057Y-28907377D01*
X51003709Y-28904000D01*
X47998115Y-28904000D01*
X47982876Y-28908475D01*
X47981671Y-28909865D01*
X47980000Y-28917548D01*
X47980000Y-31039885D01*
X47472000Y-31039885D01*
X47472000Y-28922115D01*
X47467525Y-28906876D01*
X47466135Y-28905671D01*
X47458452Y-28904000D01*
X44447176Y-28904000D01*
X44433777Y-28907934D01*
X44431785Y-28922116D01*
X41058500Y-28922116D01*
X41058500Y-26284500D01*
X41078502Y-26216379D01*
X41132158Y-26169886D01*
X41184500Y-26158500D01*
X45907789Y-26158500D01*
X45975910Y-26178502D01*
G37*
%TD.AperFunction*%
%TA.AperFunction,Conductor*%
G36*
X24799910Y-26178502D02*
G01*
X24846403Y-26232158D01*
X24856507Y-26302432D01*
X24827013Y-26367012D01*
X24771248Y-26404162D01*
X24753813Y-26409911D01*
X24746369Y-26412904D01*
X24476437Y-26541945D01*
X24469446Y-26545851D01*
X24218084Y-26708153D01*
X24211653Y-26712913D01*
X23982957Y-26905834D01*
X23977172Y-26911382D01*
X23774847Y-27131794D01*
X23769814Y-27138032D01*
X23597134Y-27382369D01*
X23592939Y-27389188D01*
X23452705Y-27653484D01*
X23449406Y-27660790D01*
X23343895Y-27940758D01*
X23341548Y-27948434D01*
X23272468Y-28239526D01*
X23271115Y-28247444D01*
X23257279Y-28377985D01*
X23259943Y-28392623D01*
X23272291Y-28396000D01*
X28828824Y-28396000D01*
X28842223Y-28392066D01*
X28844215Y-28377884D01*
X28809060Y-28144048D01*
X28807367Y-28136220D01*
X28725654Y-27848412D01*
X28722971Y-27840835D01*
X28605355Y-27565754D01*
X28601733Y-27558583D01*
X28450108Y-27300661D01*
X28445618Y-27294029D01*
X28262450Y-27057463D01*
X28257137Y-27051437D01*
X28045400Y-26840070D01*
X28039375Y-26834777D01*
X27802502Y-26652030D01*
X27795829Y-26647530D01*
X27537652Y-26496360D01*
X27530499Y-26492762D01*
X27313530Y-26400441D01*
X27258679Y-26355364D01*
X27236906Y-26287788D01*
X27255123Y-26219169D01*
X27307547Y-26171291D01*
X27362863Y-26158500D01*
X37915500Y-26158500D01*
X37983621Y-26178502D01*
X38030114Y-26232158D01*
X38041500Y-26284500D01*
X38041500Y-39125633D01*
X38040000Y-39145018D01*
X38036309Y-39168724D01*
X38037130Y-39175000D01*
X38036835Y-39175000D01*
X38055465Y-39411711D01*
X38110895Y-39642594D01*
X38112788Y-39647165D01*
X38112789Y-39647167D01*
X38198117Y-39853168D01*
X38205706Y-39923758D01*
X38187026Y-39966685D01*
X38188510Y-39967547D01*
X38099674Y-40120490D01*
X38097553Y-40127494D01*
X38097551Y-40127498D01*
X38057879Y-40258488D01*
X38048405Y-40289767D01*
X38037453Y-40466298D01*
X38067406Y-40640614D01*
X38070272Y-40647348D01*
X38070272Y-40647350D01*
X38112801Y-40747300D01*
X38121067Y-40817814D01*
X38105814Y-40859917D01*
X38103354Y-40864153D01*
X38103351Y-40864159D01*
X38099674Y-40870490D01*
X38097553Y-40877494D01*
X38097551Y-40877498D01*
X38057879Y-41008488D01*
X38048405Y-41039767D01*
X38037453Y-41216298D01*
X38038693Y-41223514D01*
X38038693Y-41223516D01*
X38056355Y-41326303D01*
X38067406Y-41390614D01*
X38070272Y-41397348D01*
X38070272Y-41397350D01*
X38112801Y-41497300D01*
X38121067Y-41567814D01*
X38105814Y-41609917D01*
X38103354Y-41614153D01*
X38103351Y-41614159D01*
X38099674Y-41620490D01*
X38097553Y-41627494D01*
X38097551Y-41627498D01*
X38070447Y-41716991D01*
X38048405Y-41789767D01*
X38037453Y-41966298D01*
X38038693Y-41973514D01*
X38038693Y-41973516D01*
X38066166Y-42133398D01*
X38067406Y-42140614D01*
X38136657Y-42303364D01*
X38140991Y-42309253D01*
X38140996Y-42309262D01*
X38185134Y-42369239D01*
X38209400Y-42435960D01*
X38200061Y-42492138D01*
X38112789Y-42702832D01*
X38112789Y-42702833D01*
X38110895Y-42707406D01*
X38091640Y-42787609D01*
X38065109Y-42898120D01*
X38055465Y-42938289D01*
X38049556Y-43013374D01*
X38038746Y-43150720D01*
X38037785Y-43158921D01*
X38037821Y-43159011D01*
X38036309Y-43168724D01*
X38036946Y-43173593D01*
X38036835Y-43175000D01*
X38037130Y-43175000D01*
X38038380Y-43184560D01*
X38038380Y-43184562D01*
X38040436Y-43200283D01*
X38041500Y-43216620D01*
X38041500Y-51110578D01*
X38021498Y-51178699D01*
X37967842Y-51225192D01*
X37897568Y-51235296D01*
X37832988Y-51205802D01*
X37795803Y-51149932D01*
X37706754Y-50879086D01*
X37704724Y-50873744D01*
X37537177Y-50486568D01*
X37534673Y-50481434D01*
X37332727Y-50111036D01*
X37329764Y-50106145D01*
X37095080Y-49755577D01*
X37091685Y-49750974D01*
X36826202Y-49423130D01*
X36822397Y-49418843D01*
X36819233Y-49415590D01*
X36805403Y-49407786D01*
X36804033Y-49407865D01*
X36796711Y-49412499D01*
X33672022Y-52537188D01*
X33664408Y-52551132D01*
X33664539Y-52552965D01*
X33668790Y-52559580D01*
X36792612Y-55683402D01*
X36806058Y-55690744D01*
X36815894Y-55683824D01*
X37032238Y-55427817D01*
X37035724Y-55423290D01*
X37277705Y-55077704D01*
X37280762Y-55072888D01*
X37490423Y-54706799D01*
X37493035Y-54701717D01*
X37668655Y-54318129D01*
X37670794Y-54312836D01*
X37796654Y-53955437D01*
X37838148Y-53897827D01*
X37904200Y-53871797D01*
X37973840Y-53885609D01*
X38024958Y-53934879D01*
X38041500Y-53997289D01*
X38041500Y-59125633D01*
X38040000Y-59145018D01*
X38036309Y-59168724D01*
X38037130Y-59175000D01*
X38036835Y-59175000D01*
X38055465Y-59411711D01*
X38110895Y-59642594D01*
X38112788Y-59647165D01*
X38112789Y-59647167D01*
X38198117Y-59853168D01*
X38205706Y-59923758D01*
X38187026Y-59966685D01*
X38188510Y-59967547D01*
X38099674Y-60120490D01*
X38097553Y-60127494D01*
X38097551Y-60127498D01*
X38057879Y-60258488D01*
X38048405Y-60289767D01*
X38037453Y-60466298D01*
X38067406Y-60640614D01*
X38070272Y-60647348D01*
X38070272Y-60647350D01*
X38112801Y-60747300D01*
X38121067Y-60817814D01*
X38105814Y-60859917D01*
X38103354Y-60864153D01*
X38103351Y-60864159D01*
X38099674Y-60870490D01*
X38097553Y-60877494D01*
X38097551Y-60877498D01*
X38067596Y-60976402D01*
X38048405Y-61039767D01*
X38037453Y-61216298D01*
X38067406Y-61390614D01*
X38070272Y-61397348D01*
X38070272Y-61397350D01*
X38112801Y-61497300D01*
X38121067Y-61567814D01*
X38105814Y-61609917D01*
X38103354Y-61614153D01*
X38103351Y-61614159D01*
X38099674Y-61620490D01*
X38097553Y-61627494D01*
X38097551Y-61627498D01*
X38057879Y-61758488D01*
X38048405Y-61789767D01*
X38037453Y-61966298D01*
X38038693Y-61973514D01*
X38038693Y-61973516D01*
X38053594Y-62060233D01*
X38067406Y-62140614D01*
X38136657Y-62303364D01*
X38140991Y-62309253D01*
X38140996Y-62309262D01*
X38185134Y-62369239D01*
X38209400Y-62435960D01*
X38200061Y-62492138D01*
X38112789Y-62702832D01*
X38112789Y-62702833D01*
X38110895Y-62707406D01*
X38055465Y-62938289D01*
X38055077Y-62943223D01*
X38038746Y-63150720D01*
X38037785Y-63158921D01*
X38037821Y-63159011D01*
X38036309Y-63168724D01*
X38036946Y-63173593D01*
X38036835Y-63175000D01*
X38037130Y-63175000D01*
X38038380Y-63184560D01*
X38038380Y-63184562D01*
X38040436Y-63200283D01*
X38041500Y-63216620D01*
X38041500Y-64110578D01*
X38021498Y-64178699D01*
X37967842Y-64225192D01*
X37897568Y-64235296D01*
X37832988Y-64205802D01*
X37795803Y-64149932D01*
X37706754Y-63879086D01*
X37704724Y-63873744D01*
X37537177Y-63486568D01*
X37534673Y-63481434D01*
X37332727Y-63111036D01*
X37329764Y-63106145D01*
X37095080Y-62755577D01*
X37091685Y-62750974D01*
X36826202Y-62423130D01*
X36822397Y-62418843D01*
X36819233Y-62415590D01*
X36805403Y-62407786D01*
X36804033Y-62407865D01*
X36796711Y-62412499D01*
X33672022Y-65537188D01*
X33664408Y-65551132D01*
X33664539Y-65552965D01*
X33668790Y-65559580D01*
X36792612Y-68683402D01*
X36806058Y-68690744D01*
X36815894Y-68683824D01*
X37032238Y-68427817D01*
X37035724Y-68423290D01*
X37277705Y-68077704D01*
X37280762Y-68072888D01*
X37490423Y-67706799D01*
X37493035Y-67701717D01*
X37668655Y-67318129D01*
X37670794Y-67312836D01*
X37796654Y-66955437D01*
X37838148Y-66897827D01*
X37904200Y-66871797D01*
X37973840Y-66885609D01*
X38024958Y-66934879D01*
X38041500Y-66997289D01*
X38041500Y-79125633D01*
X38040000Y-79145018D01*
X38036309Y-79168724D01*
X38037130Y-79175000D01*
X38036835Y-79175000D01*
X38055465Y-79411711D01*
X38110895Y-79642594D01*
X38112788Y-79647165D01*
X38112789Y-79647167D01*
X38198117Y-79853168D01*
X38205706Y-79923758D01*
X38187026Y-79966685D01*
X38188510Y-79967547D01*
X38099674Y-80120490D01*
X38097553Y-80127494D01*
X38097551Y-80127498D01*
X38057879Y-80258488D01*
X38048405Y-80289767D01*
X38037453Y-80466298D01*
X38067406Y-80640614D01*
X38070272Y-80647348D01*
X38070272Y-80647350D01*
X38112801Y-80747300D01*
X38121067Y-80817814D01*
X38105814Y-80859917D01*
X38103354Y-80864153D01*
X38103351Y-80864159D01*
X38099674Y-80870490D01*
X38097553Y-80877494D01*
X38097551Y-80877498D01*
X38057879Y-81008488D01*
X38048405Y-81039767D01*
X38037453Y-81216298D01*
X38067406Y-81390614D01*
X38070272Y-81397348D01*
X38070272Y-81397350D01*
X38112801Y-81497300D01*
X38121067Y-81567814D01*
X38105814Y-81609917D01*
X38103354Y-81614153D01*
X38103351Y-81614159D01*
X38099674Y-81620490D01*
X38097553Y-81627494D01*
X38097551Y-81627498D01*
X38057879Y-81758488D01*
X38048405Y-81789767D01*
X38037453Y-81966298D01*
X38038693Y-81973514D01*
X38038693Y-81973516D01*
X38052339Y-82052928D01*
X38067406Y-82140614D01*
X38136657Y-82303364D01*
X38140991Y-82309253D01*
X38140996Y-82309262D01*
X38185134Y-82369239D01*
X38209400Y-82435960D01*
X38200061Y-82492138D01*
X38112789Y-82702832D01*
X38112789Y-82702833D01*
X38110895Y-82707406D01*
X38092403Y-82784429D01*
X38067570Y-82887870D01*
X38055465Y-82938289D01*
X38049979Y-83008002D01*
X38038746Y-83150720D01*
X38037785Y-83158921D01*
X38037821Y-83159011D01*
X38036309Y-83168724D01*
X38036946Y-83173593D01*
X38036835Y-83175000D01*
X38037130Y-83175000D01*
X38038380Y-83184560D01*
X38038380Y-83184562D01*
X38040436Y-83200283D01*
X38041500Y-83216620D01*
X38041500Y-85060578D01*
X38021498Y-85128699D01*
X37967842Y-85175192D01*
X37897568Y-85185296D01*
X37832988Y-85155802D01*
X37795803Y-85099932D01*
X37706754Y-84829086D01*
X37704724Y-84823744D01*
X37537177Y-84436568D01*
X37534673Y-84431434D01*
X37332727Y-84061036D01*
X37329764Y-84056145D01*
X37095080Y-83705577D01*
X37091685Y-83700974D01*
X36826202Y-83373130D01*
X36822397Y-83368843D01*
X36819233Y-83365590D01*
X36805403Y-83357786D01*
X36804033Y-83357865D01*
X36796711Y-83362499D01*
X33672022Y-86487188D01*
X33664408Y-86501132D01*
X33664539Y-86502965D01*
X33668790Y-86509580D01*
X36792612Y-89633402D01*
X36806058Y-89640744D01*
X36815894Y-89633824D01*
X37032238Y-89377817D01*
X37035724Y-89373290D01*
X37277705Y-89027704D01*
X37280762Y-89022888D01*
X37490423Y-88656799D01*
X37493035Y-88651717D01*
X37668655Y-88268129D01*
X37670794Y-88262836D01*
X37796654Y-87905437D01*
X37838148Y-87847827D01*
X37904200Y-87821797D01*
X37973840Y-87835609D01*
X38024958Y-87884879D01*
X38041500Y-87947289D01*
X38041500Y-98060578D01*
X38021498Y-98128699D01*
X37967842Y-98175192D01*
X37897568Y-98185296D01*
X37832988Y-98155802D01*
X37795803Y-98099932D01*
X37706754Y-97829086D01*
X37704724Y-97823744D01*
X37537177Y-97436568D01*
X37534673Y-97431434D01*
X37332727Y-97061036D01*
X37329764Y-97056145D01*
X37095080Y-96705577D01*
X37091685Y-96700974D01*
X36826202Y-96373130D01*
X36822397Y-96368843D01*
X36819233Y-96365590D01*
X36805403Y-96357786D01*
X36804033Y-96357865D01*
X36796711Y-96362499D01*
X33672022Y-99487188D01*
X33664408Y-99501132D01*
X33664539Y-99502965D01*
X33668790Y-99509580D01*
X36792612Y-102633402D01*
X36806058Y-102640744D01*
X36815894Y-102633824D01*
X37032238Y-102377817D01*
X37035724Y-102373290D01*
X37277705Y-102027704D01*
X37280762Y-102022888D01*
X37490423Y-101656799D01*
X37493035Y-101651717D01*
X37668655Y-101268129D01*
X37670794Y-101262836D01*
X37810924Y-100864915D01*
X37812577Y-100859441D01*
X37850618Y-100709104D01*
X37886719Y-100647972D01*
X37950141Y-100616061D01*
X38020746Y-100623505D01*
X38076119Y-100667939D01*
X38088709Y-100690680D01*
X38112801Y-100747300D01*
X38121067Y-100817814D01*
X38105814Y-100859917D01*
X38103354Y-100864153D01*
X38103351Y-100864159D01*
X38099674Y-100870490D01*
X38097553Y-100877494D01*
X38097551Y-100877498D01*
X38057879Y-101008488D01*
X38048405Y-101039767D01*
X38037453Y-101216298D01*
X38038693Y-101223514D01*
X38038693Y-101223516D01*
X38046359Y-101268129D01*
X38067406Y-101390614D01*
X38070272Y-101397348D01*
X38070272Y-101397350D01*
X38112801Y-101497300D01*
X38121067Y-101567814D01*
X38105814Y-101609917D01*
X38103354Y-101614153D01*
X38103351Y-101614159D01*
X38099674Y-101620490D01*
X38097553Y-101627494D01*
X38097551Y-101627498D01*
X38057879Y-101758488D01*
X38048405Y-101789767D01*
X38037453Y-101966298D01*
X38067406Y-102140614D01*
X38136657Y-102303364D01*
X38140991Y-102309253D01*
X38140996Y-102309262D01*
X38185134Y-102369239D01*
X38209400Y-102435960D01*
X38200061Y-102492138D01*
X38112789Y-102702832D01*
X38112789Y-102702833D01*
X38110895Y-102707406D01*
X38055465Y-102938289D01*
X38050120Y-103006211D01*
X38038746Y-103150720D01*
X38037785Y-103158921D01*
X38037821Y-103159011D01*
X38036309Y-103168724D01*
X38036946Y-103173593D01*
X38036835Y-103175000D01*
X38037130Y-103175000D01*
X38038380Y-103184560D01*
X38038380Y-103184562D01*
X38040436Y-103200283D01*
X38041500Y-103216620D01*
X38041500Y-119125633D01*
X38040000Y-119145018D01*
X38038994Y-119151483D01*
X38036309Y-119168724D01*
X38037130Y-119175000D01*
X38036835Y-119175000D01*
X38047561Y-119311275D01*
X38048495Y-119323147D01*
X38033899Y-119392627D01*
X37984057Y-119443186D01*
X37914792Y-119458773D01*
X37848097Y-119434438D01*
X37803187Y-119372387D01*
X37706761Y-119079106D01*
X37704724Y-119073744D01*
X37537177Y-118686568D01*
X37534673Y-118681434D01*
X37332727Y-118311036D01*
X37329764Y-118306145D01*
X37095080Y-117955577D01*
X37091685Y-117950974D01*
X36826202Y-117623130D01*
X36822397Y-117618843D01*
X36819233Y-117615590D01*
X36805403Y-117607786D01*
X36804033Y-117607865D01*
X36796711Y-117612499D01*
X33672022Y-120737188D01*
X33664408Y-120751132D01*
X33664539Y-120752965D01*
X33668790Y-120759580D01*
X36792612Y-123883402D01*
X36806058Y-123890744D01*
X36815894Y-123883824D01*
X37032238Y-123627817D01*
X37035724Y-123623290D01*
X37277705Y-123277704D01*
X37280762Y-123272888D01*
X37490423Y-122906799D01*
X37493035Y-122901717D01*
X37668655Y-122518129D01*
X37670794Y-122512836D01*
X37810924Y-122114915D01*
X37812577Y-122109441D01*
X37815428Y-122098174D01*
X37851530Y-122037041D01*
X37914951Y-122005131D01*
X37985557Y-122012575D01*
X38040929Y-122057010D01*
X38061758Y-122107745D01*
X38067406Y-122140614D01*
X38136657Y-122303364D01*
X38140991Y-122309253D01*
X38140996Y-122309262D01*
X38185134Y-122369239D01*
X38209400Y-122435960D01*
X38200061Y-122492138D01*
X38112789Y-122702832D01*
X38112789Y-122702833D01*
X38110895Y-122707406D01*
X38055465Y-122938289D01*
X38053356Y-122965094D01*
X38038746Y-123150720D01*
X38037785Y-123158921D01*
X38037821Y-123159011D01*
X38036309Y-123168724D01*
X38036946Y-123173593D01*
X38036835Y-123175000D01*
X38037130Y-123175000D01*
X38038380Y-123184560D01*
X38038380Y-123184562D01*
X38040436Y-123200283D01*
X38041500Y-123216620D01*
X38041500Y-132310578D01*
X38021498Y-132378699D01*
X37967842Y-132425192D01*
X37897568Y-132435296D01*
X37832988Y-132405802D01*
X37795803Y-132349932D01*
X37706754Y-132079086D01*
X37704724Y-132073744D01*
X37537177Y-131686568D01*
X37534673Y-131681434D01*
X37332727Y-131311036D01*
X37329764Y-131306145D01*
X37095080Y-130955577D01*
X37091685Y-130950974D01*
X36826202Y-130623130D01*
X36822397Y-130618843D01*
X36819233Y-130615590D01*
X36805403Y-130607786D01*
X36804033Y-130607865D01*
X36796711Y-130612499D01*
X33672022Y-133737188D01*
X33664408Y-133751132D01*
X33664539Y-133752965D01*
X33668790Y-133759580D01*
X36792612Y-136883402D01*
X36806058Y-136890744D01*
X36815894Y-136883824D01*
X37032238Y-136627817D01*
X37035724Y-136623290D01*
X37277705Y-136277704D01*
X37280762Y-136272888D01*
X37490423Y-135906799D01*
X37493035Y-135901717D01*
X37668655Y-135518129D01*
X37670794Y-135512836D01*
X37796654Y-135155437D01*
X37838148Y-135097827D01*
X37904200Y-135071797D01*
X37973840Y-135085609D01*
X38024958Y-135134879D01*
X38041500Y-135197289D01*
X38041500Y-139125633D01*
X38040000Y-139145018D01*
X38036309Y-139168724D01*
X38037130Y-139175000D01*
X38036835Y-139175000D01*
X38055465Y-139411711D01*
X38110895Y-139642594D01*
X38112788Y-139647165D01*
X38112789Y-139647167D01*
X38198117Y-139853168D01*
X38205706Y-139923758D01*
X38187026Y-139966685D01*
X38188510Y-139967547D01*
X38099674Y-140120490D01*
X38097553Y-140127494D01*
X38097551Y-140127498D01*
X38057879Y-140258488D01*
X38048405Y-140289767D01*
X38037453Y-140466298D01*
X38067406Y-140640614D01*
X38070272Y-140647348D01*
X38070272Y-140647350D01*
X38112801Y-140747300D01*
X38121067Y-140817814D01*
X38105814Y-140859917D01*
X38103354Y-140864153D01*
X38103351Y-140864159D01*
X38099674Y-140870490D01*
X38097553Y-140877494D01*
X38097551Y-140877498D01*
X38057879Y-141008488D01*
X38048405Y-141039767D01*
X38037453Y-141216298D01*
X38067406Y-141390614D01*
X38070272Y-141397348D01*
X38070272Y-141397350D01*
X38112801Y-141497300D01*
X38121067Y-141567814D01*
X38105814Y-141609917D01*
X38103354Y-141614153D01*
X38103351Y-141614159D01*
X38099674Y-141620490D01*
X38097553Y-141627494D01*
X38097551Y-141627498D01*
X38057879Y-141758488D01*
X38048405Y-141789767D01*
X38037453Y-141966298D01*
X38067406Y-142140614D01*
X38136657Y-142303364D01*
X38140991Y-142309253D01*
X38140996Y-142309262D01*
X38185134Y-142369239D01*
X38209400Y-142435960D01*
X38200061Y-142492138D01*
X38112789Y-142702832D01*
X38112789Y-142702833D01*
X38110895Y-142707406D01*
X38055465Y-142938289D01*
X38055077Y-142943223D01*
X38038746Y-143150720D01*
X38037785Y-143158921D01*
X38037821Y-143159011D01*
X38036309Y-143168724D01*
X38036946Y-143173593D01*
X38036835Y-143175000D01*
X38037130Y-143175000D01*
X38038380Y-143184560D01*
X38038380Y-143184562D01*
X38040436Y-143200283D01*
X38041500Y-143216620D01*
X38041500Y-153515500D01*
X38021498Y-153583621D01*
X37967842Y-153630114D01*
X37915500Y-153641500D01*
X27368211Y-153641500D01*
X27300090Y-153621498D01*
X27253597Y-153567842D01*
X27243493Y-153497568D01*
X27272987Y-153432988D01*
X27328752Y-153395838D01*
X27346187Y-153390089D01*
X27353631Y-153387096D01*
X27623563Y-153258055D01*
X27630554Y-153254149D01*
X27881916Y-153091847D01*
X27888347Y-153087087D01*
X28117043Y-152894166D01*
X28122828Y-152888618D01*
X28325153Y-152668206D01*
X28330186Y-152661968D01*
X28502866Y-152417631D01*
X28507061Y-152410812D01*
X28647295Y-152146516D01*
X28650594Y-152139210D01*
X28756105Y-151859242D01*
X28758452Y-151851566D01*
X28827532Y-151560474D01*
X28828885Y-151552556D01*
X28842721Y-151422015D01*
X28840057Y-151407377D01*
X28827709Y-151404000D01*
X23271176Y-151404000D01*
X23257777Y-151407934D01*
X23255785Y-151422116D01*
X23290940Y-151655952D01*
X23292633Y-151663780D01*
X23374346Y-151951588D01*
X23377029Y-151959165D01*
X23494645Y-152234246D01*
X23498267Y-152241417D01*
X23649892Y-152499339D01*
X23654382Y-152505971D01*
X23837550Y-152742537D01*
X23842863Y-152748563D01*
X24054600Y-152959930D01*
X24060625Y-152965223D01*
X24297498Y-153147970D01*
X24304171Y-153152470D01*
X24562348Y-153303640D01*
X24569501Y-153307238D01*
X24786470Y-153399559D01*
X24841321Y-153444636D01*
X24863094Y-153512212D01*
X24844877Y-153580831D01*
X24792453Y-153628709D01*
X24737137Y-153641500D01*
X19184500Y-153641500D01*
X19116379Y-153621498D01*
X19069886Y-153567842D01*
X19058500Y-153515500D01*
X19058500Y-150877985D01*
X23257279Y-150877985D01*
X23259943Y-150892623D01*
X23272291Y-150896000D01*
X25777885Y-150896000D01*
X25793124Y-150891525D01*
X25794329Y-150890135D01*
X25796000Y-150882452D01*
X25796000Y-150877885D01*
X26304000Y-150877885D01*
X26308475Y-150893124D01*
X26309865Y-150894329D01*
X26317548Y-150896000D01*
X28828824Y-150896000D01*
X28842223Y-150892066D01*
X28844215Y-150877884D01*
X28809060Y-150644048D01*
X28807367Y-150636220D01*
X28725654Y-150348412D01*
X28722971Y-150340835D01*
X28605355Y-150065754D01*
X28601733Y-150058583D01*
X28450108Y-149800661D01*
X28445618Y-149794029D01*
X28262450Y-149557463D01*
X28257137Y-149551437D01*
X28045400Y-149340070D01*
X28039375Y-149334777D01*
X27802502Y-149152030D01*
X27795829Y-149147530D01*
X27537652Y-148996360D01*
X27530499Y-148992762D01*
X27255185Y-148875615D01*
X27247621Y-148872952D01*
X26959668Y-148791740D01*
X26951829Y-148790060D01*
X26655212Y-148745995D01*
X26648575Y-148745365D01*
X26569617Y-148742056D01*
X26566969Y-148742000D01*
X26322115Y-148742000D01*
X26306876Y-148746475D01*
X26305671Y-148747865D01*
X26304000Y-148755548D01*
X26304000Y-150877885D01*
X25796000Y-150877885D01*
X25796000Y-148760115D01*
X25791525Y-148744876D01*
X25790135Y-148743671D01*
X25782452Y-148742000D01*
X25574290Y-148742000D01*
X25570260Y-148742129D01*
X25347406Y-148756344D01*
X25339459Y-148757362D01*
X25045704Y-148814196D01*
X25037959Y-148816214D01*
X24753813Y-148909912D01*
X24746369Y-148912904D01*
X24476437Y-149041945D01*
X24469446Y-149045851D01*
X24218084Y-149208153D01*
X24211653Y-149212913D01*
X23982957Y-149405834D01*
X23977172Y-149411382D01*
X23774847Y-149631794D01*
X23769814Y-149638032D01*
X23597134Y-149882369D01*
X23592939Y-149889188D01*
X23452705Y-150153484D01*
X23449406Y-150160790D01*
X23343895Y-150440758D01*
X23341548Y-150448434D01*
X23272468Y-150739526D01*
X23271115Y-150747444D01*
X23257279Y-150877985D01*
X19058500Y-150877985D01*
X19058500Y-137256889D01*
X20658651Y-137256889D01*
X20658732Y-137258022D01*
X20663710Y-137265594D01*
X20693522Y-137294182D01*
X20697799Y-137297927D01*
X21027535Y-137561152D01*
X21032118Y-137564482D01*
X21384349Y-137796735D01*
X21389245Y-137799653D01*
X21761033Y-137999004D01*
X21766206Y-138001483D01*
X22154550Y-138166325D01*
X22159885Y-138168309D01*
X22561575Y-138297278D01*
X22567076Y-138298773D01*
X22978808Y-138390805D01*
X22984420Y-138391794D01*
X23402785Y-138446131D01*
X23408491Y-138446610D01*
X23830040Y-138462804D01*
X23835766Y-138462764D01*
X24257055Y-138440686D01*
X24262736Y-138440129D01*
X24680312Y-138379955D01*
X24685907Y-138378887D01*
X25096311Y-138281115D01*
X25101792Y-138279544D01*
X25501635Y-138144982D01*
X25506965Y-138142914D01*
X25892968Y-137972667D01*
X25898075Y-137970132D01*
X26267059Y-137765601D01*
X26271925Y-137762607D01*
X26620843Y-137525483D01*
X26625438Y-137522045D01*
X26933934Y-137268643D01*
X26941934Y-137256889D01*
X30158651Y-137256889D01*
X30158732Y-137258022D01*
X30163710Y-137265594D01*
X30193522Y-137294182D01*
X30197799Y-137297927D01*
X30527535Y-137561152D01*
X30532118Y-137564482D01*
X30884349Y-137796735D01*
X30889245Y-137799653D01*
X31261033Y-137999004D01*
X31266206Y-138001483D01*
X31654550Y-138166325D01*
X31659885Y-138168309D01*
X32061575Y-138297278D01*
X32067076Y-138298773D01*
X32478808Y-138390805D01*
X32484420Y-138391794D01*
X32902785Y-138446131D01*
X32908491Y-138446610D01*
X33330040Y-138462804D01*
X33335766Y-138462764D01*
X33757055Y-138440686D01*
X33762736Y-138440129D01*
X34180312Y-138379955D01*
X34185907Y-138378887D01*
X34596311Y-138281115D01*
X34601792Y-138279544D01*
X35001635Y-138144982D01*
X35006965Y-138142914D01*
X35392968Y-137972667D01*
X35398075Y-137970132D01*
X35767059Y-137765601D01*
X35771925Y-137762607D01*
X36120843Y-137525483D01*
X36125438Y-137522045D01*
X36433934Y-137268643D01*
X36442395Y-137256211D01*
X36436145Y-137245355D01*
X33312812Y-134122022D01*
X33298868Y-134114408D01*
X33297035Y-134114539D01*
X33290420Y-134118790D01*
X30166265Y-137242945D01*
X30158651Y-137256889D01*
X26941934Y-137256889D01*
X26942395Y-137256211D01*
X26936145Y-137245355D01*
X23812812Y-134122022D01*
X23798868Y-134114408D01*
X23797035Y-134114539D01*
X23790420Y-134118790D01*
X20666265Y-137242945D01*
X20658651Y-137256889D01*
X19058500Y-137256889D01*
X19058500Y-135202546D01*
X19078502Y-135134425D01*
X19132158Y-135087932D01*
X19202432Y-135077828D01*
X19267012Y-135107322D01*
X19306207Y-135169936D01*
X19306846Y-135172320D01*
X19308571Y-135177758D01*
X19454247Y-135573694D01*
X19456455Y-135578948D01*
X19637417Y-135960054D01*
X19640098Y-135965094D01*
X19854844Y-136328209D01*
X19857985Y-136333009D01*
X20104752Y-136675161D01*
X20108307Y-136679648D01*
X20283754Y-136881477D01*
X20296884Y-136889885D01*
X20306797Y-136883993D01*
X23427978Y-133762812D01*
X23434356Y-133751132D01*
X24164408Y-133751132D01*
X24164539Y-133752965D01*
X24168790Y-133759580D01*
X27292612Y-136883402D01*
X27306058Y-136890744D01*
X27315894Y-136883824D01*
X27532238Y-136627817D01*
X27535724Y-136623290D01*
X27777705Y-136277704D01*
X27780762Y-136272888D01*
X27990423Y-135906799D01*
X27993035Y-135901717D01*
X28168655Y-135518129D01*
X28170794Y-135512836D01*
X28310924Y-135114915D01*
X28312577Y-135109441D01*
X28416064Y-134700465D01*
X28417215Y-134694856D01*
X28426391Y-134636922D01*
X28456803Y-134572769D01*
X28517071Y-134535241D01*
X28588061Y-134536255D01*
X28647233Y-134575487D01*
X28675001Y-134635186D01*
X28696426Y-134759222D01*
X28697657Y-134764822D01*
X28806847Y-135172325D01*
X28808571Y-135177758D01*
X28954247Y-135573694D01*
X28956455Y-135578948D01*
X29137417Y-135960054D01*
X29140098Y-135965094D01*
X29354844Y-136328209D01*
X29357985Y-136333009D01*
X29604752Y-136675161D01*
X29608307Y-136679648D01*
X29783754Y-136881477D01*
X29796884Y-136889885D01*
X29806797Y-136883993D01*
X32927978Y-133762812D01*
X32935592Y-133748868D01*
X32935461Y-133747035D01*
X32931210Y-133740420D01*
X29808828Y-130618038D01*
X29794884Y-130610424D01*
X29794691Y-130610437D01*
X29785869Y-130616416D01*
X29670476Y-130743677D01*
X29666824Y-130748091D01*
X29412938Y-131085009D01*
X29409704Y-131089733D01*
X29187405Y-131448265D01*
X29184611Y-131453264D01*
X28995720Y-131830470D01*
X28993386Y-131835712D01*
X28839460Y-132228486D01*
X28837617Y-132233899D01*
X28719917Y-132639024D01*
X28718575Y-132644574D01*
X28675465Y-132866353D01*
X28642832Y-132929406D01*
X28581291Y-132964806D01*
X28510381Y-132961316D01*
X28452614Y-132920042D01*
X28429009Y-132870655D01*
X28340055Y-132485356D01*
X28338521Y-132479860D01*
X28206754Y-132079086D01*
X28204724Y-132073744D01*
X28037177Y-131686568D01*
X28034673Y-131681434D01*
X27832727Y-131311036D01*
X27829764Y-131306145D01*
X27595080Y-130955577D01*
X27591685Y-130950974D01*
X27326202Y-130623130D01*
X27322397Y-130618843D01*
X27319233Y-130615590D01*
X27305403Y-130607786D01*
X27304033Y-130607865D01*
X27296711Y-130612499D01*
X24172022Y-133737188D01*
X24164408Y-133751132D01*
X23434356Y-133751132D01*
X23435592Y-133748868D01*
X23435461Y-133747035D01*
X23431210Y-133740420D01*
X20308828Y-130618038D01*
X20294884Y-130610424D01*
X20294691Y-130610437D01*
X20285869Y-130616416D01*
X20170476Y-130743677D01*
X20166824Y-130748091D01*
X19912938Y-131085009D01*
X19909704Y-131089733D01*
X19687405Y-131448265D01*
X19684611Y-131453264D01*
X19495720Y-131830470D01*
X19493386Y-131835712D01*
X19339460Y-132228486D01*
X19337617Y-132233899D01*
X19305497Y-132344456D01*
X19267284Y-132404292D01*
X19202788Y-132433969D01*
X19132485Y-132424066D01*
X19078697Y-132377726D01*
X19058500Y-132309303D01*
X19058500Y-130247162D01*
X20660172Y-130247162D01*
X20660184Y-130247593D01*
X20665551Y-130256341D01*
X23787188Y-133377978D01*
X23801132Y-133385592D01*
X23802965Y-133385461D01*
X23809580Y-133381210D01*
X26932788Y-130258002D01*
X26938707Y-130247162D01*
X30160172Y-130247162D01*
X30160184Y-130247593D01*
X30165551Y-130256341D01*
X33287188Y-133377978D01*
X33301132Y-133385592D01*
X33302965Y-133385461D01*
X33309580Y-133381210D01*
X36432788Y-130258002D01*
X36440196Y-130244435D01*
X36433454Y-130234779D01*
X36203797Y-130037940D01*
X36199304Y-130034429D01*
X35855427Y-129790048D01*
X35850604Y-129786940D01*
X35486001Y-129574736D01*
X35480936Y-129572089D01*
X35098592Y-129393798D01*
X35093299Y-129391617D01*
X34696371Y-129248713D01*
X34690911Y-129247024D01*
X34282663Y-129140683D01*
X34277073Y-129139495D01*
X33860861Y-129070592D01*
X33855196Y-129069916D01*
X33434441Y-129039018D01*
X33428740Y-129038859D01*
X33006917Y-129046221D01*
X33001229Y-129046579D01*
X32581827Y-129092141D01*
X32576157Y-129093019D01*
X32162622Y-129176402D01*
X32157077Y-129177784D01*
X31752783Y-129298310D01*
X31747379Y-129300192D01*
X31355687Y-129456857D01*
X31350480Y-129459219D01*
X30974581Y-129650749D01*
X30969616Y-129653570D01*
X30612632Y-129878375D01*
X30607937Y-129881638D01*
X30272799Y-130137870D01*
X30268419Y-130141544D01*
X30168359Y-130233555D01*
X30160172Y-130247162D01*
X26938707Y-130247162D01*
X26940196Y-130244435D01*
X26933454Y-130234779D01*
X26703797Y-130037940D01*
X26699304Y-130034429D01*
X26355427Y-129790048D01*
X26350604Y-129786940D01*
X25986001Y-129574736D01*
X25980936Y-129572089D01*
X25598592Y-129393798D01*
X25593299Y-129391617D01*
X25196371Y-129248713D01*
X25190911Y-129247024D01*
X24782663Y-129140683D01*
X24777073Y-129139495D01*
X24360861Y-129070592D01*
X24355196Y-129069916D01*
X23934441Y-129039018D01*
X23928740Y-129038859D01*
X23506917Y-129046221D01*
X23501229Y-129046579D01*
X23081827Y-129092141D01*
X23076157Y-129093019D01*
X22662622Y-129176402D01*
X22657077Y-129177784D01*
X22252783Y-129298310D01*
X22247379Y-129300192D01*
X21855687Y-129456857D01*
X21850480Y-129459219D01*
X21474581Y-129650749D01*
X21469616Y-129653570D01*
X21112632Y-129878375D01*
X21107937Y-129881638D01*
X20772799Y-130137870D01*
X20768419Y-130141544D01*
X20668359Y-130233555D01*
X20660172Y-130247162D01*
X19058500Y-130247162D01*
X19058500Y-124256889D01*
X20658651Y-124256889D01*
X20658732Y-124258022D01*
X20663710Y-124265594D01*
X20693522Y-124294182D01*
X20697799Y-124297927D01*
X21027535Y-124561152D01*
X21032118Y-124564482D01*
X21384349Y-124796735D01*
X21389245Y-124799653D01*
X21761033Y-124999004D01*
X21766206Y-125001483D01*
X22154550Y-125166325D01*
X22159885Y-125168309D01*
X22561575Y-125297278D01*
X22567076Y-125298773D01*
X22978808Y-125390805D01*
X22984420Y-125391794D01*
X23402785Y-125446131D01*
X23408491Y-125446610D01*
X23830040Y-125462804D01*
X23835766Y-125462764D01*
X24257055Y-125440686D01*
X24262736Y-125440129D01*
X24680312Y-125379955D01*
X24685907Y-125378887D01*
X25096311Y-125281115D01*
X25101792Y-125279544D01*
X25501635Y-125144982D01*
X25506965Y-125142914D01*
X25892968Y-124972667D01*
X25898075Y-124970132D01*
X26267059Y-124765601D01*
X26271925Y-124762607D01*
X26620843Y-124525483D01*
X26625438Y-124522045D01*
X26933934Y-124268643D01*
X26941934Y-124256889D01*
X30158651Y-124256889D01*
X30158732Y-124258022D01*
X30163710Y-124265594D01*
X30193522Y-124294182D01*
X30197799Y-124297927D01*
X30527535Y-124561152D01*
X30532118Y-124564482D01*
X30884349Y-124796735D01*
X30889245Y-124799653D01*
X31261033Y-124999004D01*
X31266206Y-125001483D01*
X31654550Y-125166325D01*
X31659885Y-125168309D01*
X32061575Y-125297278D01*
X32067076Y-125298773D01*
X32478808Y-125390805D01*
X32484420Y-125391794D01*
X32902785Y-125446131D01*
X32908491Y-125446610D01*
X33330040Y-125462804D01*
X33335766Y-125462764D01*
X33757055Y-125440686D01*
X33762736Y-125440129D01*
X34180312Y-125379955D01*
X34185907Y-125378887D01*
X34596311Y-125281115D01*
X34601792Y-125279544D01*
X35001635Y-125144982D01*
X35006965Y-125142914D01*
X35392968Y-124972667D01*
X35398075Y-124970132D01*
X35767059Y-124765601D01*
X35771925Y-124762607D01*
X36120843Y-124525483D01*
X36125438Y-124522045D01*
X36433934Y-124268643D01*
X36442395Y-124256211D01*
X36436145Y-124245355D01*
X33312812Y-121122022D01*
X33298868Y-121114408D01*
X33297035Y-121114539D01*
X33290420Y-121118790D01*
X30166265Y-124242945D01*
X30158651Y-124256889D01*
X26941934Y-124256889D01*
X26942395Y-124256211D01*
X26936145Y-124245355D01*
X23812812Y-121122022D01*
X23798868Y-121114408D01*
X23797035Y-121114539D01*
X23790420Y-121118790D01*
X20666265Y-124242945D01*
X20658651Y-124256889D01*
X19058500Y-124256889D01*
X19058500Y-122202546D01*
X19078502Y-122134425D01*
X19132158Y-122087932D01*
X19202432Y-122077828D01*
X19267012Y-122107322D01*
X19306207Y-122169936D01*
X19306846Y-122172320D01*
X19308571Y-122177758D01*
X19454247Y-122573694D01*
X19456455Y-122578948D01*
X19637417Y-122960054D01*
X19640098Y-122965094D01*
X19854844Y-123328209D01*
X19857985Y-123333009D01*
X20104752Y-123675161D01*
X20108307Y-123679648D01*
X20283754Y-123881477D01*
X20296884Y-123889885D01*
X20306797Y-123883993D01*
X23427978Y-120762812D01*
X23434356Y-120751132D01*
X24164408Y-120751132D01*
X24164539Y-120752965D01*
X24168790Y-120759580D01*
X27292612Y-123883402D01*
X27306058Y-123890744D01*
X27315894Y-123883824D01*
X27532238Y-123627817D01*
X27535724Y-123623290D01*
X27777705Y-123277704D01*
X27780762Y-123272888D01*
X27990423Y-122906799D01*
X27993035Y-122901717D01*
X28168655Y-122518129D01*
X28170794Y-122512836D01*
X28310924Y-122114915D01*
X28312577Y-122109441D01*
X28416064Y-121700465D01*
X28417215Y-121694856D01*
X28426391Y-121636922D01*
X28456803Y-121572769D01*
X28517071Y-121535241D01*
X28588061Y-121536255D01*
X28647233Y-121575487D01*
X28675001Y-121635186D01*
X28696426Y-121759222D01*
X28697657Y-121764822D01*
X28806847Y-122172325D01*
X28808571Y-122177758D01*
X28954247Y-122573694D01*
X28956455Y-122578948D01*
X29137417Y-122960054D01*
X29140098Y-122965094D01*
X29354844Y-123328209D01*
X29357985Y-123333009D01*
X29604752Y-123675161D01*
X29608307Y-123679648D01*
X29783754Y-123881477D01*
X29796884Y-123889885D01*
X29806797Y-123883993D01*
X32927978Y-120762812D01*
X32935592Y-120748868D01*
X32935461Y-120747035D01*
X32931210Y-120740420D01*
X29808828Y-117618038D01*
X29794884Y-117610424D01*
X29794691Y-117610437D01*
X29785869Y-117616416D01*
X29670476Y-117743677D01*
X29666824Y-117748091D01*
X29412938Y-118085009D01*
X29409704Y-118089733D01*
X29187405Y-118448265D01*
X29184611Y-118453264D01*
X28995720Y-118830470D01*
X28993386Y-118835712D01*
X28839460Y-119228486D01*
X28837617Y-119233899D01*
X28719917Y-119639024D01*
X28718575Y-119644574D01*
X28675465Y-119866353D01*
X28642832Y-119929406D01*
X28581291Y-119964806D01*
X28510381Y-119961316D01*
X28452614Y-119920042D01*
X28429009Y-119870655D01*
X28340055Y-119485356D01*
X28338521Y-119479860D01*
X28206754Y-119079086D01*
X28204724Y-119073744D01*
X28037177Y-118686568D01*
X28034673Y-118681434D01*
X27832727Y-118311036D01*
X27829764Y-118306145D01*
X27595080Y-117955577D01*
X27591685Y-117950974D01*
X27326202Y-117623130D01*
X27322397Y-117618843D01*
X27319233Y-117615590D01*
X27305403Y-117607786D01*
X27304033Y-117607865D01*
X27296711Y-117612499D01*
X24172022Y-120737188D01*
X24164408Y-120751132D01*
X23434356Y-120751132D01*
X23435592Y-120748868D01*
X23435461Y-120747035D01*
X23431210Y-120740420D01*
X20308828Y-117618038D01*
X20294884Y-117610424D01*
X20294691Y-117610437D01*
X20285869Y-117616416D01*
X20170476Y-117743677D01*
X20166824Y-117748091D01*
X19912938Y-118085009D01*
X19909704Y-118089733D01*
X19687405Y-118448265D01*
X19684611Y-118453264D01*
X19495720Y-118830470D01*
X19493386Y-118835712D01*
X19339460Y-119228486D01*
X19337617Y-119233899D01*
X19305497Y-119344456D01*
X19267284Y-119404292D01*
X19202788Y-119433969D01*
X19132485Y-119424066D01*
X19078697Y-119377726D01*
X19058500Y-119309303D01*
X19058500Y-117247162D01*
X20660172Y-117247162D01*
X20660184Y-117247593D01*
X20665551Y-117256341D01*
X23787188Y-120377978D01*
X23801132Y-120385592D01*
X23802965Y-120385461D01*
X23809580Y-120381210D01*
X26932788Y-117258002D01*
X26938707Y-117247162D01*
X30160172Y-117247162D01*
X30160184Y-117247593D01*
X30165551Y-117256341D01*
X33287188Y-120377978D01*
X33301132Y-120385592D01*
X33302965Y-120385461D01*
X33309580Y-120381210D01*
X36432788Y-117258002D01*
X36440196Y-117244435D01*
X36433454Y-117234779D01*
X36203797Y-117037940D01*
X36199304Y-117034429D01*
X35855427Y-116790048D01*
X35850604Y-116786940D01*
X35486001Y-116574736D01*
X35480936Y-116572089D01*
X35098592Y-116393798D01*
X35093299Y-116391617D01*
X34696371Y-116248713D01*
X34690911Y-116247024D01*
X34282663Y-116140683D01*
X34277073Y-116139495D01*
X33860861Y-116070592D01*
X33855196Y-116069916D01*
X33434441Y-116039018D01*
X33428740Y-116038859D01*
X33006917Y-116046221D01*
X33001229Y-116046579D01*
X32581827Y-116092141D01*
X32576157Y-116093019D01*
X32162622Y-116176402D01*
X32157077Y-116177784D01*
X31752783Y-116298310D01*
X31747379Y-116300192D01*
X31355687Y-116456857D01*
X31350480Y-116459219D01*
X30974581Y-116650749D01*
X30969616Y-116653570D01*
X30612632Y-116878375D01*
X30607937Y-116881638D01*
X30272799Y-117137870D01*
X30268419Y-117141544D01*
X30168359Y-117233555D01*
X30160172Y-117247162D01*
X26938707Y-117247162D01*
X26940196Y-117244435D01*
X26933454Y-117234779D01*
X26703797Y-117037940D01*
X26699304Y-117034429D01*
X26355427Y-116790048D01*
X26350604Y-116786940D01*
X25986001Y-116574736D01*
X25980936Y-116572089D01*
X25598592Y-116393798D01*
X25593299Y-116391617D01*
X25196371Y-116248713D01*
X25190911Y-116247024D01*
X24782663Y-116140683D01*
X24777073Y-116139495D01*
X24360861Y-116070592D01*
X24355196Y-116069916D01*
X23934441Y-116039018D01*
X23928740Y-116038859D01*
X23506917Y-116046221D01*
X23501229Y-116046579D01*
X23081827Y-116092141D01*
X23076157Y-116093019D01*
X22662622Y-116176402D01*
X22657077Y-116177784D01*
X22252783Y-116298310D01*
X22247379Y-116300192D01*
X21855687Y-116456857D01*
X21850480Y-116459219D01*
X21474581Y-116650749D01*
X21469616Y-116653570D01*
X21112632Y-116878375D01*
X21107937Y-116881638D01*
X20772799Y-117137870D01*
X20768419Y-117141544D01*
X20668359Y-117233555D01*
X20660172Y-117247162D01*
X19058500Y-117247162D01*
X19058500Y-103006889D01*
X20658651Y-103006889D01*
X20658732Y-103008022D01*
X20663710Y-103015594D01*
X20693522Y-103044182D01*
X20697799Y-103047927D01*
X21027535Y-103311152D01*
X21032118Y-103314482D01*
X21384349Y-103546735D01*
X21389245Y-103549653D01*
X21761033Y-103749004D01*
X21766206Y-103751483D01*
X22154550Y-103916325D01*
X22159885Y-103918309D01*
X22561575Y-104047278D01*
X22567076Y-104048773D01*
X22978808Y-104140805D01*
X22984420Y-104141794D01*
X23402785Y-104196131D01*
X23408491Y-104196610D01*
X23830040Y-104212804D01*
X23835766Y-104212764D01*
X24257055Y-104190686D01*
X24262736Y-104190129D01*
X24680312Y-104129955D01*
X24685907Y-104128887D01*
X25096311Y-104031115D01*
X25101792Y-104029544D01*
X25501635Y-103894982D01*
X25506965Y-103892914D01*
X25892968Y-103722667D01*
X25898075Y-103720132D01*
X26267059Y-103515601D01*
X26271925Y-103512607D01*
X26620843Y-103275483D01*
X26625438Y-103272045D01*
X26933934Y-103018643D01*
X26941934Y-103006889D01*
X30158651Y-103006889D01*
X30158732Y-103008022D01*
X30163710Y-103015594D01*
X30193522Y-103044182D01*
X30197799Y-103047927D01*
X30527535Y-103311152D01*
X30532118Y-103314482D01*
X30884349Y-103546735D01*
X30889245Y-103549653D01*
X31261033Y-103749004D01*
X31266206Y-103751483D01*
X31654550Y-103916325D01*
X31659885Y-103918309D01*
X32061575Y-104047278D01*
X32067076Y-104048773D01*
X32478808Y-104140805D01*
X32484420Y-104141794D01*
X32902785Y-104196131D01*
X32908491Y-104196610D01*
X33330040Y-104212804D01*
X33335766Y-104212764D01*
X33757055Y-104190686D01*
X33762736Y-104190129D01*
X34180312Y-104129955D01*
X34185907Y-104128887D01*
X34596311Y-104031115D01*
X34601792Y-104029544D01*
X35001635Y-103894982D01*
X35006965Y-103892914D01*
X35392968Y-103722667D01*
X35398075Y-103720132D01*
X35767059Y-103515601D01*
X35771925Y-103512607D01*
X36120843Y-103275483D01*
X36125438Y-103272045D01*
X36433934Y-103018643D01*
X36442395Y-103006211D01*
X36436145Y-102995355D01*
X33312812Y-99872022D01*
X33298868Y-99864408D01*
X33297035Y-99864539D01*
X33290420Y-99868790D01*
X30166265Y-102992945D01*
X30158651Y-103006889D01*
X26941934Y-103006889D01*
X26942395Y-103006211D01*
X26936145Y-102995355D01*
X23812812Y-99872022D01*
X23798868Y-99864408D01*
X23797035Y-99864539D01*
X23790420Y-99868790D01*
X20666265Y-102992945D01*
X20658651Y-103006889D01*
X19058500Y-103006889D01*
X19058500Y-100952546D01*
X19078502Y-100884425D01*
X19132158Y-100837932D01*
X19202432Y-100827828D01*
X19267012Y-100857322D01*
X19306207Y-100919936D01*
X19306846Y-100922320D01*
X19308571Y-100927758D01*
X19454247Y-101323694D01*
X19456455Y-101328948D01*
X19637417Y-101710054D01*
X19640098Y-101715094D01*
X19854844Y-102078209D01*
X19857985Y-102083009D01*
X20104752Y-102425161D01*
X20108307Y-102429648D01*
X20283754Y-102631477D01*
X20296884Y-102639885D01*
X20306797Y-102633993D01*
X23427978Y-99512812D01*
X23434356Y-99501132D01*
X24164408Y-99501132D01*
X24164539Y-99502965D01*
X24168790Y-99509580D01*
X27292612Y-102633402D01*
X27306058Y-102640744D01*
X27315894Y-102633824D01*
X27532238Y-102377817D01*
X27535724Y-102373290D01*
X27777705Y-102027704D01*
X27780762Y-102022888D01*
X27990423Y-101656799D01*
X27993035Y-101651717D01*
X28168655Y-101268129D01*
X28170794Y-101262836D01*
X28310924Y-100864915D01*
X28312577Y-100859441D01*
X28416064Y-100450465D01*
X28417215Y-100444856D01*
X28426391Y-100386922D01*
X28456803Y-100322769D01*
X28517071Y-100285241D01*
X28588061Y-100286255D01*
X28647233Y-100325487D01*
X28675001Y-100385186D01*
X28696426Y-100509222D01*
X28697657Y-100514822D01*
X28806847Y-100922325D01*
X28808571Y-100927758D01*
X28954247Y-101323694D01*
X28956455Y-101328948D01*
X29137417Y-101710054D01*
X29140098Y-101715094D01*
X29354844Y-102078209D01*
X29357985Y-102083009D01*
X29604752Y-102425161D01*
X29608307Y-102429648D01*
X29783754Y-102631477D01*
X29796884Y-102639885D01*
X29806797Y-102633993D01*
X32927978Y-99512812D01*
X32935592Y-99498868D01*
X32935461Y-99497035D01*
X32931210Y-99490420D01*
X29808828Y-96368038D01*
X29794884Y-96360424D01*
X29794691Y-96360437D01*
X29785869Y-96366416D01*
X29670476Y-96493677D01*
X29666824Y-96498091D01*
X29412938Y-96835009D01*
X29409704Y-96839733D01*
X29187405Y-97198265D01*
X29184611Y-97203264D01*
X28995720Y-97580470D01*
X28993386Y-97585712D01*
X28839460Y-97978486D01*
X28837617Y-97983899D01*
X28719917Y-98389024D01*
X28718575Y-98394574D01*
X28675465Y-98616353D01*
X28642832Y-98679406D01*
X28581291Y-98714806D01*
X28510381Y-98711316D01*
X28452614Y-98670042D01*
X28429009Y-98620655D01*
X28340055Y-98235356D01*
X28338521Y-98229860D01*
X28206754Y-97829086D01*
X28204724Y-97823744D01*
X28037177Y-97436568D01*
X28034673Y-97431434D01*
X27832727Y-97061036D01*
X27829764Y-97056145D01*
X27595080Y-96705577D01*
X27591685Y-96700974D01*
X27326202Y-96373130D01*
X27322397Y-96368843D01*
X27319233Y-96365590D01*
X27305403Y-96357786D01*
X27304033Y-96357865D01*
X27296711Y-96362499D01*
X24172022Y-99487188D01*
X24164408Y-99501132D01*
X23434356Y-99501132D01*
X23435592Y-99498868D01*
X23435461Y-99497035D01*
X23431210Y-99490420D01*
X20308828Y-96368038D01*
X20294884Y-96360424D01*
X20294691Y-96360437D01*
X20285869Y-96366416D01*
X20170476Y-96493677D01*
X20166824Y-96498091D01*
X19912938Y-96835009D01*
X19909704Y-96839733D01*
X19687405Y-97198265D01*
X19684611Y-97203264D01*
X19495720Y-97580470D01*
X19493386Y-97585712D01*
X19339460Y-97978486D01*
X19337617Y-97983899D01*
X19305497Y-98094456D01*
X19267284Y-98154292D01*
X19202788Y-98183969D01*
X19132485Y-98174066D01*
X19078697Y-98127726D01*
X19058500Y-98059303D01*
X19058500Y-95997162D01*
X20660172Y-95997162D01*
X20660184Y-95997593D01*
X20665551Y-96006341D01*
X23787188Y-99127978D01*
X23801132Y-99135592D01*
X23802965Y-99135461D01*
X23809580Y-99131210D01*
X26932788Y-96008002D01*
X26938707Y-95997162D01*
X30160172Y-95997162D01*
X30160184Y-95997593D01*
X30165551Y-96006341D01*
X33287188Y-99127978D01*
X33301132Y-99135592D01*
X33302965Y-99135461D01*
X33309580Y-99131210D01*
X36432788Y-96008002D01*
X36440196Y-95994435D01*
X36433454Y-95984779D01*
X36203797Y-95787940D01*
X36199304Y-95784429D01*
X35855427Y-95540048D01*
X35850604Y-95536940D01*
X35486001Y-95324736D01*
X35480936Y-95322089D01*
X35098592Y-95143798D01*
X35093299Y-95141617D01*
X34696371Y-94998713D01*
X34690911Y-94997024D01*
X34282663Y-94890683D01*
X34277073Y-94889495D01*
X33860861Y-94820592D01*
X33855196Y-94819916D01*
X33434441Y-94789018D01*
X33428740Y-94788859D01*
X33006917Y-94796221D01*
X33001229Y-94796579D01*
X32581827Y-94842141D01*
X32576157Y-94843019D01*
X32162622Y-94926402D01*
X32157077Y-94927784D01*
X31752783Y-95048310D01*
X31747379Y-95050192D01*
X31355687Y-95206857D01*
X31350480Y-95209219D01*
X30974581Y-95400749D01*
X30969616Y-95403570D01*
X30612632Y-95628375D01*
X30607937Y-95631638D01*
X30272799Y-95887870D01*
X30268419Y-95891544D01*
X30168359Y-95983555D01*
X30160172Y-95997162D01*
X26938707Y-95997162D01*
X26940196Y-95994435D01*
X26933454Y-95984779D01*
X26703797Y-95787940D01*
X26699304Y-95784429D01*
X26355427Y-95540048D01*
X26350604Y-95536940D01*
X25986001Y-95324736D01*
X25980936Y-95322089D01*
X25598592Y-95143798D01*
X25593299Y-95141617D01*
X25196371Y-94998713D01*
X25190911Y-94997024D01*
X24782663Y-94890683D01*
X24777073Y-94889495D01*
X24360861Y-94820592D01*
X24355196Y-94819916D01*
X23934441Y-94789018D01*
X23928740Y-94788859D01*
X23506917Y-94796221D01*
X23501229Y-94796579D01*
X23081827Y-94842141D01*
X23076157Y-94843019D01*
X22662622Y-94926402D01*
X22657077Y-94927784D01*
X22252783Y-95048310D01*
X22247379Y-95050192D01*
X21855687Y-95206857D01*
X21850480Y-95209219D01*
X21474581Y-95400749D01*
X21469616Y-95403570D01*
X21112632Y-95628375D01*
X21107937Y-95631638D01*
X20772799Y-95887870D01*
X20768419Y-95891544D01*
X20668359Y-95983555D01*
X20660172Y-95997162D01*
X19058500Y-95997162D01*
X19058500Y-90006889D01*
X20658651Y-90006889D01*
X20658732Y-90008022D01*
X20663710Y-90015594D01*
X20693522Y-90044182D01*
X20697799Y-90047927D01*
X21027535Y-90311152D01*
X21032118Y-90314482D01*
X21384349Y-90546735D01*
X21389245Y-90549653D01*
X21761033Y-90749004D01*
X21766206Y-90751483D01*
X22154550Y-90916325D01*
X22159885Y-90918309D01*
X22561575Y-91047278D01*
X22567076Y-91048773D01*
X22978808Y-91140805D01*
X22984420Y-91141794D01*
X23402785Y-91196131D01*
X23408491Y-91196610D01*
X23830040Y-91212804D01*
X23835766Y-91212764D01*
X24257055Y-91190686D01*
X24262736Y-91190129D01*
X24680312Y-91129955D01*
X24685907Y-91128887D01*
X25096311Y-91031115D01*
X25101792Y-91029544D01*
X25501635Y-90894982D01*
X25506965Y-90892914D01*
X25892968Y-90722667D01*
X25898075Y-90720132D01*
X26267059Y-90515601D01*
X26271925Y-90512607D01*
X26620843Y-90275483D01*
X26625438Y-90272045D01*
X26933934Y-90018643D01*
X26941934Y-90006889D01*
X30158651Y-90006889D01*
X30158732Y-90008022D01*
X30163710Y-90015594D01*
X30193522Y-90044182D01*
X30197799Y-90047927D01*
X30527535Y-90311152D01*
X30532118Y-90314482D01*
X30884349Y-90546735D01*
X30889245Y-90549653D01*
X31261033Y-90749004D01*
X31266206Y-90751483D01*
X31654550Y-90916325D01*
X31659885Y-90918309D01*
X32061575Y-91047278D01*
X32067076Y-91048773D01*
X32478808Y-91140805D01*
X32484420Y-91141794D01*
X32902785Y-91196131D01*
X32908491Y-91196610D01*
X33330040Y-91212804D01*
X33335766Y-91212764D01*
X33757055Y-91190686D01*
X33762736Y-91190129D01*
X34180312Y-91129955D01*
X34185907Y-91128887D01*
X34596311Y-91031115D01*
X34601792Y-91029544D01*
X35001635Y-90894982D01*
X35006965Y-90892914D01*
X35392968Y-90722667D01*
X35398075Y-90720132D01*
X35767059Y-90515601D01*
X35771925Y-90512607D01*
X36120843Y-90275483D01*
X36125438Y-90272045D01*
X36433934Y-90018643D01*
X36442395Y-90006211D01*
X36436145Y-89995355D01*
X33312812Y-86872022D01*
X33298868Y-86864408D01*
X33297035Y-86864539D01*
X33290420Y-86868790D01*
X30166265Y-89992945D01*
X30158651Y-90006889D01*
X26941934Y-90006889D01*
X26942395Y-90006211D01*
X26936145Y-89995355D01*
X23812812Y-86872022D01*
X23798868Y-86864408D01*
X23797035Y-86864539D01*
X23790420Y-86868790D01*
X20666265Y-89992945D01*
X20658651Y-90006889D01*
X19058500Y-90006889D01*
X19058500Y-87952546D01*
X19078502Y-87884425D01*
X19132158Y-87837932D01*
X19202432Y-87827828D01*
X19267012Y-87857322D01*
X19306207Y-87919936D01*
X19306846Y-87922320D01*
X19308571Y-87927758D01*
X19454247Y-88323694D01*
X19456455Y-88328948D01*
X19637417Y-88710054D01*
X19640098Y-88715094D01*
X19854844Y-89078209D01*
X19857985Y-89083009D01*
X20104752Y-89425161D01*
X20108307Y-89429648D01*
X20283754Y-89631477D01*
X20296884Y-89639885D01*
X20306797Y-89633993D01*
X23427978Y-86512812D01*
X23434356Y-86501132D01*
X24164408Y-86501132D01*
X24164539Y-86502965D01*
X24168790Y-86509580D01*
X27292612Y-89633402D01*
X27306058Y-89640744D01*
X27315894Y-89633824D01*
X27532238Y-89377817D01*
X27535724Y-89373290D01*
X27777705Y-89027704D01*
X27780762Y-89022888D01*
X27990423Y-88656799D01*
X27993035Y-88651717D01*
X28168655Y-88268129D01*
X28170794Y-88262836D01*
X28310924Y-87864915D01*
X28312577Y-87859441D01*
X28416064Y-87450465D01*
X28417215Y-87444856D01*
X28426391Y-87386922D01*
X28456803Y-87322769D01*
X28517071Y-87285241D01*
X28588061Y-87286255D01*
X28647233Y-87325487D01*
X28675001Y-87385186D01*
X28696426Y-87509222D01*
X28697657Y-87514822D01*
X28806847Y-87922325D01*
X28808571Y-87927758D01*
X28954247Y-88323694D01*
X28956455Y-88328948D01*
X29137417Y-88710054D01*
X29140098Y-88715094D01*
X29354844Y-89078209D01*
X29357985Y-89083009D01*
X29604752Y-89425161D01*
X29608307Y-89429648D01*
X29783754Y-89631477D01*
X29796884Y-89639885D01*
X29806797Y-89633993D01*
X32927978Y-86512812D01*
X32935592Y-86498868D01*
X32935461Y-86497035D01*
X32931210Y-86490420D01*
X29808828Y-83368038D01*
X29794884Y-83360424D01*
X29794691Y-83360437D01*
X29785869Y-83366416D01*
X29670476Y-83493677D01*
X29666824Y-83498091D01*
X29412938Y-83835009D01*
X29409704Y-83839733D01*
X29187405Y-84198265D01*
X29184611Y-84203264D01*
X28995720Y-84580470D01*
X28993386Y-84585712D01*
X28839460Y-84978486D01*
X28837617Y-84983899D01*
X28719917Y-85389024D01*
X28718575Y-85394574D01*
X28675465Y-85616353D01*
X28642832Y-85679406D01*
X28581291Y-85714806D01*
X28510381Y-85711316D01*
X28452614Y-85670042D01*
X28429009Y-85620655D01*
X28340055Y-85235356D01*
X28338521Y-85229860D01*
X28206754Y-84829086D01*
X28204724Y-84823744D01*
X28037177Y-84436568D01*
X28034673Y-84431434D01*
X27832727Y-84061036D01*
X27829764Y-84056145D01*
X27595080Y-83705577D01*
X27591685Y-83700974D01*
X27326202Y-83373130D01*
X27322397Y-83368843D01*
X27319233Y-83365590D01*
X27305403Y-83357786D01*
X27304033Y-83357865D01*
X27296711Y-83362499D01*
X24172022Y-86487188D01*
X24164408Y-86501132D01*
X23434356Y-86501132D01*
X23435592Y-86498868D01*
X23435461Y-86497035D01*
X23431210Y-86490420D01*
X20308828Y-83368038D01*
X20294884Y-83360424D01*
X20294691Y-83360437D01*
X20285869Y-83366416D01*
X20170476Y-83493677D01*
X20166824Y-83498091D01*
X19912938Y-83835009D01*
X19909704Y-83839733D01*
X19687405Y-84198265D01*
X19684611Y-84203264D01*
X19495720Y-84580470D01*
X19493386Y-84585712D01*
X19339460Y-84978486D01*
X19337617Y-84983899D01*
X19305497Y-85094456D01*
X19267284Y-85154292D01*
X19202788Y-85183969D01*
X19132485Y-85174066D01*
X19078697Y-85127726D01*
X19058500Y-85059303D01*
X19058500Y-82997162D01*
X20660172Y-82997162D01*
X20660184Y-82997593D01*
X20665551Y-83006341D01*
X23787188Y-86127978D01*
X23801132Y-86135592D01*
X23802965Y-86135461D01*
X23809580Y-86131210D01*
X26932788Y-83008002D01*
X26938707Y-82997162D01*
X30160172Y-82997162D01*
X30160184Y-82997593D01*
X30165551Y-83006341D01*
X33287188Y-86127978D01*
X33301132Y-86135592D01*
X33302965Y-86135461D01*
X33309580Y-86131210D01*
X36432788Y-83008002D01*
X36440196Y-82994435D01*
X36433454Y-82984779D01*
X36203797Y-82787940D01*
X36199304Y-82784429D01*
X35855427Y-82540048D01*
X35850604Y-82536940D01*
X35486001Y-82324736D01*
X35480936Y-82322089D01*
X35098592Y-82143798D01*
X35093299Y-82141617D01*
X34696371Y-81998713D01*
X34690911Y-81997024D01*
X34282663Y-81890683D01*
X34277073Y-81889495D01*
X33860861Y-81820592D01*
X33855196Y-81819916D01*
X33434441Y-81789018D01*
X33428740Y-81788859D01*
X33006917Y-81796221D01*
X33001229Y-81796579D01*
X32581827Y-81842141D01*
X32576157Y-81843019D01*
X32162622Y-81926402D01*
X32157077Y-81927784D01*
X31752783Y-82048310D01*
X31747379Y-82050192D01*
X31355687Y-82206857D01*
X31350480Y-82209219D01*
X30974581Y-82400749D01*
X30969616Y-82403570D01*
X30612632Y-82628375D01*
X30607937Y-82631638D01*
X30272799Y-82887870D01*
X30268419Y-82891544D01*
X30168359Y-82983555D01*
X30160172Y-82997162D01*
X26938707Y-82997162D01*
X26940196Y-82994435D01*
X26933454Y-82984779D01*
X26703797Y-82787940D01*
X26699304Y-82784429D01*
X26355427Y-82540048D01*
X26350604Y-82536940D01*
X25986001Y-82324736D01*
X25980936Y-82322089D01*
X25598592Y-82143798D01*
X25593299Y-82141617D01*
X25196371Y-81998713D01*
X25190911Y-81997024D01*
X24782663Y-81890683D01*
X24777073Y-81889495D01*
X24360861Y-81820592D01*
X24355196Y-81819916D01*
X23934441Y-81789018D01*
X23928740Y-81788859D01*
X23506917Y-81796221D01*
X23501229Y-81796579D01*
X23081827Y-81842141D01*
X23076157Y-81843019D01*
X22662622Y-81926402D01*
X22657077Y-81927784D01*
X22252783Y-82048310D01*
X22247379Y-82050192D01*
X21855687Y-82206857D01*
X21850480Y-82209219D01*
X21474581Y-82400749D01*
X21469616Y-82403570D01*
X21112632Y-82628375D01*
X21107937Y-82631638D01*
X20772799Y-82887870D01*
X20768419Y-82891544D01*
X20668359Y-82983555D01*
X20660172Y-82997162D01*
X19058500Y-82997162D01*
X19058500Y-69056889D01*
X20658651Y-69056889D01*
X20658732Y-69058022D01*
X20663710Y-69065594D01*
X20693522Y-69094182D01*
X20697799Y-69097927D01*
X21027535Y-69361152D01*
X21032118Y-69364482D01*
X21384349Y-69596735D01*
X21389245Y-69599653D01*
X21761033Y-69799004D01*
X21766206Y-69801483D01*
X22154550Y-69966325D01*
X22159885Y-69968309D01*
X22561575Y-70097278D01*
X22567076Y-70098773D01*
X22978808Y-70190805D01*
X22984420Y-70191794D01*
X23402785Y-70246131D01*
X23408491Y-70246610D01*
X23830040Y-70262804D01*
X23835766Y-70262764D01*
X24257055Y-70240686D01*
X24262736Y-70240129D01*
X24680312Y-70179955D01*
X24685907Y-70178887D01*
X25096311Y-70081115D01*
X25101792Y-70079544D01*
X25501635Y-69944982D01*
X25506965Y-69942914D01*
X25892968Y-69772667D01*
X25898075Y-69770132D01*
X26267059Y-69565601D01*
X26271925Y-69562607D01*
X26620843Y-69325483D01*
X26625438Y-69322045D01*
X26933934Y-69068643D01*
X26941934Y-69056889D01*
X30158651Y-69056889D01*
X30158732Y-69058022D01*
X30163710Y-69065594D01*
X30193522Y-69094182D01*
X30197799Y-69097927D01*
X30527535Y-69361152D01*
X30532118Y-69364482D01*
X30884349Y-69596735D01*
X30889245Y-69599653D01*
X31261033Y-69799004D01*
X31266206Y-69801483D01*
X31654550Y-69966325D01*
X31659885Y-69968309D01*
X32061575Y-70097278D01*
X32067076Y-70098773D01*
X32478808Y-70190805D01*
X32484420Y-70191794D01*
X32902785Y-70246131D01*
X32908491Y-70246610D01*
X33330040Y-70262804D01*
X33335766Y-70262764D01*
X33757055Y-70240686D01*
X33762736Y-70240129D01*
X34180312Y-70179955D01*
X34185907Y-70178887D01*
X34596311Y-70081115D01*
X34601792Y-70079544D01*
X35001635Y-69944982D01*
X35006965Y-69942914D01*
X35392968Y-69772667D01*
X35398075Y-69770132D01*
X35767059Y-69565601D01*
X35771925Y-69562607D01*
X36120843Y-69325483D01*
X36125438Y-69322045D01*
X36433934Y-69068643D01*
X36442395Y-69056211D01*
X36436145Y-69045355D01*
X33312812Y-65922022D01*
X33298868Y-65914408D01*
X33297035Y-65914539D01*
X33290420Y-65918790D01*
X30166265Y-69042945D01*
X30158651Y-69056889D01*
X26941934Y-69056889D01*
X26942395Y-69056211D01*
X26936145Y-69045355D01*
X23812812Y-65922022D01*
X23798868Y-65914408D01*
X23797035Y-65914539D01*
X23790420Y-65918790D01*
X20666265Y-69042945D01*
X20658651Y-69056889D01*
X19058500Y-69056889D01*
X19058500Y-67002546D01*
X19078502Y-66934425D01*
X19132158Y-66887932D01*
X19202432Y-66877828D01*
X19267012Y-66907322D01*
X19306207Y-66969936D01*
X19306846Y-66972320D01*
X19308571Y-66977758D01*
X19454247Y-67373694D01*
X19456455Y-67378948D01*
X19637417Y-67760054D01*
X19640098Y-67765094D01*
X19854844Y-68128209D01*
X19857985Y-68133009D01*
X20104752Y-68475161D01*
X20108307Y-68479648D01*
X20283754Y-68681477D01*
X20296884Y-68689885D01*
X20306797Y-68683993D01*
X23427978Y-65562812D01*
X23434356Y-65551132D01*
X24164408Y-65551132D01*
X24164539Y-65552965D01*
X24168790Y-65559580D01*
X27292612Y-68683402D01*
X27306058Y-68690744D01*
X27315894Y-68683824D01*
X27532238Y-68427817D01*
X27535724Y-68423290D01*
X27777705Y-68077704D01*
X27780762Y-68072888D01*
X27990423Y-67706799D01*
X27993035Y-67701717D01*
X28168655Y-67318129D01*
X28170794Y-67312836D01*
X28310924Y-66914915D01*
X28312577Y-66909441D01*
X28416064Y-66500465D01*
X28417215Y-66494856D01*
X28426391Y-66436922D01*
X28456803Y-66372769D01*
X28517071Y-66335241D01*
X28588061Y-66336255D01*
X28647233Y-66375487D01*
X28675001Y-66435186D01*
X28696426Y-66559222D01*
X28697657Y-66564822D01*
X28806847Y-66972325D01*
X28808571Y-66977758D01*
X28954247Y-67373694D01*
X28956455Y-67378948D01*
X29137417Y-67760054D01*
X29140098Y-67765094D01*
X29354844Y-68128209D01*
X29357985Y-68133009D01*
X29604752Y-68475161D01*
X29608307Y-68479648D01*
X29783754Y-68681477D01*
X29796884Y-68689885D01*
X29806797Y-68683993D01*
X32927978Y-65562812D01*
X32935592Y-65548868D01*
X32935461Y-65547035D01*
X32931210Y-65540420D01*
X29808828Y-62418038D01*
X29794884Y-62410424D01*
X29794691Y-62410437D01*
X29785869Y-62416416D01*
X29670476Y-62543677D01*
X29666824Y-62548091D01*
X29412938Y-62885009D01*
X29409704Y-62889733D01*
X29187405Y-63248265D01*
X29184611Y-63253264D01*
X28995720Y-63630470D01*
X28993386Y-63635712D01*
X28839460Y-64028486D01*
X28837617Y-64033899D01*
X28719917Y-64439024D01*
X28718575Y-64444574D01*
X28675465Y-64666353D01*
X28642832Y-64729406D01*
X28581291Y-64764806D01*
X28510381Y-64761316D01*
X28452614Y-64720042D01*
X28429009Y-64670655D01*
X28340055Y-64285356D01*
X28338521Y-64279860D01*
X28206754Y-63879086D01*
X28204724Y-63873744D01*
X28037177Y-63486568D01*
X28034673Y-63481434D01*
X27832727Y-63111036D01*
X27829764Y-63106145D01*
X27595080Y-62755577D01*
X27591685Y-62750974D01*
X27326202Y-62423130D01*
X27322397Y-62418843D01*
X27319233Y-62415590D01*
X27305403Y-62407786D01*
X27304033Y-62407865D01*
X27296711Y-62412499D01*
X24172022Y-65537188D01*
X24164408Y-65551132D01*
X23434356Y-65551132D01*
X23435592Y-65548868D01*
X23435461Y-65547035D01*
X23431210Y-65540420D01*
X20308828Y-62418038D01*
X20294884Y-62410424D01*
X20294691Y-62410437D01*
X20285869Y-62416416D01*
X20170476Y-62543677D01*
X20166824Y-62548091D01*
X19912938Y-62885009D01*
X19909704Y-62889733D01*
X19687405Y-63248265D01*
X19684611Y-63253264D01*
X19495720Y-63630470D01*
X19493386Y-63635712D01*
X19339460Y-64028486D01*
X19337617Y-64033899D01*
X19305497Y-64144456D01*
X19267284Y-64204292D01*
X19202788Y-64233969D01*
X19132485Y-64224066D01*
X19078697Y-64177726D01*
X19058500Y-64109303D01*
X19058500Y-62047162D01*
X20660172Y-62047162D01*
X20660184Y-62047593D01*
X20665551Y-62056341D01*
X23787188Y-65177978D01*
X23801132Y-65185592D01*
X23802965Y-65185461D01*
X23809580Y-65181210D01*
X26932788Y-62058002D01*
X26938707Y-62047162D01*
X30160172Y-62047162D01*
X30160184Y-62047593D01*
X30165551Y-62056341D01*
X33287188Y-65177978D01*
X33301132Y-65185592D01*
X33302965Y-65185461D01*
X33309580Y-65181210D01*
X36432788Y-62058002D01*
X36440196Y-62044435D01*
X36433454Y-62034779D01*
X36203797Y-61837940D01*
X36199304Y-61834429D01*
X35855427Y-61590048D01*
X35850604Y-61586940D01*
X35486001Y-61374736D01*
X35480936Y-61372089D01*
X35098592Y-61193798D01*
X35093299Y-61191617D01*
X34696371Y-61048713D01*
X34690911Y-61047024D01*
X34282663Y-60940683D01*
X34277073Y-60939495D01*
X33860861Y-60870592D01*
X33855196Y-60869916D01*
X33434441Y-60839018D01*
X33428740Y-60838859D01*
X33006917Y-60846221D01*
X33001229Y-60846579D01*
X32581827Y-60892141D01*
X32576157Y-60893019D01*
X32162622Y-60976402D01*
X32157077Y-60977784D01*
X31752783Y-61098310D01*
X31747379Y-61100192D01*
X31355687Y-61256857D01*
X31350480Y-61259219D01*
X30974581Y-61450749D01*
X30969616Y-61453570D01*
X30612632Y-61678375D01*
X30607937Y-61681638D01*
X30272799Y-61937870D01*
X30268419Y-61941544D01*
X30168359Y-62033555D01*
X30160172Y-62047162D01*
X26938707Y-62047162D01*
X26940196Y-62044435D01*
X26933454Y-62034779D01*
X26703797Y-61837940D01*
X26699304Y-61834429D01*
X26355427Y-61590048D01*
X26350604Y-61586940D01*
X25986001Y-61374736D01*
X25980936Y-61372089D01*
X25598592Y-61193798D01*
X25593299Y-61191617D01*
X25196371Y-61048713D01*
X25190911Y-61047024D01*
X24782663Y-60940683D01*
X24777073Y-60939495D01*
X24360861Y-60870592D01*
X24355196Y-60869916D01*
X23934441Y-60839018D01*
X23928740Y-60838859D01*
X23506917Y-60846221D01*
X23501229Y-60846579D01*
X23081827Y-60892141D01*
X23076157Y-60893019D01*
X22662622Y-60976402D01*
X22657077Y-60977784D01*
X22252783Y-61098310D01*
X22247379Y-61100192D01*
X21855687Y-61256857D01*
X21850480Y-61259219D01*
X21474581Y-61450749D01*
X21469616Y-61453570D01*
X21112632Y-61678375D01*
X21107937Y-61681638D01*
X20772799Y-61937870D01*
X20768419Y-61941544D01*
X20668359Y-62033555D01*
X20660172Y-62047162D01*
X19058500Y-62047162D01*
X19058500Y-56056889D01*
X20658651Y-56056889D01*
X20658732Y-56058022D01*
X20663710Y-56065594D01*
X20693522Y-56094182D01*
X20697799Y-56097927D01*
X21027535Y-56361152D01*
X21032118Y-56364482D01*
X21384349Y-56596735D01*
X21389245Y-56599653D01*
X21761033Y-56799004D01*
X21766206Y-56801483D01*
X22154550Y-56966325D01*
X22159885Y-56968309D01*
X22561575Y-57097278D01*
X22567076Y-57098773D01*
X22978808Y-57190805D01*
X22984420Y-57191794D01*
X23402785Y-57246131D01*
X23408491Y-57246610D01*
X23830040Y-57262804D01*
X23835766Y-57262764D01*
X24257055Y-57240686D01*
X24262736Y-57240129D01*
X24680312Y-57179955D01*
X24685907Y-57178887D01*
X25096311Y-57081115D01*
X25101792Y-57079544D01*
X25501635Y-56944982D01*
X25506965Y-56942914D01*
X25892968Y-56772667D01*
X25898075Y-56770132D01*
X26267059Y-56565601D01*
X26271925Y-56562607D01*
X26620843Y-56325483D01*
X26625438Y-56322045D01*
X26933934Y-56068643D01*
X26941934Y-56056889D01*
X30158651Y-56056889D01*
X30158732Y-56058022D01*
X30163710Y-56065594D01*
X30193522Y-56094182D01*
X30197799Y-56097927D01*
X30527535Y-56361152D01*
X30532118Y-56364482D01*
X30884349Y-56596735D01*
X30889245Y-56599653D01*
X31261033Y-56799004D01*
X31266206Y-56801483D01*
X31654550Y-56966325D01*
X31659885Y-56968309D01*
X32061575Y-57097278D01*
X32067076Y-57098773D01*
X32478808Y-57190805D01*
X32484420Y-57191794D01*
X32902785Y-57246131D01*
X32908491Y-57246610D01*
X33330040Y-57262804D01*
X33335766Y-57262764D01*
X33757055Y-57240686D01*
X33762736Y-57240129D01*
X34180312Y-57179955D01*
X34185907Y-57178887D01*
X34596311Y-57081115D01*
X34601792Y-57079544D01*
X35001635Y-56944982D01*
X35006965Y-56942914D01*
X35392968Y-56772667D01*
X35398075Y-56770132D01*
X35767059Y-56565601D01*
X35771925Y-56562607D01*
X36120843Y-56325483D01*
X36125438Y-56322045D01*
X36433934Y-56068643D01*
X36442395Y-56056211D01*
X36436145Y-56045355D01*
X33312812Y-52922022D01*
X33298868Y-52914408D01*
X33297035Y-52914539D01*
X33290420Y-52918790D01*
X30166265Y-56042945D01*
X30158651Y-56056889D01*
X26941934Y-56056889D01*
X26942395Y-56056211D01*
X26936145Y-56045355D01*
X23812812Y-52922022D01*
X23798868Y-52914408D01*
X23797035Y-52914539D01*
X23790420Y-52918790D01*
X20666265Y-56042945D01*
X20658651Y-56056889D01*
X19058500Y-56056889D01*
X19058500Y-54002546D01*
X19078502Y-53934425D01*
X19132158Y-53887932D01*
X19202432Y-53877828D01*
X19267012Y-53907322D01*
X19306207Y-53969936D01*
X19306846Y-53972320D01*
X19308571Y-53977758D01*
X19454247Y-54373694D01*
X19456455Y-54378948D01*
X19637417Y-54760054D01*
X19640098Y-54765094D01*
X19854844Y-55128209D01*
X19857985Y-55133009D01*
X20104752Y-55475161D01*
X20108307Y-55479648D01*
X20283754Y-55681477D01*
X20296884Y-55689885D01*
X20306797Y-55683993D01*
X23427978Y-52562812D01*
X23434356Y-52551132D01*
X24164408Y-52551132D01*
X24164539Y-52552965D01*
X24168790Y-52559580D01*
X27292612Y-55683402D01*
X27306058Y-55690744D01*
X27315894Y-55683824D01*
X27532238Y-55427817D01*
X27535724Y-55423290D01*
X27777705Y-55077704D01*
X27780762Y-55072888D01*
X27990423Y-54706799D01*
X27993035Y-54701717D01*
X28168655Y-54318129D01*
X28170794Y-54312836D01*
X28310924Y-53914915D01*
X28312577Y-53909441D01*
X28416064Y-53500465D01*
X28417215Y-53494856D01*
X28426391Y-53436922D01*
X28456803Y-53372769D01*
X28517071Y-53335241D01*
X28588061Y-53336255D01*
X28647233Y-53375487D01*
X28675001Y-53435186D01*
X28696426Y-53559222D01*
X28697657Y-53564822D01*
X28806847Y-53972325D01*
X28808571Y-53977758D01*
X28954247Y-54373694D01*
X28956455Y-54378948D01*
X29137417Y-54760054D01*
X29140098Y-54765094D01*
X29354844Y-55128209D01*
X29357985Y-55133009D01*
X29604752Y-55475161D01*
X29608307Y-55479648D01*
X29783754Y-55681477D01*
X29796884Y-55689885D01*
X29806797Y-55683993D01*
X32927978Y-52562812D01*
X32935592Y-52548868D01*
X32935461Y-52547035D01*
X32931210Y-52540420D01*
X29808828Y-49418038D01*
X29794884Y-49410424D01*
X29794691Y-49410437D01*
X29785869Y-49416416D01*
X29670476Y-49543677D01*
X29666824Y-49548091D01*
X29412938Y-49885009D01*
X29409704Y-49889733D01*
X29187405Y-50248265D01*
X29184611Y-50253264D01*
X28995720Y-50630470D01*
X28993386Y-50635712D01*
X28839460Y-51028486D01*
X28837617Y-51033899D01*
X28719917Y-51439024D01*
X28718575Y-51444574D01*
X28675465Y-51666353D01*
X28642832Y-51729406D01*
X28581291Y-51764806D01*
X28510381Y-51761316D01*
X28452614Y-51720042D01*
X28429009Y-51670655D01*
X28340055Y-51285356D01*
X28338521Y-51279860D01*
X28206754Y-50879086D01*
X28204724Y-50873744D01*
X28037177Y-50486568D01*
X28034673Y-50481434D01*
X27832727Y-50111036D01*
X27829764Y-50106145D01*
X27595080Y-49755577D01*
X27591685Y-49750974D01*
X27326202Y-49423130D01*
X27322397Y-49418843D01*
X27319233Y-49415590D01*
X27305403Y-49407786D01*
X27304033Y-49407865D01*
X27296711Y-49412499D01*
X24172022Y-52537188D01*
X24164408Y-52551132D01*
X23434356Y-52551132D01*
X23435592Y-52548868D01*
X23435461Y-52547035D01*
X23431210Y-52540420D01*
X20308828Y-49418038D01*
X20294884Y-49410424D01*
X20294691Y-49410437D01*
X20285869Y-49416416D01*
X20170476Y-49543677D01*
X20166824Y-49548091D01*
X19912938Y-49885009D01*
X19909704Y-49889733D01*
X19687405Y-50248265D01*
X19684611Y-50253264D01*
X19495720Y-50630470D01*
X19493386Y-50635712D01*
X19339460Y-51028486D01*
X19337617Y-51033899D01*
X19305497Y-51144456D01*
X19267284Y-51204292D01*
X19202788Y-51233969D01*
X19132485Y-51224066D01*
X19078697Y-51177726D01*
X19058500Y-51109303D01*
X19058500Y-49047162D01*
X20660172Y-49047162D01*
X20660184Y-49047593D01*
X20665551Y-49056341D01*
X23787188Y-52177978D01*
X23801132Y-52185592D01*
X23802965Y-52185461D01*
X23809580Y-52181210D01*
X26932788Y-49058002D01*
X26938707Y-49047162D01*
X30160172Y-49047162D01*
X30160184Y-49047593D01*
X30165551Y-49056341D01*
X33287188Y-52177978D01*
X33301132Y-52185592D01*
X33302965Y-52185461D01*
X33309580Y-52181210D01*
X36432788Y-49058002D01*
X36440196Y-49044435D01*
X36433454Y-49034779D01*
X36203797Y-48837940D01*
X36199304Y-48834429D01*
X35855427Y-48590048D01*
X35850604Y-48586940D01*
X35486001Y-48374736D01*
X35480936Y-48372089D01*
X35098592Y-48193798D01*
X35093299Y-48191617D01*
X34696371Y-48048713D01*
X34690911Y-48047024D01*
X34282663Y-47940683D01*
X34277073Y-47939495D01*
X33860861Y-47870592D01*
X33855196Y-47869916D01*
X33434441Y-47839018D01*
X33428740Y-47838859D01*
X33006917Y-47846221D01*
X33001229Y-47846579D01*
X32581827Y-47892141D01*
X32576157Y-47893019D01*
X32162622Y-47976402D01*
X32157077Y-47977784D01*
X31752783Y-48098310D01*
X31747379Y-48100192D01*
X31355687Y-48256857D01*
X31350480Y-48259219D01*
X30974581Y-48450749D01*
X30969616Y-48453570D01*
X30612632Y-48678375D01*
X30607937Y-48681638D01*
X30272799Y-48937870D01*
X30268419Y-48941544D01*
X30168359Y-49033555D01*
X30160172Y-49047162D01*
X26938707Y-49047162D01*
X26940196Y-49044435D01*
X26933454Y-49034779D01*
X26703797Y-48837940D01*
X26699304Y-48834429D01*
X26355427Y-48590048D01*
X26350604Y-48586940D01*
X25986001Y-48374736D01*
X25980936Y-48372089D01*
X25598592Y-48193798D01*
X25593299Y-48191617D01*
X25196371Y-48048713D01*
X25190911Y-48047024D01*
X24782663Y-47940683D01*
X24777073Y-47939495D01*
X24360861Y-47870592D01*
X24355196Y-47869916D01*
X23934441Y-47839018D01*
X23928740Y-47838859D01*
X23506917Y-47846221D01*
X23501229Y-47846579D01*
X23081827Y-47892141D01*
X23076157Y-47893019D01*
X22662622Y-47976402D01*
X22657077Y-47977784D01*
X22252783Y-48098310D01*
X22247379Y-48100192D01*
X21855687Y-48256857D01*
X21850480Y-48259219D01*
X21474581Y-48450749D01*
X21469616Y-48453570D01*
X21112632Y-48678375D01*
X21107937Y-48681638D01*
X20772799Y-48937870D01*
X20768419Y-48941544D01*
X20668359Y-49033555D01*
X20660172Y-49047162D01*
X19058500Y-49047162D01*
X19058500Y-28922116D01*
X23255785Y-28922116D01*
X23290940Y-29155952D01*
X23292633Y-29163780D01*
X23374346Y-29451588D01*
X23377029Y-29459165D01*
X23494645Y-29734246D01*
X23498267Y-29741417D01*
X23649892Y-29999339D01*
X23654382Y-30005971D01*
X23837550Y-30242537D01*
X23842863Y-30248563D01*
X24054600Y-30459930D01*
X24060625Y-30465223D01*
X24297498Y-30647970D01*
X24304171Y-30652470D01*
X24562348Y-30803640D01*
X24569501Y-30807238D01*
X24844815Y-30924385D01*
X24852379Y-30927048D01*
X25140332Y-31008260D01*
X25148171Y-31009940D01*
X25444788Y-31054005D01*
X25451425Y-31054635D01*
X25530383Y-31057944D01*
X25533031Y-31058000D01*
X25777885Y-31058000D01*
X25793124Y-31053525D01*
X25794329Y-31052135D01*
X25796000Y-31044452D01*
X25796000Y-31039885D01*
X26304000Y-31039885D01*
X26308475Y-31055124D01*
X26309865Y-31056329D01*
X26317548Y-31058000D01*
X26525710Y-31058000D01*
X26529740Y-31057871D01*
X26752594Y-31043656D01*
X26760541Y-31042638D01*
X27054296Y-30985804D01*
X27062041Y-30983786D01*
X27346187Y-30890088D01*
X27353631Y-30887096D01*
X27623563Y-30758055D01*
X27630554Y-30754149D01*
X27881916Y-30591847D01*
X27888347Y-30587087D01*
X28117043Y-30394166D01*
X28122828Y-30388618D01*
X28325153Y-30168206D01*
X28330186Y-30161968D01*
X28502866Y-29917631D01*
X28507061Y-29910812D01*
X28647295Y-29646516D01*
X28650594Y-29639210D01*
X28756105Y-29359242D01*
X28758452Y-29351566D01*
X28827532Y-29060474D01*
X28828885Y-29052556D01*
X28842721Y-28922015D01*
X28840057Y-28907377D01*
X28827709Y-28904000D01*
X26322115Y-28904000D01*
X26306876Y-28908475D01*
X26305671Y-28909865D01*
X26304000Y-28917548D01*
X26304000Y-31039885D01*
X25796000Y-31039885D01*
X25796000Y-28922115D01*
X25791525Y-28906876D01*
X25790135Y-28905671D01*
X25782452Y-28904000D01*
X23271176Y-28904000D01*
X23257777Y-28907934D01*
X23255785Y-28922116D01*
X19058500Y-28922116D01*
X19058500Y-26284500D01*
X19078502Y-26216379D01*
X19132158Y-26169886D01*
X19184500Y-26158500D01*
X24731789Y-26158500D01*
X24799910Y-26178502D01*
G37*
%TD.AperFunction*%
%TD*%
M02*
