%TF.GenerationSoftware,KiCad,Pcbnew,(6.0.7-1)-1*%
%TF.CreationDate,2022-09-24T04:55:17+07:00*%
%TF.ProjectId,benjolin_1.6_panel,62656e6a-6f6c-4696-9e5f-312e365f7061,rev?*%
%TF.SameCoordinates,Original*%
%TF.FileFunction,Soldermask,Top*%
%TF.FilePolarity,Negative*%
%FSLAX46Y46*%
G04 Gerber Fmt 4.6, Leading zero omitted, Abs format (unit mm)*
G04 Created by KiCad (PCBNEW (6.0.7-1)-1) date 2022-09-24 04:55:17*
%MOMM*%
%LPD*%
G01*
G04 APERTURE LIST*
%ADD10C,0.500000*%
%ADD11C,9.500000*%
%ADD12C,8.400000*%
%ADD13O,5.600000X3.800000*%
%ADD14O,4.600000X3.800000*%
G04 APERTURE END LIST*
%TO.C,kibuzzard-632DCB52*%
G36*
X83054225Y-38024863D02*
G01*
X82639491Y-37840316D01*
X82264444Y-37587507D01*
X81944166Y-37271991D01*
X81678656Y-36893769D01*
X81480219Y-36461969D01*
X81361156Y-35985719D01*
X81322014Y-35472163D01*
X82171575Y-35472163D01*
X82232297Y-36049914D01*
X82414462Y-36540154D01*
X82699320Y-36933060D01*
X83068116Y-37218810D01*
X83495848Y-37392939D01*
X83957512Y-37450982D01*
X84429000Y-37392939D01*
X84857625Y-37218810D01*
X85222849Y-36933060D01*
X85504134Y-36540154D01*
X85683621Y-36049914D01*
X85743450Y-35472163D01*
X85683621Y-34889054D01*
X85504134Y-34397028D01*
X85223742Y-34005015D01*
X84861197Y-33721944D01*
X84433465Y-33550494D01*
X83957512Y-33493344D01*
X83480667Y-33550494D01*
X83050256Y-33721944D01*
X82685925Y-34005015D01*
X82407319Y-34397028D01*
X82230511Y-34889054D01*
X82171575Y-35472163D01*
X81322014Y-35472163D01*
X81321469Y-35465019D01*
X81361156Y-34940747D01*
X81480219Y-34463307D01*
X81678656Y-34032697D01*
X81944166Y-33656857D01*
X82264444Y-33343722D01*
X82639491Y-33093294D01*
X83054225Y-32910732D01*
X83493566Y-32801194D01*
X83957512Y-32764682D01*
X84421459Y-32801194D01*
X84860800Y-32910732D01*
X85275534Y-33093294D01*
X85650581Y-33343722D01*
X85970859Y-33656857D01*
X86236369Y-34032697D01*
X86434806Y-34463307D01*
X86553869Y-34940747D01*
X86593556Y-35465019D01*
X86553869Y-35985719D01*
X86434806Y-36461969D01*
X86236369Y-36893769D01*
X85970859Y-37271991D01*
X85650581Y-37587507D01*
X85275534Y-37840316D01*
X84860800Y-38024863D01*
X84421459Y-38135591D01*
X83957512Y-38172500D01*
X83493566Y-38135591D01*
X83054225Y-38024863D01*
G37*
G36*
X95859000Y-36286550D02*
G01*
X95830425Y-35686475D01*
X95830425Y-32850407D01*
X96630525Y-32850407D01*
X96630525Y-38101063D01*
X96523369Y-38101063D01*
X93451556Y-34700638D01*
X93472987Y-35272138D01*
X93472987Y-38101063D01*
X92672887Y-38101063D01*
X92672887Y-32843263D01*
X92772900Y-32843263D01*
X95859000Y-36286550D01*
G37*
G36*
X76363706Y-36286550D02*
G01*
X76335131Y-35686475D01*
X76335131Y-32850407D01*
X77135231Y-32850407D01*
X77135231Y-38101063D01*
X77028075Y-38101063D01*
X73956262Y-34700638D01*
X73977694Y-35272138D01*
X73977694Y-38101063D01*
X73177594Y-38101063D01*
X73177594Y-32843263D01*
X73277606Y-32843263D01*
X76363706Y-36286550D01*
G37*
G36*
X66869662Y-38101063D02*
G01*
X65369475Y-38101063D01*
X65369475Y-35715050D01*
X66155287Y-35715050D01*
X66155287Y-37429550D01*
X66976819Y-37429550D01*
X67520637Y-37364364D01*
X67851928Y-37168804D01*
X68020699Y-36873231D01*
X68076956Y-36508007D01*
X68012662Y-36172250D01*
X67819781Y-35922219D01*
X67496527Y-35766843D01*
X67041112Y-35715050D01*
X66155287Y-35715050D01*
X65369475Y-35715050D01*
X65369475Y-35079257D01*
X66155287Y-35079257D01*
X66833944Y-35079257D01*
X67267927Y-35017642D01*
X67555462Y-34832797D01*
X67716197Y-34553298D01*
X67769775Y-34207719D01*
X67661825Y-33830688D01*
X67337975Y-33604469D01*
X66798225Y-33529063D01*
X66155287Y-33529063D01*
X66155287Y-35079257D01*
X65369475Y-35079257D01*
X65369475Y-32850407D01*
X66705356Y-32850407D01*
X67373694Y-32892475D01*
X67873756Y-33018682D01*
X68205544Y-33229025D01*
X68484150Y-33646935D01*
X68577019Y-34143425D01*
X68537728Y-34490790D01*
X68419856Y-34818510D01*
X68216259Y-35096223D01*
X67919794Y-35293569D01*
X68360027Y-35470377D01*
X68666316Y-35743625D01*
X68845802Y-36093669D01*
X68905631Y-36500863D01*
X68869913Y-36929488D01*
X68762756Y-37300963D01*
X68543086Y-37615288D01*
X68169825Y-37872463D01*
X67825337Y-37999463D01*
X67391950Y-38075663D01*
X66976819Y-38095852D01*
X66869662Y-38101063D01*
G37*
G36*
X80378494Y-36650882D02*
G01*
X80338409Y-37135466D01*
X80218156Y-37522419D01*
X80017734Y-37811741D01*
X79600718Y-38082311D01*
X79071187Y-38172500D01*
X78769364Y-38153748D01*
X78463969Y-38097491D01*
X77949619Y-37843888D01*
X78271087Y-37108082D01*
X78560409Y-37333110D01*
X78956887Y-37408119D01*
X79314075Y-37329538D01*
X79517672Y-37043788D01*
X79568571Y-36791971D01*
X79585537Y-36450857D01*
X79585537Y-32850407D01*
X80378494Y-32850407D01*
X80378494Y-36650882D01*
G37*
G36*
X72134606Y-33550494D02*
G01*
X70627275Y-33550494D01*
X70627275Y-35000675D01*
X71841712Y-35000675D01*
X71841712Y-35715050D01*
X70627275Y-35715050D01*
X70627275Y-37393832D01*
X72370350Y-37393832D01*
X72370350Y-38101063D01*
X69834319Y-38101063D01*
X69834319Y-32850407D01*
X72134606Y-32850407D01*
X72134606Y-33550494D01*
G37*
G36*
X88293769Y-37386688D02*
G01*
X89801100Y-37386688D01*
X89801100Y-38101063D01*
X87486525Y-38101063D01*
X87486525Y-32850407D01*
X88293769Y-32850407D01*
X88293769Y-37386688D01*
G37*
G36*
X91465594Y-38101063D02*
G01*
X90665494Y-38101063D01*
X90665494Y-32850407D01*
X91465594Y-32850407D01*
X91465594Y-38101063D01*
G37*
%TD*%
D10*
%TO.C,mouse-bite-2mm-slot*%
X40300000Y-41925000D03*
X38800000Y-40425000D03*
X40300000Y-40425000D03*
X38800000Y-41925000D03*
X38800000Y-41175000D03*
X40300000Y-41175000D03*
%TD*%
%TO.C,mouse-bite-2mm-slot*%
X40300000Y-61925000D03*
X38800000Y-60425000D03*
X40300000Y-60425000D03*
X38800000Y-61925000D03*
X38800000Y-61175000D03*
X40300000Y-61175000D03*
%TD*%
%TO.C,mouse-bite-2mm-slot*%
X40300000Y-81925000D03*
X38800000Y-80425000D03*
X40300000Y-80425000D03*
X38800000Y-81925000D03*
X38800000Y-81175000D03*
X40300000Y-81175000D03*
%TD*%
%TO.C,mouse-bite-2mm-slot*%
X40300000Y-101925000D03*
X38800000Y-100425000D03*
X40300000Y-100425000D03*
X38800000Y-101925000D03*
X38800000Y-101175000D03*
X40300000Y-101175000D03*
%TD*%
%TO.C,mouse-bite-2mm-slot*%
X40300000Y-121925000D03*
X38800000Y-120425000D03*
X40300000Y-120425000D03*
X38800000Y-121925000D03*
X38800000Y-121175000D03*
X40300000Y-121175000D03*
%TD*%
%TO.C,mouse-bite-2mm-slot*%
X40300000Y-141175000D03*
X38800000Y-141175000D03*
X38800000Y-141925000D03*
X40300000Y-140425000D03*
X38800000Y-140425000D03*
X40300000Y-141925000D03*
%TD*%
D11*
%TO.C,REF\u002A\u002A*%
X70303291Y-68650000D03*
%TD*%
D12*
%TO.C,H2*%
X33300000Y-52550000D03*
%TD*%
D11*
%TO.C,REF\u002A\u002A*%
X92290079Y-68650000D03*
%TD*%
%TO.C,REF\u002A\u002A*%
X114279479Y-68650000D03*
%TD*%
D13*
%TO.C,*%
X47726000Y-151150000D03*
%TD*%
D12*
%TO.C,H2*%
X114279479Y-133749661D03*
%TD*%
%TO.C,H2*%
X58810521Y-133750000D03*
%TD*%
%TO.C,H2*%
X33300000Y-120750000D03*
%TD*%
D11*
%TO.C,REF\u002A\u002A*%
X92290079Y-91929918D03*
%TD*%
D12*
%TO.C,H6*%
X23800000Y-86500000D03*
%TD*%
%TO.C,H2*%
X23800000Y-65550000D03*
%TD*%
D11*
%TO.C,REF\u002A\u002A*%
X70303291Y-91929918D03*
%TD*%
D12*
%TO.C,H2*%
X23800000Y-52550000D03*
%TD*%
%TO.C,H2*%
X33300000Y-86500000D03*
%TD*%
D14*
%TO.C,H1*%
X26050000Y-28650000D03*
%TD*%
D12*
%TO.C,H2*%
X92090521Y-133749661D03*
%TD*%
%TO.C,H2*%
X47726000Y-133750000D03*
%TD*%
%TO.C,H2*%
X23800000Y-99500000D03*
%TD*%
%TO.C,H2*%
X69908668Y-133749661D03*
%TD*%
%TO.C,H6*%
X33300000Y-133750000D03*
%TD*%
D11*
%TO.C,REF\u002A\u002A*%
X92290079Y-46030082D03*
%TD*%
D12*
%TO.C,H2*%
X81000521Y-133750000D03*
%TD*%
D14*
%TO.C,H14*%
X26050000Y-151150000D03*
%TD*%
D13*
%TO.C,*%
X114279479Y-28650000D03*
%TD*%
D12*
%TO.C,H2*%
X33300000Y-65550000D03*
%TD*%
%TO.C,H2*%
X47726000Y-91929918D03*
%TD*%
D13*
%TO.C,*%
X114279479Y-151150000D03*
%TD*%
D11*
%TO.C,REF\u002A\u002A*%
X114279479Y-114918361D03*
%TD*%
D12*
%TO.C,H2*%
X47726000Y-68650000D03*
%TD*%
D11*
%TO.C,REF\u002A\u002A*%
X70303291Y-46030082D03*
%TD*%
D12*
%TO.C,H2*%
X70342579Y-114918361D03*
%TD*%
%TO.C,H2*%
X47742272Y-46030082D03*
%TD*%
D11*
%TO.C,REF\u002A\u002A*%
X92290079Y-114918361D03*
%TD*%
D12*
%TO.C,H2*%
X23800000Y-120750000D03*
%TD*%
%TO.C,H6*%
X23800000Y-133750000D03*
%TD*%
%TO.C,H2*%
X33300000Y-99500000D03*
%TD*%
%TO.C,H2*%
X58816000Y-114918361D03*
%TD*%
D11*
%TO.C,REF\u002A\u002A*%
X114279479Y-91929918D03*
%TD*%
D13*
%TO.C,*%
X47726000Y-28650000D03*
%TD*%
D12*
%TO.C,H2*%
X47731479Y-114900000D03*
%TD*%
D11*
%TO.C,REF\u002A\u002A*%
X114279479Y-46030082D03*
%TD*%
D12*
%TO.C,H2*%
X103182667Y-133749661D03*
%TD*%
M02*
