<?xml version="1.0" standalone="no"?>
 <!DOCTYPE svg PUBLIC "-//W3C//DTD SVG 1.1//EN" 
 "http://www.w3.org/Graphics/SVG/1.1/DTD/svg11.dtd"> 
<svg
  xmlns:svg="http://www.w3.org/2000/svg"
  xmlns="http://www.w3.org/2000/svg"
  xmlns:xlink="http://www.w3.org/1999/xlink"
  version="1.1"
  width="29.700220cm" height="21.000720cm" viewBox="0 0 297002200 210007200">
<title>SVG Picture created as benjolin_1.6_panel-B_Silkscreen.svg date 2022/09/23 22:20:02 </title>
  <desc>Picture generated by PCBNEW </desc>
<g style="fill:#000000; fill-opacity:1.000000;stroke:#000000; stroke-opacity:1.000000;
stroke-linecap:round; stroke-linejoin:round;"
 transform="translate(0 0) scale(1 1)">
</g>
<g style="fill:#000000; fill-opacity:0.0; 
stroke:#000000; stroke-width:0.000000; stroke-opacity:1; 
stroke-linecap:round; stroke-linejoin:round;">
</g>
<g style="fill:#000000; fill-opacity:0.0; 
stroke:#000000; stroke-width:120000.000000; stroke-opacity:1; 
stroke-linecap:round; stroke-linejoin:round;">
<path d="M19050000 142150000
L19050000 37650000
" />
<path d="M22500000 139650000
L19550000 139650000
" />
<path d="M37550000 139650000
L35000000 139650000
" />
<path d="M38050000 37850000
L38050000 142250000
" />
<path d="M37550000 37650000
L19550000 37650000
" />
</g>
<g style="fill:#000000; fill-opacity:0.0; 
stroke:#000000; stroke-width:300000.000000; stroke-opacity:1; 
stroke-linecap:round; stroke-linejoin:round;">
<text x="28900000.000000" y="34635000.000000"
transform="scale(-1 1) translate(-57800000.000000 0)"
textLength="15707143.000000" font-size="2000000.000000" lengthAdjust="spacingAndGlyphs"
text-anchor="middle" opacity="0">Crimps V1.2.2</text>
<g class="stroked-text"><desc>Crimps V1.2.2</desc>
<path d="M35614285 34420714
L35685714 34492142
L35900000 34563571
L36042857 34563571
L36257142 34492142
L36400000 34349285
L36471428 34206428
L36542857 33920714
L36542857 33706428
L36471428 33420714
L36400000 33277857
L36257142 33135000
L36042857 33063571
L35900000 33063571
L35685714 33135000
L35614285 33206428
" />
<path d="M34971428 34563571
L34971428 33563571
" />
<path d="M34971428 33849285
L34900000 33706428
L34828571 33635000
L34685714 33563571
L34542857 33563571
" />
<path d="M34042857 34563571
L34042857 33563571
" />
<path d="M34042857 33063571
L34114285 33135000
L34042857 33206428
L33971428 33135000
L34042857 33063571
L34042857 33206428
" />
<path d="M33328571 34563571
L33328571 33563571
" />
<path d="M33328571 33706428
L33257142 33635000
L33114285 33563571
L32900000 33563571
L32757142 33635000
L32685714 33777857
L32685714 34563571
" />
<path d="M32685714 33777857
L32614285 33635000
L32471428 33563571
L32257142 33563571
L32114285 33635000
L32042857 33777857
L32042857 34563571
" />
<path d="M31328571 33563571
L31328571 35063571
" />
<path d="M31328571 33635000
L31185714 33563571
L30900000 33563571
L30757142 33635000
L30685714 33706428
L30614285 33849285
L30614285 34277857
L30685714 34420714
L30757142 34492142
L30900000 34563571
L31185714 34563571
L31328571 34492142
" />
<path d="M30042857 34492142
L29900000 34563571
L29614285 34563571
L29471428 34492142
L29400000 34349285
L29400000 34277857
L29471428 34135000
L29614285 34063571
L29828571 34063571
L29971428 33992142
L30042857 33849285
L30042857 33777857
L29971428 33635000
L29828571 33563571
L29614285 33563571
L29471428 33635000
" />
<path d="M27828571 33063571
L27328571 34563571
L26828571 33063571
" />
<path d="M25542857 34563571
L26400000 34563571
" />
<path d="M25971428 34563571
L25971428 33063571
L26114285 33277857
L26257142 33420714
L26400000 33492142
" />
<path d="M24900000 34420714
L24828571 34492142
L24900000 34563571
L24971428 34492142
L24900000 34420714
L24900000 34563571
" />
<path d="M24257142 33206428
L24185714 33135000
L24042857 33063571
L23685714 33063571
L23542857 33135000
L23471428 33206428
L23400000 33349285
L23400000 33492142
L23471428 33706428
L24328571 34563571
L23400000 34563571
" />
<path d="M22757142 34420714
L22685714 34492142
L22757142 34563571
L22828571 34492142
L22757142 34420714
L22757142 34563571
" />
<path d="M22114285 33206428
L22042857 33135000
L21900000 33063571
L21542857 33063571
L21400000 33135000
L21328571 33206428
L21257142 33349285
L21257142 33492142
L21328571 33706428
L22185714 34563571
L21257142 34563571
" />
</g><text x="28900000.000000" y="37050000.000000"
transform="scale(-1 1) translate(-57800000.000000 0)"
textLength="16610000.000000" font-size="2000000.000000" lengthAdjust="spacingAndGlyphs"
text-anchor="middle" opacity="0">KDS 20211112</text>
<g class="stroked-text"><desc>KDS 20211112</desc>
<path d="M37042857 36978571
L37042857 35478571
" />
<path d="M36185714 36978571
L36828571 36121428
" />
<path d="M36185714 35478571
L37042857 36335714
" />
<path d="M35542857 36978571
L35542857 35478571
L35185714 35478571
L34971428 35550000
L34828571 35692857
L34757142 35835714
L34685714 36121428
L34685714 36335714
L34757142 36621428
L34828571 36764285
L34971428 36907142
L35185714 36978571
L35542857 36978571
" />
<path d="M34114285 36907142
L33900000 36978571
L33542857 36978571
L33400000 36907142
L33328571 36835714
L33257142 36692857
L33257142 36550000
L33328571 36407142
L33400000 36335714
L33542857 36264285
L33828571 36192857
L33971428 36121428
L34042857 36050000
L34114285 35907142
L34114285 35764285
L34042857 35621428
L33971428 35550000
L33828571 35478571
L33471428 35478571
L33257142 35550000
" />
<path d="M31542857 35621428
L31471428 35550000
L31328571 35478571
L30971428 35478571
L30828571 35550000
L30757142 35621428
L30685714 35764285
L30685714 35907142
L30757142 36121428
L31614285 36978571
L30685714 36978571
" />
<path d="M29757142 35478571
L29614285 35478571
L29471428 35550000
L29400000 35621428
L29328571 35764285
L29257142 36050000
L29257142 36407142
L29328571 36692857
L29400000 36835714
L29471428 36907142
L29614285 36978571
L29757142 36978571
L29900000 36907142
L29971428 36835714
L30042857 36692857
L30114285 36407142
L30114285 36050000
L30042857 35764285
L29971428 35621428
L29900000 35550000
L29757142 35478571
" />
<path d="M28685714 35621428
L28614285 35550000
L28471428 35478571
L28114285 35478571
L27971428 35550000
L27900000 35621428
L27828571 35764285
L27828571 35907142
L27900000 36121428
L28757142 36978571
L27828571 36978571
" />
<path d="M26400000 36978571
L27257142 36978571
" />
<path d="M26828571 36978571
L26828571 35478571
L26971428 35692857
L27114285 35835714
L27257142 35907142
" />
<path d="M24971428 36978571
L25828571 36978571
" />
<path d="M25400000 36978571
L25400000 35478571
L25542857 35692857
L25685714 35835714
L25828571 35907142
" />
<path d="M23542857 36978571
L24400000 36978571
" />
<path d="M23971428 36978571
L23971428 35478571
L24114285 35692857
L24257142 35835714
L24400000 35907142
" />
<path d="M22114285 36978571
L22971428 36978571
" />
<path d="M22542857 36978571
L22542857 35478571
L22685714 35692857
L22828571 35835714
L22971428 35907142
" />
<path d="M21542857 35621428
L21471428 35550000
L21328571 35478571
L20971428 35478571
L20828571 35550000
L20757142 35621428
L20685714 35764285
L20685714 35907142
L20757142 36121428
L21614285 36978571
L20685714 36978571
" />
</g><text x="28900000.000000" y="39465000.000000"
transform="scale(-1 1) translate(-57800000.000000 0)"
textLength="13752857.000000" font-size="2000000.000000" lengthAdjust="spacingAndGlyphs"
text-anchor="middle" opacity="0">karltron.com</text>
<g class="stroked-text"><desc>karltron.com</desc>
<path d="M35614285 39393571
L35614285 37893571
" />
<path d="M35471428 38822142
L35042857 39393571
" />
<path d="M35042857 38393571
L35614285 38965000
" />
<path d="M33757142 39393571
L33757142 38607857
L33828571 38465000
L33971428 38393571
L34257142 38393571
L34400000 38465000
" />
<path d="M33757142 39322142
L33900000 39393571
L34257142 39393571
L34400000 39322142
L34471428 39179285
L34471428 39036428
L34400000 38893571
L34257142 38822142
L33900000 38822142
L33757142 38750714
" />
<path d="M33042857 39393571
L33042857 38393571
" />
<path d="M33042857 38679285
L32971428 38536428
L32900000 38465000
L32757142 38393571
L32614285 38393571
" />
<path d="M31900000 39393571
L32042857 39322142
L32114285 39179285
L32114285 37893571
" />
<path d="M31542857 38393571
L30971428 38393571
" />
<path d="M31328571 37893571
L31328571 39179285
L31257142 39322142
L31114285 39393571
L30971428 39393571
" />
<path d="M30471428 39393571
L30471428 38393571
" />
<path d="M30471428 38679285
L30400000 38536428
L30328571 38465000
L30185714 38393571
L30042857 38393571
" />
<path d="M29328571 39393571
L29471428 39322142
L29542857 39250714
L29614285 39107857
L29614285 38679285
L29542857 38536428
L29471428 38465000
L29328571 38393571
L29114285 38393571
L28971428 38465000
L28900000 38536428
L28828571 38679285
L28828571 39107857
L28900000 39250714
L28971428 39322142
L29114285 39393571
L29328571 39393571
" />
<path d="M28185714 38393571
L28185714 39393571
" />
<path d="M28185714 38536428
L28114285 38465000
L27971428 38393571
L27757142 38393571
L27614285 38465000
L27542857 38607857
L27542857 39393571
" />
<path d="M26828571 39250714
L26757142 39322142
L26828571 39393571
L26900000 39322142
L26828571 39250714
L26828571 39393571
" />
<path d="M25471428 39322142
L25614285 39393571
L25900000 39393571
L26042857 39322142
L26114285 39250714
L26185714 39107857
L26185714 38679285
L26114285 38536428
L26042857 38465000
L25900000 38393571
L25614285 38393571
L25471428 38465000
" />
<path d="M24614285 39393571
L24757142 39322142
L24828571 39250714
L24900000 39107857
L24900000 38679285
L24828571 38536428
L24757142 38465000
L24614285 38393571
L24400000 38393571
L24257142 38465000
L24185714 38536428
L24114285 38679285
L24114285 39107857
L24185714 39250714
L24257142 39322142
L24400000 39393571
L24614285 39393571
" />
<path d="M23471428 39393571
L23471428 38393571
" />
<path d="M23471428 38536428
L23400000 38465000
L23257142 38393571
L23042857 38393571
L22900000 38465000
L22828571 38607857
L22828571 39393571
" />
<path d="M22828571 38607857
L22757142 38465000
L22614285 38393571
L22400000 38393571
L22257142 38465000
L22185714 38607857
L22185714 39393571
" />
</g></g>
<g style="fill:#000000; fill-opacity:0.0; 
stroke:#000000; stroke-width:250000.000000; stroke-opacity:1; 
stroke-linecap:round; stroke-linejoin:round;">
<text x="28700000.000000" y="111900000.000000"
transform="scale(-1 1) translate(-57400000.000000 0)"
textLength="15038571.000000" font-size="2000000.000000" lengthAdjust="spacingAndGlyphs"
text-anchor="middle" opacity="0">JLCJLCJLCJLC</text>
<g class="stroked-text"><desc>JLCJLCJLCJLC</desc>
<path d="M35628571 110328571
L35628571 111400000
L35700000 111614285
L35842857 111757142
L36057142 111828571
L36200000 111828571
" />
<path d="M34200000 111828571
L34914285 111828571
L34914285 110328571
" />
<path d="M32842857 111685714
L32914285 111757142
L33128571 111828571
L33271428 111828571
L33485714 111757142
L33628571 111614285
L33700000 111471428
L33771428 111185714
L33771428 110971428
L33700000 110685714
L33628571 110542857
L33485714 110400000
L33271428 110328571
L33128571 110328571
L32914285 110400000
L32842857 110471428
" />
<path d="M31771428 110328571
L31771428 111400000
L31842857 111614285
L31985714 111757142
L32200000 111828571
L32342857 111828571
" />
<path d="M30342857 111828571
L31057142 111828571
L31057142 110328571
" />
<path d="M28985714 111685714
L29057142 111757142
L29271428 111828571
L29414285 111828571
L29628571 111757142
L29771428 111614285
L29842857 111471428
L29914285 111185714
L29914285 110971428
L29842857 110685714
L29771428 110542857
L29628571 110400000
L29414285 110328571
L29271428 110328571
L29057142 110400000
L28985714 110471428
" />
<path d="M27914285 110328571
L27914285 111400000
L27985714 111614285
L28128571 111757142
L28342857 111828571
L28485714 111828571
" />
<path d="M26485714 111828571
L27200000 111828571
L27200000 110328571
" />
<path d="M25128571 111685714
L25200000 111757142
L25414285 111828571
L25557142 111828571
L25771428 111757142
L25914285 111614285
L25985714 111471428
L26057142 111185714
L26057142 110971428
L25985714 110685714
L25914285 110542857
L25771428 110400000
L25557142 110328571
L25414285 110328571
L25200000 110400000
L25128571 110471428
" />
<path d="M24057142 110328571
L24057142 111400000
L24128571 111614285
L24271428 111757142
L24485714 111828571
L24628571 111828571
" />
<path d="M22628571 111828571
L23342857 111828571
L23342857 110328571
" />
<path d="M21271428 111685714
L21342857 111757142
L21557142 111828571
L21700000 111828571
L21914285 111757142
L22057142 111614285
L22128571 111471428
L22200000 111185714
L22200000 110971428
L22128571 110685714
L22057142 110542857
L21914285 110400000
L21700000 110328571
L21557142 110328571
L21342857 110400000
L21271428 110471428
" />
</g></g>
<g style="fill:#000000; fill-opacity:0.0; 
stroke:#000000; stroke-width:200000.000000; stroke-opacity:1; 
stroke-linecap:round; stroke-linejoin:round;">
<text x="28950000.000000" y="143685000.000000"
transform="scale(-1 1) translate(-57900000.000000 0)"
textLength="14032143.000000" font-size="2000000.000000" lengthAdjust="spacingAndGlyphs"
text-anchor="middle" opacity="0">derived from</text>
<g class="stroked-text"><desc>derived from</desc>
<path d="M35128571 143613571
L35128571 142113571
" />
<path d="M35128571 143542142
L35271428 143613571
L35557142 143613571
L35700000 143542142
L35771428 143470714
L35842857 143327857
L35842857 142899285
L35771428 142756428
L35700000 142685000
L35557142 142613571
L35271428 142613571
L35128571 142685000
" />
<path d="M33842857 143542142
L33985714 143613571
L34271428 143613571
L34414285 143542142
L34485714 143399285
L34485714 142827857
L34414285 142685000
L34271428 142613571
L33985714 142613571
L33842857 142685000
L33771428 142827857
L33771428 142970714
L34485714 143113571
" />
<path d="M33128571 143613571
L33128571 142613571
" />
<path d="M33128571 142899285
L33057142 142756428
L32985714 142685000
L32842857 142613571
L32700000 142613571
" />
<path d="M32200000 143613571
L32200000 142613571
" />
<path d="M32200000 142113571
L32271428 142185000
L32200000 142256428
L32128571 142185000
L32200000 142113571
L32200000 142256428
" />
<path d="M31628571 142613571
L31271428 143613571
L30914285 142613571
" />
<path d="M29771428 143542142
L29914285 143613571
L30200000 143613571
L30342857 143542142
L30414285 143399285
L30414285 142827857
L30342857 142685000
L30200000 142613571
L29914285 142613571
L29771428 142685000
L29700000 142827857
L29700000 142970714
L30414285 143113571
" />
<path d="M28414285 143613571
L28414285 142113571
" />
<path d="M28414285 143542142
L28557142 143613571
L28842857 143613571
L28985714 143542142
L29057142 143470714
L29128571 143327857
L29128571 142899285
L29057142 142756428
L28985714 142685000
L28842857 142613571
L28557142 142613571
L28414285 142685000
" />
<path d="M26771428 142613571
L26200000 142613571
" />
<path d="M26557142 143613571
L26557142 142327857
L26485714 142185000
L26342857 142113571
L26200000 142113571
" />
<path d="M25700000 143613571
L25700000 142613571
" />
<path d="M25700000 142899285
L25628571 142756428
L25557142 142685000
L25414285 142613571
L25271428 142613571
" />
<path d="M24557142 143613571
L24700000 143542142
L24771428 143470714
L24842857 143327857
L24842857 142899285
L24771428 142756428
L24700000 142685000
L24557142 142613571
L24342857 142613571
L24200000 142685000
L24128571 142756428
L24057142 142899285
L24057142 143327857
L24128571 143470714
L24200000 143542142
L24342857 143613571
L24557142 143613571
" />
<path d="M23414285 143613571
L23414285 142613571
" />
<path d="M23414285 142756428
L23342857 142685000
L23200000 142613571
L22985714 142613571
L22842857 142685000
L22771428 142827857
L22771428 143613571
" />
<path d="M22771428 142827857
L22700000 142685000
L22557142 142613571
L22342857 142613571
L22200000 142685000
L22128571 142827857
L22128571 143613571
" />
</g><text x="28950000.000000" y="146100000.000000"
transform="scale(-1 1) translate(-57900000.000000 0)"
textLength="9311429.000000" font-size="2000000.000000" lengthAdjust="spacingAndGlyphs"
text-anchor="middle" opacity="0">MI Kinks</text>
<g class="stroked-text"><desc>MI Kinks</desc>
<path d="M33378571 146028571
L33378571 144528571
L32878571 145600000
L32378571 144528571
L32378571 146028571
" />
<path d="M31664285 146028571
L31664285 144528571
" />
<path d="M29807142 146028571
L29807142 144528571
" />
<path d="M28950000 146028571
L29592857 145171428
" />
<path d="M28950000 144528571
L29807142 145385714
" />
<path d="M28307142 146028571
L28307142 145028571
" />
<path d="M28307142 144528571
L28378571 144600000
L28307142 144671428
L28235714 144600000
L28307142 144528571
L28307142 144671428
" />
<path d="M27592857 145028571
L27592857 146028571
" />
<path d="M27592857 145171428
L27521428 145100000
L27378571 145028571
L27164285 145028571
L27021428 145100000
L26950000 145242857
L26950000 146028571
" />
<path d="M26235714 146028571
L26235714 144528571
" />
<path d="M26092857 145457142
L25664285 146028571
" />
<path d="M25664285 145028571
L26235714 145600000
" />
<path d="M25092857 145957142
L24950000 146028571
L24664285 146028571
L24521428 145957142
L24450000 145814285
L24450000 145742857
L24521428 145600000
L24664285 145528571
L24878571 145528571
L25021428 145457142
L25092857 145314285
L25092857 145242857
L25021428 145100000
L24878571 145028571
L24664285 145028571
L24521428 145100000
" />
</g><text x="28950000.000000" y="148515000.000000"
transform="scale(-1 1) translate(-57900000.000000 0)"
textLength="16525714.000000" font-size="2000000.000000" lengthAdjust="spacingAndGlyphs"
text-anchor="middle" opacity="0">cc-by-sa-3.0</text>
<g class="stroked-text"><desc>cc-by-sa-3.0</desc>
<path d="M36342857 148372142
L36485714 148443571
L36771428 148443571
L36914285 148372142
L36985714 148300714
L37057142 148157857
L37057142 147729285
L36985714 147586428
L36914285 147515000
L36771428 147443571
L36485714 147443571
L36342857 147515000
" />
<path d="M35057142 148372142
L35200000 148443571
L35485714 148443571
L35628571 148372142
L35700000 148300714
L35771428 148157857
L35771428 147729285
L35700000 147586428
L35628571 147515000
L35485714 147443571
L35200000 147443571
L35057142 147515000
" />
<path d="M34414285 147872142
L33271428 147872142
" />
<path d="M32557142 148443571
L32557142 146943571
" />
<path d="M32557142 147515000
L32414285 147443571
L32128571 147443571
L31985714 147515000
L31914285 147586428
L31842857 147729285
L31842857 148157857
L31914285 148300714
L31985714 148372142
L32128571 148443571
L32414285 148443571
L32557142 148372142
" />
<path d="M31342857 147443571
L30985714 148443571
" />
<path d="M30628571 147443571
L30985714 148443571
L31128571 148800714
L31200000 148872142
L31342857 148943571
" />
<path d="M30057142 147872142
L28914285 147872142
" />
<path d="M28271428 148372142
L28128571 148443571
L27842857 148443571
L27700000 148372142
L27628571 148229285
L27628571 148157857
L27700000 148015000
L27842857 147943571
L28057142 147943571
L28200000 147872142
L28271428 147729285
L28271428 147657857
L28200000 147515000
L28057142 147443571
L27842857 147443571
L27700000 147515000
" />
<path d="M26342857 148443571
L26342857 147657857
L26414285 147515000
L26557142 147443571
L26842857 147443571
L26985714 147515000
" />
<path d="M26342857 148372142
L26485714 148443571
L26842857 148443571
L26985714 148372142
L27057142 148229285
L27057142 148086428
L26985714 147943571
L26842857 147872142
L26485714 147872142
L26342857 147800714
" />
<path d="M25628571 147872142
L24485714 147872142
" />
<path d="M23914285 146943571
L22985714 146943571
L23485714 147515000
L23271428 147515000
L23128571 147586428
L23057142 147657857
L22985714 147800714
L22985714 148157857
L23057142 148300714
L23128571 148372142
L23271428 148443571
L23700000 148443571
L23842857 148372142
L23914285 148300714
" />
<path d="M22342857 148300714
L22271428 148372142
L22342857 148443571
L22414285 148372142
L22342857 148300714
L22342857 148443571
" />
<path d="M21342857 146943571
L21200000 146943571
L21057142 147015000
L20985714 147086428
L20914285 147229285
L20842857 147515000
L20842857 147872142
L20914285 148157857
L20985714 148300714
L21057142 148372142
L21200000 148443571
L21342857 148443571
L21485714 148372142
L21557142 148300714
L21628571 148157857
L21700000 147872142
L21700000 147515000
L21628571 147229285
L21557142 147086428
L21485714 147015000
L21342857 146943571
" />
</g></g>
<g style="fill:#000000; fill-opacity:1.0; 
stroke:#000000; stroke-width:10000.000000; stroke-opacity:1; 
stroke-linecap:round; stroke-linejoin:round;">
<path style="fill:#000000; fill-opacity:1.0; 
stroke:#000000; stroke-width:10000.000000; stroke-opacity:1; 
stroke-linecap:round; stroke-linejoin:round;fill-rule:evenodd;"
d="M 37410526.000000,31347763.000000
36257500.000000,31347763.000000
36257500.000000,26668816.000000
37410526.000000,26668816.000000
Z" /> 
<path style="fill:#000000; fill-opacity:1.0; 
stroke:#000000; stroke-width:10000.000000; stroke-opacity:1; 
stroke-linecap:round; stroke-linejoin:round;fill-rule:evenodd;"
d="M 30812183.000000,27769567.000000
30844483.000000,27772225.000000
30925340.000000,27778417.000000
30991135.000000,27782792.000000
31035791.000000,27784970.000000
31053233.000000,27784574.000000
31048219.000000,27778815.000000
31022083.000000,27752538.000000
30975758.000000,27707112.000000
30911647.000000,27644834.000000
30832150.000000,27568003.000000
30739669.000000,27478920.000000
30636606.000000,27379881.000000
30525362.000000,27273186.000000
30408338.000000,27161135.000000
30287936.000000,27046025.000000
30166558.000000,26930156.000000
30046604.000000,26815826.000000
29930476.000000,26705334.000000
29820575.000000,26600979.000000
29719304.000000,26505060.000000
29629063.000000,26419876.000000
29552253.000000,26347725.000000
29414539.000000,26218806.000000
29531852.000000,26218219.000000
29649164.000000,26217632.000000
30488485.000000,27015714.000000
31327807.000000,27813796.000000
31519106.000000,27829750.000000
32284528.000000,27893581.000000
32420287.000000,27904862.000000
32590154.000000,27918860.000000
32748505.000000,27931780.000000
32892228.000000,27943373.000000
33018210.000000,27953393.000000
33123338.000000,27961593.000000
33204501.000000,27967726.000000
33258586.000000,27971544.000000
33282480.000000,27972801.000000
33293429.000000,27969483.000000
33317071.000000,27954571.000000
33352703.000000,27926291.000000
33368277.000000,27912642.000000
33401948.000000,27883136.000000
33466428.000000,27823601.000000
33547768.000000,27746180.000000
33647591.000000,27649368.000000
33767520.000000,27531658.000000
33909179.000000,27391546.000000
34002136.000000,27299372.000000
34131795.000000,27170881.000000
34261079.000000,27042841.000000
34386097.000000,26919100.000000
34502959.000000,26803508.000000
34607774.000000,26699915.000000
34696652.000000,26612169.000000
34765702.000000,26544119.000000
35036757.000000,26277383.000000
35087326.000000,26325831.000000
35098719.000000,26337257.000000
35126697.000000,26370965.000000
35137895.000000,26394090.000000
35128335.000000,26412195.000000
35099649.000000,26445855.000000
35058520.000000,26486208.000000
35032542.000000,26510770.000000
34985104.000000,26556577.000000
34918566.000000,26621317.000000
34835263.000000,26702705.000000
34737528.000000,26798455.000000
34627695.000000,26906279.000000
34508096.000000,27023892.000000
34381066.000000,27149008.000000
34248938.000000,27279341.000000
33518732.000000,28000169.000000
33898017.000000,28029531.000000
33978972.000000,28035932.000000
34087793.000000,28045279.000000
34170217.000000,28053710.000000
34230575.000000,28061849.000000
34273200.000000,28070321.000000
34302424.000000,28079750.000000
34322580.000000,28090763.000000
34350750.000000,28106175.000000
34402539.000000,28118857.000000
34477152.000000,28122632.000000
34586447.000000,28122632.000000
34586447.000000,28423421.000000
34352500.000000,28423421.000000
34352500.000000,29547168.000000
34426295.000000,29612125.000000
34445511.000000,29629890.000000
34522712.000000,29726169.000000
34570239.000000,29834951.000000
34586447.000000,29952738.000000
34577854.000000,30056673.000000
34541628.000000,30174230.000000
34476882.000000,30274866.000000
34458378.000000,30294480.000000
34398475.000000,30343497.000000
34328693.000000,30386503.000000
34259909.000000,30417342.000000
34203002.000000,30429859.000000
34194741.000000,30430101.000000
34164471.000000,30431901.000000
34143563.000000,30436608.000000
34133669.000000,30446456.000000
34136444.000000,30463677.000000
34153540.000000,30490506.000000
34186610.000000,30529176.000000
34237307.000000,30581920.000000
34307285.000000,30650972.000000
34398197.000000,30738566.000000
34511695.000000,30846935.000000
34572280.000000,30904658.000000
34673718.000000,31001145.000000
34769889.000000,31092432.000000
34857013.000000,31174941.000000
34931311.000000,31245094.000000
34989003.000000,31299315.000000
35026310.000000,31334026.000000
35129539.000000,31428908.000000
35071052.000000,31487551.000000
35012566.000000,31546195.000000
34252237.000000,30820821.000000
34204263.000000,30775084.000000
34032940.000000,30612367.000000
33884738.000000,30472687.000000
33759198.000000,30355627.000000
33655861.000000,30260767.000000
33574266.000000,30187689.000000
33513955.000000,30135974.000000
33474466.000000,30105204.000000
33455342.000000,30094960.000000
33455229.000000,30094959.000000
33431394.000000,30096364.000000
33377967.000000,30100469.000000
33298584.000000,30106952.000000
33196880.000000,30115492.000000
33076493.000000,30125767.000000
32941057.000000,30137456.000000
32794211.000000,30150237.000000
32639590.000000,30163788.000000
32480830.000000,30177788.000000
32321568.000000,30191915.000000
32165441.000000,30205847.000000
32016083.000000,30219264.000000
31877133.000000,30231843.000000
31752226.000000,30243262.000000
31644998.000000,30253201.000000
31559087.000000,30261338.000000
31498127.000000,30267350.000000
31465756.000000,30270917.000000
31394737.000000,30280337.000000
31394737.000000,30645921.000000
31114835.000000,30646359.000000
30834934.000000,30646796.000000
30225000.000000,31247115.000000
29615066.000000,31847433.000000
29499337.000000,31848256.000000
29383610.000000,31849079.000000
30113449.000000,31129031.000000
30183944.000000,31059436.000000
30329828.000000,30915025.000000
30453875.000000,30791558.000000
30557611.000000,30687440.000000
30642562.000000,30601075.000000
30710256.000000,30530868.000000
30727655.000000,30512237.000000
30969584.000000,30512237.000000
31261052.000000,30512237.000000
31261052.000000,30403618.000000
31261044.000000,30393955.000000
31259880.000000,30339396.000000
31254902.000000,30309724.000000
31243477.000000,30297429.000000
31222971.000000,30295000.000000
31192829.000000,30305699.000000
31142687.000000,30342346.000000
31077237.000000,30403618.000000
30969584.000000,30512237.000000
30727655.000000,30512237.000000
30762219.000000,30475224.000000
30799977.000000,30432548.000000
30825057.000000,30401244.000000
30838986.000000,30379718.000000
30843289.000000,30366375.000000
30841986.000000,30343875.000000
30832468.000000,30331244.000000
30806427.000000,30329066.000000
30755559.000000,30334303.000000
30723533.000000,30337914.000000
30670002.000000,30342939.000000
30634408.000000,30344963.000000
30622138.000000,30345955.000000
30608996.000000,30355614.000000
30604641.000000,30382297.000000
30606542.000000,30434098.000000
30607287.000000,30447324.000000
30606447.000000,30500267.000000
30594813.000000,30537927.000000
30568396.000000,30575044.000000
30562835.000000,30581437.000000
30495487.000000,30633715.000000
30417754.000000,30656719.000000
30336211.000000,30649672.000000
30257434.000000,30611797.000000
30252529.000000,30608132.000000
30210327.000000,30557514.000000
30185365.000000,30491526.000000
30178725.000000,30420393.000000
30191492.000000,30354336.000000
30224750.000000,30303581.000000
30241729.000000,30286396.000000
30245844.000000,30269655.000000
30233115.000000,30245682.000000
30201332.000000,30205201.000000
30191564.000000,30192781.000000
30129911.000000,30096889.000000
30075084.000000,29983285.000000
30031033.000000,29862547.000000
30001706.000000,29745254.000000
29991052.000000,29641983.000000
29990968.000000,29631012.000000
29985031.000000,29570030.000000
29968385.000000,29536540.000000
29939133.000000,29526316.000000
29929917.000000,29525115.000000
29921991.000000,29518551.000000
29916189.000000,29502609.000000
29912181.000000,29473281.000000
29909639.000000,29426560.000000
29908937.000000,29392632.000000
30041184.000000,29392632.000000
30124737.000000,29392632.000000
30124737.000000,28891316.000000
30041184.000000,28891316.000000
30041184.000000,29392632.000000
29908937.000000,29392632.000000
29908230.000000,29358441.000000
29907628.000000,29264914.000000
29907500.000000,29141974.000000
29907725.000000,29026781.000000
29908635.000000,28928874.000000
29910469.000000,28857200.000000
29913466.000000,28807999.000000
29917863.000000,28777510.000000
29923898.000000,28761975.000000
29931808.000000,28757632.000000
30121345.000000,28757632.000000
30258421.000000,28757632.000000
30258421.000000,29526316.000000
30137596.000000,29526316.000000
30149065.000000,29622401.000000
30173646.000000,29769213.000000
30218089.000000,29916968.000000
30280062.000000,30039186.000000
30360413.000000,30137938.000000
30425526.000000,30201519.000000
30425526.000000,30188026.000000
30575921.000000,30188026.000000
30638585.000000,30182496.000000
30667017.000000,30179942.000000
30744642.000000,30171982.000000
30795769.000000,30164139.000000
30825711.000000,30154969.000000
30839780.000000,30143027.000000
30843289.000000,30126871.000000
30845679.000000,30112344.000000
30852991.000000,30106176.000000
31400868.000000,30106176.000000
31411538.000000,30106427.000000
31452630.000000,30104228.000000
31521735.000000,30099389.000000
31615870.000000,30092152.000000
31732053.000000,30082759.000000
31867299.000000,30071453.000000
32018627.000000,30058477.000000
32183054.000000,30044071.000000
32357597.000000,30028479.000000
32492206.000000,30016290.000000
32659145.000000,30001024.000000
32813618.000000,29986731.000000
32952649.000000,29973695.000000
33073264.000000,29962200.000000
33172489.000000,29952530.000000
33247348.000000,29944970.000000
33294867.000000,29939803.000000
33312072.000000,29937314.000000
33306742.000000,29929764.000000
33280578.000000,29902078.000000
33235637.000000,29857091.000000
33175191.000000,29797900.000000
33102509.000000,29727601.000000
33020864.000000,29649292.000000
32933526.000000,29566070.000000
32843767.000000,29481031.000000
32754858.000000,29397273.000000
32670070.000000,29317893.000000
32592673.000000,29245987.000000
32525941.000000,29184653.000000
32473142.000000,29136987.000000
32437550.000000,29106087.000000
32422434.000000,29095049.000000
32407785.000000,29105869.000000
32372722.000000,29137326.000000
32320265.000000,29186497.000000
32253372.000000,29250456.000000
32174999.000000,29326277.000000
32088103.000000,29411033.000000
31995641.000000,29501798.000000
31900569.000000,29595644.000000
31805845.000000,29689646.000000
31714424.000000,29780876.000000
31629265.000000,29866409.000000
31553323.000000,29943317.000000
31489556.000000,30008674.000000
31440920.000000,30059554.000000
31410372.000000,30093030.000000
31400868.000000,30106176.000000
30852991.000000,30106176.000000
30857098.000000,30102711.000000
30883645.000000,30097328.000000
30931414.000000,30094985.000000
31006502.000000,30094474.000000
31169715.000000,30094474.000000
31222971.000000,30041052.000000
31352960.000000,29910658.000000
31536206.000000,29726842.000000
31394737.000000,29726842.000000
31394737.000000,28724210.000000
31712237.000000,28724210.000000
31712237.000000,29546173.000000
32000493.000000,29267411.000000
32055548.000000,29214016.000000
32131120.000000,29140183.000000
32196082.000000,29076071.000000
32247060.000000,29025039.000000
32280681.000000,28990443.000000
32293574.000000,28975643.000000
32290018.000000,28970017.000000
32286637.000000,28966285.000000
32553521.000000,28966285.000000
32559314.000000,28976569.000000
32585675.000000,29007199.000000
32629709.000000,29053295.000000
32687444.000000,29110735.000000
32754911.000000,29175395.000000
32772804.000000,29192262.000000
32852839.000000,29267893.000000
32947977.000000,29358016.000000
33051067.000000,29455845.000000
33154956.000000,29554595.000000
33252493.000000,29647480.000000
33258346.000000,29653060.000000
33349214.000000,29739416.000000
33419577.000000,29805310.000000
33472783.000000,29853349.000000
33512177.000000,29886137.000000
33541108.000000,29906280.000000
33562922.000000,29916384.000000
33580967.000000,29919053.000000
33598589.000000,29916894.000000
33600430.000000,29916517.000000
33642171.000000,29898520.000000
33661620.000000,29862572.000000
33703083.000000,29751763.000000
33772156.000000,29653037.000000
33863524.000000,29575389.000000
33973195.000000,29522172.000000
34097173.000000,29496742.000000
34202105.000000,29488319.000000
34202105.000000,28226518.000000
34164506.000000,28217720.000000
34155279.000000,28216164.000000
34114018.000000,28211328.000000
34047304.000000,28204729.000000
33960453.000000,28196858.000000
33858777.000000,28188203.000000
33747592.000000,28179257.000000
33368277.000000,28149591.000000
32962198.000000,28549468.000000
32887961.000000,28622813.000000
32797837.000000,28712553.000000
32717775.000000,28793060.000000
32650542.000000,28861512.000000
32598910.000000,28915083.000000
32565646.000000,28950948.000000
32553521.000000,28966285.000000
32286637.000000,28966285.000000
32266118.000000,28943637.000000
32221862.000000,28898151.000000
32159708.000000,28835988.000000
32082115.000000,28759578.000000
31991540.000000,28671351.000000
31890441.000000,28573738.000000
31781275.000000,28469167.000000
31670964.000000,28364060.000000
31562246.000000,28261026.000000
31473136.000000,28177470.000000
31401271.000000,28111346.000000
31344289.000000,28060613.000000
31299828.000000,28023225.000000
31265525.000000,27997140.000000
31260572.000000,27993996.000000
31519106.000000,27993996.000000
31519416.000000,27994556.000000
31534623.000000,28010337.000000
31570303.000000,28045394.000000
31623220.000000,28096637.000000
31690139.000000,28160981.000000
31767823.000000,28235336.000000
31853036.000000,28316615.000000
31942541.000000,28401730.000000
32033102.000000,28487594.000000
32121483.000000,28571119.000000
32204448.000000,28649216.000000
32278760.000000,28718798.000000
32422434.000000,28852859.000000
32425186.000000,28855426.000000
32791299.000000,28489029.000000
32880679.000000,28399431.000000
32964320.000000,28314987.000000
33028027.000000,28249573.000000
33073868.000000,28200792.000000
33103909.000000,28166247.000000
33120218.000000,28143541.000000
33124862.000000,28130278.000000
33119908.000000,28124060.000000
33107423.000000,28122491.000000
33087363.000000,28121485.000000
33035712.000000,28117860.000000
32957320.000000,28111870.000000
32855759.000000,28103802.000000
32734602.000000,28093945.000000
32597421.000000,28082587.000000
32447787.000000,28070016.000000
32289271.000000,28056520.000000
32149563.000000,28044605.000000
32002414.000000,28032189.000000
31868805.000000,28021057.000000
31752028.000000,28011474.000000
31655378.000000,28003710.000000
31582145.000000,27998031.000000
31535624.000000,27994703.000000
31519106.000000,27993996.000000
31260572.000000,27993996.000000
31239017.000000,27980313.000000
31217942.000000,27970702.000000
31199939.000000,27966261.000000
31191169.000000,27965084.000000
31142847.000000,27959864.000000
31071707.000000,27953258.000000
30985861.000000,27945992.000000
30893421.000000,27938793.000000
30861225.000000,27936352.000000
30774236.000000,27929299.000000
30699203.000000,27922575.000000
30643255.000000,27916840.000000
30613520.000000,27912760.000000
30575921.000000,27904758.000000
30575921.000000,30188026.000000
30425526.000000,30188026.000000
30425526.000000,28321694.000000
30305007.000000,28326603.000000
30184488.000000,28331513.000000
30164348.000000,28431776.000000
30155214.000000,28482057.000000
30142425.000000,28566025.000000
30132776.000000,28644835.000000
30121345.000000,28757632.000000
29931808.000000,28757632.000000
29951232.000000,28743347.000000
29963627.000000,28703322.000000
29965796.000000,28688003.000000
29973430.000000,28635770.000000
29983778.000000,28566263.000000
29995240.000000,28490263.000000
30001075.000000,28448349.000000
30007394.000000,28387008.000000
30008918.000000,28343727.000000
30005197.000000,28325943.000000
30002773.000000,28322906.000000
29996785.000000,28294870.000000
29992617.000000,28244436.000000
29991052.000000,28179726.000000
29991052.000000,28039079.000000
30041184.000000,28039063.000000
30045362.000000,28039062.000000
30062572.000000,28038405.000000
30091467.000000,28029859.000000
30092205.000000,28029126.000000
30291842.000000,28029126.000000
30293536.000000,28031350.000000
30316810.000000,28036869.000000
30358684.000000,28039079.000000
30425526.000000,28039079.000000
30425526.000000,27963294.000000
30425366.000000,27940588.000000
30422442.000000,27906946.000000
30412970.000000,27897234.000000
30393267.000000,27904773.000000
30389511.000000,27907001.000000
30360623.000000,27932010.000000
30328563.000000,27968243.000000
30302560.000000,28004387.000000
30291842.000000,28029126.000000
30092205.000000,28029126.000000
30115972.000000,28005534.000000
30145143.000000,27958082.000000
30171793.000000,27916427.000000
30222960.000000,27853011.000000
30280400.000000,27795540.000000
30336279.000000,27751578.000000
30382762.000000,27728689.000000
30400674.000000,27723081.000000
30412970.000000,27712691.000000
30417116.000000,27709188.000000
30424083.000000,27680555.000000
30425526.000000,27627859.000000
30425526.000000,27537763.000000
30575921.000000,27537763.000000
30575921.000000,27749772.000000
Z" /> 
<g >
</g>
<g >
</g>
<g >
</g>
<g >
</g>
<g >
</g>
<g >
</g>
<g >
</g>
<g >
</g>
<g >
</g>
<g >
</g>
<g >
</g>
<g >
</g>
<g >
</g>
<g >
</g>
<g >
</g>
<g >
</g>
<g >
</g>
<g >
</g>
<g >
</g>
<g >
</g>
<g >
</g>
<g >
</g>
<g >
</g>
<g >
</g>
<g >
</g>
<g >
</g>
<g >
</g>
<g >
</g>
<g >
</g>
<g >
</g>
<g >
</g>
<g >
</g>
<g >
</g>
<g >
</g>
<g >
</g>
<g >
</g>
<g >
</g>
<g >
</g>
<g >
</g>
<g >
</g>
<g >
</g>
<g >
</g>
<g >
</g>
<g >
</g>
<g >
</g>
<g >
</g>
<g >
</g>
<g >
</g>
<g >
</g>
<g >
</g>
<g >
</g>
<g >
</g>
<g >
</g>
<g >
</g>
<g >
</g>
<g >
</g>
<g >
</g>
<g >
</g>
<g >
</g>
<g >
</g>
<g >
</g>
<g >
</g>
<g >
</g>
<g >
</g>
<g >
</g>
<g >
</g>
<g >
</g>
<g >
</g>
<g >
</g>
<g >
</g>
<g >
</g>
<g >
</g>
<g >
</g>
<g >
</g>
<g >
</g>
<g >
</g>
<g >
</g>
<g >
</g>
<g >
</g>
</g> 
</svg>
