M48
; DRILL file {KiCad (6.0.7-1)-1} date 2022 October 11, Tuesday 10:31:11
; FORMAT={-:-/ absolute / inch / decimal}
; #@! TF.CreationDate,2022-10-11T10:31:11+07:00
; #@! TF.GenerationSoftware,Kicad,Pcbnew,(6.0.7-1)-1
; #@! TF.FileFunction,Plated,1,2,PTH
FMAT,2
INCH
; #@! TA.AperFunction,Plated,PTH,ComponentDrill
T1C0.1260
; #@! TA.AperFunction,Plated,PTH,ComponentDrill
T2C0.2520
; #@! TA.AperFunction,Plated,PTH,ComponentDrill
T3C0.2953
%
G90
G05
T2
X1.8687Y-1.8079
X1.8687Y-2.713
X1.8687Y-3.6185
X1.8687Y-4.5236
X1.8687Y-5.2657
X2.3046Y-4.5236
X2.3053Y-5.2657
X2.7418Y-5.2657
X2.7588Y-4.5236
X3.1784Y-5.2657
X3.615Y-5.2657
X4.0516Y-5.2622
X4.4882Y-5.2622
T3
X2.7559Y-2.713
X2.7569Y-1.8079
X2.7569Y-3.6185
X3.6224Y-4.5236
X3.6225Y-1.8079
X3.6225Y-2.713
X3.6225Y-3.6185
X4.4882Y-1.8079
X4.4882Y-2.713
X4.4882Y-3.6185
X4.4882Y-4.5236
T1
G00X1.8239Y-1.128
M15
G01X1.9341Y-1.128
M16
G05
G00X1.8239Y-1.128
M15
G01X1.9341Y-1.128
M16
G05
G00X1.8239Y-5.9508
M15
G01X1.9341Y-5.9508
M16
G05
G00X1.8239Y-5.9508
M15
G01X1.9341Y-5.9508
M16
G05
G00X4.4441Y-1.128
M15
G01X4.5543Y-1.128
M16
G05
G00X4.4441Y-1.128
M15
G01X4.5543Y-1.128
M16
G05
G00X4.4441Y-5.9508
M15
G01X4.5543Y-5.9508
M16
G05
G00X4.4441Y-5.9508
M15
G01X4.5543Y-5.9508
M16
G05
T0
M30
