%TF.GenerationSoftware,KiCad,Pcbnew,(6.0.7-1)-1*%
%TF.CreationDate,2022-10-07T09:47:14+07:00*%
%TF.ProjectId,benjolin_1.6,62656e6a-6f6c-4696-9e5f-312e362e6b69,rev?*%
%TF.SameCoordinates,Original*%
%TF.FileFunction,Drillmap*%
%TF.FilePolarity,Positive*%
%FSLAX45Y45*%
G04 Gerber Fmt 4.5, Leading zero omitted, Abs format (unit mm)*
G04 Created by KiCad (PCBNEW (6.0.7-1)-1) date 2022-10-07 09:47:14*
%MOMM*%
%LPD*%
G01*
G04 APERTURE LIST*
%ADD10C,0.100000*%
%ADD11C,0.200000*%
%ADD12C,0.220000*%
G04 APERTURE END LIST*
D10*
X25545061Y-3289968D02*
X25545000Y-13144000D01*
X25470061Y-3214968D02*
X17870000Y-3214968D01*
X17870000Y-13215700D02*
X25469920Y-13215700D01*
X25469921Y-13215749D02*
G75*
G03*
X25545000Y-13144000I-813J76007D01*
G01*
X17795000Y-3289968D02*
X17795000Y-13140700D01*
X17795000Y-13140700D02*
G75*
G03*
X17870000Y-13215700I75000J0D01*
G01*
X17870000Y-3214970D02*
G75*
G03*
X17795000Y-3289968I0J-75000D01*
G01*
X25545061Y-3289968D02*
G75*
G03*
X25470061Y-3214968I-75002J-2D01*
G01*
D11*
D12*
X18266310Y-12489000D02*
X18486310Y-12709000D01*
X18486310Y-12489000D02*
X18266310Y-12709000D01*
X19375443Y-12490300D02*
X19595443Y-12710300D01*
X19595443Y-12490300D02*
X19375443Y-12710300D01*
X20484577Y-12490300D02*
X20704577Y-12710300D01*
X20704577Y-12490300D02*
X20484577Y-12710300D01*
X21593710Y-12490300D02*
X21813710Y-12710300D01*
X21813710Y-12490300D02*
X21593710Y-12710300D01*
X22702843Y-12490300D02*
X22922843Y-12710300D01*
X22922843Y-12490300D02*
X22702843Y-12710300D01*
X23811976Y-10607170D02*
X24031976Y-10827170D01*
X24031976Y-10607170D02*
X23811976Y-10827170D01*
X23811976Y-12490300D02*
X24031976Y-12710300D01*
X24031976Y-12490300D02*
X23811976Y-12710300D01*
X24921148Y-3706406D02*
X25141148Y-3926406D01*
X25141148Y-3706406D02*
X24921148Y-3926406D01*
X24921148Y-6005680D02*
X25141148Y-6225680D01*
X25141148Y-6005680D02*
X24921148Y-6225680D01*
X24921148Y-8306920D02*
X25141148Y-8526920D01*
X25141148Y-8306920D02*
X24921148Y-8526920D01*
X24921148Y-10607170D02*
X25141148Y-10827170D01*
X25141148Y-10607170D02*
X24921148Y-10827170D01*
X24921148Y-12490300D02*
X25141148Y-12710300D01*
X25141148Y-12490300D02*
X24921148Y-12710300D01*
D11*
X18047619Y-13531176D02*
X18047619Y-13331176D01*
X18095238Y-13331176D01*
X18123810Y-13340700D01*
X18142857Y-13359748D01*
X18152381Y-13378795D01*
X18161905Y-13416890D01*
X18161905Y-13445462D01*
X18152381Y-13483557D01*
X18142857Y-13502605D01*
X18123810Y-13521652D01*
X18095238Y-13531176D01*
X18047619Y-13531176D01*
X18247619Y-13531176D02*
X18247619Y-13397843D01*
X18247619Y-13435938D02*
X18257143Y-13416890D01*
X18266667Y-13407367D01*
X18285714Y-13397843D01*
X18304762Y-13397843D01*
X18371429Y-13531176D02*
X18371429Y-13397843D01*
X18371429Y-13331176D02*
X18361905Y-13340700D01*
X18371429Y-13350224D01*
X18380952Y-13340700D01*
X18371429Y-13331176D01*
X18371429Y-13350224D01*
X18495238Y-13531176D02*
X18476190Y-13521652D01*
X18466667Y-13502605D01*
X18466667Y-13331176D01*
X18600000Y-13531176D02*
X18580952Y-13521652D01*
X18571429Y-13502605D01*
X18571429Y-13331176D01*
X18828571Y-13531176D02*
X18828571Y-13331176D01*
X18895238Y-13474033D01*
X18961905Y-13331176D01*
X18961905Y-13531176D01*
X19142857Y-13531176D02*
X19142857Y-13426414D01*
X19133333Y-13407367D01*
X19114286Y-13397843D01*
X19076190Y-13397843D01*
X19057143Y-13407367D01*
X19142857Y-13521652D02*
X19123810Y-13531176D01*
X19076190Y-13531176D01*
X19057143Y-13521652D01*
X19047619Y-13502605D01*
X19047619Y-13483557D01*
X19057143Y-13464509D01*
X19076190Y-13454986D01*
X19123810Y-13454986D01*
X19142857Y-13445462D01*
X19238095Y-13397843D02*
X19238095Y-13597843D01*
X19238095Y-13407367D02*
X19257143Y-13397843D01*
X19295238Y-13397843D01*
X19314286Y-13407367D01*
X19323810Y-13416890D01*
X19333333Y-13435938D01*
X19333333Y-13493081D01*
X19323810Y-13512128D01*
X19314286Y-13521652D01*
X19295238Y-13531176D01*
X19257143Y-13531176D01*
X19238095Y-13521652D01*
X19419048Y-13512128D02*
X19428571Y-13521652D01*
X19419048Y-13531176D01*
X19409524Y-13521652D01*
X19419048Y-13512128D01*
X19419048Y-13531176D01*
X19419048Y-13407367D02*
X19428571Y-13416890D01*
X19419048Y-13426414D01*
X19409524Y-13416890D01*
X19419048Y-13407367D01*
X19419048Y-13426414D01*
X17590000Y-13760700D02*
X17790000Y-13960700D01*
X17790000Y-13760700D02*
X17590000Y-13960700D01*
X18038095Y-13770224D02*
X18047619Y-13760700D01*
X18066667Y-13751176D01*
X18114286Y-13751176D01*
X18133333Y-13760700D01*
X18142857Y-13770224D01*
X18152381Y-13789271D01*
X18152381Y-13808319D01*
X18142857Y-13836890D01*
X18028571Y-13951176D01*
X18152381Y-13951176D01*
X18238095Y-13932128D02*
X18247619Y-13941652D01*
X18238095Y-13951176D01*
X18228571Y-13941652D01*
X18238095Y-13932128D01*
X18238095Y-13951176D01*
X18323810Y-13770224D02*
X18333333Y-13760700D01*
X18352381Y-13751176D01*
X18400000Y-13751176D01*
X18419048Y-13760700D01*
X18428571Y-13770224D01*
X18438095Y-13789271D01*
X18438095Y-13808319D01*
X18428571Y-13836890D01*
X18314286Y-13951176D01*
X18438095Y-13951176D01*
X18561905Y-13751176D02*
X18580952Y-13751176D01*
X18600000Y-13760700D01*
X18609524Y-13770224D01*
X18619048Y-13789271D01*
X18628571Y-13827367D01*
X18628571Y-13874986D01*
X18619048Y-13913081D01*
X18609524Y-13932128D01*
X18600000Y-13941652D01*
X18580952Y-13951176D01*
X18561905Y-13951176D01*
X18542857Y-13941652D01*
X18533333Y-13932128D01*
X18523810Y-13913081D01*
X18514286Y-13874986D01*
X18514286Y-13827367D01*
X18523810Y-13789271D01*
X18533333Y-13770224D01*
X18542857Y-13760700D01*
X18561905Y-13751176D01*
X18752381Y-13751176D02*
X18771429Y-13751176D01*
X18790476Y-13760700D01*
X18800000Y-13770224D01*
X18809524Y-13789271D01*
X18819048Y-13827367D01*
X18819048Y-13874986D01*
X18809524Y-13913081D01*
X18800000Y-13932128D01*
X18790476Y-13941652D01*
X18771429Y-13951176D01*
X18752381Y-13951176D01*
X18733333Y-13941652D01*
X18723810Y-13932128D01*
X18714286Y-13913081D01*
X18704762Y-13874986D01*
X18704762Y-13827367D01*
X18714286Y-13789271D01*
X18723810Y-13770224D01*
X18733333Y-13760700D01*
X18752381Y-13751176D01*
X18904762Y-13951176D02*
X18904762Y-13817843D01*
X18904762Y-13836890D02*
X18914286Y-13827367D01*
X18933333Y-13817843D01*
X18961905Y-13817843D01*
X18980952Y-13827367D01*
X18990476Y-13846414D01*
X18990476Y-13951176D01*
X18990476Y-13846414D02*
X19000000Y-13827367D01*
X19019048Y-13817843D01*
X19047619Y-13817843D01*
X19066667Y-13827367D01*
X19076190Y-13846414D01*
X19076190Y-13951176D01*
X19171429Y-13951176D02*
X19171429Y-13817843D01*
X19171429Y-13836890D02*
X19180952Y-13827367D01*
X19200000Y-13817843D01*
X19228571Y-13817843D01*
X19247619Y-13827367D01*
X19257143Y-13846414D01*
X19257143Y-13951176D01*
X19257143Y-13846414D02*
X19266667Y-13827367D01*
X19285714Y-13817843D01*
X19314286Y-13817843D01*
X19333333Y-13827367D01*
X19342857Y-13846414D01*
X19342857Y-13951176D01*
X19733333Y-13741652D02*
X19561905Y-13998795D01*
X19990476Y-13751176D02*
X20009524Y-13751176D01*
X20028571Y-13760700D01*
X20038095Y-13770224D01*
X20047619Y-13789271D01*
X20057143Y-13827367D01*
X20057143Y-13874986D01*
X20047619Y-13913081D01*
X20038095Y-13932128D01*
X20028571Y-13941652D01*
X20009524Y-13951176D01*
X19990476Y-13951176D01*
X19971429Y-13941652D01*
X19961905Y-13932128D01*
X19952381Y-13913081D01*
X19942857Y-13874986D01*
X19942857Y-13827367D01*
X19952381Y-13789271D01*
X19961905Y-13770224D01*
X19971429Y-13760700D01*
X19990476Y-13751176D01*
X20142857Y-13932128D02*
X20152381Y-13941652D01*
X20142857Y-13951176D01*
X20133333Y-13941652D01*
X20142857Y-13932128D01*
X20142857Y-13951176D01*
X20276190Y-13751176D02*
X20295238Y-13751176D01*
X20314286Y-13760700D01*
X20323810Y-13770224D01*
X20333333Y-13789271D01*
X20342857Y-13827367D01*
X20342857Y-13874986D01*
X20333333Y-13913081D01*
X20323810Y-13932128D01*
X20314286Y-13941652D01*
X20295238Y-13951176D01*
X20276190Y-13951176D01*
X20257143Y-13941652D01*
X20247619Y-13932128D01*
X20238095Y-13913081D01*
X20228571Y-13874986D01*
X20228571Y-13827367D01*
X20238095Y-13789271D01*
X20247619Y-13770224D01*
X20257143Y-13760700D01*
X20276190Y-13751176D01*
X20457143Y-13836890D02*
X20438095Y-13827367D01*
X20428571Y-13817843D01*
X20419048Y-13798795D01*
X20419048Y-13789271D01*
X20428571Y-13770224D01*
X20438095Y-13760700D01*
X20457143Y-13751176D01*
X20495238Y-13751176D01*
X20514286Y-13760700D01*
X20523810Y-13770224D01*
X20533333Y-13789271D01*
X20533333Y-13798795D01*
X20523810Y-13817843D01*
X20514286Y-13827367D01*
X20495238Y-13836890D01*
X20457143Y-13836890D01*
X20438095Y-13846414D01*
X20428571Y-13855938D01*
X20419048Y-13874986D01*
X20419048Y-13913081D01*
X20428571Y-13932128D01*
X20438095Y-13941652D01*
X20457143Y-13951176D01*
X20495238Y-13951176D01*
X20514286Y-13941652D01*
X20523810Y-13932128D01*
X20533333Y-13913081D01*
X20533333Y-13874986D01*
X20523810Y-13855938D01*
X20514286Y-13846414D01*
X20495238Y-13836890D01*
X20704762Y-13751176D02*
X20666667Y-13751176D01*
X20647619Y-13760700D01*
X20638095Y-13770224D01*
X20619048Y-13798795D01*
X20609524Y-13836890D01*
X20609524Y-13913081D01*
X20619048Y-13932128D01*
X20628571Y-13941652D01*
X20647619Y-13951176D01*
X20685714Y-13951176D01*
X20704762Y-13941652D01*
X20714286Y-13932128D01*
X20723810Y-13913081D01*
X20723810Y-13865462D01*
X20714286Y-13846414D01*
X20704762Y-13836890D01*
X20685714Y-13827367D01*
X20647619Y-13827367D01*
X20628571Y-13836890D01*
X20619048Y-13846414D01*
X20609524Y-13865462D01*
X20895238Y-13751176D02*
X20857143Y-13751176D01*
X20838095Y-13760700D01*
X20828571Y-13770224D01*
X20809524Y-13798795D01*
X20800000Y-13836890D01*
X20800000Y-13913081D01*
X20809524Y-13932128D01*
X20819048Y-13941652D01*
X20838095Y-13951176D01*
X20876190Y-13951176D01*
X20895238Y-13941652D01*
X20904762Y-13932128D01*
X20914286Y-13913081D01*
X20914286Y-13865462D01*
X20904762Y-13846414D01*
X20895238Y-13836890D01*
X20876190Y-13827367D01*
X20838095Y-13827367D01*
X20819048Y-13836890D01*
X20809524Y-13846414D01*
X20800000Y-13865462D01*
X20990476Y-13751176D02*
X20990476Y-13789271D01*
X21066667Y-13751176D02*
X21066667Y-13789271D01*
X21361905Y-14027367D02*
X21352381Y-14017843D01*
X21333333Y-13989271D01*
X21323810Y-13970224D01*
X21314286Y-13941652D01*
X21304762Y-13894033D01*
X21304762Y-13855938D01*
X21314286Y-13808319D01*
X21323810Y-13779748D01*
X21333333Y-13760700D01*
X21352381Y-13732128D01*
X21361905Y-13722605D01*
X21542857Y-13951176D02*
X21428571Y-13951176D01*
X21485714Y-13951176D02*
X21485714Y-13751176D01*
X21466667Y-13779748D01*
X21447619Y-13798795D01*
X21428571Y-13808319D01*
X21619048Y-13770224D02*
X21628571Y-13760700D01*
X21647619Y-13751176D01*
X21695238Y-13751176D01*
X21714286Y-13760700D01*
X21723810Y-13770224D01*
X21733333Y-13789271D01*
X21733333Y-13808319D01*
X21723810Y-13836890D01*
X21609524Y-13951176D01*
X21733333Y-13951176D01*
X21971429Y-13951176D02*
X21971429Y-13751176D01*
X22057143Y-13951176D02*
X22057143Y-13846414D01*
X22047619Y-13827367D01*
X22028571Y-13817843D01*
X22000000Y-13817843D01*
X21980952Y-13827367D01*
X21971429Y-13836890D01*
X22180952Y-13951176D02*
X22161905Y-13941652D01*
X22152381Y-13932128D01*
X22142857Y-13913081D01*
X22142857Y-13855938D01*
X22152381Y-13836890D01*
X22161905Y-13827367D01*
X22180952Y-13817843D01*
X22209524Y-13817843D01*
X22228571Y-13827367D01*
X22238095Y-13836890D01*
X22247619Y-13855938D01*
X22247619Y-13913081D01*
X22238095Y-13932128D01*
X22228571Y-13941652D01*
X22209524Y-13951176D01*
X22180952Y-13951176D01*
X22361905Y-13951176D02*
X22342857Y-13941652D01*
X22333333Y-13922605D01*
X22333333Y-13751176D01*
X22514286Y-13941652D02*
X22495238Y-13951176D01*
X22457143Y-13951176D01*
X22438095Y-13941652D01*
X22428571Y-13922605D01*
X22428571Y-13846414D01*
X22438095Y-13827367D01*
X22457143Y-13817843D01*
X22495238Y-13817843D01*
X22514286Y-13827367D01*
X22523809Y-13846414D01*
X22523809Y-13865462D01*
X22428571Y-13884509D01*
X22600000Y-13941652D02*
X22619048Y-13951176D01*
X22657143Y-13951176D01*
X22676190Y-13941652D01*
X22685714Y-13922605D01*
X22685714Y-13913081D01*
X22676190Y-13894033D01*
X22657143Y-13884509D01*
X22628571Y-13884509D01*
X22609524Y-13874986D01*
X22600000Y-13855938D01*
X22600000Y-13846414D01*
X22609524Y-13827367D01*
X22628571Y-13817843D01*
X22657143Y-13817843D01*
X22676190Y-13827367D01*
X22752381Y-14027367D02*
X22761905Y-14017843D01*
X22780952Y-13989271D01*
X22790476Y-13970224D01*
X22800000Y-13941652D01*
X22809524Y-13894033D01*
X22809524Y-13855938D01*
X22800000Y-13808319D01*
X22790476Y-13779748D01*
X22780952Y-13760700D01*
X22761905Y-13732128D01*
X22752381Y-13722605D01*
X23114286Y-14027367D02*
X23104762Y-14017843D01*
X23085714Y-13989271D01*
X23076190Y-13970224D01*
X23066667Y-13941652D01*
X23057143Y-13894033D01*
X23057143Y-13855938D01*
X23066667Y-13808319D01*
X23076190Y-13779748D01*
X23085714Y-13760700D01*
X23104762Y-13732128D01*
X23114286Y-13722605D01*
X23190476Y-13817843D02*
X23190476Y-13951176D01*
X23190476Y-13836890D02*
X23200000Y-13827367D01*
X23219048Y-13817843D01*
X23247619Y-13817843D01*
X23266667Y-13827367D01*
X23276190Y-13846414D01*
X23276190Y-13951176D01*
X23400000Y-13951176D02*
X23380952Y-13941652D01*
X23371428Y-13932128D01*
X23361905Y-13913081D01*
X23361905Y-13855938D01*
X23371428Y-13836890D01*
X23380952Y-13827367D01*
X23400000Y-13817843D01*
X23428571Y-13817843D01*
X23447619Y-13827367D01*
X23457143Y-13836890D01*
X23466667Y-13855938D01*
X23466667Y-13913081D01*
X23457143Y-13932128D01*
X23447619Y-13941652D01*
X23428571Y-13951176D01*
X23400000Y-13951176D01*
X23523809Y-13817843D02*
X23600000Y-13817843D01*
X23552381Y-13751176D02*
X23552381Y-13922605D01*
X23561905Y-13941652D01*
X23580952Y-13951176D01*
X23600000Y-13951176D01*
X23819048Y-13817843D02*
X23819048Y-14017843D01*
X23819048Y-13827367D02*
X23838095Y-13817843D01*
X23876190Y-13817843D01*
X23895238Y-13827367D01*
X23904762Y-13836890D01*
X23914286Y-13855938D01*
X23914286Y-13913081D01*
X23904762Y-13932128D01*
X23895238Y-13941652D01*
X23876190Y-13951176D01*
X23838095Y-13951176D01*
X23819048Y-13941652D01*
X24028571Y-13951176D02*
X24009524Y-13941652D01*
X24000000Y-13922605D01*
X24000000Y-13751176D01*
X24190476Y-13951176D02*
X24190476Y-13846414D01*
X24180952Y-13827367D01*
X24161905Y-13817843D01*
X24123809Y-13817843D01*
X24104762Y-13827367D01*
X24190476Y-13941652D02*
X24171428Y-13951176D01*
X24123809Y-13951176D01*
X24104762Y-13941652D01*
X24095238Y-13922605D01*
X24095238Y-13903557D01*
X24104762Y-13884509D01*
X24123809Y-13874986D01*
X24171428Y-13874986D01*
X24190476Y-13865462D01*
X24257143Y-13817843D02*
X24333333Y-13817843D01*
X24285714Y-13751176D02*
X24285714Y-13922605D01*
X24295238Y-13941652D01*
X24314286Y-13951176D01*
X24333333Y-13951176D01*
X24476190Y-13941652D02*
X24457143Y-13951176D01*
X24419048Y-13951176D01*
X24400000Y-13941652D01*
X24390476Y-13922605D01*
X24390476Y-13846414D01*
X24400000Y-13827367D01*
X24419048Y-13817843D01*
X24457143Y-13817843D01*
X24476190Y-13827367D01*
X24485714Y-13846414D01*
X24485714Y-13865462D01*
X24390476Y-13884509D01*
X24657143Y-13951176D02*
X24657143Y-13751176D01*
X24657143Y-13941652D02*
X24638095Y-13951176D01*
X24600000Y-13951176D01*
X24580952Y-13941652D01*
X24571428Y-13932128D01*
X24561905Y-13913081D01*
X24561905Y-13855938D01*
X24571428Y-13836890D01*
X24580952Y-13827367D01*
X24600000Y-13817843D01*
X24638095Y-13817843D01*
X24657143Y-13827367D01*
X24733333Y-14027367D02*
X24742857Y-14017843D01*
X24761905Y-13989271D01*
X24771428Y-13970224D01*
X24780952Y-13941652D01*
X24790476Y-13894033D01*
X24790476Y-13855938D01*
X24780952Y-13808319D01*
X24771428Y-13779748D01*
X24761905Y-13760700D01*
X24742857Y-13732128D01*
X24733333Y-13722605D01*
M02*
