M48
; DRILL file {KiCad (6.0.7-1)-1} date 2022 October 07, Friday 09:47:21
; FORMAT={-:-/ absolute / inch / decimal}
; #@! TF.CreationDate,2022-10-07T09:47:21+07:00
; #@! TF.GenerationSoftware,Kicad,Pcbnew,(6.0.7-1)-1
; #@! TF.FileFunction,Plated,1,2,PTH
FMAT,2
INCH
; #@! TA.AperFunction,Plated,PTH,ViaDrill
T1C0.0157
; #@! TA.AperFunction,Plated,PTH,ComponentDrill
T2C0.0315
; #@! TA.AperFunction,Plated,PTH,ComponentDrill
T3C0.0350
; #@! TA.AperFunction,Plated,PTH,ComponentDrill
T4C0.0394
; #@! TA.AperFunction,Plated,PTH,ComponentDrill
T5C0.0400
%
G90
G05
T1
X7.3492Y-1.9021
X7.493Y-2.7994
X7.6094Y-4.5907
X7.6474Y-2.6581
X7.7447Y-2.5072
X7.7548Y-2.6451
X7.8469Y-3.8635
X7.8681Y-4.4215
X7.8768Y-3.1455
X7.9035Y-2.1893
X7.9075Y-2.516
X7.9549Y-4.6478
X7.9845Y-3.0613
X8.0728Y-3.0357
X8.1673Y-3.7306
X8.2284Y-1.8803
X8.2349Y-2.8401
X8.2358Y-2.7994
X8.2836Y-4.5949
X8.3169Y-2.7522
X8.3208Y-2.7994
X8.3434Y-3.43
X8.3456Y-1.8851
X8.3624Y-1.6524
X8.363Y-1.5892
X8.3917Y-3.8192
X8.4207Y-2.7188
X8.4271Y-2.5863
X8.4394Y-4.7607
X8.4724Y-2.2052
X8.4762Y-2.9696
X8.4773Y-3.1668
X8.5606Y-2.0885
X8.596Y-2.7781
X8.6035Y-2.8338
X8.6043Y-3.9137
X8.6325Y-3.4235
X8.7068Y-3.6685
X8.7185Y-2.4137
X8.8224Y-2.086
X8.8439Y-1.9312
X8.8999Y-3.1065
X9.0104Y-3.0923
X9.0247Y-3.0203
X9.0267Y-2.9749
X9.0589Y-1.8944
X9.0754Y-3.4341
X9.2445Y-3.3728
X9.2539Y-2.394
X9.266Y-2.9985
X9.2697Y-3.9255
X9.3846Y-2.8364
X9.4359Y-2.9013
X9.4568Y-2.6638
X9.4744Y-3.0757
X9.491Y-2.3632
X9.5077Y-2.7231
X9.5237Y-3.1754
X9.5531Y-3.5003
X9.6358Y-2.3822
X9.8344Y-3.0107
T2
X8.4794Y-4.223
X8.5794Y-4.223
X8.6794Y-4.223
X9.5598Y-3.853
X9.6598Y-3.853
X9.7598Y-3.853
T3
X8.9646Y-4.1177
X8.9646Y-4.3177
T4
X7.1363Y-3.5887
X7.1363Y-1.7781
X7.1363Y-2.6834
X7.1363Y-4.494
X7.2347Y-3.5887
X7.2348Y-1.7781
X7.2348Y-2.6834
X7.2348Y-4.494
X7.3331Y-3.5887
X7.3332Y-1.7781
X7.3332Y-2.6834
X7.3332Y-4.494
X8.002Y-3.5887
X8.002Y-4.494
X8.0021Y-1.7781
X8.0021Y-2.6834
X8.1004Y-3.5887
X8.1004Y-4.494
X8.1005Y-1.7781
X8.1005Y-2.6834
X8.1988Y-3.5887
X8.1988Y-4.494
X8.1989Y-1.7781
X8.1989Y-2.6834
X8.7724Y-3.766
X8.7724Y-3.866
X8.8677Y-3.5887
X8.8678Y-1.7781
X8.8678Y-2.6834
X8.8724Y-3.766
X8.8724Y-3.866
X8.9661Y-3.5887
X8.9662Y-1.7781
X8.9662Y-2.6834
X8.9724Y-3.766
X8.9724Y-3.866
X9.0646Y-3.5887
X9.0646Y-1.7781
X9.0646Y-2.6834
X9.0724Y-3.766
X9.0724Y-3.866
X9.1724Y-3.766
X9.1724Y-3.866
X9.2794Y-1.5315
X9.2794Y-1.6315
X9.2794Y-1.7315
X9.2794Y-1.8315
X9.2794Y-1.9315
X9.2794Y-2.0315
X9.2794Y-2.1315
X9.2794Y-2.2315
X9.5794Y-1.5315
X9.5794Y-1.6315
X9.5794Y-1.7315
X9.5794Y-1.8315
X9.5794Y-1.9315
X9.5794Y-2.0315
X9.5794Y-2.1315
X9.5794Y-2.2315
T5
X7.2348Y-4.7002
X7.2348Y-4.8352
X7.2348Y-5.1352
X7.6714Y-4.7007
X7.6714Y-4.8357
X7.6714Y-5.1357
X8.1081Y-4.7007
X8.1081Y-4.8357
X8.1081Y-5.1357
X8.5448Y-4.7007
X8.5448Y-4.8357
X8.5448Y-5.1357
X8.9814Y-4.7007
X8.9814Y-4.8357
X8.9814Y-5.1357
X9.4181Y-4.0444
X9.4181Y-4.3444
X9.4181Y-4.4794
X9.4181Y-4.7007
X9.4181Y-4.8357
X9.4181Y-5.1357
X9.8548Y-1.3275
X9.8548Y-1.6275
X9.8548Y-1.7625
X9.8548Y-2.2327
X9.8548Y-2.5327
X9.8548Y-2.6677
X9.8548Y-3.1387
X9.8548Y-3.4387
X9.8548Y-3.5737
X9.8548Y-4.0444
X9.8548Y-4.3444
X9.8548Y-4.4794
X9.8548Y-4.7007
X9.8548Y-4.8357
X9.8548Y-5.1357
T2
G00X7.0496Y-3.3069
M15
G01X7.0496Y-3.2794
M16
G05
G00X7.0497Y-1.4963
M15
G01X7.0497Y-1.4687
M16
G05
G00X7.0497Y-2.4016
M15
G01X7.0497Y-2.3741
M16
G05
G00X7.0497Y-4.2122
M15
G01X7.0497Y-4.1847
M16
G05
G00X7.4197Y-3.3069
M15
G01X7.4197Y-3.2794
M16
G05
G00X7.4198Y-1.4963
M15
G01X7.4198Y-1.4687
M16
G05
G00X7.4198Y-2.4016
M15
G01X7.4198Y-2.3741
M16
G05
G00X7.4198Y-4.2122
M15
G01X7.4198Y-4.1847
M16
G05
G00X7.9154Y-3.3069
M15
G01X7.9154Y-3.2794
M16
G05
G00X7.9154Y-4.2122
M15
G01X7.9154Y-4.1847
M16
G05
G00X7.9155Y-1.4963
M15
G01X7.9155Y-1.4687
M16
G05
G00X7.9155Y-2.4016
M15
G01X7.9155Y-2.3741
M16
G05
G00X8.2854Y-3.3069
M15
G01X8.2854Y-3.2794
M16
G05
G00X8.2854Y-4.2122
M15
G01X8.2854Y-4.1847
M16
G05
G00X8.2855Y-1.4963
M15
G01X8.2855Y-1.4687
M16
G05
G00X8.2855Y-2.4016
M15
G01X8.2855Y-2.3741
M16
G05
G00X8.7811Y-3.3069
M15
G01X8.7811Y-3.2794
M16
G05
G00X8.7812Y-1.4963
M15
G01X8.7812Y-1.4687
M16
G05
G00X8.7812Y-2.4016
M15
G01X8.7812Y-2.3741
M16
G05
G00X9.1512Y-3.3069
M15
G01X9.1512Y-3.2794
M16
G05
G00X9.1513Y-1.4963
M15
G01X9.1513Y-1.4687
M16
G05
G00X9.1513Y-2.4016
M15
G01X9.1513Y-2.3741
M16
G05
T3
G00X8.9329Y-4.0377
M15
G01X8.9963Y-4.0377
M16
G05
G00X8.9329Y-4.2177
M15
G01X8.9963Y-4.2177
M16
G05
G00X8.9329Y-4.3977
M15
G01X8.9963Y-4.3977
M16
G05
T0
M30
