%TF.GenerationSoftware,KiCad,Pcbnew,(6.0.7-1)-1*%
%TF.CreationDate,2022-10-07T09:47:06+07:00*%
%TF.ProjectId,benjolin_1.6,62656e6a-6f6c-4696-9e5f-312e362e6b69,rev?*%
%TF.SameCoordinates,Original*%
%TF.FileFunction,AssemblyDrawing,Bot*%
%FSLAX46Y46*%
G04 Gerber Fmt 4.6, Leading zero omitted, Abs format (unit mm)*
G04 Created by KiCad (PCBNEW (6.0.7-1)-1) date 2022-10-07 09:47:06*
%MOMM*%
%LPD*%
G01*
G04 APERTURE LIST*
%ADD10C,0.100000*%
%ADD11C,0.150000*%
%ADD12C,0.300000*%
%ADD13C,0.400000*%
%TA.AperFunction,Profile*%
%ADD14C,0.100000*%
%TD*%
%ADD15C,0.152400*%
%ADD16C,0.101600*%
%ADD17C,0.120000*%
G04 APERTURE END LIST*
D10*
D11*
X177002200Y-166007200D02*
X177002200Y-198007200D01*
X285002200Y-198007200D01*
X285002200Y-166007200D01*
X177002200Y-166007200D01*
D10*
D11*
X10000000Y-10000000D02*
X10000000Y-200007200D01*
X287002200Y-200007200D01*
X287002200Y-10000000D01*
X10000000Y-10000000D01*
D10*
D11*
X12000000Y-12000000D02*
X12000000Y-198007200D01*
X285002200Y-198007200D01*
X285002200Y-12000000D01*
X12000000Y-12000000D01*
D10*
D11*
X60000000Y-12000000D02*
X60000000Y-10000000D01*
D10*
D11*
X110000000Y-12000000D02*
X110000000Y-10000000D01*
D10*
D11*
X160000000Y-12000000D02*
X160000000Y-10000000D01*
D10*
D11*
X210000000Y-12000000D02*
X210000000Y-10000000D01*
D10*
D11*
X260000000Y-12000000D02*
X260000000Y-10000000D01*
D10*
D11*
X36065476Y-11588095D02*
X35322619Y-11588095D01*
X35694047Y-11588095D02*
X35694047Y-10288095D01*
X35570238Y-10473809D01*
X35446428Y-10597619D01*
X35322619Y-10659523D01*
D10*
D11*
X85322619Y-10411904D02*
X85384523Y-10350000D01*
X85508333Y-10288095D01*
X85817857Y-10288095D01*
X85941666Y-10350000D01*
X86003571Y-10411904D01*
X86065476Y-10535714D01*
X86065476Y-10659523D01*
X86003571Y-10845238D01*
X85260714Y-11588095D01*
X86065476Y-11588095D01*
D10*
D11*
X135260714Y-10288095D02*
X136065476Y-10288095D01*
X135632142Y-10783333D01*
X135817857Y-10783333D01*
X135941666Y-10845238D01*
X136003571Y-10907142D01*
X136065476Y-11030952D01*
X136065476Y-11340476D01*
X136003571Y-11464285D01*
X135941666Y-11526190D01*
X135817857Y-11588095D01*
X135446428Y-11588095D01*
X135322619Y-11526190D01*
X135260714Y-11464285D01*
D10*
D11*
X185941666Y-10721428D02*
X185941666Y-11588095D01*
X185632142Y-10226190D02*
X185322619Y-11154761D01*
X186127380Y-11154761D01*
D10*
D11*
X236003571Y-10288095D02*
X235384523Y-10288095D01*
X235322619Y-10907142D01*
X235384523Y-10845238D01*
X235508333Y-10783333D01*
X235817857Y-10783333D01*
X235941666Y-10845238D01*
X236003571Y-10907142D01*
X236065476Y-11030952D01*
X236065476Y-11340476D01*
X236003571Y-11464285D01*
X235941666Y-11526190D01*
X235817857Y-11588095D01*
X235508333Y-11588095D01*
X235384523Y-11526190D01*
X235322619Y-11464285D01*
D10*
D11*
X285941666Y-10288095D02*
X285694047Y-10288095D01*
X285570238Y-10350000D01*
X285508333Y-10411904D01*
X285384523Y-10597619D01*
X285322619Y-10845238D01*
X285322619Y-11340476D01*
X285384523Y-11464285D01*
X285446428Y-11526190D01*
X285570238Y-11588095D01*
X285817857Y-11588095D01*
X285941666Y-11526190D01*
X286003571Y-11464285D01*
X286065476Y-11340476D01*
X286065476Y-11030952D01*
X286003571Y-10907142D01*
X285941666Y-10845238D01*
X285817857Y-10783333D01*
X285570238Y-10783333D01*
X285446428Y-10845238D01*
X285384523Y-10907142D01*
X285322619Y-11030952D01*
D10*
D11*
X60000000Y-198007200D02*
X60000000Y-200007200D01*
D10*
D11*
X110000000Y-198007200D02*
X110000000Y-200007200D01*
D10*
D11*
X160000000Y-198007200D02*
X160000000Y-200007200D01*
D10*
D11*
X210000000Y-198007200D02*
X210000000Y-200007200D01*
D10*
D11*
X260000000Y-198007200D02*
X260000000Y-200007200D01*
D10*
D11*
X36065476Y-199595295D02*
X35322619Y-199595295D01*
X35694047Y-199595295D02*
X35694047Y-198295295D01*
X35570238Y-198481009D01*
X35446428Y-198604819D01*
X35322619Y-198666723D01*
D10*
D11*
X85322619Y-198419104D02*
X85384523Y-198357200D01*
X85508333Y-198295295D01*
X85817857Y-198295295D01*
X85941666Y-198357200D01*
X86003571Y-198419104D01*
X86065476Y-198542914D01*
X86065476Y-198666723D01*
X86003571Y-198852438D01*
X85260714Y-199595295D01*
X86065476Y-199595295D01*
D10*
D11*
X135260714Y-198295295D02*
X136065476Y-198295295D01*
X135632142Y-198790533D01*
X135817857Y-198790533D01*
X135941666Y-198852438D01*
X136003571Y-198914342D01*
X136065476Y-199038152D01*
X136065476Y-199347676D01*
X136003571Y-199471485D01*
X135941666Y-199533390D01*
X135817857Y-199595295D01*
X135446428Y-199595295D01*
X135322619Y-199533390D01*
X135260714Y-199471485D01*
D10*
D11*
X185941666Y-198728628D02*
X185941666Y-199595295D01*
X185632142Y-198233390D02*
X185322619Y-199161961D01*
X186127380Y-199161961D01*
D10*
D11*
X236003571Y-198295295D02*
X235384523Y-198295295D01*
X235322619Y-198914342D01*
X235384523Y-198852438D01*
X235508333Y-198790533D01*
X235817857Y-198790533D01*
X235941666Y-198852438D01*
X236003571Y-198914342D01*
X236065476Y-199038152D01*
X236065476Y-199347676D01*
X236003571Y-199471485D01*
X235941666Y-199533390D01*
X235817857Y-199595295D01*
X235508333Y-199595295D01*
X235384523Y-199533390D01*
X235322619Y-199471485D01*
D10*
D11*
X285941666Y-198295295D02*
X285694047Y-198295295D01*
X285570238Y-198357200D01*
X285508333Y-198419104D01*
X285384523Y-198604819D01*
X285322619Y-198852438D01*
X285322619Y-199347676D01*
X285384523Y-199471485D01*
X285446428Y-199533390D01*
X285570238Y-199595295D01*
X285817857Y-199595295D01*
X285941666Y-199533390D01*
X286003571Y-199471485D01*
X286065476Y-199347676D01*
X286065476Y-199038152D01*
X286003571Y-198914342D01*
X285941666Y-198852438D01*
X285817857Y-198790533D01*
X285570238Y-198790533D01*
X285446428Y-198852438D01*
X285384523Y-198914342D01*
X285322619Y-199038152D01*
D10*
D11*
X10000000Y-60000000D02*
X12000000Y-60000000D01*
D10*
D11*
X10000000Y-110000000D02*
X12000000Y-110000000D01*
D10*
D11*
X10000000Y-160000000D02*
X12000000Y-160000000D01*
D10*
D11*
X10690476Y-35216666D02*
X11309523Y-35216666D01*
X10566666Y-35588095D02*
X11000000Y-34288095D01*
X11433333Y-35588095D01*
D10*
D11*
X11092857Y-84907142D02*
X11278571Y-84969047D01*
X11340476Y-85030952D01*
X11402380Y-85154761D01*
X11402380Y-85340476D01*
X11340476Y-85464285D01*
X11278571Y-85526190D01*
X11154761Y-85588095D01*
X10659523Y-85588095D01*
X10659523Y-84288095D01*
X11092857Y-84288095D01*
X11216666Y-84350000D01*
X11278571Y-84411904D01*
X11340476Y-84535714D01*
X11340476Y-84659523D01*
X11278571Y-84783333D01*
X11216666Y-84845238D01*
X11092857Y-84907142D01*
X10659523Y-84907142D01*
D10*
D11*
X11402380Y-135464285D02*
X11340476Y-135526190D01*
X11154761Y-135588095D01*
X11030952Y-135588095D01*
X10845238Y-135526190D01*
X10721428Y-135402380D01*
X10659523Y-135278571D01*
X10597619Y-135030952D01*
X10597619Y-134845238D01*
X10659523Y-134597619D01*
X10721428Y-134473809D01*
X10845238Y-134350000D01*
X11030952Y-134288095D01*
X11154761Y-134288095D01*
X11340476Y-134350000D01*
X11402380Y-134411904D01*
D10*
D11*
X10659523Y-185588095D02*
X10659523Y-184288095D01*
X10969047Y-184288095D01*
X11154761Y-184350000D01*
X11278571Y-184473809D01*
X11340476Y-184597619D01*
X11402380Y-184845238D01*
X11402380Y-185030952D01*
X11340476Y-185278571D01*
X11278571Y-185402380D01*
X11154761Y-185526190D01*
X10969047Y-185588095D01*
X10659523Y-185588095D01*
D10*
D11*
X287002200Y-60000000D02*
X285002200Y-60000000D01*
D10*
D11*
X287002200Y-110000000D02*
X285002200Y-110000000D01*
D10*
D11*
X287002200Y-160000000D02*
X285002200Y-160000000D01*
D10*
D11*
X285692676Y-35216666D02*
X286311723Y-35216666D01*
X285568866Y-35588095D02*
X286002200Y-34288095D01*
X286435533Y-35588095D01*
D10*
D11*
X286095057Y-84907142D02*
X286280771Y-84969047D01*
X286342676Y-85030952D01*
X286404580Y-85154761D01*
X286404580Y-85340476D01*
X286342676Y-85464285D01*
X286280771Y-85526190D01*
X286156961Y-85588095D01*
X285661723Y-85588095D01*
X285661723Y-84288095D01*
X286095057Y-84288095D01*
X286218866Y-84350000D01*
X286280771Y-84411904D01*
X286342676Y-84535714D01*
X286342676Y-84659523D01*
X286280771Y-84783333D01*
X286218866Y-84845238D01*
X286095057Y-84907142D01*
X285661723Y-84907142D01*
D10*
D11*
X286404580Y-135464285D02*
X286342676Y-135526190D01*
X286156961Y-135588095D01*
X286033152Y-135588095D01*
X285847438Y-135526190D01*
X285723628Y-135402380D01*
X285661723Y-135278571D01*
X285599819Y-135030952D01*
X285599819Y-134845238D01*
X285661723Y-134597619D01*
X285723628Y-134473809D01*
X285847438Y-134350000D01*
X286033152Y-134288095D01*
X286156961Y-134288095D01*
X286342676Y-134350000D01*
X286404580Y-134411904D01*
D10*
D11*
X285661723Y-185588095D02*
X285661723Y-184288095D01*
X285971247Y-184288095D01*
X286156961Y-184350000D01*
X286280771Y-184473809D01*
X286342676Y-184597619D01*
X286404580Y-184845238D01*
X286404580Y-185030952D01*
X286342676Y-185278571D01*
X286280771Y-185402380D01*
X286156961Y-185526190D01*
X285971247Y-185588095D01*
X285661723Y-185588095D01*
D10*
D11*
X200434342Y-193785771D02*
X200434342Y-192285771D01*
X200791485Y-192285771D01*
X201005771Y-192357200D01*
X201148628Y-192500057D01*
X201220057Y-192642914D01*
X201291485Y-192928628D01*
X201291485Y-193142914D01*
X201220057Y-193428628D01*
X201148628Y-193571485D01*
X201005771Y-193714342D01*
X200791485Y-193785771D01*
X200434342Y-193785771D01*
X202577200Y-193785771D02*
X202577200Y-193000057D01*
X202505771Y-192857200D01*
X202362914Y-192785771D01*
X202077200Y-192785771D01*
X201934342Y-192857200D01*
X202577200Y-193714342D02*
X202434342Y-193785771D01*
X202077200Y-193785771D01*
X201934342Y-193714342D01*
X201862914Y-193571485D01*
X201862914Y-193428628D01*
X201934342Y-193285771D01*
X202077200Y-193214342D01*
X202434342Y-193214342D01*
X202577200Y-193142914D01*
X203077200Y-192785771D02*
X203648628Y-192785771D01*
X203291485Y-192285771D02*
X203291485Y-193571485D01*
X203362914Y-193714342D01*
X203505771Y-193785771D01*
X203648628Y-193785771D01*
X204720057Y-193714342D02*
X204577200Y-193785771D01*
X204291485Y-193785771D01*
X204148628Y-193714342D01*
X204077200Y-193571485D01*
X204077200Y-193000057D01*
X204148628Y-192857200D01*
X204291485Y-192785771D01*
X204577200Y-192785771D01*
X204720057Y-192857200D01*
X204791485Y-193000057D01*
X204791485Y-193142914D01*
X204077200Y-193285771D01*
X205434342Y-193642914D02*
X205505771Y-193714342D01*
X205434342Y-193785771D01*
X205362914Y-193714342D01*
X205434342Y-193642914D01*
X205434342Y-193785771D01*
X205434342Y-192857200D02*
X205505771Y-192928628D01*
X205434342Y-193000057D01*
X205362914Y-192928628D01*
X205434342Y-192857200D01*
X205434342Y-193000057D01*
D10*
D11*
X177002200Y-194507200D02*
X285002200Y-194507200D01*
D10*
D11*
X178434342Y-196585771D02*
X178434342Y-195085771D01*
X179291485Y-196585771D02*
X178648628Y-195728628D01*
X179291485Y-195085771D02*
X178434342Y-195942914D01*
X179934342Y-196585771D02*
X179934342Y-195585771D01*
X179934342Y-195085771D02*
X179862914Y-195157200D01*
X179934342Y-195228628D01*
X180005771Y-195157200D01*
X179934342Y-195085771D01*
X179934342Y-195228628D01*
X181505771Y-196442914D02*
X181434342Y-196514342D01*
X181220057Y-196585771D01*
X181077200Y-196585771D01*
X180862914Y-196514342D01*
X180720057Y-196371485D01*
X180648628Y-196228628D01*
X180577200Y-195942914D01*
X180577200Y-195728628D01*
X180648628Y-195442914D01*
X180720057Y-195300057D01*
X180862914Y-195157200D01*
X181077200Y-195085771D01*
X181220057Y-195085771D01*
X181434342Y-195157200D01*
X181505771Y-195228628D01*
X182791485Y-196585771D02*
X182791485Y-195800057D01*
X182720057Y-195657200D01*
X182577200Y-195585771D01*
X182291485Y-195585771D01*
X182148628Y-195657200D01*
X182791485Y-196514342D02*
X182648628Y-196585771D01*
X182291485Y-196585771D01*
X182148628Y-196514342D01*
X182077200Y-196371485D01*
X182077200Y-196228628D01*
X182148628Y-196085771D01*
X182291485Y-196014342D01*
X182648628Y-196014342D01*
X182791485Y-195942914D01*
X184148628Y-196585771D02*
X184148628Y-195085771D01*
X184148628Y-196514342D02*
X184005771Y-196585771D01*
X183720057Y-196585771D01*
X183577200Y-196514342D01*
X183505771Y-196442914D01*
X183434342Y-196300057D01*
X183434342Y-195871485D01*
X183505771Y-195728628D01*
X183577200Y-195657200D01*
X183720057Y-195585771D01*
X184005771Y-195585771D01*
X184148628Y-195657200D01*
X186005771Y-195800057D02*
X186505771Y-195800057D01*
X186720057Y-196585771D02*
X186005771Y-196585771D01*
X186005771Y-195085771D01*
X186720057Y-195085771D01*
X187362914Y-196442914D02*
X187434342Y-196514342D01*
X187362914Y-196585771D01*
X187291485Y-196514342D01*
X187362914Y-196442914D01*
X187362914Y-196585771D01*
X188077200Y-196585771D02*
X188077200Y-195085771D01*
X188434342Y-195085771D01*
X188648628Y-195157200D01*
X188791485Y-195300057D01*
X188862914Y-195442914D01*
X188934342Y-195728628D01*
X188934342Y-195942914D01*
X188862914Y-196228628D01*
X188791485Y-196371485D01*
X188648628Y-196514342D01*
X188434342Y-196585771D01*
X188077200Y-196585771D01*
X189577200Y-196442914D02*
X189648628Y-196514342D01*
X189577200Y-196585771D01*
X189505771Y-196514342D01*
X189577200Y-196442914D01*
X189577200Y-196585771D01*
X190220057Y-196157200D02*
X190934342Y-196157200D01*
X190077200Y-196585771D02*
X190577200Y-195085771D01*
X191077200Y-196585771D01*
X191577200Y-196442914D02*
X191648628Y-196514342D01*
X191577200Y-196585771D01*
X191505771Y-196514342D01*
X191577200Y-196442914D01*
X191577200Y-196585771D01*
X194577200Y-196585771D02*
X194577200Y-195085771D01*
X194720057Y-196014342D02*
X195148628Y-196585771D01*
X195148628Y-195585771D02*
X194577200Y-196157200D01*
X195791485Y-196585771D02*
X195791485Y-195585771D01*
X195791485Y-195085771D02*
X195720057Y-195157200D01*
X195791485Y-195228628D01*
X195862914Y-195157200D01*
X195791485Y-195085771D01*
X195791485Y-195228628D01*
X197148628Y-196514342D02*
X197005771Y-196585771D01*
X196720057Y-196585771D01*
X196577200Y-196514342D01*
X196505771Y-196442914D01*
X196434342Y-196300057D01*
X196434342Y-195871485D01*
X196505771Y-195728628D01*
X196577200Y-195657200D01*
X196720057Y-195585771D01*
X197005771Y-195585771D01*
X197148628Y-195657200D01*
X198434342Y-196585771D02*
X198434342Y-195800057D01*
X198362914Y-195657200D01*
X198220057Y-195585771D01*
X197934342Y-195585771D01*
X197791485Y-195657200D01*
X198434342Y-196514342D02*
X198291485Y-196585771D01*
X197934342Y-196585771D01*
X197791485Y-196514342D01*
X197720057Y-196371485D01*
X197720057Y-196228628D01*
X197791485Y-196085771D01*
X197934342Y-196014342D01*
X198291485Y-196014342D01*
X198434342Y-195942914D01*
X199791485Y-196585771D02*
X199791485Y-195085771D01*
X199791485Y-196514342D02*
X199648628Y-196585771D01*
X199362914Y-196585771D01*
X199220057Y-196514342D01*
X199148628Y-196442914D01*
X199077200Y-196300057D01*
X199077200Y-195871485D01*
X199148628Y-195728628D01*
X199220057Y-195657200D01*
X199362914Y-195585771D01*
X199648628Y-195585771D01*
X199791485Y-195657200D01*
X202077200Y-197157200D02*
X202005771Y-197085771D01*
X201862914Y-196871485D01*
X201791485Y-196728628D01*
X201720057Y-196514342D01*
X201648628Y-196157200D01*
X201648628Y-195871485D01*
X201720057Y-195514342D01*
X201791485Y-195300057D01*
X201862914Y-195157200D01*
X202005771Y-194942914D01*
X202077200Y-194871485D01*
X203291485Y-195085771D02*
X203005771Y-195085771D01*
X202862914Y-195157200D01*
X202791485Y-195228628D01*
X202648628Y-195442914D01*
X202577200Y-195728628D01*
X202577200Y-196300057D01*
X202648628Y-196442914D01*
X202720057Y-196514342D01*
X202862914Y-196585771D01*
X203148628Y-196585771D01*
X203291485Y-196514342D01*
X203362914Y-196442914D01*
X203434342Y-196300057D01*
X203434342Y-195942914D01*
X203362914Y-195800057D01*
X203291485Y-195728628D01*
X203148628Y-195657200D01*
X202862914Y-195657200D01*
X202720057Y-195728628D01*
X202648628Y-195800057D01*
X202577200Y-195942914D01*
X204077200Y-196442914D02*
X204148628Y-196514342D01*
X204077200Y-196585771D01*
X204005771Y-196514342D01*
X204077200Y-196442914D01*
X204077200Y-196585771D01*
X205077200Y-195085771D02*
X205220057Y-195085771D01*
X205362914Y-195157200D01*
X205434342Y-195228628D01*
X205505771Y-195371485D01*
X205577200Y-195657200D01*
X205577200Y-196014342D01*
X205505771Y-196300057D01*
X205434342Y-196442914D01*
X205362914Y-196514342D01*
X205220057Y-196585771D01*
X205077200Y-196585771D01*
X204934342Y-196514342D01*
X204862914Y-196442914D01*
X204791485Y-196300057D01*
X204720057Y-196014342D01*
X204720057Y-195657200D01*
X204791485Y-195371485D01*
X204862914Y-195228628D01*
X204934342Y-195157200D01*
X205077200Y-195085771D01*
X206220057Y-196442914D02*
X206291485Y-196514342D01*
X206220057Y-196585771D01*
X206148628Y-196514342D01*
X206220057Y-196442914D01*
X206220057Y-196585771D01*
X206791485Y-195085771D02*
X207791485Y-195085771D01*
X207148628Y-196585771D01*
X208362914Y-196014342D02*
X209505771Y-196014342D01*
X211005771Y-196585771D02*
X210148628Y-196585771D01*
X210577200Y-196585771D02*
X210577200Y-195085771D01*
X210434342Y-195300057D01*
X210291485Y-195442914D01*
X210148628Y-195514342D01*
X211505771Y-197157200D02*
X211577200Y-197085771D01*
X211720057Y-196871485D01*
X211791485Y-196728628D01*
X211862914Y-196514342D01*
X211934342Y-196157200D01*
X211934342Y-195871485D01*
X211862914Y-195514342D01*
X211791485Y-195300057D01*
X211720057Y-195157200D01*
X211577200Y-194942914D01*
X211505771Y-194871485D01*
X212648628Y-196014342D02*
X213791485Y-196014342D01*
X215291485Y-196585771D02*
X214434342Y-196585771D01*
X214862914Y-196585771D02*
X214862914Y-195085771D01*
X214720057Y-195300057D01*
X214577200Y-195442914D01*
X214434342Y-195514342D01*
D10*
D11*
X177002200Y-191507200D02*
X285002200Y-191507200D01*
D10*
D12*
X264411485Y-193785771D02*
X263911485Y-193071485D01*
X263554342Y-193785771D02*
X263554342Y-192285771D01*
X264125771Y-192285771D01*
X264268628Y-192357200D01*
X264340057Y-192428628D01*
X264411485Y-192571485D01*
X264411485Y-192785771D01*
X264340057Y-192928628D01*
X264268628Y-193000057D01*
X264125771Y-193071485D01*
X263554342Y-193071485D01*
X265625771Y-193714342D02*
X265482914Y-193785771D01*
X265197200Y-193785771D01*
X265054342Y-193714342D01*
X264982914Y-193571485D01*
X264982914Y-193000057D01*
X265054342Y-192857200D01*
X265197200Y-192785771D01*
X265482914Y-192785771D01*
X265625771Y-192857200D01*
X265697200Y-193000057D01*
X265697200Y-193142914D01*
X264982914Y-193285771D01*
X266197200Y-192785771D02*
X266554342Y-193785771D01*
X266911485Y-192785771D01*
X267482914Y-193642914D02*
X267554342Y-193714342D01*
X267482914Y-193785771D01*
X267411485Y-193714342D01*
X267482914Y-193642914D01*
X267482914Y-193785771D01*
X267482914Y-192857200D02*
X267554342Y-192928628D01*
X267482914Y-193000057D01*
X267411485Y-192928628D01*
X267482914Y-192857200D01*
X267482914Y-193000057D01*
D10*
D11*
X178362914Y-193714342D02*
X178577200Y-193785771D01*
X178934342Y-193785771D01*
X179077200Y-193714342D01*
X179148628Y-193642914D01*
X179220057Y-193500057D01*
X179220057Y-193357200D01*
X179148628Y-193214342D01*
X179077200Y-193142914D01*
X178934342Y-193071485D01*
X178648628Y-193000057D01*
X178505771Y-192928628D01*
X178434342Y-192857200D01*
X178362914Y-192714342D01*
X178362914Y-192571485D01*
X178434342Y-192428628D01*
X178505771Y-192357200D01*
X178648628Y-192285771D01*
X179005771Y-192285771D01*
X179220057Y-192357200D01*
X179862914Y-193785771D02*
X179862914Y-192785771D01*
X179862914Y-192285771D02*
X179791485Y-192357200D01*
X179862914Y-192428628D01*
X179934342Y-192357200D01*
X179862914Y-192285771D01*
X179862914Y-192428628D01*
X180434342Y-192785771D02*
X181220057Y-192785771D01*
X180434342Y-193785771D01*
X181220057Y-193785771D01*
X182362914Y-193714342D02*
X182220057Y-193785771D01*
X181934342Y-193785771D01*
X181791485Y-193714342D01*
X181720057Y-193571485D01*
X181720057Y-193000057D01*
X181791485Y-192857200D01*
X181934342Y-192785771D01*
X182220057Y-192785771D01*
X182362914Y-192857200D01*
X182434342Y-193000057D01*
X182434342Y-193142914D01*
X181720057Y-193285771D01*
X183077200Y-193642914D02*
X183148628Y-193714342D01*
X183077200Y-193785771D01*
X183005771Y-193714342D01*
X183077200Y-193642914D01*
X183077200Y-193785771D01*
X183077200Y-192857200D02*
X183148628Y-192928628D01*
X183077200Y-193000057D01*
X183005771Y-192928628D01*
X183077200Y-192857200D01*
X183077200Y-193000057D01*
X184862914Y-193357200D02*
X185577200Y-193357200D01*
X184720057Y-193785771D02*
X185220057Y-192285771D01*
X185720057Y-193785771D01*
X186862914Y-192785771D02*
X186862914Y-193785771D01*
X186505771Y-192214342D02*
X186148628Y-193285771D01*
X187077200Y-193285771D01*
D10*
D11*
X263434342Y-196585771D02*
X263434342Y-195085771D01*
X264791485Y-196585771D02*
X264791485Y-195085771D01*
X264791485Y-196514342D02*
X264648628Y-196585771D01*
X264362914Y-196585771D01*
X264220057Y-196514342D01*
X264148628Y-196442914D01*
X264077200Y-196300057D01*
X264077200Y-195871485D01*
X264148628Y-195728628D01*
X264220057Y-195657200D01*
X264362914Y-195585771D01*
X264648628Y-195585771D01*
X264791485Y-195657200D01*
X265505771Y-196442914D02*
X265577200Y-196514342D01*
X265505771Y-196585771D01*
X265434342Y-196514342D01*
X265505771Y-196442914D01*
X265505771Y-196585771D01*
X265505771Y-195657200D02*
X265577200Y-195728628D01*
X265505771Y-195800057D01*
X265434342Y-195728628D01*
X265505771Y-195657200D01*
X265505771Y-195800057D01*
X268148628Y-196585771D02*
X267291485Y-196585771D01*
X267720057Y-196585771D02*
X267720057Y-195085771D01*
X267577200Y-195300057D01*
X267434342Y-195442914D01*
X267291485Y-195514342D01*
X269862914Y-195014342D02*
X268577200Y-196942914D01*
X271148628Y-196585771D02*
X270291485Y-196585771D01*
X270720057Y-196585771D02*
X270720057Y-195085771D01*
X270577200Y-195300057D01*
X270434342Y-195442914D01*
X270291485Y-195514342D01*
D10*
D11*
X177002200Y-187507200D02*
X285002200Y-187507200D01*
D10*
D13*
X178714580Y-188211961D02*
X179857438Y-188211961D01*
X179036009Y-190211961D02*
X179286009Y-188211961D01*
X180274104Y-190211961D02*
X180440771Y-188878628D01*
X180524104Y-188211961D02*
X180416961Y-188307200D01*
X180500295Y-188402438D01*
X180607438Y-188307200D01*
X180524104Y-188211961D01*
X180500295Y-188402438D01*
X181107438Y-188878628D02*
X181869342Y-188878628D01*
X181476485Y-188211961D02*
X181262200Y-189926247D01*
X181333628Y-190116723D01*
X181512200Y-190211961D01*
X181702676Y-190211961D01*
X182655057Y-190211961D02*
X182476485Y-190116723D01*
X182405057Y-189926247D01*
X182619342Y-188211961D01*
X184190771Y-190116723D02*
X183988390Y-190211961D01*
X183607438Y-190211961D01*
X183428866Y-190116723D01*
X183357438Y-189926247D01*
X183452676Y-189164342D01*
X183571723Y-188973866D01*
X183774104Y-188878628D01*
X184155057Y-188878628D01*
X184333628Y-188973866D01*
X184405057Y-189164342D01*
X184381247Y-189354819D01*
X183405057Y-189545295D01*
X185155057Y-190021485D02*
X185238390Y-190116723D01*
X185131247Y-190211961D01*
X185047914Y-190116723D01*
X185155057Y-190021485D01*
X185131247Y-190211961D01*
X185286009Y-188973866D02*
X185369342Y-189069104D01*
X185262200Y-189164342D01*
X185178866Y-189069104D01*
X185286009Y-188973866D01*
X185262200Y-189164342D01*
D10*
D11*
X178934342Y-185600057D02*
X178434342Y-185600057D01*
X178434342Y-186385771D02*
X178434342Y-184885771D01*
X179148628Y-184885771D01*
X179720057Y-186385771D02*
X179720057Y-185385771D01*
X179720057Y-184885771D02*
X179648628Y-184957200D01*
X179720057Y-185028628D01*
X179791485Y-184957200D01*
X179720057Y-184885771D01*
X179720057Y-185028628D01*
X180648628Y-186385771D02*
X180505771Y-186314342D01*
X180434342Y-186171485D01*
X180434342Y-184885771D01*
X181791485Y-186314342D02*
X181648628Y-186385771D01*
X181362914Y-186385771D01*
X181220057Y-186314342D01*
X181148628Y-186171485D01*
X181148628Y-185600057D01*
X181220057Y-185457200D01*
X181362914Y-185385771D01*
X181648628Y-185385771D01*
X181791485Y-185457200D01*
X181862914Y-185600057D01*
X181862914Y-185742914D01*
X181148628Y-185885771D01*
X182505771Y-186242914D02*
X182577200Y-186314342D01*
X182505771Y-186385771D01*
X182434342Y-186314342D01*
X182505771Y-186242914D01*
X182505771Y-186385771D01*
X182505771Y-185457200D02*
X182577200Y-185528628D01*
X182505771Y-185600057D01*
X182434342Y-185528628D01*
X182505771Y-185457200D01*
X182505771Y-185600057D01*
X184362914Y-186385771D02*
X184362914Y-184885771D01*
X184362914Y-185457200D02*
X184505771Y-185385771D01*
X184791485Y-185385771D01*
X184934342Y-185457200D01*
X185005771Y-185528628D01*
X185077200Y-185671485D01*
X185077200Y-186100057D01*
X185005771Y-186242914D01*
X184934342Y-186314342D01*
X184791485Y-186385771D01*
X184505771Y-186385771D01*
X184362914Y-186314342D01*
X186291485Y-186314342D02*
X186148628Y-186385771D01*
X185862914Y-186385771D01*
X185720057Y-186314342D01*
X185648628Y-186171485D01*
X185648628Y-185600057D01*
X185720057Y-185457200D01*
X185862914Y-185385771D01*
X186148628Y-185385771D01*
X186291485Y-185457200D01*
X186362914Y-185600057D01*
X186362914Y-185742914D01*
X185648628Y-185885771D01*
X187005771Y-185385771D02*
X187005771Y-186385771D01*
X187005771Y-185528628D02*
X187077200Y-185457200D01*
X187220057Y-185385771D01*
X187434342Y-185385771D01*
X187577200Y-185457200D01*
X187648628Y-185600057D01*
X187648628Y-186385771D01*
X188362914Y-185385771D02*
X188362914Y-186671485D01*
X188291485Y-186814342D01*
X188148628Y-186885771D01*
X188077200Y-186885771D01*
X188362914Y-184885771D02*
X188291485Y-184957200D01*
X188362914Y-185028628D01*
X188434342Y-184957200D01*
X188362914Y-184885771D01*
X188362914Y-185028628D01*
X189291485Y-186385771D02*
X189148628Y-186314342D01*
X189077200Y-186242914D01*
X189005771Y-186100057D01*
X189005771Y-185671485D01*
X189077200Y-185528628D01*
X189148628Y-185457200D01*
X189291485Y-185385771D01*
X189505771Y-185385771D01*
X189648628Y-185457200D01*
X189720057Y-185528628D01*
X189791485Y-185671485D01*
X189791485Y-186100057D01*
X189720057Y-186242914D01*
X189648628Y-186314342D01*
X189505771Y-186385771D01*
X189291485Y-186385771D01*
X190648628Y-186385771D02*
X190505771Y-186314342D01*
X190434342Y-186171485D01*
X190434342Y-184885771D01*
X191220057Y-186385771D02*
X191220057Y-185385771D01*
X191220057Y-184885771D02*
X191148628Y-184957200D01*
X191220057Y-185028628D01*
X191291485Y-184957200D01*
X191220057Y-184885771D01*
X191220057Y-185028628D01*
X191934342Y-185385771D02*
X191934342Y-186385771D01*
X191934342Y-185528628D02*
X192005771Y-185457200D01*
X192148628Y-185385771D01*
X192362914Y-185385771D01*
X192505771Y-185457200D01*
X192577200Y-185600057D01*
X192577200Y-186385771D01*
X192934342Y-186528628D02*
X194077200Y-186528628D01*
X195220057Y-186385771D02*
X194362914Y-186385771D01*
X194791485Y-186385771D02*
X194791485Y-184885771D01*
X194648628Y-185100057D01*
X194505771Y-185242914D01*
X194362914Y-185314342D01*
X195862914Y-186242914D02*
X195934342Y-186314342D01*
X195862914Y-186385771D01*
X195791485Y-186314342D01*
X195862914Y-186242914D01*
X195862914Y-186385771D01*
X197220057Y-184885771D02*
X196934342Y-184885771D01*
X196791485Y-184957200D01*
X196720057Y-185028628D01*
X196577200Y-185242914D01*
X196505771Y-185528628D01*
X196505771Y-186100057D01*
X196577200Y-186242914D01*
X196648628Y-186314342D01*
X196791485Y-186385771D01*
X197077200Y-186385771D01*
X197220057Y-186314342D01*
X197291485Y-186242914D01*
X197362914Y-186100057D01*
X197362914Y-185742914D01*
X197291485Y-185600057D01*
X197220057Y-185528628D01*
X197077200Y-185457200D01*
X196791485Y-185457200D01*
X196648628Y-185528628D01*
X196577200Y-185600057D01*
X196505771Y-185742914D01*
X198005771Y-186242914D02*
X198077200Y-186314342D01*
X198005771Y-186385771D01*
X197934342Y-186314342D01*
X198005771Y-186242914D01*
X198005771Y-186385771D01*
X198720057Y-186385771D02*
X198720057Y-184885771D01*
X198862914Y-185814342D02*
X199291485Y-186385771D01*
X199291485Y-185385771D02*
X198720057Y-185957200D01*
X199934342Y-186385771D02*
X199934342Y-185385771D01*
X199934342Y-184885771D02*
X199862914Y-184957200D01*
X199934342Y-185028628D01*
X200005771Y-184957200D01*
X199934342Y-184885771D01*
X199934342Y-185028628D01*
X201291485Y-186314342D02*
X201148628Y-186385771D01*
X200862914Y-186385771D01*
X200720057Y-186314342D01*
X200648628Y-186242914D01*
X200577200Y-186100057D01*
X200577200Y-185671485D01*
X200648628Y-185528628D01*
X200720057Y-185457200D01*
X200862914Y-185385771D01*
X201148628Y-185385771D01*
X201291485Y-185457200D01*
X202577200Y-186385771D02*
X202577200Y-185600057D01*
X202505771Y-185457200D01*
X202362914Y-185385771D01*
X202077200Y-185385771D01*
X201934342Y-185457200D01*
X202577200Y-186314342D02*
X202434342Y-186385771D01*
X202077200Y-186385771D01*
X201934342Y-186314342D01*
X201862914Y-186171485D01*
X201862914Y-186028628D01*
X201934342Y-185885771D01*
X202077200Y-185814342D01*
X202434342Y-185814342D01*
X202577200Y-185742914D01*
X203934342Y-186385771D02*
X203934342Y-184885771D01*
X203934342Y-186314342D02*
X203791485Y-186385771D01*
X203505771Y-186385771D01*
X203362914Y-186314342D01*
X203291485Y-186242914D01*
X203220057Y-186100057D01*
X203220057Y-185671485D01*
X203291485Y-185528628D01*
X203362914Y-185457200D01*
X203505771Y-185385771D01*
X203791485Y-185385771D01*
X203934342Y-185457200D01*
X204291485Y-186528628D02*
X205434342Y-186528628D01*
X205791485Y-185385771D02*
X205791485Y-186885771D01*
X205791485Y-185457200D02*
X205934342Y-185385771D01*
X206220057Y-185385771D01*
X206362914Y-185457200D01*
X206434342Y-185528628D01*
X206505771Y-185671485D01*
X206505771Y-186100057D01*
X206434342Y-186242914D01*
X206362914Y-186314342D01*
X206220057Y-186385771D01*
X205934342Y-186385771D01*
X205791485Y-186314342D01*
X207791485Y-186314342D02*
X207648628Y-186385771D01*
X207362914Y-186385771D01*
X207220057Y-186314342D01*
X207148628Y-186242914D01*
X207077200Y-186100057D01*
X207077200Y-185671485D01*
X207148628Y-185528628D01*
X207220057Y-185457200D01*
X207362914Y-185385771D01*
X207648628Y-185385771D01*
X207791485Y-185457200D01*
X208434342Y-186385771D02*
X208434342Y-184885771D01*
X208434342Y-185457200D02*
X208577200Y-185385771D01*
X208862914Y-185385771D01*
X209005771Y-185457200D01*
X209077200Y-185528628D01*
X209148628Y-185671485D01*
X209148628Y-186100057D01*
X209077200Y-186242914D01*
X209005771Y-186314342D01*
X208862914Y-186385771D01*
X208577200Y-186385771D01*
X208434342Y-186314342D01*
D10*
D11*
X177002200Y-181507200D02*
X285002200Y-181507200D01*
D10*
D11*
X178362914Y-183614342D02*
X178577200Y-183685771D01*
X178934342Y-183685771D01*
X179077200Y-183614342D01*
X179148628Y-183542914D01*
X179220057Y-183400057D01*
X179220057Y-183257200D01*
X179148628Y-183114342D01*
X179077200Y-183042914D01*
X178934342Y-182971485D01*
X178648628Y-182900057D01*
X178505771Y-182828628D01*
X178434342Y-182757200D01*
X178362914Y-182614342D01*
X178362914Y-182471485D01*
X178434342Y-182328628D01*
X178505771Y-182257200D01*
X178648628Y-182185771D01*
X179005771Y-182185771D01*
X179220057Y-182257200D01*
X179862914Y-183685771D02*
X179862914Y-182185771D01*
X180505771Y-183685771D02*
X180505771Y-182900057D01*
X180434342Y-182757200D01*
X180291485Y-182685771D01*
X180077200Y-182685771D01*
X179934342Y-182757200D01*
X179862914Y-182828628D01*
X181791485Y-183614342D02*
X181648628Y-183685771D01*
X181362914Y-183685771D01*
X181220057Y-183614342D01*
X181148628Y-183471485D01*
X181148628Y-182900057D01*
X181220057Y-182757200D01*
X181362914Y-182685771D01*
X181648628Y-182685771D01*
X181791485Y-182757200D01*
X181862914Y-182900057D01*
X181862914Y-183042914D01*
X181148628Y-183185771D01*
X183077200Y-183614342D02*
X182934342Y-183685771D01*
X182648628Y-183685771D01*
X182505771Y-183614342D01*
X182434342Y-183471485D01*
X182434342Y-182900057D01*
X182505771Y-182757200D01*
X182648628Y-182685771D01*
X182934342Y-182685771D01*
X183077200Y-182757200D01*
X183148628Y-182900057D01*
X183148628Y-183042914D01*
X182434342Y-183185771D01*
X183577200Y-182685771D02*
X184148628Y-182685771D01*
X183791485Y-182185771D02*
X183791485Y-183471485D01*
X183862914Y-183614342D01*
X184005771Y-183685771D01*
X184148628Y-183685771D01*
X184648628Y-183542914D02*
X184720057Y-183614342D01*
X184648628Y-183685771D01*
X184577200Y-183614342D01*
X184648628Y-183542914D01*
X184648628Y-183685771D01*
X184648628Y-182757200D02*
X184720057Y-182828628D01*
X184648628Y-182900057D01*
X184577200Y-182828628D01*
X184648628Y-182757200D01*
X184648628Y-182900057D01*
D10*
D12*
D10*
D11*
D10*
D11*
D10*
D11*
D10*
D11*
D10*
D11*
X197002200Y-191507200D02*
X197002200Y-194507200D01*
D10*
D11*
X261002200Y-191507200D02*
X261002200Y-198007200D01*
D14*
X255450614Y-32899678D02*
X255450000Y-131440000D01*
X254700614Y-32149678D02*
X178700000Y-32149678D01*
X178700000Y-132157000D02*
X254699204Y-132157000D01*
X254699209Y-132157495D02*
G75*
G03*
X255450000Y-131440000I-8128J760069D01*
G01*
X177950000Y-32899678D02*
X177950000Y-131407000D01*
X177950000Y-131407000D02*
G75*
G03*
X178700000Y-132157000I750000J0D01*
G01*
X178700000Y-32149700D02*
G75*
G03*
X177950000Y-32899678I0J-750000D01*
G01*
X255450613Y-32899678D02*
G75*
G03*
X254700614Y-32149678I-750018J-18D01*
G01*
D15*
%TO.C,SW1*%
X223678063Y-100933561D02*
X223571625Y-100986780D01*
X223358749Y-100986780D01*
X223252311Y-100933561D01*
X223199092Y-100827123D01*
X223199092Y-100773904D01*
X223252311Y-100667466D01*
X223358749Y-100614247D01*
X223518406Y-100614247D01*
X223624844Y-100561028D01*
X223678063Y-100454590D01*
X223678063Y-100401371D01*
X223624844Y-100294933D01*
X223518406Y-100241714D01*
X223358749Y-100241714D01*
X223252311Y-100294933D01*
X222241149Y-100241714D02*
X222241149Y-100986780D01*
X222720120Y-100241714D02*
X222720120Y-100827123D01*
X222666901Y-100933561D01*
X222560463Y-100986780D01*
X222400806Y-100986780D01*
X222294368Y-100933561D01*
X222241149Y-100880342D01*
X221708959Y-100986780D02*
X221708959Y-99869180D01*
X221708959Y-100294933D02*
X221602520Y-100241714D01*
X221389644Y-100241714D01*
X221283206Y-100294933D01*
X221229987Y-100348152D01*
X221176768Y-100454590D01*
X221176768Y-100773904D01*
X221229987Y-100880342D01*
X221283206Y-100933561D01*
X221389644Y-100986780D01*
X221602520Y-100986780D01*
X221708959Y-100933561D01*
X220697797Y-100986780D02*
X220697797Y-100241714D01*
X220697797Y-100348152D02*
X220644578Y-100294933D01*
X220538140Y-100241714D01*
X220378482Y-100241714D01*
X220272044Y-100294933D01*
X220218825Y-100401371D01*
X220218825Y-100986780D01*
X220218825Y-100401371D02*
X220165606Y-100294933D01*
X220059168Y-100241714D01*
X219899511Y-100241714D01*
X219793073Y-100294933D01*
X219739854Y-100401371D01*
X219739854Y-100986780D01*
X219207663Y-100986780D02*
X219207663Y-100241714D01*
X219207663Y-99869180D02*
X219260882Y-99922400D01*
X219207663Y-99975619D01*
X219154444Y-99922400D01*
X219207663Y-99869180D01*
X219207663Y-99975619D01*
X218675473Y-100241714D02*
X218675473Y-100986780D01*
X218675473Y-100348152D02*
X218622254Y-100294933D01*
X218515816Y-100241714D01*
X218356159Y-100241714D01*
X218249720Y-100294933D01*
X218196501Y-100401371D01*
X218196501Y-100986780D01*
X217664311Y-100986780D02*
X217664311Y-100241714D01*
X217664311Y-99869180D02*
X217717530Y-99922400D01*
X217664311Y-99975619D01*
X217611092Y-99922400D01*
X217664311Y-99869180D01*
X217664311Y-99975619D01*
X217132120Y-100561028D02*
X216280616Y-100561028D01*
X215801644Y-99975619D02*
X215748425Y-99922400D01*
X215641987Y-99869180D01*
X215375892Y-99869180D01*
X215269454Y-99922400D01*
X215216235Y-99975619D01*
X215163016Y-100082057D01*
X215163016Y-100188495D01*
X215216235Y-100348152D01*
X215854863Y-100986780D01*
X215163016Y-100986780D01*
X214843701Y-99869180D02*
X214205073Y-99869180D01*
X214524387Y-100986780D02*
X214524387Y-99869180D01*
D11*
%TO.C,J11*%
X248986669Y-107746223D02*
X248986669Y-106476223D01*
X248502860Y-106476223D01*
X248381907Y-106536700D01*
X248321431Y-106597176D01*
X248260955Y-106718128D01*
X248260955Y-106899557D01*
X248321431Y-107020509D01*
X248381907Y-107080985D01*
X248502860Y-107141461D01*
X248986669Y-107141461D01*
X247353812Y-106476223D02*
X247353812Y-107383366D01*
X247414288Y-107564795D01*
X247535241Y-107685747D01*
X247716669Y-107746223D01*
X247837622Y-107746223D01*
X246870003Y-106476223D02*
X246083812Y-106476223D01*
X246507145Y-106960033D01*
X246325717Y-106960033D01*
X246204765Y-107020509D01*
X246144288Y-107080985D01*
X246083812Y-107201938D01*
X246083812Y-107504319D01*
X246144288Y-107625271D01*
X246204765Y-107685747D01*
X246325717Y-107746223D01*
X246688574Y-107746223D01*
X246809526Y-107685747D01*
X246870003Y-107625271D01*
X245297622Y-106476223D02*
X245176669Y-106476223D01*
X245055717Y-106536700D01*
X244995241Y-106597176D01*
X244934765Y-106718128D01*
X244874288Y-106960033D01*
X244874288Y-107262414D01*
X244934765Y-107504319D01*
X244995241Y-107625271D01*
X245055717Y-107685747D01*
X245176669Y-107746223D01*
X245297622Y-107746223D01*
X245418574Y-107685747D01*
X245479050Y-107625271D01*
X245539526Y-107504319D01*
X245600003Y-107262414D01*
X245600003Y-106960033D01*
X245539526Y-106718128D01*
X245479050Y-106597176D01*
X245418574Y-106536700D01*
X245297622Y-106476223D01*
X243664765Y-107746223D02*
X244390479Y-107746223D01*
X244027622Y-107746223D02*
X244027622Y-106476223D01*
X244148574Y-106657652D01*
X244269526Y-106778604D01*
X244390479Y-106839080D01*
X243422860Y-107867176D02*
X242455241Y-107867176D01*
X242334288Y-106476223D02*
X241608574Y-106476223D01*
X241971431Y-107746223D02*
X241971431Y-106476223D01*
X241185241Y-107746223D02*
X241185241Y-106476223D01*
X241185241Y-107080985D02*
X240459526Y-107080985D01*
X240459526Y-107746223D02*
X240459526Y-106476223D01*
X239612860Y-106476223D02*
X239370955Y-106476223D01*
X239250003Y-106536700D01*
X239129050Y-106657652D01*
X239068574Y-106899557D01*
X239068574Y-107322890D01*
X239129050Y-107564795D01*
X239250003Y-107685747D01*
X239370955Y-107746223D01*
X239612860Y-107746223D01*
X239733812Y-107685747D01*
X239854765Y-107564795D01*
X239915241Y-107322890D01*
X239915241Y-106899557D01*
X239854765Y-106657652D01*
X239733812Y-106536700D01*
X239612860Y-106476223D01*
X238524288Y-107746223D02*
X238524288Y-106476223D01*
X237798574Y-107746223D01*
X237798574Y-106476223D01*
X237193812Y-107746223D02*
X237193812Y-106476223D01*
X236468098Y-107746223D02*
X237012384Y-107020509D01*
X236468098Y-106476223D02*
X237193812Y-107201938D01*
X235923812Y-107746223D02*
X235923812Y-106476223D01*
X234593336Y-107625271D02*
X234653812Y-107685747D01*
X234835241Y-107746223D01*
X234956193Y-107746223D01*
X235137622Y-107685747D01*
X235258574Y-107564795D01*
X235319050Y-107443842D01*
X235379526Y-107201938D01*
X235379526Y-107020509D01*
X235319050Y-106778604D01*
X235258574Y-106657652D01*
X235137622Y-106536700D01*
X234956193Y-106476223D01*
X234835241Y-106476223D01*
X234653812Y-106536700D01*
X234593336Y-106597176D01*
X233807145Y-106476223D02*
X233565241Y-106476223D01*
X233444288Y-106536700D01*
X233323336Y-106657652D01*
X233262860Y-106899557D01*
X233262860Y-107322890D01*
X233323336Y-107564795D01*
X233444288Y-107685747D01*
X233565241Y-107746223D01*
X233807145Y-107746223D01*
X233928098Y-107685747D01*
X234049050Y-107564795D01*
X234109526Y-107322890D01*
X234109526Y-106899557D01*
X234049050Y-106657652D01*
X233928098Y-106536700D01*
X233807145Y-106476223D01*
X232718574Y-107746223D02*
X232718574Y-106476223D01*
X231992860Y-107746223D01*
X231992860Y-106476223D01*
X231388098Y-107746223D02*
X231388098Y-106476223D01*
X230662384Y-107746223D01*
X230662384Y-106476223D01*
X229513336Y-106476223D02*
X229755241Y-106476223D01*
X229876193Y-106536700D01*
X229936669Y-106597176D01*
X230057622Y-106778604D01*
X230118098Y-107020509D01*
X230118098Y-107504319D01*
X230057622Y-107625271D01*
X229997145Y-107685747D01*
X229876193Y-107746223D01*
X229634288Y-107746223D01*
X229513336Y-107685747D01*
X229452860Y-107625271D01*
X229392384Y-107504319D01*
X229392384Y-107201938D01*
X229452860Y-107080985D01*
X229513336Y-107020509D01*
X229634288Y-106960033D01*
X229876193Y-106960033D01*
X229997145Y-107020509D01*
X230057622Y-107080985D01*
X230118098Y-107201938D01*
%TO.C,J5*%
X226804003Y-126577523D02*
X226804003Y-125307523D01*
X226320194Y-125307523D01*
X226199241Y-125368000D01*
X226138765Y-125428476D01*
X226078289Y-125549428D01*
X226078289Y-125730857D01*
X226138765Y-125851809D01*
X226199241Y-125912285D01*
X226320194Y-125972761D01*
X226804003Y-125972761D01*
X225171146Y-125307523D02*
X225171146Y-126214666D01*
X225231622Y-126396095D01*
X225352575Y-126517047D01*
X225534003Y-126577523D01*
X225654956Y-126577523D01*
X224687337Y-125307523D02*
X223901146Y-125307523D01*
X224324479Y-125791333D01*
X224143051Y-125791333D01*
X224022099Y-125851809D01*
X223961622Y-125912285D01*
X223901146Y-126033238D01*
X223901146Y-126335619D01*
X223961622Y-126456571D01*
X224022099Y-126517047D01*
X224143051Y-126577523D01*
X224505908Y-126577523D01*
X224626860Y-126517047D01*
X224687337Y-126456571D01*
X223114956Y-125307523D02*
X222994003Y-125307523D01*
X222873051Y-125368000D01*
X222812575Y-125428476D01*
X222752099Y-125549428D01*
X222691622Y-125791333D01*
X222691622Y-126093714D01*
X222752099Y-126335619D01*
X222812575Y-126456571D01*
X222873051Y-126517047D01*
X222994003Y-126577523D01*
X223114956Y-126577523D01*
X223235908Y-126517047D01*
X223296384Y-126456571D01*
X223356860Y-126335619D01*
X223417337Y-126093714D01*
X223417337Y-125791333D01*
X223356860Y-125549428D01*
X223296384Y-125428476D01*
X223235908Y-125368000D01*
X223114956Y-125307523D01*
X221482099Y-126577523D02*
X222207813Y-126577523D01*
X221844956Y-126577523D02*
X221844956Y-125307523D01*
X221965908Y-125488952D01*
X222086860Y-125609904D01*
X222207813Y-125670380D01*
X221240194Y-126698476D02*
X220272575Y-126698476D01*
X220151622Y-125307523D02*
X219425908Y-125307523D01*
X219788765Y-126577523D02*
X219788765Y-125307523D01*
X219002575Y-126577523D02*
X219002575Y-125307523D01*
X219002575Y-125912285D02*
X218276860Y-125912285D01*
X218276860Y-126577523D02*
X218276860Y-125307523D01*
X217430194Y-125307523D02*
X217188289Y-125307523D01*
X217067337Y-125368000D01*
X216946384Y-125488952D01*
X216885908Y-125730857D01*
X216885908Y-126154190D01*
X216946384Y-126396095D01*
X217067337Y-126517047D01*
X217188289Y-126577523D01*
X217430194Y-126577523D01*
X217551146Y-126517047D01*
X217672099Y-126396095D01*
X217732575Y-126154190D01*
X217732575Y-125730857D01*
X217672099Y-125488952D01*
X217551146Y-125368000D01*
X217430194Y-125307523D01*
X216341622Y-126577523D02*
X216341622Y-125307523D01*
X215615908Y-126577523D01*
X215615908Y-125307523D01*
X215011146Y-126577523D02*
X215011146Y-125307523D01*
X214285432Y-126577523D02*
X214829718Y-125851809D01*
X214285432Y-125307523D02*
X215011146Y-126033238D01*
X213741146Y-126577523D02*
X213741146Y-125307523D01*
X212410670Y-126456571D02*
X212471146Y-126517047D01*
X212652575Y-126577523D01*
X212773527Y-126577523D01*
X212954956Y-126517047D01*
X213075908Y-126396095D01*
X213136384Y-126275142D01*
X213196860Y-126033238D01*
X213196860Y-125851809D01*
X213136384Y-125609904D01*
X213075908Y-125488952D01*
X212954956Y-125368000D01*
X212773527Y-125307523D01*
X212652575Y-125307523D01*
X212471146Y-125368000D01*
X212410670Y-125428476D01*
X211624479Y-125307523D02*
X211382575Y-125307523D01*
X211261622Y-125368000D01*
X211140670Y-125488952D01*
X211080194Y-125730857D01*
X211080194Y-126154190D01*
X211140670Y-126396095D01*
X211261622Y-126517047D01*
X211382575Y-126577523D01*
X211624479Y-126577523D01*
X211745432Y-126517047D01*
X211866384Y-126396095D01*
X211926860Y-126154190D01*
X211926860Y-125730857D01*
X211866384Y-125488952D01*
X211745432Y-125368000D01*
X211624479Y-125307523D01*
X210535908Y-126577523D02*
X210535908Y-125307523D01*
X209810194Y-126577523D01*
X209810194Y-125307523D01*
X209205432Y-126577523D02*
X209205432Y-125307523D01*
X208479718Y-126577523D01*
X208479718Y-125307523D01*
X207330670Y-125307523D02*
X207572575Y-125307523D01*
X207693527Y-125368000D01*
X207754003Y-125428476D01*
X207874956Y-125609904D01*
X207935432Y-125851809D01*
X207935432Y-126335619D01*
X207874956Y-126456571D01*
X207814479Y-126517047D01*
X207693527Y-126577523D01*
X207451622Y-126577523D01*
X207330670Y-126517047D01*
X207270194Y-126456571D01*
X207209718Y-126335619D01*
X207209718Y-126033238D01*
X207270194Y-125912285D01*
X207330670Y-125851809D01*
X207451622Y-125791333D01*
X207693527Y-125791333D01*
X207814479Y-125851809D01*
X207874956Y-125912285D01*
X207935432Y-126033238D01*
D16*
%TO.C,R54*%
X206228690Y-35115904D02*
X206685833Y-35115904D01*
X206457261Y-35115904D02*
X206457261Y-34315904D01*
X206533452Y-34430190D01*
X206609642Y-34506380D01*
X206685833Y-34544476D01*
X205733452Y-34315904D02*
X205657261Y-34315904D01*
X205581071Y-34354000D01*
X205542976Y-34392095D01*
X205504880Y-34468285D01*
X205466785Y-34620666D01*
X205466785Y-34811142D01*
X205504880Y-34963523D01*
X205542976Y-35039714D01*
X205581071Y-35077809D01*
X205657261Y-35115904D01*
X205733452Y-35115904D01*
X205809642Y-35077809D01*
X205847738Y-35039714D01*
X205885833Y-34963523D01*
X205923928Y-34811142D01*
X205923928Y-34620666D01*
X205885833Y-34468285D01*
X205847738Y-34392095D01*
X205809642Y-34354000D01*
X205733452Y-34315904D01*
X205123928Y-35115904D02*
X205123928Y-34315904D01*
X205047738Y-34811142D02*
X204819166Y-35115904D01*
X204819166Y-34582571D02*
X205123928Y-34887333D01*
%TO.C,R51*%
X228218090Y-35115904D02*
X228675233Y-35115904D01*
X228446661Y-35115904D02*
X228446661Y-34315904D01*
X228522852Y-34430190D01*
X228599042Y-34506380D01*
X228675233Y-34544476D01*
X227722852Y-34315904D02*
X227646661Y-34315904D01*
X227570471Y-34354000D01*
X227532376Y-34392095D01*
X227494280Y-34468285D01*
X227456185Y-34620666D01*
X227456185Y-34811142D01*
X227494280Y-34963523D01*
X227532376Y-35039714D01*
X227570471Y-35077809D01*
X227646661Y-35115904D01*
X227722852Y-35115904D01*
X227799042Y-35077809D01*
X227837138Y-35039714D01*
X227875233Y-34963523D01*
X227913328Y-34811142D01*
X227913328Y-34620666D01*
X227875233Y-34468285D01*
X227837138Y-34392095D01*
X227799042Y-34354000D01*
X227722852Y-34315904D01*
X227113328Y-35115904D02*
X227113328Y-34315904D01*
X227037138Y-34811142D02*
X226808566Y-35115904D01*
X226808566Y-34582571D02*
X227113328Y-34887333D01*
D11*
%TO.C,J12*%
X204621337Y-126577523D02*
X204621337Y-125307523D01*
X204137528Y-125307523D01*
X204016575Y-125368000D01*
X203956099Y-125428476D01*
X203895623Y-125549428D01*
X203895623Y-125730857D01*
X203956099Y-125851809D01*
X204016575Y-125912285D01*
X204137528Y-125972761D01*
X204621337Y-125972761D01*
X202988480Y-125307523D02*
X202988480Y-126214666D01*
X203048956Y-126396095D01*
X203169909Y-126517047D01*
X203351337Y-126577523D01*
X203472290Y-126577523D01*
X202504671Y-125307523D02*
X201718480Y-125307523D01*
X202141813Y-125791333D01*
X201960385Y-125791333D01*
X201839433Y-125851809D01*
X201778956Y-125912285D01*
X201718480Y-126033238D01*
X201718480Y-126335619D01*
X201778956Y-126456571D01*
X201839433Y-126517047D01*
X201960385Y-126577523D01*
X202323242Y-126577523D01*
X202444194Y-126517047D01*
X202504671Y-126456571D01*
X200932290Y-125307523D02*
X200811337Y-125307523D01*
X200690385Y-125368000D01*
X200629909Y-125428476D01*
X200569433Y-125549428D01*
X200508956Y-125791333D01*
X200508956Y-126093714D01*
X200569433Y-126335619D01*
X200629909Y-126456571D01*
X200690385Y-126517047D01*
X200811337Y-126577523D01*
X200932290Y-126577523D01*
X201053242Y-126517047D01*
X201113718Y-126456571D01*
X201174194Y-126335619D01*
X201234671Y-126093714D01*
X201234671Y-125791333D01*
X201174194Y-125549428D01*
X201113718Y-125428476D01*
X201053242Y-125368000D01*
X200932290Y-125307523D01*
X199299433Y-126577523D02*
X200025147Y-126577523D01*
X199662290Y-126577523D02*
X199662290Y-125307523D01*
X199783242Y-125488952D01*
X199904194Y-125609904D01*
X200025147Y-125670380D01*
X199057528Y-126698476D02*
X198089909Y-126698476D01*
X197968956Y-125307523D02*
X197243242Y-125307523D01*
X197606099Y-126577523D02*
X197606099Y-125307523D01*
X196819909Y-126577523D02*
X196819909Y-125307523D01*
X196819909Y-125912285D02*
X196094194Y-125912285D01*
X196094194Y-126577523D02*
X196094194Y-125307523D01*
X195247528Y-125307523D02*
X195005623Y-125307523D01*
X194884671Y-125368000D01*
X194763718Y-125488952D01*
X194703242Y-125730857D01*
X194703242Y-126154190D01*
X194763718Y-126396095D01*
X194884671Y-126517047D01*
X195005623Y-126577523D01*
X195247528Y-126577523D01*
X195368480Y-126517047D01*
X195489433Y-126396095D01*
X195549909Y-126154190D01*
X195549909Y-125730857D01*
X195489433Y-125488952D01*
X195368480Y-125368000D01*
X195247528Y-125307523D01*
X194158956Y-126577523D02*
X194158956Y-125307523D01*
X193433242Y-126577523D01*
X193433242Y-125307523D01*
X192828480Y-126577523D02*
X192828480Y-125307523D01*
X192102766Y-126577523D02*
X192647052Y-125851809D01*
X192102766Y-125307523D02*
X192828480Y-126033238D01*
X191558480Y-126577523D02*
X191558480Y-125307523D01*
X190228004Y-126456571D02*
X190288480Y-126517047D01*
X190469909Y-126577523D01*
X190590861Y-126577523D01*
X190772290Y-126517047D01*
X190893242Y-126396095D01*
X190953718Y-126275142D01*
X191014194Y-126033238D01*
X191014194Y-125851809D01*
X190953718Y-125609904D01*
X190893242Y-125488952D01*
X190772290Y-125368000D01*
X190590861Y-125307523D01*
X190469909Y-125307523D01*
X190288480Y-125368000D01*
X190228004Y-125428476D01*
X189441813Y-125307523D02*
X189199909Y-125307523D01*
X189078956Y-125368000D01*
X188958004Y-125488952D01*
X188897528Y-125730857D01*
X188897528Y-126154190D01*
X188958004Y-126396095D01*
X189078956Y-126517047D01*
X189199909Y-126577523D01*
X189441813Y-126577523D01*
X189562766Y-126517047D01*
X189683718Y-126396095D01*
X189744194Y-126154190D01*
X189744194Y-125730857D01*
X189683718Y-125488952D01*
X189562766Y-125368000D01*
X189441813Y-125307523D01*
X188353242Y-126577523D02*
X188353242Y-125307523D01*
X187627528Y-126577523D01*
X187627528Y-125307523D01*
X187022766Y-126577523D02*
X187022766Y-125307523D01*
X186297052Y-126577523D01*
X186297052Y-125307523D01*
X185148004Y-125307523D02*
X185389909Y-125307523D01*
X185510861Y-125368000D01*
X185571337Y-125428476D01*
X185692290Y-125609904D01*
X185752766Y-125851809D01*
X185752766Y-126335619D01*
X185692290Y-126456571D01*
X185631813Y-126517047D01*
X185510861Y-126577523D01*
X185268956Y-126577523D01*
X185148004Y-126517047D01*
X185087528Y-126456571D01*
X185027052Y-126335619D01*
X185027052Y-126033238D01*
X185087528Y-125912285D01*
X185148004Y-125851809D01*
X185268956Y-125791333D01*
X185510861Y-125791333D01*
X185631813Y-125851809D01*
X185692290Y-125912285D01*
X185752766Y-126033238D01*
%TO.C,J3*%
X260078388Y-107746223D02*
X260078388Y-106476223D01*
X259594579Y-106476223D01*
X259473626Y-106536700D01*
X259413150Y-106597176D01*
X259352674Y-106718128D01*
X259352674Y-106899557D01*
X259413150Y-107020509D01*
X259473626Y-107080985D01*
X259594579Y-107141461D01*
X260078388Y-107141461D01*
X258445531Y-106476223D02*
X258445531Y-107383366D01*
X258506007Y-107564795D01*
X258626960Y-107685747D01*
X258808388Y-107746223D01*
X258929341Y-107746223D01*
X257961722Y-106476223D02*
X257175531Y-106476223D01*
X257598864Y-106960033D01*
X257417436Y-106960033D01*
X257296484Y-107020509D01*
X257236007Y-107080985D01*
X257175531Y-107201938D01*
X257175531Y-107504319D01*
X257236007Y-107625271D01*
X257296484Y-107685747D01*
X257417436Y-107746223D01*
X257780293Y-107746223D01*
X257901245Y-107685747D01*
X257961722Y-107625271D01*
X256389341Y-106476223D02*
X256268388Y-106476223D01*
X256147436Y-106536700D01*
X256086960Y-106597176D01*
X256026484Y-106718128D01*
X255966007Y-106960033D01*
X255966007Y-107262414D01*
X256026484Y-107504319D01*
X256086960Y-107625271D01*
X256147436Y-107685747D01*
X256268388Y-107746223D01*
X256389341Y-107746223D01*
X256510293Y-107685747D01*
X256570769Y-107625271D01*
X256631245Y-107504319D01*
X256691722Y-107262414D01*
X256691722Y-106960033D01*
X256631245Y-106718128D01*
X256570769Y-106597176D01*
X256510293Y-106536700D01*
X256389341Y-106476223D01*
X254756484Y-107746223D02*
X255482198Y-107746223D01*
X255119341Y-107746223D02*
X255119341Y-106476223D01*
X255240293Y-106657652D01*
X255361245Y-106778604D01*
X255482198Y-106839080D01*
X254514579Y-107867176D02*
X253546960Y-107867176D01*
X253426007Y-106476223D02*
X252700293Y-106476223D01*
X253063150Y-107746223D02*
X253063150Y-106476223D01*
X252276960Y-107746223D02*
X252276960Y-106476223D01*
X252276960Y-107080985D02*
X251551245Y-107080985D01*
X251551245Y-107746223D02*
X251551245Y-106476223D01*
X250704579Y-106476223D02*
X250462674Y-106476223D01*
X250341722Y-106536700D01*
X250220769Y-106657652D01*
X250160293Y-106899557D01*
X250160293Y-107322890D01*
X250220769Y-107564795D01*
X250341722Y-107685747D01*
X250462674Y-107746223D01*
X250704579Y-107746223D01*
X250825531Y-107685747D01*
X250946484Y-107564795D01*
X251006960Y-107322890D01*
X251006960Y-106899557D01*
X250946484Y-106657652D01*
X250825531Y-106536700D01*
X250704579Y-106476223D01*
X249616007Y-107746223D02*
X249616007Y-106476223D01*
X248890293Y-107746223D01*
X248890293Y-106476223D01*
X248285531Y-107746223D02*
X248285531Y-106476223D01*
X247559817Y-107746223D02*
X248104103Y-107020509D01*
X247559817Y-106476223D02*
X248285531Y-107201938D01*
X247015531Y-107746223D02*
X247015531Y-106476223D01*
X245685055Y-107625271D02*
X245745531Y-107685747D01*
X245926960Y-107746223D01*
X246047912Y-107746223D01*
X246229341Y-107685747D01*
X246350293Y-107564795D01*
X246410769Y-107443842D01*
X246471245Y-107201938D01*
X246471245Y-107020509D01*
X246410769Y-106778604D01*
X246350293Y-106657652D01*
X246229341Y-106536700D01*
X246047912Y-106476223D01*
X245926960Y-106476223D01*
X245745531Y-106536700D01*
X245685055Y-106597176D01*
X244898864Y-106476223D02*
X244656960Y-106476223D01*
X244536007Y-106536700D01*
X244415055Y-106657652D01*
X244354579Y-106899557D01*
X244354579Y-107322890D01*
X244415055Y-107564795D01*
X244536007Y-107685747D01*
X244656960Y-107746223D01*
X244898864Y-107746223D01*
X245019817Y-107685747D01*
X245140769Y-107564795D01*
X245201245Y-107322890D01*
X245201245Y-106899557D01*
X245140769Y-106657652D01*
X245019817Y-106536700D01*
X244898864Y-106476223D01*
X243810293Y-107746223D02*
X243810293Y-106476223D01*
X243084579Y-107746223D01*
X243084579Y-106476223D01*
X242479817Y-107746223D02*
X242479817Y-106476223D01*
X241754103Y-107746223D01*
X241754103Y-106476223D01*
X240605055Y-106476223D02*
X240846960Y-106476223D01*
X240967912Y-106536700D01*
X241028388Y-106597176D01*
X241149341Y-106778604D01*
X241209817Y-107020509D01*
X241209817Y-107504319D01*
X241149341Y-107625271D01*
X241088864Y-107685747D01*
X240967912Y-107746223D01*
X240726007Y-107746223D01*
X240605055Y-107685747D01*
X240544579Y-107625271D01*
X240484103Y-107504319D01*
X240484103Y-107201938D01*
X240544579Y-107080985D01*
X240605055Y-107020509D01*
X240726007Y-106960033D01*
X240967912Y-106960033D01*
X241088864Y-107020509D01*
X241149341Y-107080985D01*
X241209817Y-107201938D01*
D16*
%TO.C,R58*%
X206226490Y-81105804D02*
X206683633Y-81105804D01*
X206455061Y-81105804D02*
X206455061Y-80305804D01*
X206531252Y-80420090D01*
X206607442Y-80496280D01*
X206683633Y-80534376D01*
X205731252Y-80305804D02*
X205655061Y-80305804D01*
X205578871Y-80343900D01*
X205540776Y-80381995D01*
X205502680Y-80458185D01*
X205464585Y-80610566D01*
X205464585Y-80801042D01*
X205502680Y-80953423D01*
X205540776Y-81029614D01*
X205578871Y-81067709D01*
X205655061Y-81105804D01*
X205731252Y-81105804D01*
X205807442Y-81067709D01*
X205845538Y-81029614D01*
X205883633Y-80953423D01*
X205921728Y-80801042D01*
X205921728Y-80610566D01*
X205883633Y-80458185D01*
X205845538Y-80381995D01*
X205807442Y-80343900D01*
X205731252Y-80305804D01*
X205121728Y-81105804D02*
X205121728Y-80305804D01*
X205045538Y-80801042D02*
X204816966Y-81105804D01*
X204816966Y-80572471D02*
X205121728Y-80877233D01*
%TO.C,R53*%
X228215890Y-81105804D02*
X228673033Y-81105804D01*
X228444461Y-81105804D02*
X228444461Y-80305804D01*
X228520652Y-80420090D01*
X228596842Y-80496280D01*
X228673033Y-80534376D01*
X227720652Y-80305804D02*
X227644461Y-80305804D01*
X227568271Y-80343900D01*
X227530176Y-80381995D01*
X227492080Y-80458185D01*
X227453985Y-80610566D01*
X227453985Y-80801042D01*
X227492080Y-80953423D01*
X227530176Y-81029614D01*
X227568271Y-81067709D01*
X227644461Y-81105804D01*
X227720652Y-81105804D01*
X227796842Y-81067709D01*
X227834938Y-81029614D01*
X227873033Y-80953423D01*
X227911128Y-80801042D01*
X227911128Y-80610566D01*
X227873033Y-80458185D01*
X227834938Y-80381995D01*
X227796842Y-80343900D01*
X227720652Y-80305804D01*
X227111128Y-81105804D02*
X227111128Y-80305804D01*
X227034938Y-80801042D02*
X226806366Y-81105804D01*
X226806366Y-80572471D02*
X227111128Y-80877233D01*
%TO.C,R60*%
X206226490Y-104100704D02*
X206683633Y-104100704D01*
X206455061Y-104100704D02*
X206455061Y-103300704D01*
X206531252Y-103414990D01*
X206607442Y-103491180D01*
X206683633Y-103529276D01*
X205731252Y-103300704D02*
X205655061Y-103300704D01*
X205578871Y-103338800D01*
X205540776Y-103376895D01*
X205502680Y-103453085D01*
X205464585Y-103605466D01*
X205464585Y-103795942D01*
X205502680Y-103948323D01*
X205540776Y-104024514D01*
X205578871Y-104062609D01*
X205655061Y-104100704D01*
X205731252Y-104100704D01*
X205807442Y-104062609D01*
X205845538Y-104024514D01*
X205883633Y-103948323D01*
X205921728Y-103795942D01*
X205921728Y-103605466D01*
X205883633Y-103453085D01*
X205845538Y-103376895D01*
X205807442Y-103338800D01*
X205731252Y-103300704D01*
X205121728Y-104100704D02*
X205121728Y-103300704D01*
X205045538Y-103795942D02*
X204816966Y-104100704D01*
X204816966Y-103567371D02*
X205121728Y-103872133D01*
D11*
%TO.C,J8*%
X248986669Y-126577523D02*
X248986669Y-125307523D01*
X248502860Y-125307523D01*
X248381907Y-125368000D01*
X248321431Y-125428476D01*
X248260955Y-125549428D01*
X248260955Y-125730857D01*
X248321431Y-125851809D01*
X248381907Y-125912285D01*
X248502860Y-125972761D01*
X248986669Y-125972761D01*
X247353812Y-125307523D02*
X247353812Y-126214666D01*
X247414288Y-126396095D01*
X247535241Y-126517047D01*
X247716669Y-126577523D01*
X247837622Y-126577523D01*
X246870003Y-125307523D02*
X246083812Y-125307523D01*
X246507145Y-125791333D01*
X246325717Y-125791333D01*
X246204765Y-125851809D01*
X246144288Y-125912285D01*
X246083812Y-126033238D01*
X246083812Y-126335619D01*
X246144288Y-126456571D01*
X246204765Y-126517047D01*
X246325717Y-126577523D01*
X246688574Y-126577523D01*
X246809526Y-126517047D01*
X246870003Y-126456571D01*
X245297622Y-125307523D02*
X245176669Y-125307523D01*
X245055717Y-125368000D01*
X244995241Y-125428476D01*
X244934765Y-125549428D01*
X244874288Y-125791333D01*
X244874288Y-126093714D01*
X244934765Y-126335619D01*
X244995241Y-126456571D01*
X245055717Y-126517047D01*
X245176669Y-126577523D01*
X245297622Y-126577523D01*
X245418574Y-126517047D01*
X245479050Y-126456571D01*
X245539526Y-126335619D01*
X245600003Y-126093714D01*
X245600003Y-125791333D01*
X245539526Y-125549428D01*
X245479050Y-125428476D01*
X245418574Y-125368000D01*
X245297622Y-125307523D01*
X243664765Y-126577523D02*
X244390479Y-126577523D01*
X244027622Y-126577523D02*
X244027622Y-125307523D01*
X244148574Y-125488952D01*
X244269526Y-125609904D01*
X244390479Y-125670380D01*
X243422860Y-126698476D02*
X242455241Y-126698476D01*
X242334288Y-125307523D02*
X241608574Y-125307523D01*
X241971431Y-126577523D02*
X241971431Y-125307523D01*
X241185241Y-126577523D02*
X241185241Y-125307523D01*
X241185241Y-125912285D02*
X240459526Y-125912285D01*
X240459526Y-126577523D02*
X240459526Y-125307523D01*
X239612860Y-125307523D02*
X239370955Y-125307523D01*
X239250003Y-125368000D01*
X239129050Y-125488952D01*
X239068574Y-125730857D01*
X239068574Y-126154190D01*
X239129050Y-126396095D01*
X239250003Y-126517047D01*
X239370955Y-126577523D01*
X239612860Y-126577523D01*
X239733812Y-126517047D01*
X239854765Y-126396095D01*
X239915241Y-126154190D01*
X239915241Y-125730857D01*
X239854765Y-125488952D01*
X239733812Y-125368000D01*
X239612860Y-125307523D01*
X238524288Y-126577523D02*
X238524288Y-125307523D01*
X237798574Y-126577523D01*
X237798574Y-125307523D01*
X237193812Y-126577523D02*
X237193812Y-125307523D01*
X236468098Y-126577523D02*
X237012384Y-125851809D01*
X236468098Y-125307523D02*
X237193812Y-126033238D01*
X235923812Y-126577523D02*
X235923812Y-125307523D01*
X234593336Y-126456571D02*
X234653812Y-126517047D01*
X234835241Y-126577523D01*
X234956193Y-126577523D01*
X235137622Y-126517047D01*
X235258574Y-126396095D01*
X235319050Y-126275142D01*
X235379526Y-126033238D01*
X235379526Y-125851809D01*
X235319050Y-125609904D01*
X235258574Y-125488952D01*
X235137622Y-125368000D01*
X234956193Y-125307523D01*
X234835241Y-125307523D01*
X234653812Y-125368000D01*
X234593336Y-125428476D01*
X233807145Y-125307523D02*
X233565241Y-125307523D01*
X233444288Y-125368000D01*
X233323336Y-125488952D01*
X233262860Y-125730857D01*
X233262860Y-126154190D01*
X233323336Y-126396095D01*
X233444288Y-126517047D01*
X233565241Y-126577523D01*
X233807145Y-126577523D01*
X233928098Y-126517047D01*
X234049050Y-126396095D01*
X234109526Y-126154190D01*
X234109526Y-125730857D01*
X234049050Y-125488952D01*
X233928098Y-125368000D01*
X233807145Y-125307523D01*
X232718574Y-126577523D02*
X232718574Y-125307523D01*
X231992860Y-126577523D01*
X231992860Y-125307523D01*
X231388098Y-126577523D02*
X231388098Y-125307523D01*
X230662384Y-126577523D01*
X230662384Y-125307523D01*
X229513336Y-125307523D02*
X229755241Y-125307523D01*
X229876193Y-125368000D01*
X229936669Y-125428476D01*
X230057622Y-125609904D01*
X230118098Y-125851809D01*
X230118098Y-126335619D01*
X230057622Y-126456571D01*
X229997145Y-126517047D01*
X229876193Y-126577523D01*
X229634288Y-126577523D01*
X229513336Y-126517047D01*
X229452860Y-126456571D01*
X229392384Y-126335619D01*
X229392384Y-126033238D01*
X229452860Y-125912285D01*
X229513336Y-125851809D01*
X229634288Y-125791333D01*
X229876193Y-125791333D01*
X229997145Y-125851809D01*
X230057622Y-125912285D01*
X230118098Y-126033238D01*
%TO.C,J4*%
X260078388Y-84743723D02*
X260078388Y-83473723D01*
X259594579Y-83473723D01*
X259473626Y-83534200D01*
X259413150Y-83594676D01*
X259352674Y-83715628D01*
X259352674Y-83897057D01*
X259413150Y-84018009D01*
X259473626Y-84078485D01*
X259594579Y-84138961D01*
X260078388Y-84138961D01*
X258445531Y-83473723D02*
X258445531Y-84380866D01*
X258506007Y-84562295D01*
X258626960Y-84683247D01*
X258808388Y-84743723D01*
X258929341Y-84743723D01*
X257961722Y-83473723D02*
X257175531Y-83473723D01*
X257598864Y-83957533D01*
X257417436Y-83957533D01*
X257296484Y-84018009D01*
X257236007Y-84078485D01*
X257175531Y-84199438D01*
X257175531Y-84501819D01*
X257236007Y-84622771D01*
X257296484Y-84683247D01*
X257417436Y-84743723D01*
X257780293Y-84743723D01*
X257901245Y-84683247D01*
X257961722Y-84622771D01*
X256389341Y-83473723D02*
X256268388Y-83473723D01*
X256147436Y-83534200D01*
X256086960Y-83594676D01*
X256026484Y-83715628D01*
X255966007Y-83957533D01*
X255966007Y-84259914D01*
X256026484Y-84501819D01*
X256086960Y-84622771D01*
X256147436Y-84683247D01*
X256268388Y-84743723D01*
X256389341Y-84743723D01*
X256510293Y-84683247D01*
X256570769Y-84622771D01*
X256631245Y-84501819D01*
X256691722Y-84259914D01*
X256691722Y-83957533D01*
X256631245Y-83715628D01*
X256570769Y-83594676D01*
X256510293Y-83534200D01*
X256389341Y-83473723D01*
X254756484Y-84743723D02*
X255482198Y-84743723D01*
X255119341Y-84743723D02*
X255119341Y-83473723D01*
X255240293Y-83655152D01*
X255361245Y-83776104D01*
X255482198Y-83836580D01*
X254514579Y-84864676D02*
X253546960Y-84864676D01*
X253426007Y-83473723D02*
X252700293Y-83473723D01*
X253063150Y-84743723D02*
X253063150Y-83473723D01*
X252276960Y-84743723D02*
X252276960Y-83473723D01*
X252276960Y-84078485D02*
X251551245Y-84078485D01*
X251551245Y-84743723D02*
X251551245Y-83473723D01*
X250704579Y-83473723D02*
X250462674Y-83473723D01*
X250341722Y-83534200D01*
X250220769Y-83655152D01*
X250160293Y-83897057D01*
X250160293Y-84320390D01*
X250220769Y-84562295D01*
X250341722Y-84683247D01*
X250462674Y-84743723D01*
X250704579Y-84743723D01*
X250825531Y-84683247D01*
X250946484Y-84562295D01*
X251006960Y-84320390D01*
X251006960Y-83897057D01*
X250946484Y-83655152D01*
X250825531Y-83534200D01*
X250704579Y-83473723D01*
X249616007Y-84743723D02*
X249616007Y-83473723D01*
X248890293Y-84743723D01*
X248890293Y-83473723D01*
X248285531Y-84743723D02*
X248285531Y-83473723D01*
X247559817Y-84743723D02*
X248104103Y-84018009D01*
X247559817Y-83473723D02*
X248285531Y-84199438D01*
X247015531Y-84743723D02*
X247015531Y-83473723D01*
X245685055Y-84622771D02*
X245745531Y-84683247D01*
X245926960Y-84743723D01*
X246047912Y-84743723D01*
X246229341Y-84683247D01*
X246350293Y-84562295D01*
X246410769Y-84441342D01*
X246471245Y-84199438D01*
X246471245Y-84018009D01*
X246410769Y-83776104D01*
X246350293Y-83655152D01*
X246229341Y-83534200D01*
X246047912Y-83473723D01*
X245926960Y-83473723D01*
X245745531Y-83534200D01*
X245685055Y-83594676D01*
X244898864Y-83473723D02*
X244656960Y-83473723D01*
X244536007Y-83534200D01*
X244415055Y-83655152D01*
X244354579Y-83897057D01*
X244354579Y-84320390D01*
X244415055Y-84562295D01*
X244536007Y-84683247D01*
X244656960Y-84743723D01*
X244898864Y-84743723D01*
X245019817Y-84683247D01*
X245140769Y-84562295D01*
X245201245Y-84320390D01*
X245201245Y-83897057D01*
X245140769Y-83655152D01*
X245019817Y-83534200D01*
X244898864Y-83473723D01*
X243810293Y-84743723D02*
X243810293Y-83473723D01*
X243084579Y-84743723D01*
X243084579Y-83473723D01*
X242479817Y-84743723D02*
X242479817Y-83473723D01*
X241754103Y-84743723D01*
X241754103Y-83473723D01*
X240605055Y-83473723D02*
X240846960Y-83473723D01*
X240967912Y-83534200D01*
X241028388Y-83594676D01*
X241149341Y-83776104D01*
X241209817Y-84018009D01*
X241209817Y-84501819D01*
X241149341Y-84622771D01*
X241088864Y-84683247D01*
X240967912Y-84743723D01*
X240726007Y-84743723D01*
X240605055Y-84683247D01*
X240544579Y-84622771D01*
X240484103Y-84501819D01*
X240484103Y-84199438D01*
X240544579Y-84078485D01*
X240605055Y-84018009D01*
X240726007Y-83957533D01*
X240967912Y-83957533D01*
X241088864Y-84018009D01*
X241149341Y-84078485D01*
X241209817Y-84199438D01*
%TO.C,J9*%
X193530004Y-126564523D02*
X193530004Y-125294523D01*
X193046195Y-125294523D01*
X192925242Y-125355000D01*
X192864766Y-125415476D01*
X192804290Y-125536428D01*
X192804290Y-125717857D01*
X192864766Y-125838809D01*
X192925242Y-125899285D01*
X193046195Y-125959761D01*
X193530004Y-125959761D01*
X191897147Y-125294523D02*
X191897147Y-126201666D01*
X191957623Y-126383095D01*
X192078576Y-126504047D01*
X192260004Y-126564523D01*
X192380957Y-126564523D01*
X191413338Y-125294523D02*
X190627147Y-125294523D01*
X191050480Y-125778333D01*
X190869052Y-125778333D01*
X190748100Y-125838809D01*
X190687623Y-125899285D01*
X190627147Y-126020238D01*
X190627147Y-126322619D01*
X190687623Y-126443571D01*
X190748100Y-126504047D01*
X190869052Y-126564523D01*
X191231909Y-126564523D01*
X191352861Y-126504047D01*
X191413338Y-126443571D01*
X189840957Y-125294523D02*
X189720004Y-125294523D01*
X189599052Y-125355000D01*
X189538576Y-125415476D01*
X189478100Y-125536428D01*
X189417623Y-125778333D01*
X189417623Y-126080714D01*
X189478100Y-126322619D01*
X189538576Y-126443571D01*
X189599052Y-126504047D01*
X189720004Y-126564523D01*
X189840957Y-126564523D01*
X189961909Y-126504047D01*
X190022385Y-126443571D01*
X190082861Y-126322619D01*
X190143338Y-126080714D01*
X190143338Y-125778333D01*
X190082861Y-125536428D01*
X190022385Y-125415476D01*
X189961909Y-125355000D01*
X189840957Y-125294523D01*
X188208100Y-126564523D02*
X188933814Y-126564523D01*
X188570957Y-126564523D02*
X188570957Y-125294523D01*
X188691909Y-125475952D01*
X188812861Y-125596904D01*
X188933814Y-125657380D01*
X187966195Y-126685476D02*
X186998576Y-126685476D01*
X186877623Y-125294523D02*
X186151909Y-125294523D01*
X186514766Y-126564523D02*
X186514766Y-125294523D01*
X185728576Y-126564523D02*
X185728576Y-125294523D01*
X185728576Y-125899285D02*
X185002861Y-125899285D01*
X185002861Y-126564523D02*
X185002861Y-125294523D01*
X184156195Y-125294523D02*
X183914290Y-125294523D01*
X183793338Y-125355000D01*
X183672385Y-125475952D01*
X183611909Y-125717857D01*
X183611909Y-126141190D01*
X183672385Y-126383095D01*
X183793338Y-126504047D01*
X183914290Y-126564523D01*
X184156195Y-126564523D01*
X184277147Y-126504047D01*
X184398100Y-126383095D01*
X184458576Y-126141190D01*
X184458576Y-125717857D01*
X184398100Y-125475952D01*
X184277147Y-125355000D01*
X184156195Y-125294523D01*
X183067623Y-126564523D02*
X183067623Y-125294523D01*
X182341909Y-126564523D01*
X182341909Y-125294523D01*
X181737147Y-126564523D02*
X181737147Y-125294523D01*
X181011433Y-126564523D02*
X181555719Y-125838809D01*
X181011433Y-125294523D02*
X181737147Y-126020238D01*
X180467147Y-126564523D02*
X180467147Y-125294523D01*
X179136671Y-126443571D02*
X179197147Y-126504047D01*
X179378576Y-126564523D01*
X179499528Y-126564523D01*
X179680957Y-126504047D01*
X179801909Y-126383095D01*
X179862385Y-126262142D01*
X179922861Y-126020238D01*
X179922861Y-125838809D01*
X179862385Y-125596904D01*
X179801909Y-125475952D01*
X179680957Y-125355000D01*
X179499528Y-125294523D01*
X179378576Y-125294523D01*
X179197147Y-125355000D01*
X179136671Y-125415476D01*
X178350480Y-125294523D02*
X178108576Y-125294523D01*
X177987623Y-125355000D01*
X177866671Y-125475952D01*
X177806195Y-125717857D01*
X177806195Y-126141190D01*
X177866671Y-126383095D01*
X177987623Y-126504047D01*
X178108576Y-126564523D01*
X178350480Y-126564523D01*
X178471433Y-126504047D01*
X178592385Y-126383095D01*
X178652861Y-126141190D01*
X178652861Y-125717857D01*
X178592385Y-125475952D01*
X178471433Y-125355000D01*
X178350480Y-125294523D01*
X177261909Y-126564523D02*
X177261909Y-125294523D01*
X176536195Y-126564523D01*
X176536195Y-125294523D01*
X175931433Y-126564523D02*
X175931433Y-125294523D01*
X175205719Y-126564523D01*
X175205719Y-125294523D01*
X174056671Y-125294523D02*
X174298576Y-125294523D01*
X174419528Y-125355000D01*
X174480004Y-125415476D01*
X174600957Y-125596904D01*
X174661433Y-125838809D01*
X174661433Y-126322619D01*
X174600957Y-126443571D01*
X174540480Y-126504047D01*
X174419528Y-126564523D01*
X174177623Y-126564523D01*
X174056671Y-126504047D01*
X173996195Y-126443571D01*
X173935719Y-126322619D01*
X173935719Y-126020238D01*
X173996195Y-125899285D01*
X174056671Y-125838809D01*
X174177623Y-125778333D01*
X174419528Y-125778333D01*
X174540480Y-125838809D01*
X174600957Y-125899285D01*
X174661433Y-126020238D01*
%TO.C,J2*%
X260078388Y-61731323D02*
X260078388Y-60461323D01*
X259594579Y-60461323D01*
X259473626Y-60521800D01*
X259413150Y-60582276D01*
X259352674Y-60703228D01*
X259352674Y-60884657D01*
X259413150Y-61005609D01*
X259473626Y-61066085D01*
X259594579Y-61126561D01*
X260078388Y-61126561D01*
X258445531Y-60461323D02*
X258445531Y-61368466D01*
X258506007Y-61549895D01*
X258626960Y-61670847D01*
X258808388Y-61731323D01*
X258929341Y-61731323D01*
X257961722Y-60461323D02*
X257175531Y-60461323D01*
X257598864Y-60945133D01*
X257417436Y-60945133D01*
X257296484Y-61005609D01*
X257236007Y-61066085D01*
X257175531Y-61187038D01*
X257175531Y-61489419D01*
X257236007Y-61610371D01*
X257296484Y-61670847D01*
X257417436Y-61731323D01*
X257780293Y-61731323D01*
X257901245Y-61670847D01*
X257961722Y-61610371D01*
X256389341Y-60461323D02*
X256268388Y-60461323D01*
X256147436Y-60521800D01*
X256086960Y-60582276D01*
X256026484Y-60703228D01*
X255966007Y-60945133D01*
X255966007Y-61247514D01*
X256026484Y-61489419D01*
X256086960Y-61610371D01*
X256147436Y-61670847D01*
X256268388Y-61731323D01*
X256389341Y-61731323D01*
X256510293Y-61670847D01*
X256570769Y-61610371D01*
X256631245Y-61489419D01*
X256691722Y-61247514D01*
X256691722Y-60945133D01*
X256631245Y-60703228D01*
X256570769Y-60582276D01*
X256510293Y-60521800D01*
X256389341Y-60461323D01*
X254756484Y-61731323D02*
X255482198Y-61731323D01*
X255119341Y-61731323D02*
X255119341Y-60461323D01*
X255240293Y-60642752D01*
X255361245Y-60763704D01*
X255482198Y-60824180D01*
X254514579Y-61852276D02*
X253546960Y-61852276D01*
X253426007Y-60461323D02*
X252700293Y-60461323D01*
X253063150Y-61731323D02*
X253063150Y-60461323D01*
X252276960Y-61731323D02*
X252276960Y-60461323D01*
X252276960Y-61066085D02*
X251551245Y-61066085D01*
X251551245Y-61731323D02*
X251551245Y-60461323D01*
X250704579Y-60461323D02*
X250462674Y-60461323D01*
X250341722Y-60521800D01*
X250220769Y-60642752D01*
X250160293Y-60884657D01*
X250160293Y-61307990D01*
X250220769Y-61549895D01*
X250341722Y-61670847D01*
X250462674Y-61731323D01*
X250704579Y-61731323D01*
X250825531Y-61670847D01*
X250946484Y-61549895D01*
X251006960Y-61307990D01*
X251006960Y-60884657D01*
X250946484Y-60642752D01*
X250825531Y-60521800D01*
X250704579Y-60461323D01*
X249616007Y-61731323D02*
X249616007Y-60461323D01*
X248890293Y-61731323D01*
X248890293Y-60461323D01*
X248285531Y-61731323D02*
X248285531Y-60461323D01*
X247559817Y-61731323D02*
X248104103Y-61005609D01*
X247559817Y-60461323D02*
X248285531Y-61187038D01*
X247015531Y-61731323D02*
X247015531Y-60461323D01*
X245685055Y-61610371D02*
X245745531Y-61670847D01*
X245926960Y-61731323D01*
X246047912Y-61731323D01*
X246229341Y-61670847D01*
X246350293Y-61549895D01*
X246410769Y-61428942D01*
X246471245Y-61187038D01*
X246471245Y-61005609D01*
X246410769Y-60763704D01*
X246350293Y-60642752D01*
X246229341Y-60521800D01*
X246047912Y-60461323D01*
X245926960Y-60461323D01*
X245745531Y-60521800D01*
X245685055Y-60582276D01*
X244898864Y-60461323D02*
X244656960Y-60461323D01*
X244536007Y-60521800D01*
X244415055Y-60642752D01*
X244354579Y-60884657D01*
X244354579Y-61307990D01*
X244415055Y-61549895D01*
X244536007Y-61670847D01*
X244656960Y-61731323D01*
X244898864Y-61731323D01*
X245019817Y-61670847D01*
X245140769Y-61549895D01*
X245201245Y-61307990D01*
X245201245Y-60884657D01*
X245140769Y-60642752D01*
X245019817Y-60521800D01*
X244898864Y-60461323D01*
X243810293Y-61731323D02*
X243810293Y-60461323D01*
X243084579Y-61731323D01*
X243084579Y-60461323D01*
X242479817Y-61731323D02*
X242479817Y-60461323D01*
X241754103Y-61731323D01*
X241754103Y-60461323D01*
X240605055Y-60461323D02*
X240846960Y-60461323D01*
X240967912Y-60521800D01*
X241028388Y-60582276D01*
X241149341Y-60763704D01*
X241209817Y-61005609D01*
X241209817Y-61489419D01*
X241149341Y-61610371D01*
X241088864Y-61670847D01*
X240967912Y-61731323D01*
X240726007Y-61731323D01*
X240605055Y-61670847D01*
X240544579Y-61610371D01*
X240484103Y-61489419D01*
X240484103Y-61187038D01*
X240544579Y-61066085D01*
X240605055Y-61005609D01*
X240726007Y-60945133D01*
X240967912Y-60945133D01*
X241088864Y-61005609D01*
X241149341Y-61066085D01*
X241209817Y-61187038D01*
D16*
%TO.C,R57*%
X184239290Y-58110804D02*
X184696433Y-58110804D01*
X184467861Y-58110804D02*
X184467861Y-57310804D01*
X184544052Y-57425090D01*
X184620242Y-57501280D01*
X184696433Y-57539376D01*
X183744052Y-57310804D02*
X183667861Y-57310804D01*
X183591671Y-57348900D01*
X183553576Y-57386995D01*
X183515480Y-57463185D01*
X183477385Y-57615566D01*
X183477385Y-57806042D01*
X183515480Y-57958423D01*
X183553576Y-58034614D01*
X183591671Y-58072709D01*
X183667861Y-58110804D01*
X183744052Y-58110804D01*
X183820242Y-58072709D01*
X183858338Y-58034614D01*
X183896433Y-57958423D01*
X183934528Y-57806042D01*
X183934528Y-57615566D01*
X183896433Y-57463185D01*
X183858338Y-57386995D01*
X183820242Y-57348900D01*
X183744052Y-57310804D01*
X183134528Y-58110804D02*
X183134528Y-57310804D01*
X183058338Y-57806042D02*
X182829766Y-58110804D01*
X182829766Y-57577471D02*
X183134528Y-57882233D01*
%TO.C,R52*%
X228218090Y-58110804D02*
X228675233Y-58110804D01*
X228446661Y-58110804D02*
X228446661Y-57310804D01*
X228522852Y-57425090D01*
X228599042Y-57501280D01*
X228675233Y-57539376D01*
X227722852Y-57310804D02*
X227646661Y-57310804D01*
X227570471Y-57348900D01*
X227532376Y-57386995D01*
X227494280Y-57463185D01*
X227456185Y-57615566D01*
X227456185Y-57806042D01*
X227494280Y-57958423D01*
X227532376Y-58034614D01*
X227570471Y-58072709D01*
X227646661Y-58110804D01*
X227722852Y-58110804D01*
X227799042Y-58072709D01*
X227837138Y-58034614D01*
X227875233Y-57958423D01*
X227913328Y-57806042D01*
X227913328Y-57615566D01*
X227875233Y-57463185D01*
X227837138Y-57386995D01*
X227799042Y-57348900D01*
X227722852Y-57310804D01*
X227113328Y-58110804D02*
X227113328Y-57310804D01*
X227037138Y-57806042D02*
X226808566Y-58110804D01*
X226808566Y-57577471D02*
X227113328Y-57882233D01*
%TO.C,R56*%
X206228690Y-58110804D02*
X206685833Y-58110804D01*
X206457261Y-58110804D02*
X206457261Y-57310804D01*
X206533452Y-57425090D01*
X206609642Y-57501280D01*
X206685833Y-57539376D01*
X205733452Y-57310804D02*
X205657261Y-57310804D01*
X205581071Y-57348900D01*
X205542976Y-57386995D01*
X205504880Y-57463185D01*
X205466785Y-57615566D01*
X205466785Y-57806042D01*
X205504880Y-57958423D01*
X205542976Y-58034614D01*
X205581071Y-58072709D01*
X205657261Y-58110804D01*
X205733452Y-58110804D01*
X205809642Y-58072709D01*
X205847738Y-58034614D01*
X205885833Y-57958423D01*
X205923928Y-57806042D01*
X205923928Y-57615566D01*
X205885833Y-57463185D01*
X205847738Y-57386995D01*
X205809642Y-57348900D01*
X205733452Y-57310804D01*
X205123928Y-58110804D02*
X205123928Y-57310804D01*
X205047738Y-57806042D02*
X204819166Y-58110804D01*
X204819166Y-57577471D02*
X205123928Y-57882233D01*
%TO.C,R59*%
X184237090Y-81105804D02*
X184694233Y-81105804D01*
X184465661Y-81105804D02*
X184465661Y-80305804D01*
X184541852Y-80420090D01*
X184618042Y-80496280D01*
X184694233Y-80534376D01*
X183741852Y-80305804D02*
X183665661Y-80305804D01*
X183589471Y-80343900D01*
X183551376Y-80381995D01*
X183513280Y-80458185D01*
X183475185Y-80610566D01*
X183475185Y-80801042D01*
X183513280Y-80953423D01*
X183551376Y-81029614D01*
X183589471Y-81067709D01*
X183665661Y-81105804D01*
X183741852Y-81105804D01*
X183818042Y-81067709D01*
X183856138Y-81029614D01*
X183894233Y-80953423D01*
X183932328Y-80801042D01*
X183932328Y-80610566D01*
X183894233Y-80458185D01*
X183856138Y-80381995D01*
X183818042Y-80343900D01*
X183741852Y-80305804D01*
X183132328Y-81105804D02*
X183132328Y-80305804D01*
X183056138Y-80801042D02*
X182827566Y-81105804D01*
X182827566Y-80572471D02*
X183132328Y-80877233D01*
D11*
%TO.C,J6*%
X260078388Y-126577523D02*
X260078388Y-125307523D01*
X259594579Y-125307523D01*
X259473626Y-125368000D01*
X259413150Y-125428476D01*
X259352674Y-125549428D01*
X259352674Y-125730857D01*
X259413150Y-125851809D01*
X259473626Y-125912285D01*
X259594579Y-125972761D01*
X260078388Y-125972761D01*
X258445531Y-125307523D02*
X258445531Y-126214666D01*
X258506007Y-126396095D01*
X258626960Y-126517047D01*
X258808388Y-126577523D01*
X258929341Y-126577523D01*
X257961722Y-125307523D02*
X257175531Y-125307523D01*
X257598864Y-125791333D01*
X257417436Y-125791333D01*
X257296484Y-125851809D01*
X257236007Y-125912285D01*
X257175531Y-126033238D01*
X257175531Y-126335619D01*
X257236007Y-126456571D01*
X257296484Y-126517047D01*
X257417436Y-126577523D01*
X257780293Y-126577523D01*
X257901245Y-126517047D01*
X257961722Y-126456571D01*
X256389341Y-125307523D02*
X256268388Y-125307523D01*
X256147436Y-125368000D01*
X256086960Y-125428476D01*
X256026484Y-125549428D01*
X255966007Y-125791333D01*
X255966007Y-126093714D01*
X256026484Y-126335619D01*
X256086960Y-126456571D01*
X256147436Y-126517047D01*
X256268388Y-126577523D01*
X256389341Y-126577523D01*
X256510293Y-126517047D01*
X256570769Y-126456571D01*
X256631245Y-126335619D01*
X256691722Y-126093714D01*
X256691722Y-125791333D01*
X256631245Y-125549428D01*
X256570769Y-125428476D01*
X256510293Y-125368000D01*
X256389341Y-125307523D01*
X254756484Y-126577523D02*
X255482198Y-126577523D01*
X255119341Y-126577523D02*
X255119341Y-125307523D01*
X255240293Y-125488952D01*
X255361245Y-125609904D01*
X255482198Y-125670380D01*
X254514579Y-126698476D02*
X253546960Y-126698476D01*
X253426007Y-125307523D02*
X252700293Y-125307523D01*
X253063150Y-126577523D02*
X253063150Y-125307523D01*
X252276960Y-126577523D02*
X252276960Y-125307523D01*
X252276960Y-125912285D02*
X251551245Y-125912285D01*
X251551245Y-126577523D02*
X251551245Y-125307523D01*
X250704579Y-125307523D02*
X250462674Y-125307523D01*
X250341722Y-125368000D01*
X250220769Y-125488952D01*
X250160293Y-125730857D01*
X250160293Y-126154190D01*
X250220769Y-126396095D01*
X250341722Y-126517047D01*
X250462674Y-126577523D01*
X250704579Y-126577523D01*
X250825531Y-126517047D01*
X250946484Y-126396095D01*
X251006960Y-126154190D01*
X251006960Y-125730857D01*
X250946484Y-125488952D01*
X250825531Y-125368000D01*
X250704579Y-125307523D01*
X249616007Y-126577523D02*
X249616007Y-125307523D01*
X248890293Y-126577523D01*
X248890293Y-125307523D01*
X248285531Y-126577523D02*
X248285531Y-125307523D01*
X247559817Y-126577523D02*
X248104103Y-125851809D01*
X247559817Y-125307523D02*
X248285531Y-126033238D01*
X247015531Y-126577523D02*
X247015531Y-125307523D01*
X245685055Y-126456571D02*
X245745531Y-126517047D01*
X245926960Y-126577523D01*
X246047912Y-126577523D01*
X246229341Y-126517047D01*
X246350293Y-126396095D01*
X246410769Y-126275142D01*
X246471245Y-126033238D01*
X246471245Y-125851809D01*
X246410769Y-125609904D01*
X246350293Y-125488952D01*
X246229341Y-125368000D01*
X246047912Y-125307523D01*
X245926960Y-125307523D01*
X245745531Y-125368000D01*
X245685055Y-125428476D01*
X244898864Y-125307523D02*
X244656960Y-125307523D01*
X244536007Y-125368000D01*
X244415055Y-125488952D01*
X244354579Y-125730857D01*
X244354579Y-126154190D01*
X244415055Y-126396095D01*
X244536007Y-126517047D01*
X244656960Y-126577523D01*
X244898864Y-126577523D01*
X245019817Y-126517047D01*
X245140769Y-126396095D01*
X245201245Y-126154190D01*
X245201245Y-125730857D01*
X245140769Y-125488952D01*
X245019817Y-125368000D01*
X244898864Y-125307523D01*
X243810293Y-126577523D02*
X243810293Y-125307523D01*
X243084579Y-126577523D01*
X243084579Y-125307523D01*
X242479817Y-126577523D02*
X242479817Y-125307523D01*
X241754103Y-126577523D01*
X241754103Y-125307523D01*
X240605055Y-125307523D02*
X240846960Y-125307523D01*
X240967912Y-125368000D01*
X241028388Y-125428476D01*
X241149341Y-125609904D01*
X241209817Y-125851809D01*
X241209817Y-126335619D01*
X241149341Y-126456571D01*
X241088864Y-126517047D01*
X240967912Y-126577523D01*
X240726007Y-126577523D01*
X240605055Y-126517047D01*
X240544579Y-126456571D01*
X240484103Y-126335619D01*
X240484103Y-126033238D01*
X240544579Y-125912285D01*
X240605055Y-125851809D01*
X240726007Y-125791333D01*
X240967912Y-125791333D01*
X241088864Y-125851809D01*
X241149341Y-125912285D01*
X241209817Y-126033238D01*
%TO.C,J10*%
X215712670Y-126577523D02*
X215712670Y-125307523D01*
X215228861Y-125307523D01*
X215107908Y-125368000D01*
X215047432Y-125428476D01*
X214986956Y-125549428D01*
X214986956Y-125730857D01*
X215047432Y-125851809D01*
X215107908Y-125912285D01*
X215228861Y-125972761D01*
X215712670Y-125972761D01*
X214079813Y-125307523D02*
X214079813Y-126214666D01*
X214140289Y-126396095D01*
X214261242Y-126517047D01*
X214442670Y-126577523D01*
X214563623Y-126577523D01*
X213596004Y-125307523D02*
X212809813Y-125307523D01*
X213233146Y-125791333D01*
X213051718Y-125791333D01*
X212930766Y-125851809D01*
X212870289Y-125912285D01*
X212809813Y-126033238D01*
X212809813Y-126335619D01*
X212870289Y-126456571D01*
X212930766Y-126517047D01*
X213051718Y-126577523D01*
X213414575Y-126577523D01*
X213535527Y-126517047D01*
X213596004Y-126456571D01*
X212023623Y-125307523D02*
X211902670Y-125307523D01*
X211781718Y-125368000D01*
X211721242Y-125428476D01*
X211660766Y-125549428D01*
X211600289Y-125791333D01*
X211600289Y-126093714D01*
X211660766Y-126335619D01*
X211721242Y-126456571D01*
X211781718Y-126517047D01*
X211902670Y-126577523D01*
X212023623Y-126577523D01*
X212144575Y-126517047D01*
X212205051Y-126456571D01*
X212265527Y-126335619D01*
X212326004Y-126093714D01*
X212326004Y-125791333D01*
X212265527Y-125549428D01*
X212205051Y-125428476D01*
X212144575Y-125368000D01*
X212023623Y-125307523D01*
X210390766Y-126577523D02*
X211116480Y-126577523D01*
X210753623Y-126577523D02*
X210753623Y-125307523D01*
X210874575Y-125488952D01*
X210995527Y-125609904D01*
X211116480Y-125670380D01*
X210148861Y-126698476D02*
X209181242Y-126698476D01*
X209060289Y-125307523D02*
X208334575Y-125307523D01*
X208697432Y-126577523D02*
X208697432Y-125307523D01*
X207911242Y-126577523D02*
X207911242Y-125307523D01*
X207911242Y-125912285D02*
X207185527Y-125912285D01*
X207185527Y-126577523D02*
X207185527Y-125307523D01*
X206338861Y-125307523D02*
X206096956Y-125307523D01*
X205976004Y-125368000D01*
X205855051Y-125488952D01*
X205794575Y-125730857D01*
X205794575Y-126154190D01*
X205855051Y-126396095D01*
X205976004Y-126517047D01*
X206096956Y-126577523D01*
X206338861Y-126577523D01*
X206459813Y-126517047D01*
X206580766Y-126396095D01*
X206641242Y-126154190D01*
X206641242Y-125730857D01*
X206580766Y-125488952D01*
X206459813Y-125368000D01*
X206338861Y-125307523D01*
X205250289Y-126577523D02*
X205250289Y-125307523D01*
X204524575Y-126577523D01*
X204524575Y-125307523D01*
X203919813Y-126577523D02*
X203919813Y-125307523D01*
X203194099Y-126577523D02*
X203738385Y-125851809D01*
X203194099Y-125307523D02*
X203919813Y-126033238D01*
X202649813Y-126577523D02*
X202649813Y-125307523D01*
X201319337Y-126456571D02*
X201379813Y-126517047D01*
X201561242Y-126577523D01*
X201682194Y-126577523D01*
X201863623Y-126517047D01*
X201984575Y-126396095D01*
X202045051Y-126275142D01*
X202105527Y-126033238D01*
X202105527Y-125851809D01*
X202045051Y-125609904D01*
X201984575Y-125488952D01*
X201863623Y-125368000D01*
X201682194Y-125307523D01*
X201561242Y-125307523D01*
X201379813Y-125368000D01*
X201319337Y-125428476D01*
X200533146Y-125307523D02*
X200291242Y-125307523D01*
X200170289Y-125368000D01*
X200049337Y-125488952D01*
X199988861Y-125730857D01*
X199988861Y-126154190D01*
X200049337Y-126396095D01*
X200170289Y-126517047D01*
X200291242Y-126577523D01*
X200533146Y-126577523D01*
X200654099Y-126517047D01*
X200775051Y-126396095D01*
X200835527Y-126154190D01*
X200835527Y-125730857D01*
X200775051Y-125488952D01*
X200654099Y-125368000D01*
X200533146Y-125307523D01*
X199444575Y-126577523D02*
X199444575Y-125307523D01*
X198718861Y-126577523D01*
X198718861Y-125307523D01*
X198114099Y-126577523D02*
X198114099Y-125307523D01*
X197388385Y-126577523D01*
X197388385Y-125307523D01*
X196239337Y-125307523D02*
X196481242Y-125307523D01*
X196602194Y-125368000D01*
X196662670Y-125428476D01*
X196783623Y-125609904D01*
X196844099Y-125851809D01*
X196844099Y-126335619D01*
X196783623Y-126456571D01*
X196723146Y-126517047D01*
X196602194Y-126577523D01*
X196360289Y-126577523D01*
X196239337Y-126517047D01*
X196178861Y-126456571D01*
X196118385Y-126335619D01*
X196118385Y-126033238D01*
X196178861Y-125912285D01*
X196239337Y-125851809D01*
X196360289Y-125791333D01*
X196602194Y-125791333D01*
X196723146Y-125851809D01*
X196783623Y-125912285D01*
X196844099Y-126033238D01*
%TO.C,J1*%
X260078388Y-38738585D02*
X260078388Y-37468585D01*
X259594579Y-37468585D01*
X259473626Y-37529062D01*
X259413150Y-37589538D01*
X259352674Y-37710490D01*
X259352674Y-37891919D01*
X259413150Y-38012871D01*
X259473626Y-38073347D01*
X259594579Y-38133823D01*
X260078388Y-38133823D01*
X258445531Y-37468585D02*
X258445531Y-38375728D01*
X258506007Y-38557157D01*
X258626960Y-38678109D01*
X258808388Y-38738585D01*
X258929341Y-38738585D01*
X257961722Y-37468585D02*
X257175531Y-37468585D01*
X257598864Y-37952395D01*
X257417436Y-37952395D01*
X257296484Y-38012871D01*
X257236007Y-38073347D01*
X257175531Y-38194300D01*
X257175531Y-38496681D01*
X257236007Y-38617633D01*
X257296484Y-38678109D01*
X257417436Y-38738585D01*
X257780293Y-38738585D01*
X257901245Y-38678109D01*
X257961722Y-38617633D01*
X256389341Y-37468585D02*
X256268388Y-37468585D01*
X256147436Y-37529062D01*
X256086960Y-37589538D01*
X256026484Y-37710490D01*
X255966007Y-37952395D01*
X255966007Y-38254776D01*
X256026484Y-38496681D01*
X256086960Y-38617633D01*
X256147436Y-38678109D01*
X256268388Y-38738585D01*
X256389341Y-38738585D01*
X256510293Y-38678109D01*
X256570769Y-38617633D01*
X256631245Y-38496681D01*
X256691722Y-38254776D01*
X256691722Y-37952395D01*
X256631245Y-37710490D01*
X256570769Y-37589538D01*
X256510293Y-37529062D01*
X256389341Y-37468585D01*
X254756484Y-38738585D02*
X255482198Y-38738585D01*
X255119341Y-38738585D02*
X255119341Y-37468585D01*
X255240293Y-37650014D01*
X255361245Y-37770966D01*
X255482198Y-37831442D01*
X254514579Y-38859538D02*
X253546960Y-38859538D01*
X253426007Y-37468585D02*
X252700293Y-37468585D01*
X253063150Y-38738585D02*
X253063150Y-37468585D01*
X252276960Y-38738585D02*
X252276960Y-37468585D01*
X252276960Y-38073347D02*
X251551245Y-38073347D01*
X251551245Y-38738585D02*
X251551245Y-37468585D01*
X250704579Y-37468585D02*
X250462674Y-37468585D01*
X250341722Y-37529062D01*
X250220769Y-37650014D01*
X250160293Y-37891919D01*
X250160293Y-38315252D01*
X250220769Y-38557157D01*
X250341722Y-38678109D01*
X250462674Y-38738585D01*
X250704579Y-38738585D01*
X250825531Y-38678109D01*
X250946484Y-38557157D01*
X251006960Y-38315252D01*
X251006960Y-37891919D01*
X250946484Y-37650014D01*
X250825531Y-37529062D01*
X250704579Y-37468585D01*
X249616007Y-38738585D02*
X249616007Y-37468585D01*
X248890293Y-38738585D01*
X248890293Y-37468585D01*
X248285531Y-38738585D02*
X248285531Y-37468585D01*
X247559817Y-38738585D02*
X248104103Y-38012871D01*
X247559817Y-37468585D02*
X248285531Y-38194300D01*
X247015531Y-38738585D02*
X247015531Y-37468585D01*
X245685055Y-38617633D02*
X245745531Y-38678109D01*
X245926960Y-38738585D01*
X246047912Y-38738585D01*
X246229341Y-38678109D01*
X246350293Y-38557157D01*
X246410769Y-38436204D01*
X246471245Y-38194300D01*
X246471245Y-38012871D01*
X246410769Y-37770966D01*
X246350293Y-37650014D01*
X246229341Y-37529062D01*
X246047912Y-37468585D01*
X245926960Y-37468585D01*
X245745531Y-37529062D01*
X245685055Y-37589538D01*
X244898864Y-37468585D02*
X244656960Y-37468585D01*
X244536007Y-37529062D01*
X244415055Y-37650014D01*
X244354579Y-37891919D01*
X244354579Y-38315252D01*
X244415055Y-38557157D01*
X244536007Y-38678109D01*
X244656960Y-38738585D01*
X244898864Y-38738585D01*
X245019817Y-38678109D01*
X245140769Y-38557157D01*
X245201245Y-38315252D01*
X245201245Y-37891919D01*
X245140769Y-37650014D01*
X245019817Y-37529062D01*
X244898864Y-37468585D01*
X243810293Y-38738585D02*
X243810293Y-37468585D01*
X243084579Y-38738585D01*
X243084579Y-37468585D01*
X242479817Y-38738585D02*
X242479817Y-37468585D01*
X241754103Y-38738585D01*
X241754103Y-37468585D01*
X240605055Y-37468585D02*
X240846960Y-37468585D01*
X240967912Y-37529062D01*
X241028388Y-37589538D01*
X241149341Y-37770966D01*
X241209817Y-38012871D01*
X241209817Y-38496681D01*
X241149341Y-38617633D01*
X241088864Y-38678109D01*
X240967912Y-38738585D01*
X240726007Y-38738585D01*
X240605055Y-38678109D01*
X240544579Y-38617633D01*
X240484103Y-38496681D01*
X240484103Y-38194300D01*
X240544579Y-38073347D01*
X240605055Y-38012871D01*
X240726007Y-37952395D01*
X240967912Y-37952395D01*
X241088864Y-38012871D01*
X241149341Y-38073347D01*
X241209817Y-38194300D01*
%TO.C,J7*%
X237895336Y-126577523D02*
X237895336Y-125307523D01*
X237411527Y-125307523D01*
X237290574Y-125368000D01*
X237230098Y-125428476D01*
X237169622Y-125549428D01*
X237169622Y-125730857D01*
X237230098Y-125851809D01*
X237290574Y-125912285D01*
X237411527Y-125972761D01*
X237895336Y-125972761D01*
X236262479Y-125307523D02*
X236262479Y-126214666D01*
X236322955Y-126396095D01*
X236443908Y-126517047D01*
X236625336Y-126577523D01*
X236746289Y-126577523D01*
X235778670Y-125307523D02*
X234992479Y-125307523D01*
X235415812Y-125791333D01*
X235234384Y-125791333D01*
X235113432Y-125851809D01*
X235052955Y-125912285D01*
X234992479Y-126033238D01*
X234992479Y-126335619D01*
X235052955Y-126456571D01*
X235113432Y-126517047D01*
X235234384Y-126577523D01*
X235597241Y-126577523D01*
X235718193Y-126517047D01*
X235778670Y-126456571D01*
X234206289Y-125307523D02*
X234085336Y-125307523D01*
X233964384Y-125368000D01*
X233903908Y-125428476D01*
X233843432Y-125549428D01*
X233782955Y-125791333D01*
X233782955Y-126093714D01*
X233843432Y-126335619D01*
X233903908Y-126456571D01*
X233964384Y-126517047D01*
X234085336Y-126577523D01*
X234206289Y-126577523D01*
X234327241Y-126517047D01*
X234387717Y-126456571D01*
X234448193Y-126335619D01*
X234508670Y-126093714D01*
X234508670Y-125791333D01*
X234448193Y-125549428D01*
X234387717Y-125428476D01*
X234327241Y-125368000D01*
X234206289Y-125307523D01*
X232573432Y-126577523D02*
X233299146Y-126577523D01*
X232936289Y-126577523D02*
X232936289Y-125307523D01*
X233057241Y-125488952D01*
X233178193Y-125609904D01*
X233299146Y-125670380D01*
X232331527Y-126698476D02*
X231363908Y-126698476D01*
X231242955Y-125307523D02*
X230517241Y-125307523D01*
X230880098Y-126577523D02*
X230880098Y-125307523D01*
X230093908Y-126577523D02*
X230093908Y-125307523D01*
X230093908Y-125912285D02*
X229368193Y-125912285D01*
X229368193Y-126577523D02*
X229368193Y-125307523D01*
X228521527Y-125307523D02*
X228279622Y-125307523D01*
X228158670Y-125368000D01*
X228037717Y-125488952D01*
X227977241Y-125730857D01*
X227977241Y-126154190D01*
X228037717Y-126396095D01*
X228158670Y-126517047D01*
X228279622Y-126577523D01*
X228521527Y-126577523D01*
X228642479Y-126517047D01*
X228763432Y-126396095D01*
X228823908Y-126154190D01*
X228823908Y-125730857D01*
X228763432Y-125488952D01*
X228642479Y-125368000D01*
X228521527Y-125307523D01*
X227432955Y-126577523D02*
X227432955Y-125307523D01*
X226707241Y-126577523D01*
X226707241Y-125307523D01*
X226102479Y-126577523D02*
X226102479Y-125307523D01*
X225376765Y-126577523D02*
X225921051Y-125851809D01*
X225376765Y-125307523D02*
X226102479Y-126033238D01*
X224832479Y-126577523D02*
X224832479Y-125307523D01*
X223502003Y-126456571D02*
X223562479Y-126517047D01*
X223743908Y-126577523D01*
X223864860Y-126577523D01*
X224046289Y-126517047D01*
X224167241Y-126396095D01*
X224227717Y-126275142D01*
X224288193Y-126033238D01*
X224288193Y-125851809D01*
X224227717Y-125609904D01*
X224167241Y-125488952D01*
X224046289Y-125368000D01*
X223864860Y-125307523D01*
X223743908Y-125307523D01*
X223562479Y-125368000D01*
X223502003Y-125428476D01*
X222715812Y-125307523D02*
X222473908Y-125307523D01*
X222352955Y-125368000D01*
X222232003Y-125488952D01*
X222171527Y-125730857D01*
X222171527Y-126154190D01*
X222232003Y-126396095D01*
X222352955Y-126517047D01*
X222473908Y-126577523D01*
X222715812Y-126577523D01*
X222836765Y-126517047D01*
X222957717Y-126396095D01*
X223018193Y-126154190D01*
X223018193Y-125730857D01*
X222957717Y-125488952D01*
X222836765Y-125368000D01*
X222715812Y-125307523D01*
X221627241Y-126577523D02*
X221627241Y-125307523D01*
X220901527Y-126577523D01*
X220901527Y-125307523D01*
X220296765Y-126577523D02*
X220296765Y-125307523D01*
X219571051Y-126577523D01*
X219571051Y-125307523D01*
X218422003Y-125307523D02*
X218663908Y-125307523D01*
X218784860Y-125368000D01*
X218845336Y-125428476D01*
X218966289Y-125609904D01*
X219026765Y-125851809D01*
X219026765Y-126335619D01*
X218966289Y-126456571D01*
X218905812Y-126517047D01*
X218784860Y-126577523D01*
X218542955Y-126577523D01*
X218422003Y-126517047D01*
X218361527Y-126456571D01*
X218301051Y-126335619D01*
X218301051Y-126033238D01*
X218361527Y-125912285D01*
X218422003Y-125851809D01*
X218542955Y-125791333D01*
X218784860Y-125791333D01*
X218905812Y-125851809D01*
X218966289Y-125912285D01*
X219026765Y-126033238D01*
D16*
%TO.C,R55*%
X184239290Y-35115904D02*
X184696433Y-35115904D01*
X184467861Y-35115904D02*
X184467861Y-34315904D01*
X184544052Y-34430190D01*
X184620242Y-34506380D01*
X184696433Y-34544476D01*
X183744052Y-34315904D02*
X183667861Y-34315904D01*
X183591671Y-34354000D01*
X183553576Y-34392095D01*
X183515480Y-34468285D01*
X183477385Y-34620666D01*
X183477385Y-34811142D01*
X183515480Y-34963523D01*
X183553576Y-35039714D01*
X183591671Y-35077809D01*
X183667861Y-35115904D01*
X183744052Y-35115904D01*
X183820242Y-35077809D01*
X183858338Y-35039714D01*
X183896433Y-34963523D01*
X183934528Y-34811142D01*
X183934528Y-34620666D01*
X183896433Y-34468285D01*
X183858338Y-34392095D01*
X183820242Y-34354000D01*
X183744052Y-34315904D01*
X183134528Y-35115904D02*
X183134528Y-34315904D01*
X183058338Y-34811142D02*
X182829766Y-35115904D01*
X182829766Y-34582571D02*
X183134528Y-34887333D01*
%TO.C,R61*%
X184239290Y-104100704D02*
X184696433Y-104100704D01*
X184467861Y-104100704D02*
X184467861Y-103300704D01*
X184544052Y-103414990D01*
X184620242Y-103491180D01*
X184696433Y-103529276D01*
X183744052Y-103300704D02*
X183667861Y-103300704D01*
X183591671Y-103338800D01*
X183553576Y-103376895D01*
X183515480Y-103453085D01*
X183477385Y-103605466D01*
X183477385Y-103795942D01*
X183515480Y-103948323D01*
X183553576Y-104024514D01*
X183591671Y-104062609D01*
X183667861Y-104100704D01*
X183744052Y-104100704D01*
X183820242Y-104062609D01*
X183858338Y-104024514D01*
X183896433Y-103948323D01*
X183934528Y-103795942D01*
X183934528Y-103605466D01*
X183896433Y-103453085D01*
X183858338Y-103376895D01*
X183820242Y-103338800D01*
X183744052Y-103300704D01*
X183134528Y-104100704D02*
X183134528Y-103300704D01*
X183058338Y-103795942D02*
X182829766Y-104100704D01*
X182829766Y-103567371D02*
X183134528Y-103872133D01*
%TO.C,J11*%
X241279965Y-107171700D02*
G75*
G03*
X241279965Y-107171700I-2060200J0D01*
G01*
X241019965Y-107171700D02*
G75*
G03*
X241019965Y-107171700I-1800200J0D01*
G01*
X242201365Y-107181700D02*
G75*
G03*
X242201365Y-107181700I-2991600J0D01*
G01*
X242010365Y-107171700D02*
G75*
G03*
X242010365Y-107171700I-2790600J0D01*
G01*
X236577765Y-104177700D02*
G75*
G03*
X236591765Y-110165700I2587100J-2987968D01*
G01*
X241861763Y-110165700D02*
G75*
G03*
X241827765Y-104167700I-2601398J2984351D01*
G01*
X240814765Y-110671700D02*
X240314765Y-110671700D01*
X238219765Y-110671700D02*
X238124765Y-110671700D01*
X240219765Y-102671700D02*
X240219765Y-101171700D01*
X240314765Y-110671700D02*
X240219765Y-110671700D01*
X240819965Y-111667500D02*
X240814765Y-110671700D01*
X240219765Y-110671700D02*
X240219765Y-110171700D01*
X241850765Y-104171700D02*
X236599765Y-104171700D01*
X239219765Y-106171700D02*
X239219765Y-108171700D01*
X238124765Y-110671700D02*
X238124765Y-111671700D01*
X238219765Y-101171700D02*
X238219765Y-102671700D01*
X238219765Y-110171700D02*
X238219765Y-110671700D01*
X241850765Y-110171700D02*
X236599765Y-110171700D01*
D17*
X239727765Y-107171700D02*
X238711765Y-107171700D01*
D16*
X238219765Y-102671700D02*
X240219765Y-102671700D01*
X240314765Y-110671700D02*
X240314765Y-111671700D01*
X237624765Y-110671700D02*
X237624765Y-111671700D01*
X240219765Y-107171700D02*
X238219765Y-107171700D01*
X238124765Y-110671700D02*
X237624765Y-110671700D01*
D17*
X239219765Y-106663700D02*
X239219765Y-107679700D01*
D16*
%TO.C,J5*%
X219097299Y-126003000D02*
G75*
G03*
X219097299Y-126003000I-2060200J0D01*
G01*
X218837299Y-126003000D02*
G75*
G03*
X218837299Y-126003000I-1800200J0D01*
G01*
X219827699Y-126003000D02*
G75*
G03*
X219827699Y-126003000I-2790600J0D01*
G01*
X220038699Y-125993000D02*
G75*
G03*
X220038699Y-125993000I-2991600J0D01*
G01*
X214395101Y-123009000D02*
G75*
G03*
X214429099Y-129007000I2601398J-2984351D01*
G01*
X219679099Y-128997000D02*
G75*
G03*
X219665099Y-123009000I-2587100J2987968D01*
G01*
X218037099Y-123003000D02*
X218037099Y-122503000D01*
X218037099Y-130503000D02*
X216037099Y-130503000D01*
X218132099Y-122503000D02*
X218632099Y-122503000D01*
X215942099Y-122503000D02*
X216037099Y-122503000D01*
X218037099Y-132003000D02*
X218037099Y-130503000D01*
X218632099Y-122503000D02*
X218632099Y-121503000D01*
X215436899Y-121507200D02*
X215442099Y-122503000D01*
X216037099Y-126003000D02*
X218037099Y-126003000D01*
X214406099Y-129003000D02*
X219657099Y-129003000D01*
X217037099Y-127003000D02*
X217037099Y-125003000D01*
X215442099Y-122503000D02*
X215942099Y-122503000D01*
X218037099Y-122503000D02*
X218132099Y-122503000D01*
X218132099Y-122503000D02*
X218132099Y-121503000D01*
D17*
X217037099Y-126511000D02*
X217037099Y-125495000D01*
D16*
X214406099Y-123003000D02*
X219657099Y-123003000D01*
X216037099Y-122503000D02*
X216037099Y-123003000D01*
X216037099Y-130503000D02*
X216037099Y-132003000D01*
D17*
X216529099Y-126003000D02*
X217545099Y-126003000D01*
D16*
X215942099Y-122503000D02*
X215942099Y-121503000D01*
%TO.C,J12*%
X196914633Y-126003000D02*
G75*
G03*
X196914633Y-126003000I-2060200J0D01*
G01*
X197645033Y-126003000D02*
G75*
G03*
X197645033Y-126003000I-2790600J0D01*
G01*
X196654633Y-126003000D02*
G75*
G03*
X196654633Y-126003000I-1800200J0D01*
G01*
X197856033Y-125993000D02*
G75*
G03*
X197856033Y-125993000I-2991600J0D01*
G01*
X192212435Y-123009000D02*
G75*
G03*
X192246433Y-129007000I2601398J-2984351D01*
G01*
X197496433Y-128997000D02*
G75*
G03*
X197482433Y-123009000I-2587100J2987968D01*
G01*
X195949433Y-122503000D02*
X196449433Y-122503000D01*
X194854433Y-127003000D02*
X194854433Y-125003000D01*
X193254233Y-121507200D02*
X193259433Y-122503000D01*
X193854433Y-126003000D02*
X195854433Y-126003000D01*
X193854433Y-130503000D02*
X193854433Y-132003000D01*
X195854433Y-132003000D02*
X195854433Y-130503000D01*
X195854433Y-123003000D02*
X195854433Y-122503000D01*
X193759433Y-122503000D02*
X193854433Y-122503000D01*
X195854433Y-122503000D02*
X195949433Y-122503000D01*
D17*
X194346433Y-126003000D02*
X195362433Y-126003000D01*
D16*
X192223433Y-123003000D02*
X197474433Y-123003000D01*
X195949433Y-122503000D02*
X195949433Y-121503000D01*
X196449433Y-122503000D02*
X196449433Y-121503000D01*
X192223433Y-129003000D02*
X197474433Y-129003000D01*
X195854433Y-130503000D02*
X193854433Y-130503000D01*
D17*
X194854433Y-126511000D02*
X194854433Y-125495000D01*
D16*
X193259433Y-122503000D02*
X193759433Y-122503000D01*
X193759433Y-122503000D02*
X193759433Y-121503000D01*
X193854433Y-122503000D02*
X193854433Y-123003000D01*
%TO.C,J3*%
X252111684Y-107171700D02*
G75*
G03*
X252111684Y-107171700I-1800200J0D01*
G01*
X252371684Y-107171700D02*
G75*
G03*
X252371684Y-107171700I-2060200J0D01*
G01*
X253102084Y-107171700D02*
G75*
G03*
X253102084Y-107171700I-2790600J0D01*
G01*
X253293084Y-107181700D02*
G75*
G03*
X253293084Y-107181700I-2991600J0D01*
G01*
X252953482Y-110165700D02*
G75*
G03*
X252919484Y-104167700I-2601398J2984351D01*
G01*
X247669484Y-104177700D02*
G75*
G03*
X247683484Y-110165700I2587100J-2987968D01*
G01*
X250311484Y-106171700D02*
X250311484Y-108171700D01*
D17*
X250311484Y-106663700D02*
X250311484Y-107679700D01*
D16*
X249311484Y-102671700D02*
X251311484Y-102671700D01*
X251406484Y-110671700D02*
X251311484Y-110671700D01*
X252942484Y-110171700D02*
X247691484Y-110171700D01*
X251406484Y-110671700D02*
X251406484Y-111671700D01*
X249311484Y-110171700D02*
X249311484Y-110671700D01*
X251906484Y-110671700D02*
X251406484Y-110671700D01*
X249311484Y-101171700D02*
X249311484Y-102671700D01*
X252942484Y-104171700D02*
X247691484Y-104171700D01*
X251911684Y-111667500D02*
X251906484Y-110671700D01*
X251311484Y-110671700D02*
X251311484Y-110171700D01*
X249216484Y-110671700D02*
X248716484Y-110671700D01*
X248716484Y-110671700D02*
X248716484Y-111671700D01*
X251311484Y-102671700D02*
X251311484Y-101171700D01*
X249311484Y-110671700D02*
X249216484Y-110671700D01*
X249216484Y-110671700D02*
X249216484Y-111671700D01*
X251311484Y-107171700D02*
X249311484Y-107171700D01*
D17*
X250819484Y-107171700D02*
X249803484Y-107171700D01*
D16*
%TO.C,J8*%
X242221365Y-125993000D02*
G75*
G03*
X242221365Y-125993000I-2991600J0D01*
G01*
X242010365Y-126003000D02*
G75*
G03*
X242010365Y-126003000I-2790600J0D01*
G01*
X241019965Y-126003000D02*
G75*
G03*
X241019965Y-126003000I-1800200J0D01*
G01*
X241279965Y-126003000D02*
G75*
G03*
X241279965Y-126003000I-2060200J0D01*
G01*
X241861765Y-128997000D02*
G75*
G03*
X241847765Y-123009000I-2587100J2987968D01*
G01*
X236577767Y-123009000D02*
G75*
G03*
X236611765Y-129007000I2601398J-2984351D01*
G01*
X238219765Y-126003000D02*
X240219765Y-126003000D01*
X238219765Y-130503000D02*
X238219765Y-132003000D01*
X240219765Y-123003000D02*
X240219765Y-122503000D01*
D17*
X239219765Y-126511000D02*
X239219765Y-125495000D01*
D16*
X240219765Y-130503000D02*
X238219765Y-130503000D01*
X238219765Y-122503000D02*
X238219765Y-123003000D01*
X239219765Y-127003000D02*
X239219765Y-125003000D01*
X236588765Y-123003000D02*
X241839765Y-123003000D01*
X238124765Y-122503000D02*
X238124765Y-121503000D01*
X240219765Y-122503000D02*
X240314765Y-122503000D01*
X237619565Y-121507200D02*
X237624765Y-122503000D01*
X240219765Y-132003000D02*
X240219765Y-130503000D01*
D17*
X238711765Y-126003000D02*
X239727765Y-126003000D01*
D16*
X237624765Y-122503000D02*
X238124765Y-122503000D01*
X238124765Y-122503000D02*
X238219765Y-122503000D01*
X240314765Y-122503000D02*
X240314765Y-121503000D01*
X236588765Y-129003000D02*
X241839765Y-129003000D01*
X240314765Y-122503000D02*
X240814765Y-122503000D01*
X240814765Y-122503000D02*
X240814765Y-121503000D01*
%TO.C,J4*%
X253102084Y-84169200D02*
G75*
G03*
X253102084Y-84169200I-2790600J0D01*
G01*
X252111684Y-84169200D02*
G75*
G03*
X252111684Y-84169200I-1800200J0D01*
G01*
X253293084Y-84179200D02*
G75*
G03*
X253293084Y-84179200I-2991600J0D01*
G01*
X252371684Y-84169200D02*
G75*
G03*
X252371684Y-84169200I-2060200J0D01*
G01*
X252953482Y-87163200D02*
G75*
G03*
X252919484Y-81165200I-2601398J2984351D01*
G01*
X247669484Y-81175200D02*
G75*
G03*
X247683484Y-87163200I2587100J-2987968D01*
G01*
D17*
X250819484Y-84169200D02*
X249803484Y-84169200D01*
D16*
X249216484Y-87669200D02*
X249216484Y-88669200D01*
X251311484Y-84169200D02*
X249311484Y-84169200D01*
X251311484Y-79669200D02*
X251311484Y-78169200D01*
X251406484Y-87669200D02*
X251311484Y-87669200D01*
D17*
X250311484Y-83661200D02*
X250311484Y-84677200D01*
D16*
X251911684Y-88665000D02*
X251906484Y-87669200D01*
X251906484Y-87669200D02*
X251406484Y-87669200D01*
X251311484Y-87669200D02*
X251311484Y-87169200D01*
X249311484Y-78169200D02*
X249311484Y-79669200D01*
X250311484Y-83169200D02*
X250311484Y-85169200D01*
X249311484Y-87669200D02*
X249216484Y-87669200D01*
X249311484Y-87169200D02*
X249311484Y-87669200D01*
X252942484Y-87169200D02*
X247691484Y-87169200D01*
X249311484Y-79669200D02*
X251311484Y-79669200D01*
X251406484Y-87669200D02*
X251406484Y-88669200D01*
X252942484Y-81169200D02*
X247691484Y-81169200D01*
X249216484Y-87669200D02*
X248716484Y-87669200D01*
X248716484Y-87669200D02*
X248716484Y-88669200D01*
%TO.C,J9*%
X185823300Y-125990000D02*
G75*
G03*
X185823300Y-125990000I-2060200J0D01*
G01*
X186553700Y-125990000D02*
G75*
G03*
X186553700Y-125990000I-2790600J0D01*
G01*
X185563300Y-125990000D02*
G75*
G03*
X185563300Y-125990000I-1800200J0D01*
G01*
X186764700Y-125980000D02*
G75*
G03*
X186764700Y-125980000I-2991600J0D01*
G01*
X186405100Y-128984000D02*
G75*
G03*
X186391100Y-122996000I-2587100J2987968D01*
G01*
X181121102Y-122996000D02*
G75*
G03*
X181155100Y-128994000I2601398J-2984351D01*
G01*
D17*
X183763100Y-126498000D02*
X183763100Y-125482000D01*
D16*
X181132100Y-128990000D02*
X186383100Y-128990000D01*
X185358100Y-122490000D02*
X185358100Y-121490000D01*
X181132100Y-122990000D02*
X186383100Y-122990000D01*
X182763100Y-122490000D02*
X182763100Y-122990000D01*
X184763100Y-122490000D02*
X184858100Y-122490000D01*
X182168100Y-122490000D02*
X182668100Y-122490000D01*
D17*
X183255100Y-125990000D02*
X184271100Y-125990000D01*
D16*
X182763100Y-130490000D02*
X182763100Y-131990000D01*
X184763100Y-130490000D02*
X182763100Y-130490000D01*
X184763100Y-122990000D02*
X184763100Y-122490000D01*
X182668100Y-122490000D02*
X182763100Y-122490000D01*
X184763100Y-131990000D02*
X184763100Y-130490000D01*
X182668100Y-122490000D02*
X182668100Y-121490000D01*
X182162900Y-121494200D02*
X182168100Y-122490000D01*
X184858100Y-122490000D02*
X184858100Y-121490000D01*
X182763100Y-125990000D02*
X184763100Y-125990000D01*
X184858100Y-122490000D02*
X185358100Y-122490000D01*
X183763100Y-126990000D02*
X183763100Y-124990000D01*
%TO.C,J2*%
X252371684Y-61156800D02*
G75*
G03*
X252371684Y-61156800I-2060200J0D01*
G01*
X253293084Y-61166800D02*
G75*
G03*
X253293084Y-61166800I-2991600J0D01*
G01*
X253102084Y-61156800D02*
G75*
G03*
X253102084Y-61156800I-2790600J0D01*
G01*
X252111684Y-61156800D02*
G75*
G03*
X252111684Y-61156800I-1800200J0D01*
G01*
X247669484Y-58162800D02*
G75*
G03*
X247683484Y-64150800I2587100J-2987968D01*
G01*
X252953482Y-64150800D02*
G75*
G03*
X252919484Y-58152800I-2601398J2984351D01*
G01*
X252942484Y-64156800D02*
X247691484Y-64156800D01*
X249216484Y-64656800D02*
X248716484Y-64656800D01*
X251911684Y-65652600D02*
X251906484Y-64656800D01*
X251311484Y-56656800D02*
X251311484Y-55156800D01*
X249311484Y-64656800D02*
X249216484Y-64656800D01*
X249311484Y-55156800D02*
X249311484Y-56656800D01*
X248716484Y-64656800D02*
X248716484Y-65656800D01*
D17*
X250311484Y-60648800D02*
X250311484Y-61664800D01*
D16*
X249311484Y-56656800D02*
X251311484Y-56656800D01*
X251406484Y-64656800D02*
X251406484Y-65656800D01*
X249216484Y-64656800D02*
X249216484Y-65656800D01*
X252942484Y-58156800D02*
X247691484Y-58156800D01*
X251311484Y-64656800D02*
X251311484Y-64156800D01*
X251311484Y-61156800D02*
X249311484Y-61156800D01*
X250311484Y-60156800D02*
X250311484Y-62156800D01*
D17*
X250819484Y-61156800D02*
X249803484Y-61156800D01*
D16*
X249311484Y-64156800D02*
X249311484Y-64656800D01*
X251406484Y-64656800D02*
X251311484Y-64656800D01*
X251906484Y-64656800D02*
X251406484Y-64656800D01*
%TO.C,J6*%
X252111684Y-126003000D02*
G75*
G03*
X252111684Y-126003000I-1800200J0D01*
G01*
X253102084Y-126003000D02*
G75*
G03*
X253102084Y-126003000I-2790600J0D01*
G01*
X253313084Y-125993000D02*
G75*
G03*
X253313084Y-125993000I-2991600J0D01*
G01*
X252371684Y-126003000D02*
G75*
G03*
X252371684Y-126003000I-2060200J0D01*
G01*
X247669486Y-123009000D02*
G75*
G03*
X247703484Y-129007000I2601398J-2984351D01*
G01*
X252953484Y-128997000D02*
G75*
G03*
X252939484Y-123009000I-2587100J2987968D01*
G01*
X249311484Y-130503000D02*
X249311484Y-132003000D01*
D17*
X250311484Y-126511000D02*
X250311484Y-125495000D01*
X249803484Y-126003000D02*
X250819484Y-126003000D01*
D16*
X249311484Y-126003000D02*
X251311484Y-126003000D01*
X251406484Y-122503000D02*
X251906484Y-122503000D01*
X248711284Y-121507200D02*
X248716484Y-122503000D01*
X248716484Y-122503000D02*
X249216484Y-122503000D01*
X249311484Y-122503000D02*
X249311484Y-123003000D01*
X247680484Y-123003000D02*
X252931484Y-123003000D01*
X250311484Y-127003000D02*
X250311484Y-125003000D01*
X247680484Y-129003000D02*
X252931484Y-129003000D01*
X249216484Y-122503000D02*
X249216484Y-121503000D01*
X249216484Y-122503000D02*
X249311484Y-122503000D01*
X251311484Y-123003000D02*
X251311484Y-122503000D01*
X251906484Y-122503000D02*
X251906484Y-121503000D01*
X251406484Y-122503000D02*
X251406484Y-121503000D01*
X251311484Y-132003000D02*
X251311484Y-130503000D01*
X251311484Y-130503000D02*
X249311484Y-130503000D01*
X251311484Y-122503000D02*
X251406484Y-122503000D01*
%TO.C,J10*%
X208005966Y-126003000D02*
G75*
G03*
X208005966Y-126003000I-2060200J0D01*
G01*
X207745966Y-126003000D02*
G75*
G03*
X207745966Y-126003000I-1800200J0D01*
G01*
X208736366Y-126003000D02*
G75*
G03*
X208736366Y-126003000I-2790600J0D01*
G01*
X208947366Y-125993000D02*
G75*
G03*
X208947366Y-125993000I-2991600J0D01*
G01*
X208587766Y-128997000D02*
G75*
G03*
X208573766Y-123009000I-2587100J2987968D01*
G01*
X203303768Y-123009000D02*
G75*
G03*
X203337766Y-129007000I2601398J-2984351D01*
G01*
D17*
X205437766Y-126003000D02*
X206453766Y-126003000D01*
X205945766Y-126511000D02*
X205945766Y-125495000D01*
D16*
X206945766Y-122503000D02*
X207040766Y-122503000D01*
X204945766Y-130503000D02*
X204945766Y-132003000D01*
X204945766Y-122503000D02*
X204945766Y-123003000D01*
X204850766Y-122503000D02*
X204850766Y-121503000D01*
X207040766Y-122503000D02*
X207040766Y-121503000D01*
X206945766Y-123003000D02*
X206945766Y-122503000D01*
X204350766Y-122503000D02*
X204850766Y-122503000D01*
X203314766Y-129003000D02*
X208565766Y-129003000D01*
X207040766Y-122503000D02*
X207540766Y-122503000D01*
X206945766Y-132003000D02*
X206945766Y-130503000D01*
X205945766Y-127003000D02*
X205945766Y-125003000D01*
X204945766Y-126003000D02*
X206945766Y-126003000D01*
X204850766Y-122503000D02*
X204945766Y-122503000D01*
X203314766Y-123003000D02*
X208565766Y-123003000D01*
X206945766Y-130503000D02*
X204945766Y-130503000D01*
X204345566Y-121507200D02*
X204350766Y-122503000D01*
X207540766Y-122503000D02*
X207540766Y-121503000D01*
%TO.C,J1*%
X253293084Y-38174062D02*
G75*
G03*
X253293084Y-38174062I-2991600J0D01*
G01*
X252371684Y-38164062D02*
G75*
G03*
X252371684Y-38164062I-2060200J0D01*
G01*
X253102084Y-38164062D02*
G75*
G03*
X253102084Y-38164062I-2790600J0D01*
G01*
X252111684Y-38164062D02*
G75*
G03*
X252111684Y-38164062I-1800200J0D01*
G01*
X247669484Y-35170062D02*
G75*
G03*
X247683484Y-41158062I2587100J-2987968D01*
G01*
X252953482Y-41158062D02*
G75*
G03*
X252919484Y-35160062I-2601398J2984351D01*
G01*
X249311484Y-41664062D02*
X249216484Y-41664062D01*
X251311484Y-33664062D02*
X251311484Y-32164062D01*
D17*
X250819484Y-38164062D02*
X249803484Y-38164062D01*
D16*
X251911684Y-42659862D02*
X251906484Y-41664062D01*
X251906484Y-41664062D02*
X251406484Y-41664062D01*
X252942484Y-35164062D02*
X247691484Y-35164062D01*
X251311484Y-38164062D02*
X249311484Y-38164062D01*
X252942484Y-41164062D02*
X247691484Y-41164062D01*
X251406484Y-41664062D02*
X251311484Y-41664062D01*
X249216484Y-41664062D02*
X248716484Y-41664062D01*
X251406484Y-41664062D02*
X251406484Y-42664062D01*
X251311484Y-41664062D02*
X251311484Y-41164062D01*
X249311484Y-41164062D02*
X249311484Y-41664062D01*
X249216484Y-41664062D02*
X249216484Y-42664062D01*
X249311484Y-33664062D02*
X251311484Y-33664062D01*
X249311484Y-32164062D02*
X249311484Y-33664062D01*
X250311484Y-37164062D02*
X250311484Y-39164062D01*
X248716484Y-41664062D02*
X248716484Y-42664062D01*
D17*
X250311484Y-37656062D02*
X250311484Y-38672062D01*
D16*
%TO.C,J7*%
X231130032Y-125993000D02*
G75*
G03*
X231130032Y-125993000I-2991600J0D01*
G01*
X230188632Y-126003000D02*
G75*
G03*
X230188632Y-126003000I-2060200J0D01*
G01*
X229928632Y-126003000D02*
G75*
G03*
X229928632Y-126003000I-1800200J0D01*
G01*
X230919032Y-126003000D02*
G75*
G03*
X230919032Y-126003000I-2790600J0D01*
G01*
X230770432Y-128997000D02*
G75*
G03*
X230756432Y-123009000I-2587100J2987968D01*
G01*
X225486434Y-123009000D02*
G75*
G03*
X225520432Y-129007000I2601398J-2984351D01*
G01*
X229128432Y-123003000D02*
X229128432Y-122503000D01*
X229128432Y-130503000D02*
X227128432Y-130503000D01*
D17*
X228128432Y-126511000D02*
X228128432Y-125495000D01*
D16*
X227033432Y-122503000D02*
X227128432Y-122503000D01*
X227128432Y-126003000D02*
X229128432Y-126003000D01*
X229128432Y-132003000D02*
X229128432Y-130503000D01*
X229223432Y-122503000D02*
X229723432Y-122503000D01*
X229723432Y-122503000D02*
X229723432Y-121503000D01*
X225497432Y-123003000D02*
X230748432Y-123003000D01*
X229128432Y-122503000D02*
X229223432Y-122503000D01*
X227128432Y-122503000D02*
X227128432Y-123003000D01*
D17*
X227620432Y-126003000D02*
X228636432Y-126003000D01*
D16*
X228128432Y-127003000D02*
X228128432Y-125003000D01*
X227033432Y-122503000D02*
X227033432Y-121503000D01*
X226528232Y-121507200D02*
X226533432Y-122503000D01*
X227128432Y-130503000D02*
X227128432Y-132003000D01*
X225497432Y-129003000D02*
X230748432Y-129003000D01*
X226533432Y-122503000D02*
X227033432Y-122503000D01*
X229223432Y-122503000D02*
X229223432Y-121503000D01*
%TD*%
M02*
