%TF.GenerationSoftware,KiCad,Pcbnew,(6.0.7-1)-1*%
%TF.CreationDate,2022-10-07T09:47:06+07:00*%
%TF.ProjectId,benjolin_1.6,62656e6a-6f6c-4696-9e5f-312e362e6b69,rev?*%
%TF.SameCoordinates,Original*%
%TF.FileFunction,Soldermask,Top*%
%TF.FilePolarity,Negative*%
%FSLAX46Y46*%
G04 Gerber Fmt 4.6, Leading zero omitted, Abs format (unit mm)*
G04 Created by KiCad (PCBNEW (6.0.7-1)-1) date 2022-10-07 09:47:06*
%MOMM*%
%LPD*%
G01*
G04 APERTURE LIST*
G04 Aperture macros list*
%AMRoundRect*
0 Rectangle with rounded corners*
0 $1 Rounding radius*
0 $2 $3 $4 $5 $6 $7 $8 $9 X,Y pos of 4 corners*
0 Add a 4 corners polygon primitive as box body*
4,1,4,$2,$3,$4,$5,$6,$7,$8,$9,$2,$3,0*
0 Add four circle primitives for the rounded corners*
1,1,$1+$1,$2,$3*
1,1,$1+$1,$4,$5*
1,1,$1+$1,$6,$7*
1,1,$1+$1,$8,$9*
0 Add four rect primitives between the rounded corners*
20,1,$1+$1,$2,$3,$4,$5,0*
20,1,$1+$1,$4,$5,$6,$7,0*
20,1,$1+$1,$6,$7,$8,$9,0*
20,1,$1+$1,$8,$9,$2,$3,0*%
%AMFreePoly0*
4,1,25,0.427955,0.971196,0.440078,0.960842,0.960842,0.440078,0.989349,0.384130,0.990600,0.368236,0.990600,-0.368236,0.971196,-0.427955,0.960842,-0.440078,0.440078,-0.960842,0.384130,-0.989349,0.368236,-0.990600,-0.368236,-0.990600,-0.427955,-0.971196,-0.440078,-0.960842,-0.960842,-0.440078,-0.989349,-0.384130,-0.990600,-0.368236,-0.990600,0.368236,-0.971196,0.427955,-0.960842,0.440078,
-0.440078,0.960842,-0.384130,0.989349,-0.368236,0.990600,0.368236,0.990600,0.427955,0.971196,0.427955,0.971196,$1*%
%AMFreePoly1*
4,1,25,0.649668,0.782196,0.661791,0.771842,1.071842,0.361791,1.100349,0.305843,1.101600,0.289949,1.101600,-0.289949,1.082196,-0.349668,1.071842,-0.361791,0.661791,-0.771842,0.605843,-0.800349,0.589949,-0.801600,-0.589949,-0.801600,-0.649668,-0.782196,-0.661791,-0.771842,-1.071842,-0.361791,-1.100349,-0.305843,-1.101600,-0.289949,-1.101600,0.289949,-1.082196,0.349668,-1.071842,0.361791,
-0.661791,0.771842,-0.605843,0.800349,-0.589949,0.801600,0.589949,0.801600,0.649668,0.782196,0.649668,0.782196,$1*%
G04 Aperture macros list end*
%ADD10C,0.100000*%
%ADD11C,0.150000*%
%ADD12C,0.300000*%
%ADD13C,0.400000*%
%TA.AperFunction,Profile*%
%ADD14C,0.100000*%
%TD*%
%ADD15RoundRect,0.250000X-0.600000X0.600000X-0.600000X-0.600000X0.600000X-0.600000X0.600000X0.600000X0*%
%ADD16C,1.700000*%
%ADD17RoundRect,0.250000X-0.412500X-0.650000X0.412500X-0.650000X0.412500X0.650000X-0.412500X0.650000X0*%
%ADD18RoundRect,0.250000X0.400000X0.625000X-0.400000X0.625000X-0.400000X-0.625000X0.400000X-0.625000X0*%
%ADD19RoundRect,0.250000X-0.400000X-0.625000X0.400000X-0.625000X0.400000X0.625000X-0.400000X0.625000X0*%
%ADD20RoundRect,0.101600X0.762000X-0.300000X0.762000X0.300000X-0.762000X0.300000X-0.762000X-0.300000X0*%
%ADD21RoundRect,0.101600X-0.750000X1.000000X-0.750000X-1.000000X0.750000X-1.000000X0.750000X1.000000X0*%
%ADD22RoundRect,0.101600X0.834000X-0.300000X0.834000X0.300000X-0.834000X0.300000X-0.834000X-0.300000X0*%
%ADD23RoundRect,0.250000X0.412500X0.650000X-0.412500X0.650000X-0.412500X-0.650000X0.412500X-0.650000X0*%
%ADD24RoundRect,0.250000X0.650000X-0.412500X0.650000X0.412500X-0.650000X0.412500X-0.650000X-0.412500X0*%
%ADD25RoundRect,0.101600X0.700000X0.700000X-0.700000X0.700000X-0.700000X-0.700000X0.700000X-0.700000X0*%
%ADD26RoundRect,0.101600X-0.762000X0.300000X-0.762000X-0.300000X0.762000X-0.300000X0.762000X0.300000X0*%
%ADD27RoundRect,0.250000X-0.650000X0.412500X-0.650000X-0.412500X0.650000X-0.412500X0.650000X0.412500X0*%
%ADD28RoundRect,0.101600X-0.700000X0.700000X-0.700000X-0.700000X0.700000X-0.700000X0.700000X0.700000X0*%
%ADD29RoundRect,0.101600X-0.700000X-0.700000X0.700000X-0.700000X0.700000X0.700000X-0.700000X0.700000X0*%
%ADD30RoundRect,0.101600X-1.250000X0.850000X-1.250000X-0.850000X1.250000X-0.850000X1.250000X0.850000X0*%
%ADD31RoundRect,0.250000X-0.625000X0.400000X-0.625000X-0.400000X0.625000X-0.400000X0.625000X0.400000X0*%
%ADD32RoundRect,0.101600X-0.889000X0.330200X-0.889000X-0.330200X0.889000X-0.330200X0.889000X0.330200X0*%
%ADD33R,1.600000X1.600000*%
%ADD34C,1.600000*%
%ADD35RoundRect,0.101600X0.750000X-1.000000X0.750000X1.000000X-0.750000X1.000000X-0.750000X-1.000000X0*%
%ADD36RoundRect,0.250000X0.625000X-0.400000X0.625000X0.400000X-0.625000X0.400000X-0.625000X-0.400000X0*%
%ADD37RoundRect,0.101600X-0.834000X0.300000X-0.834000X-0.300000X0.834000X-0.300000X0.834000X0.300000X0*%
%ADD38C,1.500000*%
%ADD39R,1.500000X1.500000*%
%ADD40RoundRect,0.101600X-0.400000X-0.614000X0.400000X-0.614000X0.400000X0.614000X-0.400000X0.614000X0*%
%ADD41RoundRect,0.101600X-0.400000X-0.691000X0.400000X-0.691000X0.400000X0.691000X-0.400000X0.691000X0*%
%ADD42RoundRect,0.101600X1.250000X-0.850000X1.250000X0.850000X-1.250000X0.850000X-1.250000X-0.850000X0*%
%ADD43C,1.854200*%
%ADD44O,3.403200X1.854200*%
%ADD45FreePoly0,180.000000*%
%ADD46C,2.200000*%
%ADD47FreePoly0,0.000000*%
%ADD48FreePoly1,90.000000*%
%ADD49C,2.082800*%
G04 APERTURE END LIST*
D10*
D11*
X177002200Y-166007200D02*
X177002200Y-198007200D01*
X285002200Y-198007200D01*
X285002200Y-166007200D01*
X177002200Y-166007200D01*
D10*
D11*
X10000000Y-10000000D02*
X10000000Y-200007200D01*
X287002200Y-200007200D01*
X287002200Y-10000000D01*
X10000000Y-10000000D01*
D10*
D11*
X12000000Y-12000000D02*
X12000000Y-198007200D01*
X285002200Y-198007200D01*
X285002200Y-12000000D01*
X12000000Y-12000000D01*
D10*
D11*
X60000000Y-12000000D02*
X60000000Y-10000000D01*
D10*
D11*
X110000000Y-12000000D02*
X110000000Y-10000000D01*
D10*
D11*
X160000000Y-12000000D02*
X160000000Y-10000000D01*
D10*
D11*
X210000000Y-12000000D02*
X210000000Y-10000000D01*
D10*
D11*
X260000000Y-12000000D02*
X260000000Y-10000000D01*
D10*
D11*
X36065476Y-11588095D02*
X35322619Y-11588095D01*
X35694047Y-11588095D02*
X35694047Y-10288095D01*
X35570238Y-10473809D01*
X35446428Y-10597619D01*
X35322619Y-10659523D01*
D10*
D11*
X85322619Y-10411904D02*
X85384523Y-10350000D01*
X85508333Y-10288095D01*
X85817857Y-10288095D01*
X85941666Y-10350000D01*
X86003571Y-10411904D01*
X86065476Y-10535714D01*
X86065476Y-10659523D01*
X86003571Y-10845238D01*
X85260714Y-11588095D01*
X86065476Y-11588095D01*
D10*
D11*
X135260714Y-10288095D02*
X136065476Y-10288095D01*
X135632142Y-10783333D01*
X135817857Y-10783333D01*
X135941666Y-10845238D01*
X136003571Y-10907142D01*
X136065476Y-11030952D01*
X136065476Y-11340476D01*
X136003571Y-11464285D01*
X135941666Y-11526190D01*
X135817857Y-11588095D01*
X135446428Y-11588095D01*
X135322619Y-11526190D01*
X135260714Y-11464285D01*
D10*
D11*
X185941666Y-10721428D02*
X185941666Y-11588095D01*
X185632142Y-10226190D02*
X185322619Y-11154761D01*
X186127380Y-11154761D01*
D10*
D11*
X236003571Y-10288095D02*
X235384523Y-10288095D01*
X235322619Y-10907142D01*
X235384523Y-10845238D01*
X235508333Y-10783333D01*
X235817857Y-10783333D01*
X235941666Y-10845238D01*
X236003571Y-10907142D01*
X236065476Y-11030952D01*
X236065476Y-11340476D01*
X236003571Y-11464285D01*
X235941666Y-11526190D01*
X235817857Y-11588095D01*
X235508333Y-11588095D01*
X235384523Y-11526190D01*
X235322619Y-11464285D01*
D10*
D11*
X285941666Y-10288095D02*
X285694047Y-10288095D01*
X285570238Y-10350000D01*
X285508333Y-10411904D01*
X285384523Y-10597619D01*
X285322619Y-10845238D01*
X285322619Y-11340476D01*
X285384523Y-11464285D01*
X285446428Y-11526190D01*
X285570238Y-11588095D01*
X285817857Y-11588095D01*
X285941666Y-11526190D01*
X286003571Y-11464285D01*
X286065476Y-11340476D01*
X286065476Y-11030952D01*
X286003571Y-10907142D01*
X285941666Y-10845238D01*
X285817857Y-10783333D01*
X285570238Y-10783333D01*
X285446428Y-10845238D01*
X285384523Y-10907142D01*
X285322619Y-11030952D01*
D10*
D11*
X60000000Y-198007200D02*
X60000000Y-200007200D01*
D10*
D11*
X110000000Y-198007200D02*
X110000000Y-200007200D01*
D10*
D11*
X160000000Y-198007200D02*
X160000000Y-200007200D01*
D10*
D11*
X210000000Y-198007200D02*
X210000000Y-200007200D01*
D10*
D11*
X260000000Y-198007200D02*
X260000000Y-200007200D01*
D10*
D11*
X36065476Y-199595295D02*
X35322619Y-199595295D01*
X35694047Y-199595295D02*
X35694047Y-198295295D01*
X35570238Y-198481009D01*
X35446428Y-198604819D01*
X35322619Y-198666723D01*
D10*
D11*
X85322619Y-198419104D02*
X85384523Y-198357200D01*
X85508333Y-198295295D01*
X85817857Y-198295295D01*
X85941666Y-198357200D01*
X86003571Y-198419104D01*
X86065476Y-198542914D01*
X86065476Y-198666723D01*
X86003571Y-198852438D01*
X85260714Y-199595295D01*
X86065476Y-199595295D01*
D10*
D11*
X135260714Y-198295295D02*
X136065476Y-198295295D01*
X135632142Y-198790533D01*
X135817857Y-198790533D01*
X135941666Y-198852438D01*
X136003571Y-198914342D01*
X136065476Y-199038152D01*
X136065476Y-199347676D01*
X136003571Y-199471485D01*
X135941666Y-199533390D01*
X135817857Y-199595295D01*
X135446428Y-199595295D01*
X135322619Y-199533390D01*
X135260714Y-199471485D01*
D10*
D11*
X185941666Y-198728628D02*
X185941666Y-199595295D01*
X185632142Y-198233390D02*
X185322619Y-199161961D01*
X186127380Y-199161961D01*
D10*
D11*
X236003571Y-198295295D02*
X235384523Y-198295295D01*
X235322619Y-198914342D01*
X235384523Y-198852438D01*
X235508333Y-198790533D01*
X235817857Y-198790533D01*
X235941666Y-198852438D01*
X236003571Y-198914342D01*
X236065476Y-199038152D01*
X236065476Y-199347676D01*
X236003571Y-199471485D01*
X235941666Y-199533390D01*
X235817857Y-199595295D01*
X235508333Y-199595295D01*
X235384523Y-199533390D01*
X235322619Y-199471485D01*
D10*
D11*
X285941666Y-198295295D02*
X285694047Y-198295295D01*
X285570238Y-198357200D01*
X285508333Y-198419104D01*
X285384523Y-198604819D01*
X285322619Y-198852438D01*
X285322619Y-199347676D01*
X285384523Y-199471485D01*
X285446428Y-199533390D01*
X285570238Y-199595295D01*
X285817857Y-199595295D01*
X285941666Y-199533390D01*
X286003571Y-199471485D01*
X286065476Y-199347676D01*
X286065476Y-199038152D01*
X286003571Y-198914342D01*
X285941666Y-198852438D01*
X285817857Y-198790533D01*
X285570238Y-198790533D01*
X285446428Y-198852438D01*
X285384523Y-198914342D01*
X285322619Y-199038152D01*
D10*
D11*
X10000000Y-60000000D02*
X12000000Y-60000000D01*
D10*
D11*
X10000000Y-110000000D02*
X12000000Y-110000000D01*
D10*
D11*
X10000000Y-160000000D02*
X12000000Y-160000000D01*
D10*
D11*
X10690476Y-35216666D02*
X11309523Y-35216666D01*
X10566666Y-35588095D02*
X11000000Y-34288095D01*
X11433333Y-35588095D01*
D10*
D11*
X11092857Y-84907142D02*
X11278571Y-84969047D01*
X11340476Y-85030952D01*
X11402380Y-85154761D01*
X11402380Y-85340476D01*
X11340476Y-85464285D01*
X11278571Y-85526190D01*
X11154761Y-85588095D01*
X10659523Y-85588095D01*
X10659523Y-84288095D01*
X11092857Y-84288095D01*
X11216666Y-84350000D01*
X11278571Y-84411904D01*
X11340476Y-84535714D01*
X11340476Y-84659523D01*
X11278571Y-84783333D01*
X11216666Y-84845238D01*
X11092857Y-84907142D01*
X10659523Y-84907142D01*
D10*
D11*
X11402380Y-135464285D02*
X11340476Y-135526190D01*
X11154761Y-135588095D01*
X11030952Y-135588095D01*
X10845238Y-135526190D01*
X10721428Y-135402380D01*
X10659523Y-135278571D01*
X10597619Y-135030952D01*
X10597619Y-134845238D01*
X10659523Y-134597619D01*
X10721428Y-134473809D01*
X10845238Y-134350000D01*
X11030952Y-134288095D01*
X11154761Y-134288095D01*
X11340476Y-134350000D01*
X11402380Y-134411904D01*
D10*
D11*
X10659523Y-185588095D02*
X10659523Y-184288095D01*
X10969047Y-184288095D01*
X11154761Y-184350000D01*
X11278571Y-184473809D01*
X11340476Y-184597619D01*
X11402380Y-184845238D01*
X11402380Y-185030952D01*
X11340476Y-185278571D01*
X11278571Y-185402380D01*
X11154761Y-185526190D01*
X10969047Y-185588095D01*
X10659523Y-185588095D01*
D10*
D11*
X287002200Y-60000000D02*
X285002200Y-60000000D01*
D10*
D11*
X287002200Y-110000000D02*
X285002200Y-110000000D01*
D10*
D11*
X287002200Y-160000000D02*
X285002200Y-160000000D01*
D10*
D11*
X285692676Y-35216666D02*
X286311723Y-35216666D01*
X285568866Y-35588095D02*
X286002200Y-34288095D01*
X286435533Y-35588095D01*
D10*
D11*
X286095057Y-84907142D02*
X286280771Y-84969047D01*
X286342676Y-85030952D01*
X286404580Y-85154761D01*
X286404580Y-85340476D01*
X286342676Y-85464285D01*
X286280771Y-85526190D01*
X286156961Y-85588095D01*
X285661723Y-85588095D01*
X285661723Y-84288095D01*
X286095057Y-84288095D01*
X286218866Y-84350000D01*
X286280771Y-84411904D01*
X286342676Y-84535714D01*
X286342676Y-84659523D01*
X286280771Y-84783333D01*
X286218866Y-84845238D01*
X286095057Y-84907142D01*
X285661723Y-84907142D01*
D10*
D11*
X286404580Y-135464285D02*
X286342676Y-135526190D01*
X286156961Y-135588095D01*
X286033152Y-135588095D01*
X285847438Y-135526190D01*
X285723628Y-135402380D01*
X285661723Y-135278571D01*
X285599819Y-135030952D01*
X285599819Y-134845238D01*
X285661723Y-134597619D01*
X285723628Y-134473809D01*
X285847438Y-134350000D01*
X286033152Y-134288095D01*
X286156961Y-134288095D01*
X286342676Y-134350000D01*
X286404580Y-134411904D01*
D10*
D11*
X285661723Y-185588095D02*
X285661723Y-184288095D01*
X285971247Y-184288095D01*
X286156961Y-184350000D01*
X286280771Y-184473809D01*
X286342676Y-184597619D01*
X286404580Y-184845238D01*
X286404580Y-185030952D01*
X286342676Y-185278571D01*
X286280771Y-185402380D01*
X286156961Y-185526190D01*
X285971247Y-185588095D01*
X285661723Y-185588095D01*
D10*
D11*
X200434342Y-193785771D02*
X200434342Y-192285771D01*
X200791485Y-192285771D01*
X201005771Y-192357200D01*
X201148628Y-192500057D01*
X201220057Y-192642914D01*
X201291485Y-192928628D01*
X201291485Y-193142914D01*
X201220057Y-193428628D01*
X201148628Y-193571485D01*
X201005771Y-193714342D01*
X200791485Y-193785771D01*
X200434342Y-193785771D01*
X202577200Y-193785771D02*
X202577200Y-193000057D01*
X202505771Y-192857200D01*
X202362914Y-192785771D01*
X202077200Y-192785771D01*
X201934342Y-192857200D01*
X202577200Y-193714342D02*
X202434342Y-193785771D01*
X202077200Y-193785771D01*
X201934342Y-193714342D01*
X201862914Y-193571485D01*
X201862914Y-193428628D01*
X201934342Y-193285771D01*
X202077200Y-193214342D01*
X202434342Y-193214342D01*
X202577200Y-193142914D01*
X203077200Y-192785771D02*
X203648628Y-192785771D01*
X203291485Y-192285771D02*
X203291485Y-193571485D01*
X203362914Y-193714342D01*
X203505771Y-193785771D01*
X203648628Y-193785771D01*
X204720057Y-193714342D02*
X204577200Y-193785771D01*
X204291485Y-193785771D01*
X204148628Y-193714342D01*
X204077200Y-193571485D01*
X204077200Y-193000057D01*
X204148628Y-192857200D01*
X204291485Y-192785771D01*
X204577200Y-192785771D01*
X204720057Y-192857200D01*
X204791485Y-193000057D01*
X204791485Y-193142914D01*
X204077200Y-193285771D01*
X205434342Y-193642914D02*
X205505771Y-193714342D01*
X205434342Y-193785771D01*
X205362914Y-193714342D01*
X205434342Y-193642914D01*
X205434342Y-193785771D01*
X205434342Y-192857200D02*
X205505771Y-192928628D01*
X205434342Y-193000057D01*
X205362914Y-192928628D01*
X205434342Y-192857200D01*
X205434342Y-193000057D01*
D10*
D11*
X177002200Y-194507200D02*
X285002200Y-194507200D01*
D10*
D11*
X178434342Y-196585771D02*
X178434342Y-195085771D01*
X179291485Y-196585771D02*
X178648628Y-195728628D01*
X179291485Y-195085771D02*
X178434342Y-195942914D01*
X179934342Y-196585771D02*
X179934342Y-195585771D01*
X179934342Y-195085771D02*
X179862914Y-195157200D01*
X179934342Y-195228628D01*
X180005771Y-195157200D01*
X179934342Y-195085771D01*
X179934342Y-195228628D01*
X181505771Y-196442914D02*
X181434342Y-196514342D01*
X181220057Y-196585771D01*
X181077200Y-196585771D01*
X180862914Y-196514342D01*
X180720057Y-196371485D01*
X180648628Y-196228628D01*
X180577200Y-195942914D01*
X180577200Y-195728628D01*
X180648628Y-195442914D01*
X180720057Y-195300057D01*
X180862914Y-195157200D01*
X181077200Y-195085771D01*
X181220057Y-195085771D01*
X181434342Y-195157200D01*
X181505771Y-195228628D01*
X182791485Y-196585771D02*
X182791485Y-195800057D01*
X182720057Y-195657200D01*
X182577200Y-195585771D01*
X182291485Y-195585771D01*
X182148628Y-195657200D01*
X182791485Y-196514342D02*
X182648628Y-196585771D01*
X182291485Y-196585771D01*
X182148628Y-196514342D01*
X182077200Y-196371485D01*
X182077200Y-196228628D01*
X182148628Y-196085771D01*
X182291485Y-196014342D01*
X182648628Y-196014342D01*
X182791485Y-195942914D01*
X184148628Y-196585771D02*
X184148628Y-195085771D01*
X184148628Y-196514342D02*
X184005771Y-196585771D01*
X183720057Y-196585771D01*
X183577200Y-196514342D01*
X183505771Y-196442914D01*
X183434342Y-196300057D01*
X183434342Y-195871485D01*
X183505771Y-195728628D01*
X183577200Y-195657200D01*
X183720057Y-195585771D01*
X184005771Y-195585771D01*
X184148628Y-195657200D01*
X186005771Y-195800057D02*
X186505771Y-195800057D01*
X186720057Y-196585771D02*
X186005771Y-196585771D01*
X186005771Y-195085771D01*
X186720057Y-195085771D01*
X187362914Y-196442914D02*
X187434342Y-196514342D01*
X187362914Y-196585771D01*
X187291485Y-196514342D01*
X187362914Y-196442914D01*
X187362914Y-196585771D01*
X188077200Y-196585771D02*
X188077200Y-195085771D01*
X188434342Y-195085771D01*
X188648628Y-195157200D01*
X188791485Y-195300057D01*
X188862914Y-195442914D01*
X188934342Y-195728628D01*
X188934342Y-195942914D01*
X188862914Y-196228628D01*
X188791485Y-196371485D01*
X188648628Y-196514342D01*
X188434342Y-196585771D01*
X188077200Y-196585771D01*
X189577200Y-196442914D02*
X189648628Y-196514342D01*
X189577200Y-196585771D01*
X189505771Y-196514342D01*
X189577200Y-196442914D01*
X189577200Y-196585771D01*
X190220057Y-196157200D02*
X190934342Y-196157200D01*
X190077200Y-196585771D02*
X190577200Y-195085771D01*
X191077200Y-196585771D01*
X191577200Y-196442914D02*
X191648628Y-196514342D01*
X191577200Y-196585771D01*
X191505771Y-196514342D01*
X191577200Y-196442914D01*
X191577200Y-196585771D01*
X194577200Y-196585771D02*
X194577200Y-195085771D01*
X194720057Y-196014342D02*
X195148628Y-196585771D01*
X195148628Y-195585771D02*
X194577200Y-196157200D01*
X195791485Y-196585771D02*
X195791485Y-195585771D01*
X195791485Y-195085771D02*
X195720057Y-195157200D01*
X195791485Y-195228628D01*
X195862914Y-195157200D01*
X195791485Y-195085771D01*
X195791485Y-195228628D01*
X197148628Y-196514342D02*
X197005771Y-196585771D01*
X196720057Y-196585771D01*
X196577200Y-196514342D01*
X196505771Y-196442914D01*
X196434342Y-196300057D01*
X196434342Y-195871485D01*
X196505771Y-195728628D01*
X196577200Y-195657200D01*
X196720057Y-195585771D01*
X197005771Y-195585771D01*
X197148628Y-195657200D01*
X198434342Y-196585771D02*
X198434342Y-195800057D01*
X198362914Y-195657200D01*
X198220057Y-195585771D01*
X197934342Y-195585771D01*
X197791485Y-195657200D01*
X198434342Y-196514342D02*
X198291485Y-196585771D01*
X197934342Y-196585771D01*
X197791485Y-196514342D01*
X197720057Y-196371485D01*
X197720057Y-196228628D01*
X197791485Y-196085771D01*
X197934342Y-196014342D01*
X198291485Y-196014342D01*
X198434342Y-195942914D01*
X199791485Y-196585771D02*
X199791485Y-195085771D01*
X199791485Y-196514342D02*
X199648628Y-196585771D01*
X199362914Y-196585771D01*
X199220057Y-196514342D01*
X199148628Y-196442914D01*
X199077200Y-196300057D01*
X199077200Y-195871485D01*
X199148628Y-195728628D01*
X199220057Y-195657200D01*
X199362914Y-195585771D01*
X199648628Y-195585771D01*
X199791485Y-195657200D01*
X202077200Y-197157200D02*
X202005771Y-197085771D01*
X201862914Y-196871485D01*
X201791485Y-196728628D01*
X201720057Y-196514342D01*
X201648628Y-196157200D01*
X201648628Y-195871485D01*
X201720057Y-195514342D01*
X201791485Y-195300057D01*
X201862914Y-195157200D01*
X202005771Y-194942914D01*
X202077200Y-194871485D01*
X203291485Y-195085771D02*
X203005771Y-195085771D01*
X202862914Y-195157200D01*
X202791485Y-195228628D01*
X202648628Y-195442914D01*
X202577200Y-195728628D01*
X202577200Y-196300057D01*
X202648628Y-196442914D01*
X202720057Y-196514342D01*
X202862914Y-196585771D01*
X203148628Y-196585771D01*
X203291485Y-196514342D01*
X203362914Y-196442914D01*
X203434342Y-196300057D01*
X203434342Y-195942914D01*
X203362914Y-195800057D01*
X203291485Y-195728628D01*
X203148628Y-195657200D01*
X202862914Y-195657200D01*
X202720057Y-195728628D01*
X202648628Y-195800057D01*
X202577200Y-195942914D01*
X204077200Y-196442914D02*
X204148628Y-196514342D01*
X204077200Y-196585771D01*
X204005771Y-196514342D01*
X204077200Y-196442914D01*
X204077200Y-196585771D01*
X205077200Y-195085771D02*
X205220057Y-195085771D01*
X205362914Y-195157200D01*
X205434342Y-195228628D01*
X205505771Y-195371485D01*
X205577200Y-195657200D01*
X205577200Y-196014342D01*
X205505771Y-196300057D01*
X205434342Y-196442914D01*
X205362914Y-196514342D01*
X205220057Y-196585771D01*
X205077200Y-196585771D01*
X204934342Y-196514342D01*
X204862914Y-196442914D01*
X204791485Y-196300057D01*
X204720057Y-196014342D01*
X204720057Y-195657200D01*
X204791485Y-195371485D01*
X204862914Y-195228628D01*
X204934342Y-195157200D01*
X205077200Y-195085771D01*
X206220057Y-196442914D02*
X206291485Y-196514342D01*
X206220057Y-196585771D01*
X206148628Y-196514342D01*
X206220057Y-196442914D01*
X206220057Y-196585771D01*
X206791485Y-195085771D02*
X207791485Y-195085771D01*
X207148628Y-196585771D01*
X208362914Y-196014342D02*
X209505771Y-196014342D01*
X211005771Y-196585771D02*
X210148628Y-196585771D01*
X210577200Y-196585771D02*
X210577200Y-195085771D01*
X210434342Y-195300057D01*
X210291485Y-195442914D01*
X210148628Y-195514342D01*
X211505771Y-197157200D02*
X211577200Y-197085771D01*
X211720057Y-196871485D01*
X211791485Y-196728628D01*
X211862914Y-196514342D01*
X211934342Y-196157200D01*
X211934342Y-195871485D01*
X211862914Y-195514342D01*
X211791485Y-195300057D01*
X211720057Y-195157200D01*
X211577200Y-194942914D01*
X211505771Y-194871485D01*
X212648628Y-196014342D02*
X213791485Y-196014342D01*
X215291485Y-196585771D02*
X214434342Y-196585771D01*
X214862914Y-196585771D02*
X214862914Y-195085771D01*
X214720057Y-195300057D01*
X214577200Y-195442914D01*
X214434342Y-195514342D01*
D10*
D11*
X177002200Y-191507200D02*
X285002200Y-191507200D01*
D10*
D12*
X264411485Y-193785771D02*
X263911485Y-193071485D01*
X263554342Y-193785771D02*
X263554342Y-192285771D01*
X264125771Y-192285771D01*
X264268628Y-192357200D01*
X264340057Y-192428628D01*
X264411485Y-192571485D01*
X264411485Y-192785771D01*
X264340057Y-192928628D01*
X264268628Y-193000057D01*
X264125771Y-193071485D01*
X263554342Y-193071485D01*
X265625771Y-193714342D02*
X265482914Y-193785771D01*
X265197200Y-193785771D01*
X265054342Y-193714342D01*
X264982914Y-193571485D01*
X264982914Y-193000057D01*
X265054342Y-192857200D01*
X265197200Y-192785771D01*
X265482914Y-192785771D01*
X265625771Y-192857200D01*
X265697200Y-193000057D01*
X265697200Y-193142914D01*
X264982914Y-193285771D01*
X266197200Y-192785771D02*
X266554342Y-193785771D01*
X266911485Y-192785771D01*
X267482914Y-193642914D02*
X267554342Y-193714342D01*
X267482914Y-193785771D01*
X267411485Y-193714342D01*
X267482914Y-193642914D01*
X267482914Y-193785771D01*
X267482914Y-192857200D02*
X267554342Y-192928628D01*
X267482914Y-193000057D01*
X267411485Y-192928628D01*
X267482914Y-192857200D01*
X267482914Y-193000057D01*
D10*
D11*
X178362914Y-193714342D02*
X178577200Y-193785771D01*
X178934342Y-193785771D01*
X179077200Y-193714342D01*
X179148628Y-193642914D01*
X179220057Y-193500057D01*
X179220057Y-193357200D01*
X179148628Y-193214342D01*
X179077200Y-193142914D01*
X178934342Y-193071485D01*
X178648628Y-193000057D01*
X178505771Y-192928628D01*
X178434342Y-192857200D01*
X178362914Y-192714342D01*
X178362914Y-192571485D01*
X178434342Y-192428628D01*
X178505771Y-192357200D01*
X178648628Y-192285771D01*
X179005771Y-192285771D01*
X179220057Y-192357200D01*
X179862914Y-193785771D02*
X179862914Y-192785771D01*
X179862914Y-192285771D02*
X179791485Y-192357200D01*
X179862914Y-192428628D01*
X179934342Y-192357200D01*
X179862914Y-192285771D01*
X179862914Y-192428628D01*
X180434342Y-192785771D02*
X181220057Y-192785771D01*
X180434342Y-193785771D01*
X181220057Y-193785771D01*
X182362914Y-193714342D02*
X182220057Y-193785771D01*
X181934342Y-193785771D01*
X181791485Y-193714342D01*
X181720057Y-193571485D01*
X181720057Y-193000057D01*
X181791485Y-192857200D01*
X181934342Y-192785771D01*
X182220057Y-192785771D01*
X182362914Y-192857200D01*
X182434342Y-193000057D01*
X182434342Y-193142914D01*
X181720057Y-193285771D01*
X183077200Y-193642914D02*
X183148628Y-193714342D01*
X183077200Y-193785771D01*
X183005771Y-193714342D01*
X183077200Y-193642914D01*
X183077200Y-193785771D01*
X183077200Y-192857200D02*
X183148628Y-192928628D01*
X183077200Y-193000057D01*
X183005771Y-192928628D01*
X183077200Y-192857200D01*
X183077200Y-193000057D01*
X184862914Y-193357200D02*
X185577200Y-193357200D01*
X184720057Y-193785771D02*
X185220057Y-192285771D01*
X185720057Y-193785771D01*
X186862914Y-192785771D02*
X186862914Y-193785771D01*
X186505771Y-192214342D02*
X186148628Y-193285771D01*
X187077200Y-193285771D01*
D10*
D11*
X263434342Y-196585771D02*
X263434342Y-195085771D01*
X264791485Y-196585771D02*
X264791485Y-195085771D01*
X264791485Y-196514342D02*
X264648628Y-196585771D01*
X264362914Y-196585771D01*
X264220057Y-196514342D01*
X264148628Y-196442914D01*
X264077200Y-196300057D01*
X264077200Y-195871485D01*
X264148628Y-195728628D01*
X264220057Y-195657200D01*
X264362914Y-195585771D01*
X264648628Y-195585771D01*
X264791485Y-195657200D01*
X265505771Y-196442914D02*
X265577200Y-196514342D01*
X265505771Y-196585771D01*
X265434342Y-196514342D01*
X265505771Y-196442914D01*
X265505771Y-196585771D01*
X265505771Y-195657200D02*
X265577200Y-195728628D01*
X265505771Y-195800057D01*
X265434342Y-195728628D01*
X265505771Y-195657200D01*
X265505771Y-195800057D01*
X268148628Y-196585771D02*
X267291485Y-196585771D01*
X267720057Y-196585771D02*
X267720057Y-195085771D01*
X267577200Y-195300057D01*
X267434342Y-195442914D01*
X267291485Y-195514342D01*
X269862914Y-195014342D02*
X268577200Y-196942914D01*
X271148628Y-196585771D02*
X270291485Y-196585771D01*
X270720057Y-196585771D02*
X270720057Y-195085771D01*
X270577200Y-195300057D01*
X270434342Y-195442914D01*
X270291485Y-195514342D01*
D10*
D11*
X177002200Y-187507200D02*
X285002200Y-187507200D01*
D10*
D13*
X178714580Y-188211961D02*
X179857438Y-188211961D01*
X179036009Y-190211961D02*
X179286009Y-188211961D01*
X180274104Y-190211961D02*
X180440771Y-188878628D01*
X180524104Y-188211961D02*
X180416961Y-188307200D01*
X180500295Y-188402438D01*
X180607438Y-188307200D01*
X180524104Y-188211961D01*
X180500295Y-188402438D01*
X181107438Y-188878628D02*
X181869342Y-188878628D01*
X181476485Y-188211961D02*
X181262200Y-189926247D01*
X181333628Y-190116723D01*
X181512200Y-190211961D01*
X181702676Y-190211961D01*
X182655057Y-190211961D02*
X182476485Y-190116723D01*
X182405057Y-189926247D01*
X182619342Y-188211961D01*
X184190771Y-190116723D02*
X183988390Y-190211961D01*
X183607438Y-190211961D01*
X183428866Y-190116723D01*
X183357438Y-189926247D01*
X183452676Y-189164342D01*
X183571723Y-188973866D01*
X183774104Y-188878628D01*
X184155057Y-188878628D01*
X184333628Y-188973866D01*
X184405057Y-189164342D01*
X184381247Y-189354819D01*
X183405057Y-189545295D01*
X185155057Y-190021485D02*
X185238390Y-190116723D01*
X185131247Y-190211961D01*
X185047914Y-190116723D01*
X185155057Y-190021485D01*
X185131247Y-190211961D01*
X185286009Y-188973866D02*
X185369342Y-189069104D01*
X185262200Y-189164342D01*
X185178866Y-189069104D01*
X185286009Y-188973866D01*
X185262200Y-189164342D01*
D10*
D11*
X178934342Y-185600057D02*
X178434342Y-185600057D01*
X178434342Y-186385771D02*
X178434342Y-184885771D01*
X179148628Y-184885771D01*
X179720057Y-186385771D02*
X179720057Y-185385771D01*
X179720057Y-184885771D02*
X179648628Y-184957200D01*
X179720057Y-185028628D01*
X179791485Y-184957200D01*
X179720057Y-184885771D01*
X179720057Y-185028628D01*
X180648628Y-186385771D02*
X180505771Y-186314342D01*
X180434342Y-186171485D01*
X180434342Y-184885771D01*
X181791485Y-186314342D02*
X181648628Y-186385771D01*
X181362914Y-186385771D01*
X181220057Y-186314342D01*
X181148628Y-186171485D01*
X181148628Y-185600057D01*
X181220057Y-185457200D01*
X181362914Y-185385771D01*
X181648628Y-185385771D01*
X181791485Y-185457200D01*
X181862914Y-185600057D01*
X181862914Y-185742914D01*
X181148628Y-185885771D01*
X182505771Y-186242914D02*
X182577200Y-186314342D01*
X182505771Y-186385771D01*
X182434342Y-186314342D01*
X182505771Y-186242914D01*
X182505771Y-186385771D01*
X182505771Y-185457200D02*
X182577200Y-185528628D01*
X182505771Y-185600057D01*
X182434342Y-185528628D01*
X182505771Y-185457200D01*
X182505771Y-185600057D01*
X184362914Y-186385771D02*
X184362914Y-184885771D01*
X184362914Y-185457200D02*
X184505771Y-185385771D01*
X184791485Y-185385771D01*
X184934342Y-185457200D01*
X185005771Y-185528628D01*
X185077200Y-185671485D01*
X185077200Y-186100057D01*
X185005771Y-186242914D01*
X184934342Y-186314342D01*
X184791485Y-186385771D01*
X184505771Y-186385771D01*
X184362914Y-186314342D01*
X186291485Y-186314342D02*
X186148628Y-186385771D01*
X185862914Y-186385771D01*
X185720057Y-186314342D01*
X185648628Y-186171485D01*
X185648628Y-185600057D01*
X185720057Y-185457200D01*
X185862914Y-185385771D01*
X186148628Y-185385771D01*
X186291485Y-185457200D01*
X186362914Y-185600057D01*
X186362914Y-185742914D01*
X185648628Y-185885771D01*
X187005771Y-185385771D02*
X187005771Y-186385771D01*
X187005771Y-185528628D02*
X187077200Y-185457200D01*
X187220057Y-185385771D01*
X187434342Y-185385771D01*
X187577200Y-185457200D01*
X187648628Y-185600057D01*
X187648628Y-186385771D01*
X188362914Y-185385771D02*
X188362914Y-186671485D01*
X188291485Y-186814342D01*
X188148628Y-186885771D01*
X188077200Y-186885771D01*
X188362914Y-184885771D02*
X188291485Y-184957200D01*
X188362914Y-185028628D01*
X188434342Y-184957200D01*
X188362914Y-184885771D01*
X188362914Y-185028628D01*
X189291485Y-186385771D02*
X189148628Y-186314342D01*
X189077200Y-186242914D01*
X189005771Y-186100057D01*
X189005771Y-185671485D01*
X189077200Y-185528628D01*
X189148628Y-185457200D01*
X189291485Y-185385771D01*
X189505771Y-185385771D01*
X189648628Y-185457200D01*
X189720057Y-185528628D01*
X189791485Y-185671485D01*
X189791485Y-186100057D01*
X189720057Y-186242914D01*
X189648628Y-186314342D01*
X189505771Y-186385771D01*
X189291485Y-186385771D01*
X190648628Y-186385771D02*
X190505771Y-186314342D01*
X190434342Y-186171485D01*
X190434342Y-184885771D01*
X191220057Y-186385771D02*
X191220057Y-185385771D01*
X191220057Y-184885771D02*
X191148628Y-184957200D01*
X191220057Y-185028628D01*
X191291485Y-184957200D01*
X191220057Y-184885771D01*
X191220057Y-185028628D01*
X191934342Y-185385771D02*
X191934342Y-186385771D01*
X191934342Y-185528628D02*
X192005771Y-185457200D01*
X192148628Y-185385771D01*
X192362914Y-185385771D01*
X192505771Y-185457200D01*
X192577200Y-185600057D01*
X192577200Y-186385771D01*
X192934342Y-186528628D02*
X194077200Y-186528628D01*
X195220057Y-186385771D02*
X194362914Y-186385771D01*
X194791485Y-186385771D02*
X194791485Y-184885771D01*
X194648628Y-185100057D01*
X194505771Y-185242914D01*
X194362914Y-185314342D01*
X195862914Y-186242914D02*
X195934342Y-186314342D01*
X195862914Y-186385771D01*
X195791485Y-186314342D01*
X195862914Y-186242914D01*
X195862914Y-186385771D01*
X197220057Y-184885771D02*
X196934342Y-184885771D01*
X196791485Y-184957200D01*
X196720057Y-185028628D01*
X196577200Y-185242914D01*
X196505771Y-185528628D01*
X196505771Y-186100057D01*
X196577200Y-186242914D01*
X196648628Y-186314342D01*
X196791485Y-186385771D01*
X197077200Y-186385771D01*
X197220057Y-186314342D01*
X197291485Y-186242914D01*
X197362914Y-186100057D01*
X197362914Y-185742914D01*
X197291485Y-185600057D01*
X197220057Y-185528628D01*
X197077200Y-185457200D01*
X196791485Y-185457200D01*
X196648628Y-185528628D01*
X196577200Y-185600057D01*
X196505771Y-185742914D01*
X198005771Y-186242914D02*
X198077200Y-186314342D01*
X198005771Y-186385771D01*
X197934342Y-186314342D01*
X198005771Y-186242914D01*
X198005771Y-186385771D01*
X198720057Y-186385771D02*
X198720057Y-184885771D01*
X198862914Y-185814342D02*
X199291485Y-186385771D01*
X199291485Y-185385771D02*
X198720057Y-185957200D01*
X199934342Y-186385771D02*
X199934342Y-185385771D01*
X199934342Y-184885771D02*
X199862914Y-184957200D01*
X199934342Y-185028628D01*
X200005771Y-184957200D01*
X199934342Y-184885771D01*
X199934342Y-185028628D01*
X201291485Y-186314342D02*
X201148628Y-186385771D01*
X200862914Y-186385771D01*
X200720057Y-186314342D01*
X200648628Y-186242914D01*
X200577200Y-186100057D01*
X200577200Y-185671485D01*
X200648628Y-185528628D01*
X200720057Y-185457200D01*
X200862914Y-185385771D01*
X201148628Y-185385771D01*
X201291485Y-185457200D01*
X202577200Y-186385771D02*
X202577200Y-185600057D01*
X202505771Y-185457200D01*
X202362914Y-185385771D01*
X202077200Y-185385771D01*
X201934342Y-185457200D01*
X202577200Y-186314342D02*
X202434342Y-186385771D01*
X202077200Y-186385771D01*
X201934342Y-186314342D01*
X201862914Y-186171485D01*
X201862914Y-186028628D01*
X201934342Y-185885771D01*
X202077200Y-185814342D01*
X202434342Y-185814342D01*
X202577200Y-185742914D01*
X203934342Y-186385771D02*
X203934342Y-184885771D01*
X203934342Y-186314342D02*
X203791485Y-186385771D01*
X203505771Y-186385771D01*
X203362914Y-186314342D01*
X203291485Y-186242914D01*
X203220057Y-186100057D01*
X203220057Y-185671485D01*
X203291485Y-185528628D01*
X203362914Y-185457200D01*
X203505771Y-185385771D01*
X203791485Y-185385771D01*
X203934342Y-185457200D01*
X204291485Y-186528628D02*
X205434342Y-186528628D01*
X205791485Y-185385771D02*
X205791485Y-186885771D01*
X205791485Y-185457200D02*
X205934342Y-185385771D01*
X206220057Y-185385771D01*
X206362914Y-185457200D01*
X206434342Y-185528628D01*
X206505771Y-185671485D01*
X206505771Y-186100057D01*
X206434342Y-186242914D01*
X206362914Y-186314342D01*
X206220057Y-186385771D01*
X205934342Y-186385771D01*
X205791485Y-186314342D01*
X207791485Y-186314342D02*
X207648628Y-186385771D01*
X207362914Y-186385771D01*
X207220057Y-186314342D01*
X207148628Y-186242914D01*
X207077200Y-186100057D01*
X207077200Y-185671485D01*
X207148628Y-185528628D01*
X207220057Y-185457200D01*
X207362914Y-185385771D01*
X207648628Y-185385771D01*
X207791485Y-185457200D01*
X208434342Y-186385771D02*
X208434342Y-184885771D01*
X208434342Y-185457200D02*
X208577200Y-185385771D01*
X208862914Y-185385771D01*
X209005771Y-185457200D01*
X209077200Y-185528628D01*
X209148628Y-185671485D01*
X209148628Y-186100057D01*
X209077200Y-186242914D01*
X209005771Y-186314342D01*
X208862914Y-186385771D01*
X208577200Y-186385771D01*
X208434342Y-186314342D01*
D10*
D11*
X177002200Y-181507200D02*
X285002200Y-181507200D01*
D10*
D11*
X178362914Y-183614342D02*
X178577200Y-183685771D01*
X178934342Y-183685771D01*
X179077200Y-183614342D01*
X179148628Y-183542914D01*
X179220057Y-183400057D01*
X179220057Y-183257200D01*
X179148628Y-183114342D01*
X179077200Y-183042914D01*
X178934342Y-182971485D01*
X178648628Y-182900057D01*
X178505771Y-182828628D01*
X178434342Y-182757200D01*
X178362914Y-182614342D01*
X178362914Y-182471485D01*
X178434342Y-182328628D01*
X178505771Y-182257200D01*
X178648628Y-182185771D01*
X179005771Y-182185771D01*
X179220057Y-182257200D01*
X179862914Y-183685771D02*
X179862914Y-182185771D01*
X180505771Y-183685771D02*
X180505771Y-182900057D01*
X180434342Y-182757200D01*
X180291485Y-182685771D01*
X180077200Y-182685771D01*
X179934342Y-182757200D01*
X179862914Y-182828628D01*
X181791485Y-183614342D02*
X181648628Y-183685771D01*
X181362914Y-183685771D01*
X181220057Y-183614342D01*
X181148628Y-183471485D01*
X181148628Y-182900057D01*
X181220057Y-182757200D01*
X181362914Y-182685771D01*
X181648628Y-182685771D01*
X181791485Y-182757200D01*
X181862914Y-182900057D01*
X181862914Y-183042914D01*
X181148628Y-183185771D01*
X183077200Y-183614342D02*
X182934342Y-183685771D01*
X182648628Y-183685771D01*
X182505771Y-183614342D01*
X182434342Y-183471485D01*
X182434342Y-182900057D01*
X182505771Y-182757200D01*
X182648628Y-182685771D01*
X182934342Y-182685771D01*
X183077200Y-182757200D01*
X183148628Y-182900057D01*
X183148628Y-183042914D01*
X182434342Y-183185771D01*
X183577200Y-182685771D02*
X184148628Y-182685771D01*
X183791485Y-182185771D02*
X183791485Y-183471485D01*
X183862914Y-183614342D01*
X184005771Y-183685771D01*
X184148628Y-183685771D01*
X184648628Y-183542914D02*
X184720057Y-183614342D01*
X184648628Y-183685771D01*
X184577200Y-183614342D01*
X184648628Y-183542914D01*
X184648628Y-183685771D01*
X184648628Y-182757200D02*
X184720057Y-182828628D01*
X184648628Y-182900057D01*
X184577200Y-182828628D01*
X184648628Y-182757200D01*
X184648628Y-182900057D01*
D10*
D12*
D10*
D11*
D10*
D11*
D10*
D11*
D10*
D11*
D10*
D11*
X197002200Y-191507200D02*
X197002200Y-194507200D01*
D10*
D11*
X261002200Y-191507200D02*
X261002200Y-198007200D01*
D14*
X255450614Y-32899678D02*
X255450000Y-131440000D01*
X254700614Y-32149678D02*
X178700000Y-32149678D01*
X178700000Y-132157000D02*
X254699204Y-132157000D01*
X254699209Y-132157495D02*
G75*
G03*
X255450000Y-131440000I-8128J760069D01*
G01*
X177950000Y-32899678D02*
X177950000Y-131407000D01*
X177950000Y-131407000D02*
G75*
G03*
X178700000Y-132157000I750000J0D01*
G01*
X178700000Y-32149700D02*
G75*
G03*
X177950000Y-32899678I0J-750000D01*
G01*
X255450613Y-32899678D02*
G75*
G03*
X254700614Y-32149678I-750018J-18D01*
G01*
D15*
%TO.C,JP1*%
X232980000Y-95657500D03*
D16*
X232980000Y-98197500D03*
X230440000Y-95657500D03*
X230440000Y-98197500D03*
X227900000Y-95657500D03*
X227900000Y-98197500D03*
X225360000Y-95657500D03*
X225360000Y-98197500D03*
X222820000Y-95657500D03*
X222820000Y-98197500D03*
%TD*%
D17*
%TO.C,C17*%
X222866300Y-52089000D03*
X225991300Y-52089000D03*
%TD*%
D18*
%TO.C,R36*%
X226044200Y-71393000D03*
X222944200Y-71393000D03*
%TD*%
D19*
%TO.C,R6*%
X190709400Y-65252500D03*
X193809400Y-65252500D03*
%TD*%
D20*
%TO.C,IC2*%
X219541200Y-54449400D03*
X219541200Y-53179400D03*
X219541200Y-51909400D03*
X219541200Y-50639400D03*
X219541200Y-49369400D03*
X219541200Y-48099400D03*
X219541200Y-46829400D03*
X213953200Y-46829400D03*
X213953200Y-48099400D03*
X213953200Y-49369400D03*
X213953200Y-50639400D03*
X213953200Y-51932400D03*
X213953200Y-53179400D03*
X213953200Y-54449400D03*
%TD*%
D21*
%TO.C,C16*%
X213600000Y-115873000D03*
X213600000Y-113273000D03*
%TD*%
D22*
%TO.C,IC4*%
X197670000Y-52978000D03*
X197670000Y-51708000D03*
X197670000Y-50438000D03*
X197670000Y-49168000D03*
X191938000Y-49168000D03*
X191938000Y-50438000D03*
X191938000Y-51708000D03*
X191938000Y-52978000D03*
%TD*%
D19*
%TO.C,R8*%
X218605000Y-44238000D03*
X221705000Y-44238000D03*
%TD*%
%TO.C,R31*%
X215225000Y-64281000D03*
X218325000Y-64281000D03*
%TD*%
D23*
%TO.C,C13*%
X246944500Y-91598500D03*
X243819500Y-91598500D03*
%TD*%
D24*
%TO.C,C29*%
X185888200Y-100738200D03*
X185888200Y-97613200D03*
%TD*%
%TO.C,C12*%
X219061000Y-116133500D03*
X219061000Y-113008500D03*
%TD*%
D17*
%TO.C,C4*%
X222857900Y-48964800D03*
X225982900Y-48964800D03*
%TD*%
D25*
%TO.C,D5*%
X247609000Y-74187000D03*
X251219000Y-74187000D03*
%TD*%
%TO.C,D3*%
X228813000Y-49803000D03*
X232423000Y-49803000D03*
%TD*%
%TO.C,D2*%
X222623800Y-54883000D03*
X226233800Y-54883000D03*
%TD*%
D26*
%TO.C,IC5*%
X213981000Y-72834500D03*
X213981000Y-74104500D03*
X213981000Y-75374500D03*
X213981000Y-76644500D03*
X213981000Y-77914500D03*
X213981000Y-79184500D03*
X213981000Y-80454500D03*
X219569000Y-80454500D03*
X219569000Y-79184500D03*
X219569000Y-77914500D03*
X219569000Y-76644500D03*
X219569000Y-75351500D03*
X219569000Y-74104500D03*
X219569000Y-72834500D03*
%TD*%
D19*
%TO.C,R2*%
X213640000Y-44215000D03*
X216740000Y-44215000D03*
%TD*%
D27*
%TO.C,C9*%
X252208000Y-47732500D03*
X252208000Y-50857500D03*
%TD*%
D28*
%TO.C,D1*%
X210552000Y-50846000D03*
X210552000Y-47236000D03*
%TD*%
D29*
%TO.C,D11*%
X207752800Y-41421000D03*
X204142800Y-41421000D03*
%TD*%
D19*
%TO.C,R45*%
X230502500Y-80977300D03*
X233602500Y-80977300D03*
%TD*%
%TO.C,R11*%
X237958000Y-63773000D03*
X241058000Y-63773000D03*
%TD*%
%TO.C,R42*%
X193254000Y-112516900D03*
X196354000Y-112516900D03*
%TD*%
%TO.C,R7*%
X229068000Y-52089000D03*
X232168000Y-52089000D03*
%TD*%
D18*
%TO.C,R1*%
X221705000Y-41929000D03*
X218605000Y-41929000D03*
%TD*%
D19*
%TO.C,R34*%
X237958000Y-66306700D03*
X241058000Y-66306700D03*
%TD*%
D23*
%TO.C,C10*%
X210844500Y-80029000D03*
X207719500Y-80029000D03*
%TD*%
%TO.C,C22*%
X241070500Y-34918600D03*
X237945500Y-34918600D03*
%TD*%
D17*
%TO.C,C1*%
X229055500Y-54375000D03*
X232180500Y-54375000D03*
%TD*%
D23*
%TO.C,C32*%
X203740600Y-97004600D03*
X200615600Y-97004600D03*
%TD*%
D30*
%TO.C,D7*%
X243350000Y-102127000D03*
X247350000Y-102127000D03*
%TD*%
D24*
%TO.C,C11*%
X240048000Y-94431000D03*
X240048000Y-91306000D03*
%TD*%
D19*
%TO.C,R26*%
X180420000Y-74486100D03*
X183520000Y-74486100D03*
%TD*%
%TO.C,R43*%
X193254000Y-109976900D03*
X196354000Y-109976900D03*
%TD*%
%TO.C,R29*%
X180420000Y-71528300D03*
X183520000Y-71528300D03*
%TD*%
D17*
%TO.C,C19*%
X193195300Y-56153000D03*
X196320300Y-56153000D03*
%TD*%
%TO.C,C18*%
X207386100Y-52851000D03*
X210511100Y-52851000D03*
%TD*%
D31*
%TO.C,R30*%
X231126000Y-71173000D03*
X231126000Y-74273000D03*
%TD*%
D18*
%TO.C,R17*%
X188480000Y-53613000D03*
X185380000Y-53613000D03*
%TD*%
D30*
%TO.C,D10*%
X215908000Y-104159000D03*
X219908000Y-104159000D03*
%TD*%
D17*
%TO.C,C2*%
X226179400Y-41406900D03*
X229304400Y-41406900D03*
%TD*%
D19*
%TO.C,R28*%
X180420000Y-80401700D03*
X183520000Y-80401700D03*
%TD*%
D32*
%TO.C,IC1*%
X191832200Y-71945500D03*
X191832200Y-73215500D03*
X191832200Y-74485500D03*
X191832200Y-75755500D03*
X191832200Y-77025500D03*
X191832200Y-78295500D03*
X191832200Y-79565500D03*
X191832200Y-80835500D03*
X197674200Y-80835500D03*
X197674200Y-79565500D03*
X197674200Y-78295500D03*
X197674200Y-77025500D03*
X197674200Y-75755500D03*
X197674200Y-74485500D03*
X197674200Y-73215500D03*
X197674200Y-71945500D03*
%TD*%
D18*
%TO.C,R14*%
X203974000Y-50057000D03*
X200874000Y-50057000D03*
%TD*%
%TO.C,R65*%
X203720000Y-99460000D03*
X200620000Y-99460000D03*
%TD*%
D19*
%TO.C,R19*%
X185474600Y-74486100D03*
X188574600Y-74486100D03*
%TD*%
D24*
%TO.C,C28*%
X225538000Y-80321500D03*
X225538000Y-77196500D03*
%TD*%
D19*
%TO.C,R18*%
X204202500Y-110255000D03*
X207302500Y-110255000D03*
%TD*%
D18*
%TO.C,R16*%
X203974000Y-52343000D03*
X200874000Y-52343000D03*
%TD*%
D28*
%TO.C,D200*%
X222998000Y-109774000D03*
X222998000Y-106164000D03*
%TD*%
D19*
%TO.C,R23*%
X185474600Y-71528300D03*
X188574600Y-71528300D03*
%TD*%
D23*
%TO.C,C23*%
X196315700Y-68795900D03*
X193190700Y-68795900D03*
%TD*%
D17*
%TO.C,C27*%
X215212500Y-69107000D03*
X218337500Y-69107000D03*
%TD*%
D23*
%TO.C,C3*%
X218325500Y-57931000D03*
X215200500Y-57931000D03*
%TD*%
D18*
%TO.C,R32*%
X218325000Y-66679000D03*
X215225000Y-66679000D03*
%TD*%
D33*
%TO.C,IC3*%
X243318000Y-56679000D03*
D34*
X243318000Y-54139000D03*
X243318000Y-51599000D03*
X243318000Y-49059000D03*
X243318000Y-46519000D03*
X243318000Y-43979000D03*
X243318000Y-41439000D03*
X243318000Y-38899000D03*
X235698000Y-38899000D03*
X235698000Y-41439000D03*
X235698000Y-43979000D03*
X235698000Y-46519000D03*
X235698000Y-49059000D03*
X235698000Y-51599000D03*
X235698000Y-54139000D03*
X235698000Y-56679000D03*
%TD*%
D35*
%TO.C,C100*%
X240048000Y-97042000D03*
X240048000Y-99642000D03*
%TD*%
D19*
%TO.C,R9*%
X229068000Y-56661000D03*
X232168000Y-56661000D03*
%TD*%
D18*
%TO.C,R49*%
X249948000Y-48025000D03*
X246848000Y-48025000D03*
%TD*%
%TO.C,R12*%
X229291900Y-35833000D03*
X226191900Y-35833000D03*
%TD*%
D23*
%TO.C,C7*%
X239139300Y-83585000D03*
X236014300Y-83585000D03*
%TD*%
D36*
%TO.C,R47*%
X249668000Y-53385000D03*
X249668000Y-50285000D03*
%TD*%
D19*
%TO.C,R24*%
X185474600Y-77443900D03*
X188574600Y-77443900D03*
%TD*%
%TO.C,R41*%
X226189700Y-87395000D03*
X229289700Y-87395000D03*
%TD*%
D18*
%TO.C,R27*%
X183520000Y-77443900D03*
X180420000Y-77443900D03*
%TD*%
D31*
%TO.C,R50*%
X247128000Y-50285000D03*
X247128000Y-53385000D03*
%TD*%
D36*
%TO.C,R46*%
X245604000Y-74213000D03*
X245604000Y-71113000D03*
%TD*%
D37*
%TO.C,IC9*%
X191891800Y-97555000D03*
X191891800Y-98825000D03*
X191891800Y-100095000D03*
X191891800Y-101365000D03*
X197623800Y-101365000D03*
X197623800Y-100095000D03*
X197623800Y-98825000D03*
X197623800Y-97555000D03*
%TD*%
D19*
%TO.C,R15*%
X185380000Y-51073000D03*
X188480000Y-51073000D03*
%TD*%
D18*
%TO.C,R37*%
X244106000Y-85931700D03*
X241006000Y-85931700D03*
%TD*%
D24*
%TO.C,C14*%
X216521000Y-116135500D03*
X216521000Y-113010500D03*
%TD*%
D23*
%TO.C,C31*%
X196366500Y-104540000D03*
X193241500Y-104540000D03*
%TD*%
%TO.C,C6*%
X244118500Y-83585000D03*
X240993500Y-83585000D03*
%TD*%
D36*
%TO.C,R22*%
X223192000Y-80309000D03*
X223192000Y-77209000D03*
%TD*%
D38*
%TO.C,IC7*%
X245360000Y-97867000D03*
X242820000Y-97867000D03*
D39*
X247900000Y-97867000D03*
%TD*%
D19*
%TO.C,R44*%
X207732000Y-75457000D03*
X210832000Y-75457000D03*
%TD*%
%TO.C,R48*%
X207732000Y-73171000D03*
X210832000Y-73171000D03*
%TD*%
D17*
%TO.C,C24*%
X193209100Y-84048500D03*
X196334100Y-84048500D03*
%TD*%
%TO.C,C20*%
X193241500Y-45993000D03*
X196366500Y-45993000D03*
%TD*%
D23*
%TO.C,C30*%
X196366500Y-94507000D03*
X193241500Y-94507000D03*
%TD*%
D19*
%TO.C,R39*%
X236026800Y-85931700D03*
X239126800Y-85931700D03*
%TD*%
D39*
%TO.C,IC8*%
X220458000Y-107265000D03*
D38*
X217918000Y-107265000D03*
X215378000Y-107265000D03*
%TD*%
D19*
%TO.C,R38*%
X207732000Y-77743000D03*
X210832000Y-77743000D03*
%TD*%
D18*
%TO.C,R63*%
X196354000Y-91967000D03*
X193254000Y-91967000D03*
%TD*%
D23*
%TO.C,C25*%
X233627000Y-76356700D03*
X230502000Y-76356700D03*
%TD*%
D29*
%TO.C,D6*%
X251219000Y-71139000D03*
X247609000Y-71139000D03*
%TD*%
D18*
%TO.C,R20*%
X218325000Y-83077000D03*
X215225000Y-83077000D03*
%TD*%
D25*
%TO.C,D100*%
X234401000Y-91205000D03*
X238011000Y-91205000D03*
%TD*%
D19*
%TO.C,R13*%
X185380000Y-48533000D03*
X188480000Y-48533000D03*
%TD*%
D23*
%TO.C,C8*%
X233615000Y-78669500D03*
X230490000Y-78669500D03*
%TD*%
D36*
%TO.C,R64*%
X188548200Y-100725700D03*
X188548200Y-97625700D03*
%TD*%
D19*
%TO.C,R4*%
X213635800Y-39666000D03*
X216735800Y-39666000D03*
%TD*%
%TO.C,R21*%
X215225000Y-85602000D03*
X218325000Y-85602000D03*
%TD*%
D21*
%TO.C,C200*%
X221982000Y-115873000D03*
X221982000Y-113273000D03*
%TD*%
D19*
%TO.C,R10*%
X226191900Y-38604900D03*
X229291900Y-38604900D03*
%TD*%
D40*
%TO.C,Q1*%
X215825000Y-90591000D03*
X217725000Y-90591000D03*
D41*
X216775000Y-88086000D03*
%TD*%
D25*
%TO.C,D4*%
X228813000Y-47771000D03*
X232423000Y-47771000D03*
%TD*%
D19*
%TO.C,R3*%
X213635800Y-41930700D03*
X216735800Y-41930700D03*
%TD*%
D36*
%TO.C,R33*%
X233412000Y-74273000D03*
X233412000Y-71173000D03*
%TD*%
D23*
%TO.C,C26*%
X248526500Y-76446000D03*
X245401500Y-76446000D03*
%TD*%
D24*
%TO.C,C5*%
X228831555Y-74251300D03*
X228831555Y-71126300D03*
%TD*%
D31*
%TO.C,R62*%
X182231000Y-97619700D03*
X182231000Y-100719700D03*
%TD*%
D18*
%TO.C,R66*%
X203720000Y-101885300D03*
X200620000Y-101885300D03*
%TD*%
D42*
%TO.C,D8*%
X247350000Y-94392500D03*
X243350000Y-94392500D03*
%TD*%
D19*
%TO.C,R25*%
X185474600Y-80401700D03*
X188574600Y-80401700D03*
%TD*%
%TO.C,R35*%
X222972000Y-74187000D03*
X226072000Y-74187000D03*
%TD*%
D26*
%TO.C,IC6*%
X236741800Y-70885000D03*
X236741800Y-72155000D03*
X236741800Y-73425000D03*
X236741800Y-74695000D03*
X236741800Y-75965000D03*
X236741800Y-77235000D03*
X236741800Y-78505000D03*
X242329800Y-78505000D03*
X242329800Y-77235000D03*
X242329800Y-75965000D03*
X242329800Y-74695000D03*
X242329800Y-73402000D03*
X242329800Y-72155000D03*
X242329800Y-70885000D03*
%TD*%
D18*
%TO.C,R5*%
X199143400Y-65252500D03*
X196043400Y-65252500D03*
%TD*%
D35*
%TO.C,C15*%
X250716000Y-97042000D03*
X250716000Y-99642000D03*
%TD*%
D18*
%TO.C,R40*%
X188738200Y-95507700D03*
X185638200Y-95507700D03*
%TD*%
D42*
%TO.C,D9*%
X219908000Y-111017000D03*
X215908000Y-111017000D03*
%TD*%
D17*
%TO.C,C21*%
X237945500Y-61487000D03*
X241070500Y-61487000D03*
%TD*%
D43*
%TO.C,SW1*%
X227700000Y-109670000D03*
D44*
X227700000Y-111702000D03*
X227700000Y-107130000D03*
X227700000Y-102558000D03*
D43*
X227700000Y-104590000D03*
%TD*%
D45*
%TO.C,J11*%
X239219765Y-102726700D03*
X239219765Y-110346700D03*
X239219765Y-113775700D03*
D46*
X239219765Y-107171700D03*
%TD*%
D47*
%TO.C,J5*%
X217037099Y-130448000D03*
X217037099Y-122828000D03*
X217037099Y-119399000D03*
D46*
X217037099Y-126003000D03*
%TD*%
D48*
%TO.C,R54*%
X210452500Y-37656000D03*
X201052500Y-37656000D03*
D49*
X208252500Y-45164000D03*
X205752500Y-45164000D03*
X203252500Y-45164000D03*
%TD*%
D48*
%TO.C,R51*%
X232441900Y-37656000D03*
X223041900Y-37656000D03*
D49*
X230241900Y-45164000D03*
X227741900Y-45164000D03*
X225241900Y-45164000D03*
%TD*%
D47*
%TO.C,J12*%
X194854433Y-130448000D03*
X194854433Y-122828000D03*
X194854433Y-119399000D03*
D46*
X194854433Y-126003000D03*
%TD*%
D45*
%TO.C,J3*%
X250311484Y-102726700D03*
X250311484Y-110346700D03*
X250311484Y-113775700D03*
D46*
X250311484Y-107171700D03*
%TD*%
D48*
%TO.C,R58*%
X210450300Y-83645900D03*
X201050300Y-83645900D03*
D49*
X208250300Y-91153900D03*
X205750300Y-91153900D03*
X203250300Y-91153900D03*
%TD*%
D48*
%TO.C,R53*%
X232439700Y-83645900D03*
X223039700Y-83645900D03*
D49*
X230239700Y-91153900D03*
X227739700Y-91153900D03*
X225239700Y-91153900D03*
%TD*%
D48*
%TO.C,R60*%
X210450300Y-106640800D03*
X201050300Y-106640800D03*
D49*
X208250300Y-114148800D03*
X205750300Y-114148800D03*
X203250300Y-114148800D03*
%TD*%
D47*
%TO.C,J8*%
X239219765Y-130448000D03*
X239219765Y-122828000D03*
X239219765Y-119399000D03*
D46*
X239219765Y-126003000D03*
%TD*%
D45*
%TO.C,J4*%
X250311484Y-79724200D03*
X250311484Y-87344200D03*
X250311484Y-90773200D03*
D46*
X250311484Y-84169200D03*
%TD*%
D47*
%TO.C,J9*%
X183763100Y-130435000D03*
X183763100Y-122815000D03*
X183763100Y-119386000D03*
D46*
X183763100Y-125990000D03*
%TD*%
D45*
%TO.C,J2*%
X250311484Y-56711800D03*
X250311484Y-64331800D03*
X250311484Y-67760800D03*
D46*
X250311484Y-61156800D03*
%TD*%
D48*
%TO.C,R57*%
X188463100Y-60650900D03*
X179063100Y-60650900D03*
D49*
X186263100Y-68158900D03*
X183763100Y-68158900D03*
X181263100Y-68158900D03*
%TD*%
D48*
%TO.C,R52*%
X232441900Y-60650900D03*
X223041900Y-60650900D03*
D49*
X230241900Y-68158900D03*
X227741900Y-68158900D03*
X225241900Y-68158900D03*
%TD*%
D48*
%TO.C,R56*%
X210452500Y-60650900D03*
X201052500Y-60650900D03*
D49*
X208252500Y-68158900D03*
X205752500Y-68158900D03*
X203252500Y-68158900D03*
%TD*%
D48*
%TO.C,R59*%
X188460900Y-83645900D03*
X179060900Y-83645900D03*
D49*
X186260900Y-91153900D03*
X183760900Y-91153900D03*
X181260900Y-91153900D03*
%TD*%
D47*
%TO.C,J6*%
X250311484Y-130448000D03*
X250311484Y-122828000D03*
X250311484Y-119399000D03*
D46*
X250311484Y-126003000D03*
%TD*%
D47*
%TO.C,J10*%
X205945766Y-130448000D03*
X205945766Y-122828000D03*
X205945766Y-119399000D03*
D46*
X205945766Y-126003000D03*
%TD*%
D45*
%TO.C,J1*%
X250311484Y-33719062D03*
X250311484Y-41339062D03*
X250311484Y-44768062D03*
D46*
X250311484Y-38164062D03*
%TD*%
D47*
%TO.C,J7*%
X228128432Y-130448000D03*
X228128432Y-122828000D03*
X228128432Y-119399000D03*
D46*
X228128432Y-126003000D03*
%TD*%
D48*
%TO.C,R55*%
X188463100Y-37656000D03*
X179063100Y-37656000D03*
D49*
X186263100Y-45164000D03*
X183763100Y-45164000D03*
X181263100Y-45164000D03*
%TD*%
D48*
%TO.C,R61*%
X188463100Y-106640800D03*
X179063100Y-106640800D03*
D49*
X186263100Y-114148800D03*
X183763100Y-114148800D03*
X181263100Y-114148800D03*
%TD*%
M02*
