%TF.GenerationSoftware,KiCad,Pcbnew,(6.0.7-1)-1*%
%TF.CreationDate,2022-10-07T09:47:14+07:00*%
%TF.ProjectId,benjolin_1.6,62656e6a-6f6c-4696-9e5f-312e362e6b69,rev?*%
%TF.SameCoordinates,Original*%
%TF.FileFunction,Drillmap*%
%TF.FilePolarity,Positive*%
%FSLAX45Y45*%
G04 Gerber Fmt 4.5, Leading zero omitted, Abs format (unit mm)*
G04 Created by KiCad (PCBNEW (6.0.7-1)-1) date 2022-10-07 09:47:14*
%MOMM*%
%LPD*%
G01*
G04 APERTURE LIST*
%ADD10C,0.100000*%
%ADD11C,0.200000*%
%ADD12C,0.040000*%
%ADD13C,0.080000*%
%ADD14C,0.088900*%
%ADD15C,0.101600*%
G04 APERTURE END LIST*
D10*
X25545061Y-3289968D02*
X25545000Y-13144000D01*
X25470061Y-3214968D02*
X17870000Y-3214968D01*
X17870000Y-13215700D02*
X25469920Y-13215700D01*
X25469921Y-13215749D02*
G75*
G03*
X25545000Y-13144000I-813J76007D01*
G01*
X17795000Y-3289968D02*
X17795000Y-13140700D01*
X17795000Y-13140700D02*
G75*
G03*
X17870000Y-13215700I75000J0D01*
G01*
X17870000Y-3214970D02*
G75*
G03*
X17795000Y-3289968I0J-75000D01*
G01*
X25545061Y-3289968D02*
G75*
G03*
X25470061Y-3214968I-75002J-2D01*
G01*
D11*
D12*
X18646920Y-4811420D02*
X18686920Y-4851420D01*
X18686920Y-4811420D02*
X18646920Y-4851420D01*
X19012130Y-7090510D02*
X19052130Y-7130510D01*
X19052130Y-7090510D02*
X19012130Y-7130510D01*
X19308000Y-11640500D02*
X19348000Y-11680500D01*
X19348000Y-11640500D02*
X19308000Y-11680500D01*
X19404520Y-6731480D02*
X19444520Y-6771480D01*
X19444520Y-6731480D02*
X19404520Y-6771480D01*
X19651550Y-6348330D02*
X19691550Y-6388330D01*
X19691550Y-6348330D02*
X19651550Y-6388330D01*
X19677200Y-6698580D02*
X19717200Y-6738580D01*
X19717200Y-6698580D02*
X19677200Y-6738580D01*
X19911010Y-9793240D02*
X19951010Y-9833240D01*
X19951010Y-9793240D02*
X19911010Y-9833240D01*
X19965000Y-11210700D02*
X20005000Y-11250700D01*
X20005000Y-11210700D02*
X19965000Y-11250700D01*
X19987110Y-7969560D02*
X20027110Y-8009560D01*
X20027110Y-7969560D02*
X19987110Y-8009560D01*
X20055000Y-5540700D02*
X20095000Y-5580700D01*
X20095000Y-5540700D02*
X20055000Y-5580700D01*
X20065000Y-6370700D02*
X20105000Y-6410700D01*
X20105000Y-6370700D02*
X20065000Y-6410700D01*
X20185500Y-11785420D02*
X20225500Y-11825420D01*
X20225500Y-11785420D02*
X20185500Y-11825420D01*
X20260740Y-7755760D02*
X20300740Y-7795760D01*
X20300740Y-7755760D02*
X20260740Y-7795760D01*
X20485000Y-7690700D02*
X20525000Y-7730700D01*
X20525000Y-7690700D02*
X20485000Y-7730700D01*
X20725000Y-9455700D02*
X20765000Y-9495700D01*
X20765000Y-9455700D02*
X20725000Y-9495700D01*
X20880220Y-4755980D02*
X20920220Y-4795980D01*
X20920220Y-4755980D02*
X20880220Y-4795980D01*
X20896710Y-7193800D02*
X20936710Y-7233800D01*
X20936710Y-7193800D02*
X20896710Y-7233800D01*
X20898890Y-7090510D02*
X20938890Y-7130510D01*
X20938890Y-7090510D02*
X20898890Y-7130510D01*
X21020360Y-11651060D02*
X21060360Y-11691060D01*
X21060360Y-11651060D02*
X21020360Y-11691060D01*
X21105000Y-6970700D02*
X21145000Y-7010700D01*
X21145000Y-6970700D02*
X21105000Y-7010700D01*
X21114790Y-7090510D02*
X21154790Y-7130510D01*
X21154790Y-7090510D02*
X21114790Y-7130510D01*
X21172150Y-8692190D02*
X21212150Y-8732190D01*
X21212150Y-8692190D02*
X21172150Y-8732190D01*
X21177900Y-4768050D02*
X21217900Y-4808050D01*
X21217900Y-4768050D02*
X21177900Y-4808050D01*
X21220400Y-4177180D02*
X21260400Y-4217180D01*
X21260400Y-4177180D02*
X21220400Y-4217180D01*
X21221920Y-4016610D02*
X21261920Y-4056610D01*
X21261920Y-4016610D02*
X21221920Y-4056610D01*
X21295000Y-9680700D02*
X21335000Y-9720700D01*
X21335000Y-9680700D02*
X21295000Y-9720700D01*
X21368490Y-6885660D02*
X21408490Y-6925660D01*
X21408490Y-6885660D02*
X21368490Y-6925660D01*
X21384870Y-6549320D02*
X21424870Y-6589320D01*
X21424870Y-6549320D02*
X21384870Y-6589320D01*
X21416200Y-12072300D02*
X21456200Y-12112300D01*
X21456200Y-12072300D02*
X21416200Y-12112300D01*
X21500000Y-5581120D02*
X21540000Y-5621120D01*
X21540000Y-5581120D02*
X21500000Y-5621120D01*
X21509650Y-7522740D02*
X21549650Y-7562740D01*
X21549650Y-7522740D02*
X21509650Y-7562740D01*
X21512250Y-8023580D02*
X21552250Y-8063580D01*
X21552250Y-8023580D02*
X21512250Y-8063580D01*
X21723890Y-5284710D02*
X21763890Y-5324710D01*
X21763890Y-5284710D02*
X21723890Y-5324710D01*
X21813750Y-7036300D02*
X21853750Y-7076300D01*
X21853750Y-7036300D02*
X21813750Y-7076300D01*
X21832950Y-7177860D02*
X21872950Y-7217860D01*
X21872950Y-7177860D02*
X21832950Y-7217860D01*
X21835000Y-9920700D02*
X21875000Y-9960700D01*
X21875000Y-9920700D02*
X21835000Y-9960700D01*
X21906430Y-8675580D02*
X21946430Y-8715580D01*
X21946430Y-8675580D02*
X21906430Y-8715580D01*
X22095230Y-9298070D02*
X22135230Y-9338070D01*
X22135230Y-9298070D02*
X22095230Y-9338070D01*
X22125000Y-6110700D02*
X22165000Y-6150700D01*
X22165000Y-6110700D02*
X22125000Y-6150700D01*
X22388920Y-5278460D02*
X22428920Y-5318460D01*
X22428920Y-5278460D02*
X22388920Y-5318460D01*
X22443520Y-4885320D02*
X22483520Y-4925320D01*
X22483520Y-4885320D02*
X22443520Y-4925320D01*
X22585640Y-7870580D02*
X22625640Y-7910580D01*
X22625640Y-7870580D02*
X22585640Y-7910580D01*
X22866380Y-7834490D02*
X22906380Y-7874490D01*
X22906380Y-7834490D02*
X22866380Y-7874490D01*
X22902680Y-7651650D02*
X22942680Y-7691650D01*
X22942680Y-7651650D02*
X22902680Y-7691650D01*
X22907790Y-7536300D02*
X22947790Y-7576300D01*
X22947790Y-7536300D02*
X22907790Y-7576300D01*
X22989570Y-4791830D02*
X23029570Y-4831830D01*
X23029570Y-4791830D02*
X22989570Y-4831830D01*
X23031480Y-8702640D02*
X23071480Y-8742640D01*
X23071480Y-8702640D02*
X23031480Y-8742640D01*
X23461000Y-8546860D02*
X23501000Y-8586860D01*
X23501000Y-8546860D02*
X23461000Y-8586860D01*
X23485000Y-6060700D02*
X23525000Y-6100700D01*
X23525000Y-6060700D02*
X23485000Y-6100700D01*
X23515560Y-7596270D02*
X23555560Y-7636270D01*
X23555560Y-7596270D02*
X23515560Y-7636270D01*
X23525000Y-9950700D02*
X23565000Y-9990700D01*
X23565000Y-9950700D02*
X23525000Y-9990700D01*
X23816770Y-7184490D02*
X23856770Y-7224490D01*
X23856770Y-7184490D02*
X23816770Y-7224490D01*
X23947130Y-7349250D02*
X23987130Y-7389250D01*
X23987130Y-7349250D02*
X23947130Y-7389250D01*
X24000310Y-6745960D02*
X24040310Y-6785960D01*
X24040310Y-6745960D02*
X24000310Y-6785960D01*
X24045100Y-7792400D02*
X24085100Y-7832400D01*
X24085100Y-7792400D02*
X24045100Y-7832400D01*
X24087050Y-5982630D02*
X24127050Y-6022630D01*
X24127050Y-5982630D02*
X24087050Y-6022630D01*
X24129440Y-6896720D02*
X24169440Y-6936720D01*
X24169440Y-6896720D02*
X24129440Y-6936720D01*
X24170300Y-8045420D02*
X24210300Y-8085420D01*
X24210300Y-8045420D02*
X24170300Y-8085420D01*
X24245000Y-8870700D02*
X24285000Y-8910700D01*
X24285000Y-8870700D02*
X24245000Y-8910700D01*
X24455000Y-6030700D02*
X24495000Y-6070700D01*
X24495000Y-6030700D02*
X24455000Y-6070700D01*
X24959500Y-7627300D02*
X24999500Y-7667300D01*
X24999500Y-7627300D02*
X24959500Y-7667300D01*
D13*
X17946090Y-8364590D02*
G75*
G03*
X17946090Y-8364590I-40000J0D01*
G01*
D11*
X17946090Y-8399590D02*
X17946090Y-8329590D01*
X17866090Y-8399590D02*
X17866090Y-8329590D01*
X17946090Y-8329590D02*
G75*
G03*
X17866090Y-8329590I-40000J0D01*
G01*
X17866090Y-8399590D02*
G75*
G03*
X17946090Y-8399590I40000J0D01*
G01*
D13*
X17946310Y-3765600D02*
G75*
G03*
X17946310Y-3765600I-40000J0D01*
G01*
D11*
X17946310Y-3800600D02*
X17946310Y-3730600D01*
X17866310Y-3800600D02*
X17866310Y-3730600D01*
X17946310Y-3730600D02*
G75*
G03*
X17866310Y-3730600I-40000J0D01*
G01*
X17866310Y-3800600D02*
G75*
G03*
X17946310Y-3800600I40000J0D01*
G01*
D13*
X17946310Y-6065090D02*
G75*
G03*
X17946310Y-6065090I-40000J0D01*
G01*
D11*
X17946310Y-6100090D02*
X17946310Y-6030090D01*
X17866310Y-6100090D02*
X17866310Y-6030090D01*
X17946310Y-6030090D02*
G75*
G03*
X17866310Y-6030090I-40000J0D01*
G01*
X17866310Y-6100090D02*
G75*
G03*
X17946310Y-6100090I40000J0D01*
G01*
D13*
X17946310Y-10664080D02*
G75*
G03*
X17946310Y-10664080I-40000J0D01*
G01*
D11*
X17946310Y-10699080D02*
X17946310Y-10629080D01*
X17866310Y-10699080D02*
X17866310Y-10629080D01*
X17946310Y-10629080D02*
G75*
G03*
X17866310Y-10629080I-40000J0D01*
G01*
X17866310Y-10699080D02*
G75*
G03*
X17946310Y-10699080I40000J0D01*
G01*
D13*
X18886090Y-8364590D02*
G75*
G03*
X18886090Y-8364590I-40000J0D01*
G01*
D11*
X18886090Y-8399590D02*
X18886090Y-8329590D01*
X18806090Y-8399590D02*
X18806090Y-8329590D01*
X18886090Y-8329590D02*
G75*
G03*
X18806090Y-8329590I-40000J0D01*
G01*
X18806090Y-8399590D02*
G75*
G03*
X18886090Y-8399590I40000J0D01*
G01*
D13*
X18886310Y-3765600D02*
G75*
G03*
X18886310Y-3765600I-40000J0D01*
G01*
D11*
X18886310Y-3800600D02*
X18886310Y-3730600D01*
X18806310Y-3800600D02*
X18806310Y-3730600D01*
X18886310Y-3730600D02*
G75*
G03*
X18806310Y-3730600I-40000J0D01*
G01*
X18806310Y-3800600D02*
G75*
G03*
X18886310Y-3800600I40000J0D01*
G01*
D13*
X18886310Y-6065090D02*
G75*
G03*
X18886310Y-6065090I-40000J0D01*
G01*
D11*
X18886310Y-6100090D02*
X18886310Y-6030090D01*
X18806310Y-6100090D02*
X18806310Y-6030090D01*
X18886310Y-6030090D02*
G75*
G03*
X18806310Y-6030090I-40000J0D01*
G01*
X18806310Y-6100090D02*
G75*
G03*
X18886310Y-6100090I40000J0D01*
G01*
D13*
X18886310Y-10664080D02*
G75*
G03*
X18886310Y-10664080I-40000J0D01*
G01*
D11*
X18886310Y-10699080D02*
X18886310Y-10629080D01*
X18806310Y-10699080D02*
X18806310Y-10629080D01*
X18886310Y-10629080D02*
G75*
G03*
X18806310Y-10629080I-40000J0D01*
G01*
X18806310Y-10699080D02*
G75*
G03*
X18886310Y-10699080I40000J0D01*
G01*
D13*
X20145030Y-8364590D02*
G75*
G03*
X20145030Y-8364590I-40000J0D01*
G01*
D11*
X20145030Y-8399590D02*
X20145030Y-8329590D01*
X20065030Y-8399590D02*
X20065030Y-8329590D01*
X20145030Y-8329590D02*
G75*
G03*
X20065030Y-8329590I-40000J0D01*
G01*
X20065030Y-8399590D02*
G75*
G03*
X20145030Y-8399590I40000J0D01*
G01*
D13*
X20145030Y-10664080D02*
G75*
G03*
X20145030Y-10664080I-40000J0D01*
G01*
D11*
X20145030Y-10699080D02*
X20145030Y-10629080D01*
X20065030Y-10699080D02*
X20065030Y-10629080D01*
X20145030Y-10629080D02*
G75*
G03*
X20065030Y-10629080I-40000J0D01*
G01*
X20065030Y-10699080D02*
G75*
G03*
X20145030Y-10699080I40000J0D01*
G01*
D13*
X20145250Y-3765600D02*
G75*
G03*
X20145250Y-3765600I-40000J0D01*
G01*
D11*
X20145250Y-3800600D02*
X20145250Y-3730600D01*
X20065250Y-3800600D02*
X20065250Y-3730600D01*
X20145250Y-3730600D02*
G75*
G03*
X20065250Y-3730600I-40000J0D01*
G01*
X20065250Y-3800600D02*
G75*
G03*
X20145250Y-3800600I40000J0D01*
G01*
D13*
X20145250Y-6065090D02*
G75*
G03*
X20145250Y-6065090I-40000J0D01*
G01*
D11*
X20145250Y-6100090D02*
X20145250Y-6030090D01*
X20065250Y-6100090D02*
X20065250Y-6030090D01*
X20145250Y-6030090D02*
G75*
G03*
X20065250Y-6030090I-40000J0D01*
G01*
X20065250Y-6100090D02*
G75*
G03*
X20145250Y-6100090I40000J0D01*
G01*
D13*
X21085030Y-8364590D02*
G75*
G03*
X21085030Y-8364590I-40000J0D01*
G01*
D11*
X21085030Y-8399590D02*
X21085030Y-8329590D01*
X21005030Y-8399590D02*
X21005030Y-8329590D01*
X21085030Y-8329590D02*
G75*
G03*
X21005030Y-8329590I-40000J0D01*
G01*
X21005030Y-8399590D02*
G75*
G03*
X21085030Y-8399590I40000J0D01*
G01*
D13*
X21085030Y-10664080D02*
G75*
G03*
X21085030Y-10664080I-40000J0D01*
G01*
D11*
X21085030Y-10699080D02*
X21085030Y-10629080D01*
X21005030Y-10699080D02*
X21005030Y-10629080D01*
X21085030Y-10629080D02*
G75*
G03*
X21005030Y-10629080I-40000J0D01*
G01*
X21005030Y-10699080D02*
G75*
G03*
X21085030Y-10699080I40000J0D01*
G01*
D13*
X21085250Y-3765600D02*
G75*
G03*
X21085250Y-3765600I-40000J0D01*
G01*
D11*
X21085250Y-3800600D02*
X21085250Y-3730600D01*
X21005250Y-3800600D02*
X21005250Y-3730600D01*
X21085250Y-3730600D02*
G75*
G03*
X21005250Y-3730600I-40000J0D01*
G01*
X21005250Y-3800600D02*
G75*
G03*
X21085250Y-3800600I40000J0D01*
G01*
D13*
X21085250Y-6065090D02*
G75*
G03*
X21085250Y-6065090I-40000J0D01*
G01*
D11*
X21085250Y-6100090D02*
X21085250Y-6030090D01*
X21005250Y-6100090D02*
X21005250Y-6030090D01*
X21085250Y-6030090D02*
G75*
G03*
X21005250Y-6030090I-40000J0D01*
G01*
X21005250Y-6100090D02*
G75*
G03*
X21085250Y-6100090I40000J0D01*
G01*
D13*
X21577800Y-10726500D02*
G75*
G03*
X21577800Y-10726500I-40000J0D01*
G01*
X21831800Y-10726500D02*
G75*
G03*
X21831800Y-10726500I-40000J0D01*
G01*
X22085800Y-10726500D02*
G75*
G03*
X22085800Y-10726500I-40000J0D01*
G01*
X22343970Y-8364590D02*
G75*
G03*
X22343970Y-8364590I-40000J0D01*
G01*
D11*
X22343970Y-8399590D02*
X22343970Y-8329590D01*
X22263970Y-8399590D02*
X22263970Y-8329590D01*
X22343970Y-8329590D02*
G75*
G03*
X22263970Y-8329590I-40000J0D01*
G01*
X22263970Y-8399590D02*
G75*
G03*
X22343970Y-8399590I40000J0D01*
G01*
D13*
X22344190Y-3765600D02*
G75*
G03*
X22344190Y-3765600I-40000J0D01*
G01*
D11*
X22344190Y-3800600D02*
X22344190Y-3730600D01*
X22264190Y-3800600D02*
X22264190Y-3730600D01*
X22344190Y-3730600D02*
G75*
G03*
X22264190Y-3730600I-40000J0D01*
G01*
X22264190Y-3800600D02*
G75*
G03*
X22344190Y-3800600I40000J0D01*
G01*
D13*
X22344190Y-6065090D02*
G75*
G03*
X22344190Y-6065090I-40000J0D01*
G01*
D11*
X22344190Y-6100090D02*
X22344190Y-6030090D01*
X22264190Y-6100090D02*
X22264190Y-6030090D01*
X22344190Y-6030090D02*
G75*
G03*
X22264190Y-6030090I-40000J0D01*
G01*
X22264190Y-6100090D02*
G75*
G03*
X22344190Y-6100090I40000J0D01*
G01*
D13*
X23283970Y-8364590D02*
G75*
G03*
X23283970Y-8364590I-40000J0D01*
G01*
D11*
X23283970Y-8399590D02*
X23283970Y-8329590D01*
X23203970Y-8399590D02*
X23203970Y-8329590D01*
X23283970Y-8329590D02*
G75*
G03*
X23203970Y-8329590I-40000J0D01*
G01*
X23203970Y-8399590D02*
G75*
G03*
X23283970Y-8399590I40000J0D01*
G01*
D13*
X23284190Y-3765600D02*
G75*
G03*
X23284190Y-3765600I-40000J0D01*
G01*
D11*
X23284190Y-3800600D02*
X23284190Y-3730600D01*
X23204190Y-3800600D02*
X23204190Y-3730600D01*
X23284190Y-3730600D02*
G75*
G03*
X23204190Y-3730600I-40000J0D01*
G01*
X23204190Y-3800600D02*
G75*
G03*
X23284190Y-3800600I40000J0D01*
G01*
D13*
X23284190Y-6065090D02*
G75*
G03*
X23284190Y-6065090I-40000J0D01*
G01*
D11*
X23284190Y-6100090D02*
X23284190Y-6030090D01*
X23204190Y-6100090D02*
X23204190Y-6030090D01*
X23284190Y-6030090D02*
G75*
G03*
X23204190Y-6030090I-40000J0D01*
G01*
X23204190Y-6100090D02*
G75*
G03*
X23284190Y-6100090I40000J0D01*
G01*
D13*
X24322000Y-9786700D02*
G75*
G03*
X24322000Y-9786700I-40000J0D01*
G01*
X24576000Y-9786700D02*
G75*
G03*
X24576000Y-9786700I-40000J0D01*
G01*
X24830000Y-9786700D02*
G75*
G03*
X24830000Y-9786700I-40000J0D01*
G01*
D14*
X22770000Y-10211350D02*
X22770000Y-10300250D01*
X22725550Y-10255800D02*
X22814450Y-10255800D01*
D11*
X22689450Y-10300250D02*
X22850550Y-10300250D01*
X22689450Y-10211350D02*
X22850550Y-10211350D01*
X22850550Y-10300250D02*
G75*
G03*
X22850550Y-10211350I0J44450D01*
G01*
X22689450Y-10211350D02*
G75*
G03*
X22689450Y-10300250I0J-44450D01*
G01*
D14*
X22770000Y-10414550D02*
X22770000Y-10503450D01*
X22725550Y-10459000D02*
X22814450Y-10459000D01*
X22770000Y-10668550D02*
X22770000Y-10757450D01*
X22725550Y-10713000D02*
X22814450Y-10713000D01*
D11*
X22689450Y-10757450D02*
X22850550Y-10757450D01*
X22689450Y-10668550D02*
X22850550Y-10668550D01*
X22850550Y-10757450D02*
G75*
G03*
X22850550Y-10668550I0J44450D01*
G01*
X22689450Y-10668550D02*
G75*
G03*
X22689450Y-10757450I0J-44450D01*
G01*
D14*
X22770000Y-10922550D02*
X22770000Y-11011450D01*
X22725550Y-10967000D02*
X22814450Y-10967000D01*
X22770000Y-11125750D02*
X22770000Y-11214650D01*
X22725550Y-11170200D02*
X22814450Y-11170200D01*
D11*
X22689450Y-11214650D02*
X22850550Y-11214650D01*
X22689450Y-11125750D02*
X22850550Y-11125750D01*
X22850550Y-11214650D02*
G75*
G03*
X22850550Y-11125750I0J44450D01*
G01*
X22689450Y-11125750D02*
G75*
G03*
X22689450Y-11214650I0J-44450D01*
G01*
D10*
X18161446Y-9150746D02*
X18161446Y-9080034D01*
X18090734Y-9080034D01*
X18090734Y-9150746D01*
X18161446Y-9150746D01*
X18161666Y-4551756D02*
X18161666Y-4481044D01*
X18090954Y-4481044D01*
X18090954Y-4551756D01*
X18161666Y-4551756D01*
X18161666Y-6851246D02*
X18161666Y-6780534D01*
X18090954Y-6780534D01*
X18090954Y-6851246D01*
X18161666Y-6851246D01*
X18161666Y-11450236D02*
X18161666Y-11379524D01*
X18090954Y-11379524D01*
X18090954Y-11450236D01*
X18161666Y-11450236D01*
X18411446Y-9150746D02*
X18411446Y-9080034D01*
X18340734Y-9080034D01*
X18340734Y-9150746D01*
X18411446Y-9150746D01*
X18411666Y-4551756D02*
X18411666Y-4481044D01*
X18340954Y-4481044D01*
X18340954Y-4551756D01*
X18411666Y-4551756D01*
X18411666Y-6851246D02*
X18411666Y-6780534D01*
X18340954Y-6780534D01*
X18340954Y-6851246D01*
X18411666Y-6851246D01*
X18411666Y-11450236D02*
X18411666Y-11379524D01*
X18340954Y-11379524D01*
X18340954Y-11450236D01*
X18411666Y-11450236D01*
X18661446Y-9150746D02*
X18661446Y-9080034D01*
X18590734Y-9080034D01*
X18590734Y-9150746D01*
X18661446Y-9150746D01*
X18661666Y-4551756D02*
X18661666Y-4481044D01*
X18590954Y-4481044D01*
X18590954Y-4551756D01*
X18661666Y-4551756D01*
X18661666Y-6851246D02*
X18661666Y-6780534D01*
X18590954Y-6780534D01*
X18590954Y-6851246D01*
X18661666Y-6851246D01*
X18661666Y-11450236D02*
X18661666Y-11379524D01*
X18590954Y-11379524D01*
X18590954Y-11450236D01*
X18661666Y-11450236D01*
X20360386Y-9150746D02*
X20360386Y-9080034D01*
X20289674Y-9080034D01*
X20289674Y-9150746D01*
X20360386Y-9150746D01*
X20360386Y-11450236D02*
X20360386Y-11379524D01*
X20289674Y-11379524D01*
X20289674Y-11450236D01*
X20360386Y-11450236D01*
X20360606Y-4551756D02*
X20360606Y-4481044D01*
X20289894Y-4481044D01*
X20289894Y-4551756D01*
X20360606Y-4551756D01*
X20360606Y-6851246D02*
X20360606Y-6780534D01*
X20289894Y-6780534D01*
X20289894Y-6851246D01*
X20360606Y-6851246D01*
X20610386Y-9150746D02*
X20610386Y-9080034D01*
X20539674Y-9080034D01*
X20539674Y-9150746D01*
X20610386Y-9150746D01*
X20610386Y-11450236D02*
X20610386Y-11379524D01*
X20539674Y-11379524D01*
X20539674Y-11450236D01*
X20610386Y-11450236D01*
X20610606Y-4551756D02*
X20610606Y-4481044D01*
X20539894Y-4481044D01*
X20539894Y-4551756D01*
X20610606Y-4551756D01*
X20610606Y-6851246D02*
X20610606Y-6780534D01*
X20539894Y-6780534D01*
X20539894Y-6851246D01*
X20610606Y-6851246D01*
X20860386Y-9150746D02*
X20860386Y-9080034D01*
X20789674Y-9080034D01*
X20789674Y-9150746D01*
X20860386Y-9150746D01*
X20860386Y-11450236D02*
X20860386Y-11379524D01*
X20789674Y-11379524D01*
X20789674Y-11450236D01*
X20860386Y-11450236D01*
X20860606Y-4551756D02*
X20860606Y-4481044D01*
X20789894Y-4481044D01*
X20789894Y-4551756D01*
X20860606Y-4551756D01*
X20860606Y-6851246D02*
X20860606Y-6780534D01*
X20789894Y-6780534D01*
X20789894Y-6851246D01*
X20860606Y-6851246D01*
X22317356Y-9601106D02*
X22317356Y-9530394D01*
X22246644Y-9530394D01*
X22246644Y-9601106D01*
X22317356Y-9601106D01*
X22317356Y-9855106D02*
X22317356Y-9784394D01*
X22246644Y-9784394D01*
X22246644Y-9855106D01*
X22317356Y-9855106D01*
X22559326Y-9150746D02*
X22559326Y-9080034D01*
X22488614Y-9080034D01*
X22488614Y-9150746D01*
X22559326Y-9150746D01*
X22559546Y-4551756D02*
X22559546Y-4481044D01*
X22488834Y-4481044D01*
X22488834Y-4551756D01*
X22559546Y-4551756D01*
X22559546Y-6851246D02*
X22559546Y-6780534D01*
X22488834Y-6780534D01*
X22488834Y-6851246D01*
X22559546Y-6851246D01*
X22571356Y-9601106D02*
X22571356Y-9530394D01*
X22500644Y-9530394D01*
X22500644Y-9601106D01*
X22571356Y-9601106D01*
X22571356Y-9855106D02*
X22571356Y-9784394D01*
X22500644Y-9784394D01*
X22500644Y-9855106D01*
X22571356Y-9855106D01*
X22809326Y-9150746D02*
X22809326Y-9080034D01*
X22738614Y-9080034D01*
X22738614Y-9150746D01*
X22809326Y-9150746D01*
X22809546Y-4551756D02*
X22809546Y-4481044D01*
X22738834Y-4481044D01*
X22738834Y-4551756D01*
X22809546Y-4551756D01*
X22809546Y-6851246D02*
X22809546Y-6780534D01*
X22738834Y-6780534D01*
X22738834Y-6851246D01*
X22809546Y-6851246D01*
X22825356Y-9601106D02*
X22825356Y-9530394D01*
X22754644Y-9530394D01*
X22754644Y-9601106D01*
X22825356Y-9601106D01*
X22825356Y-9855106D02*
X22825356Y-9784394D01*
X22754644Y-9784394D01*
X22754644Y-9855106D01*
X22825356Y-9855106D01*
X23059326Y-9150746D02*
X23059326Y-9080034D01*
X22988614Y-9080034D01*
X22988614Y-9150746D01*
X23059326Y-9150746D01*
X23059546Y-4551756D02*
X23059546Y-4481044D01*
X22988834Y-4481044D01*
X22988834Y-4551756D01*
X23059546Y-4551756D01*
X23059546Y-6851246D02*
X23059546Y-6780534D01*
X22988834Y-6780534D01*
X22988834Y-6851246D01*
X23059546Y-6851246D01*
X23079356Y-9601106D02*
X23079356Y-9530394D01*
X23008644Y-9530394D01*
X23008644Y-9601106D01*
X23079356Y-9601106D01*
X23079356Y-9855106D02*
X23079356Y-9784394D01*
X23008644Y-9784394D01*
X23008644Y-9855106D01*
X23079356Y-9855106D01*
X23333356Y-9601106D02*
X23333356Y-9530394D01*
X23262644Y-9530394D01*
X23262644Y-9601106D01*
X23333356Y-9601106D01*
X23333356Y-9855106D02*
X23333356Y-9784394D01*
X23262644Y-9784394D01*
X23262644Y-9855106D01*
X23333356Y-9855106D01*
X23605156Y-3925256D02*
X23605156Y-3854544D01*
X23534444Y-3854544D01*
X23534444Y-3925256D01*
X23605156Y-3925256D01*
X23605156Y-4179256D02*
X23605156Y-4108544D01*
X23534444Y-4108544D01*
X23534444Y-4179256D01*
X23605156Y-4179256D01*
X23605156Y-4433256D02*
X23605156Y-4362544D01*
X23534444Y-4362544D01*
X23534444Y-4433256D01*
X23605156Y-4433256D01*
X23605156Y-4687256D02*
X23605156Y-4616544D01*
X23534444Y-4616544D01*
X23534444Y-4687256D01*
X23605156Y-4687256D01*
X23605156Y-4941256D02*
X23605156Y-4870544D01*
X23534444Y-4870544D01*
X23534444Y-4941256D01*
X23605156Y-4941256D01*
X23605156Y-5195256D02*
X23605156Y-5124544D01*
X23534444Y-5124544D01*
X23534444Y-5195256D01*
X23605156Y-5195256D01*
X23605156Y-5449256D02*
X23605156Y-5378544D01*
X23534444Y-5378544D01*
X23534444Y-5449256D01*
X23605156Y-5449256D01*
X23605156Y-5703256D02*
X23605156Y-5632544D01*
X23534444Y-5632544D01*
X23534444Y-5703256D01*
X23605156Y-5703256D01*
X24367156Y-3925256D02*
X24367156Y-3854544D01*
X24296444Y-3854544D01*
X24296444Y-3925256D01*
X24367156Y-3925256D01*
X24367156Y-4179256D02*
X24367156Y-4108544D01*
X24296444Y-4108544D01*
X24296444Y-4179256D01*
X24367156Y-4179256D01*
X24367156Y-4433256D02*
X24367156Y-4362544D01*
X24296444Y-4362544D01*
X24296444Y-4433256D01*
X24367156Y-4433256D01*
X24367156Y-4687256D02*
X24367156Y-4616544D01*
X24296444Y-4616544D01*
X24296444Y-4687256D01*
X24367156Y-4687256D01*
X24367156Y-4941256D02*
X24367156Y-4870544D01*
X24296444Y-4870544D01*
X24296444Y-4941256D01*
X24367156Y-4941256D01*
X24367156Y-5195256D02*
X24367156Y-5124544D01*
X24296444Y-5124544D01*
X24296444Y-5195256D01*
X24367156Y-5195256D01*
X24367156Y-5449256D02*
X24367156Y-5378544D01*
X24296444Y-5378544D01*
X24296444Y-5449256D01*
X24367156Y-5449256D01*
X24367156Y-5703256D02*
X24367156Y-5632544D01*
X24296444Y-5632544D01*
X24296444Y-5703256D01*
X24367156Y-5703256D01*
D15*
X18376310Y-11989400D02*
X18427110Y-11938600D01*
X18376310Y-11887800D01*
X18325510Y-11938600D01*
X18376310Y-11989400D01*
X18376310Y-12332300D02*
X18427110Y-12281500D01*
X18376310Y-12230700D01*
X18325510Y-12281500D01*
X18376310Y-12332300D01*
X18376310Y-13094300D02*
X18427110Y-13043500D01*
X18376310Y-12992700D01*
X18325510Y-13043500D01*
X18376310Y-13094300D01*
X19485443Y-11990700D02*
X19536243Y-11939900D01*
X19485443Y-11889100D01*
X19434643Y-11939900D01*
X19485443Y-11990700D01*
X19485443Y-12333600D02*
X19536243Y-12282800D01*
X19485443Y-12232000D01*
X19434643Y-12282800D01*
X19485443Y-12333600D01*
X19485443Y-13095600D02*
X19536243Y-13044800D01*
X19485443Y-12994000D01*
X19434643Y-13044800D01*
X19485443Y-13095600D01*
X20594577Y-11990700D02*
X20645377Y-11939900D01*
X20594577Y-11889100D01*
X20543777Y-11939900D01*
X20594577Y-11990700D01*
X20594577Y-12333600D02*
X20645377Y-12282800D01*
X20594577Y-12232000D01*
X20543777Y-12282800D01*
X20594577Y-12333600D01*
X20594577Y-13095600D02*
X20645377Y-13044800D01*
X20594577Y-12994000D01*
X20543777Y-13044800D01*
X20594577Y-13095600D01*
X21703710Y-11990700D02*
X21754510Y-11939900D01*
X21703710Y-11889100D01*
X21652910Y-11939900D01*
X21703710Y-11990700D01*
X21703710Y-12333600D02*
X21754510Y-12282800D01*
X21703710Y-12232000D01*
X21652910Y-12282800D01*
X21703710Y-12333600D01*
X21703710Y-13095600D02*
X21754510Y-13044800D01*
X21703710Y-12994000D01*
X21652910Y-13044800D01*
X21703710Y-13095600D01*
X22812843Y-11990700D02*
X22863643Y-11939900D01*
X22812843Y-11889100D01*
X22762043Y-11939900D01*
X22812843Y-11990700D01*
X22812843Y-12333600D02*
X22863643Y-12282800D01*
X22812843Y-12232000D01*
X22762043Y-12282800D01*
X22812843Y-12333600D01*
X22812843Y-13095600D02*
X22863643Y-13044800D01*
X22812843Y-12994000D01*
X22762043Y-13044800D01*
X22812843Y-13095600D01*
X23921976Y-10323470D02*
X23972776Y-10272670D01*
X23921976Y-10221870D01*
X23871176Y-10272670D01*
X23921976Y-10323470D01*
X23921976Y-11085470D02*
X23972776Y-11034670D01*
X23921976Y-10983870D01*
X23871176Y-11034670D01*
X23921976Y-11085470D01*
X23921976Y-11428370D02*
X23972776Y-11377570D01*
X23921976Y-11326770D01*
X23871176Y-11377570D01*
X23921976Y-11428370D01*
X23921976Y-11990700D02*
X23972776Y-11939900D01*
X23921976Y-11889100D01*
X23871176Y-11939900D01*
X23921976Y-11990700D01*
X23921976Y-12333600D02*
X23972776Y-12282800D01*
X23921976Y-12232000D01*
X23871176Y-12282800D01*
X23921976Y-12333600D01*
X23921976Y-13095600D02*
X23972776Y-13044800D01*
X23921976Y-12994000D01*
X23871176Y-13044800D01*
X23921976Y-13095600D01*
X25031148Y-3422706D02*
X25081948Y-3371906D01*
X25031148Y-3321106D01*
X24980348Y-3371906D01*
X25031148Y-3422706D01*
X25031148Y-4184706D02*
X25081948Y-4133906D01*
X25031148Y-4083106D01*
X24980348Y-4133906D01*
X25031148Y-4184706D01*
X25031148Y-4527606D02*
X25081948Y-4476806D01*
X25031148Y-4426006D01*
X24980348Y-4476806D01*
X25031148Y-4527606D01*
X25031148Y-5721980D02*
X25081948Y-5671180D01*
X25031148Y-5620380D01*
X24980348Y-5671180D01*
X25031148Y-5721980D01*
X25031148Y-6483980D02*
X25081948Y-6433180D01*
X25031148Y-6382380D01*
X24980348Y-6433180D01*
X25031148Y-6483980D01*
X25031148Y-6826880D02*
X25081948Y-6776080D01*
X25031148Y-6725280D01*
X24980348Y-6776080D01*
X25031148Y-6826880D01*
X25031148Y-8023220D02*
X25081948Y-7972420D01*
X25031148Y-7921620D01*
X24980348Y-7972420D01*
X25031148Y-8023220D01*
X25031148Y-8785220D02*
X25081948Y-8734420D01*
X25031148Y-8683620D01*
X24980348Y-8734420D01*
X25031148Y-8785220D01*
X25031148Y-9128120D02*
X25081948Y-9077320D01*
X25031148Y-9026520D01*
X24980348Y-9077320D01*
X25031148Y-9128120D01*
X25031148Y-10323470D02*
X25081948Y-10272670D01*
X25031148Y-10221870D01*
X24980348Y-10272670D01*
X25031148Y-10323470D01*
X25031148Y-11085470D02*
X25081948Y-11034670D01*
X25031148Y-10983870D01*
X24980348Y-11034670D01*
X25031148Y-11085470D01*
X25031148Y-11428370D02*
X25081948Y-11377570D01*
X25031148Y-11326770D01*
X24980348Y-11377570D01*
X25031148Y-11428370D01*
X25031148Y-11990700D02*
X25081948Y-11939900D01*
X25031148Y-11889100D01*
X24980348Y-11939900D01*
X25031148Y-11990700D01*
X25031148Y-12333600D02*
X25081948Y-12282800D01*
X25031148Y-12232000D01*
X24980348Y-12282800D01*
X25031148Y-12333600D01*
X25031148Y-13095600D02*
X25081948Y-13044800D01*
X25031148Y-12994000D01*
X24980348Y-13044800D01*
X25031148Y-13095600D01*
D11*
X18047619Y-13531176D02*
X18047619Y-13331176D01*
X18095238Y-13331176D01*
X18123810Y-13340700D01*
X18142857Y-13359748D01*
X18152381Y-13378795D01*
X18161905Y-13416890D01*
X18161905Y-13445462D01*
X18152381Y-13483557D01*
X18142857Y-13502605D01*
X18123810Y-13521652D01*
X18095238Y-13531176D01*
X18047619Y-13531176D01*
X18247619Y-13531176D02*
X18247619Y-13397843D01*
X18247619Y-13435938D02*
X18257143Y-13416890D01*
X18266667Y-13407367D01*
X18285714Y-13397843D01*
X18304762Y-13397843D01*
X18371429Y-13531176D02*
X18371429Y-13397843D01*
X18371429Y-13331176D02*
X18361905Y-13340700D01*
X18371429Y-13350224D01*
X18380952Y-13340700D01*
X18371429Y-13331176D01*
X18371429Y-13350224D01*
X18495238Y-13531176D02*
X18476190Y-13521652D01*
X18466667Y-13502605D01*
X18466667Y-13331176D01*
X18600000Y-13531176D02*
X18580952Y-13521652D01*
X18571429Y-13502605D01*
X18571429Y-13331176D01*
X18828571Y-13531176D02*
X18828571Y-13331176D01*
X18895238Y-13474033D01*
X18961905Y-13331176D01*
X18961905Y-13531176D01*
X19142857Y-13531176D02*
X19142857Y-13426414D01*
X19133333Y-13407367D01*
X19114286Y-13397843D01*
X19076190Y-13397843D01*
X19057143Y-13407367D01*
X19142857Y-13521652D02*
X19123810Y-13531176D01*
X19076190Y-13531176D01*
X19057143Y-13521652D01*
X19047619Y-13502605D01*
X19047619Y-13483557D01*
X19057143Y-13464509D01*
X19076190Y-13454986D01*
X19123810Y-13454986D01*
X19142857Y-13445462D01*
X19238095Y-13397843D02*
X19238095Y-13597843D01*
X19238095Y-13407367D02*
X19257143Y-13397843D01*
X19295238Y-13397843D01*
X19314286Y-13407367D01*
X19323810Y-13416890D01*
X19333333Y-13435938D01*
X19333333Y-13493081D01*
X19323810Y-13512128D01*
X19314286Y-13521652D01*
X19295238Y-13531176D01*
X19257143Y-13531176D01*
X19238095Y-13521652D01*
X19419048Y-13512128D02*
X19428571Y-13521652D01*
X19419048Y-13531176D01*
X19409524Y-13521652D01*
X19419048Y-13512128D01*
X19419048Y-13531176D01*
X19419048Y-13407367D02*
X19428571Y-13416890D01*
X19419048Y-13426414D01*
X19409524Y-13416890D01*
X19419048Y-13407367D01*
X19419048Y-13426414D01*
D12*
X17750000Y-13840700D02*
X17790000Y-13880700D01*
X17790000Y-13840700D02*
X17750000Y-13880700D01*
D11*
X18085714Y-13751176D02*
X18104762Y-13751176D01*
X18123810Y-13760700D01*
X18133333Y-13770224D01*
X18142857Y-13789271D01*
X18152381Y-13827367D01*
X18152381Y-13874986D01*
X18142857Y-13913081D01*
X18133333Y-13932128D01*
X18123810Y-13941652D01*
X18104762Y-13951176D01*
X18085714Y-13951176D01*
X18066667Y-13941652D01*
X18057143Y-13932128D01*
X18047619Y-13913081D01*
X18038095Y-13874986D01*
X18038095Y-13827367D01*
X18047619Y-13789271D01*
X18057143Y-13770224D01*
X18066667Y-13760700D01*
X18085714Y-13751176D01*
X18238095Y-13932128D02*
X18247619Y-13941652D01*
X18238095Y-13951176D01*
X18228571Y-13941652D01*
X18238095Y-13932128D01*
X18238095Y-13951176D01*
X18419048Y-13817843D02*
X18419048Y-13951176D01*
X18371429Y-13741652D02*
X18323810Y-13884509D01*
X18447619Y-13884509D01*
X18561905Y-13751176D02*
X18580952Y-13751176D01*
X18600000Y-13760700D01*
X18609524Y-13770224D01*
X18619048Y-13789271D01*
X18628571Y-13827367D01*
X18628571Y-13874986D01*
X18619048Y-13913081D01*
X18609524Y-13932128D01*
X18600000Y-13941652D01*
X18580952Y-13951176D01*
X18561905Y-13951176D01*
X18542857Y-13941652D01*
X18533333Y-13932128D01*
X18523810Y-13913081D01*
X18514286Y-13874986D01*
X18514286Y-13827367D01*
X18523810Y-13789271D01*
X18533333Y-13770224D01*
X18542857Y-13760700D01*
X18561905Y-13751176D01*
X18752381Y-13751176D02*
X18771429Y-13751176D01*
X18790476Y-13760700D01*
X18800000Y-13770224D01*
X18809524Y-13789271D01*
X18819048Y-13827367D01*
X18819048Y-13874986D01*
X18809524Y-13913081D01*
X18800000Y-13932128D01*
X18790476Y-13941652D01*
X18771429Y-13951176D01*
X18752381Y-13951176D01*
X18733333Y-13941652D01*
X18723810Y-13932128D01*
X18714286Y-13913081D01*
X18704762Y-13874986D01*
X18704762Y-13827367D01*
X18714286Y-13789271D01*
X18723810Y-13770224D01*
X18733333Y-13760700D01*
X18752381Y-13751176D01*
X18904762Y-13951176D02*
X18904762Y-13817843D01*
X18904762Y-13836890D02*
X18914286Y-13827367D01*
X18933333Y-13817843D01*
X18961905Y-13817843D01*
X18980952Y-13827367D01*
X18990476Y-13846414D01*
X18990476Y-13951176D01*
X18990476Y-13846414D02*
X19000000Y-13827367D01*
X19019048Y-13817843D01*
X19047619Y-13817843D01*
X19066667Y-13827367D01*
X19076190Y-13846414D01*
X19076190Y-13951176D01*
X19171429Y-13951176D02*
X19171429Y-13817843D01*
X19171429Y-13836890D02*
X19180952Y-13827367D01*
X19200000Y-13817843D01*
X19228571Y-13817843D01*
X19247619Y-13827367D01*
X19257143Y-13846414D01*
X19257143Y-13951176D01*
X19257143Y-13846414D02*
X19266667Y-13827367D01*
X19285714Y-13817843D01*
X19314286Y-13817843D01*
X19333333Y-13827367D01*
X19342857Y-13846414D01*
X19342857Y-13951176D01*
X19733333Y-13741652D02*
X19561905Y-13998795D01*
X19990476Y-13751176D02*
X20009524Y-13751176D01*
X20028571Y-13760700D01*
X20038095Y-13770224D01*
X20047619Y-13789271D01*
X20057143Y-13827367D01*
X20057143Y-13874986D01*
X20047619Y-13913081D01*
X20038095Y-13932128D01*
X20028571Y-13941652D01*
X20009524Y-13951176D01*
X19990476Y-13951176D01*
X19971429Y-13941652D01*
X19961905Y-13932128D01*
X19952381Y-13913081D01*
X19942857Y-13874986D01*
X19942857Y-13827367D01*
X19952381Y-13789271D01*
X19961905Y-13770224D01*
X19971429Y-13760700D01*
X19990476Y-13751176D01*
X20142857Y-13932128D02*
X20152381Y-13941652D01*
X20142857Y-13951176D01*
X20133333Y-13941652D01*
X20142857Y-13932128D01*
X20142857Y-13951176D01*
X20276190Y-13751176D02*
X20295238Y-13751176D01*
X20314286Y-13760700D01*
X20323810Y-13770224D01*
X20333333Y-13789271D01*
X20342857Y-13827367D01*
X20342857Y-13874986D01*
X20333333Y-13913081D01*
X20323810Y-13932128D01*
X20314286Y-13941652D01*
X20295238Y-13951176D01*
X20276190Y-13951176D01*
X20257143Y-13941652D01*
X20247619Y-13932128D01*
X20238095Y-13913081D01*
X20228571Y-13874986D01*
X20228571Y-13827367D01*
X20238095Y-13789271D01*
X20247619Y-13770224D01*
X20257143Y-13760700D01*
X20276190Y-13751176D01*
X20533333Y-13951176D02*
X20419048Y-13951176D01*
X20476190Y-13951176D02*
X20476190Y-13751176D01*
X20457143Y-13779748D01*
X20438095Y-13798795D01*
X20419048Y-13808319D01*
X20714286Y-13751176D02*
X20619048Y-13751176D01*
X20609524Y-13846414D01*
X20619048Y-13836890D01*
X20638095Y-13827367D01*
X20685714Y-13827367D01*
X20704762Y-13836890D01*
X20714286Y-13846414D01*
X20723810Y-13865462D01*
X20723810Y-13913081D01*
X20714286Y-13932128D01*
X20704762Y-13941652D01*
X20685714Y-13951176D01*
X20638095Y-13951176D01*
X20619048Y-13941652D01*
X20609524Y-13932128D01*
X20790476Y-13751176D02*
X20923810Y-13751176D01*
X20838095Y-13951176D01*
X20990476Y-13751176D02*
X20990476Y-13789271D01*
X21066667Y-13751176D02*
X21066667Y-13789271D01*
X21361905Y-14027367D02*
X21352381Y-14017843D01*
X21333333Y-13989271D01*
X21323810Y-13970224D01*
X21314286Y-13941652D01*
X21304762Y-13894033D01*
X21304762Y-13855938D01*
X21314286Y-13808319D01*
X21323810Y-13779748D01*
X21333333Y-13760700D01*
X21352381Y-13732128D01*
X21361905Y-13722605D01*
X21523810Y-13751176D02*
X21485714Y-13751176D01*
X21466667Y-13760700D01*
X21457143Y-13770224D01*
X21438095Y-13798795D01*
X21428571Y-13836890D01*
X21428571Y-13913081D01*
X21438095Y-13932128D01*
X21447619Y-13941652D01*
X21466667Y-13951176D01*
X21504762Y-13951176D01*
X21523810Y-13941652D01*
X21533333Y-13932128D01*
X21542857Y-13913081D01*
X21542857Y-13865462D01*
X21533333Y-13846414D01*
X21523810Y-13836890D01*
X21504762Y-13827367D01*
X21466667Y-13827367D01*
X21447619Y-13836890D01*
X21438095Y-13846414D01*
X21428571Y-13865462D01*
X21733333Y-13951176D02*
X21619048Y-13951176D01*
X21676190Y-13951176D02*
X21676190Y-13751176D01*
X21657143Y-13779748D01*
X21638095Y-13798795D01*
X21619048Y-13808319D01*
X21971429Y-13951176D02*
X21971429Y-13751176D01*
X22057143Y-13951176D02*
X22057143Y-13846414D01*
X22047619Y-13827367D01*
X22028571Y-13817843D01*
X22000000Y-13817843D01*
X21980952Y-13827367D01*
X21971429Y-13836890D01*
X22180952Y-13951176D02*
X22161905Y-13941652D01*
X22152381Y-13932128D01*
X22142857Y-13913081D01*
X22142857Y-13855938D01*
X22152381Y-13836890D01*
X22161905Y-13827367D01*
X22180952Y-13817843D01*
X22209524Y-13817843D01*
X22228571Y-13827367D01*
X22238095Y-13836890D01*
X22247619Y-13855938D01*
X22247619Y-13913081D01*
X22238095Y-13932128D01*
X22228571Y-13941652D01*
X22209524Y-13951176D01*
X22180952Y-13951176D01*
X22361905Y-13951176D02*
X22342857Y-13941652D01*
X22333333Y-13922605D01*
X22333333Y-13751176D01*
X22514286Y-13941652D02*
X22495238Y-13951176D01*
X22457143Y-13951176D01*
X22438095Y-13941652D01*
X22428571Y-13922605D01*
X22428571Y-13846414D01*
X22438095Y-13827367D01*
X22457143Y-13817843D01*
X22495238Y-13817843D01*
X22514286Y-13827367D01*
X22523809Y-13846414D01*
X22523809Y-13865462D01*
X22428571Y-13884509D01*
X22600000Y-13941652D02*
X22619048Y-13951176D01*
X22657143Y-13951176D01*
X22676190Y-13941652D01*
X22685714Y-13922605D01*
X22685714Y-13913081D01*
X22676190Y-13894033D01*
X22657143Y-13884509D01*
X22628571Y-13884509D01*
X22609524Y-13874986D01*
X22600000Y-13855938D01*
X22600000Y-13846414D01*
X22609524Y-13827367D01*
X22628571Y-13817843D01*
X22657143Y-13817843D01*
X22676190Y-13827367D01*
X22752381Y-14027367D02*
X22761905Y-14017843D01*
X22780952Y-13989271D01*
X22790476Y-13970224D01*
X22800000Y-13941652D01*
X22809524Y-13894033D01*
X22809524Y-13855938D01*
X22800000Y-13808319D01*
X22790476Y-13779748D01*
X22780952Y-13760700D01*
X22761905Y-13732128D01*
X22752381Y-13722605D01*
D13*
X17790000Y-14124700D02*
G75*
G03*
X17790000Y-14124700I-40000J0D01*
G01*
D11*
X18085714Y-14015176D02*
X18104762Y-14015176D01*
X18123810Y-14024700D01*
X18133333Y-14034224D01*
X18142857Y-14053271D01*
X18152381Y-14091367D01*
X18152381Y-14138986D01*
X18142857Y-14177081D01*
X18133333Y-14196128D01*
X18123810Y-14205652D01*
X18104762Y-14215176D01*
X18085714Y-14215176D01*
X18066667Y-14205652D01*
X18057143Y-14196128D01*
X18047619Y-14177081D01*
X18038095Y-14138986D01*
X18038095Y-14091367D01*
X18047619Y-14053271D01*
X18057143Y-14034224D01*
X18066667Y-14024700D01*
X18085714Y-14015176D01*
X18238095Y-14196128D02*
X18247619Y-14205652D01*
X18238095Y-14215176D01*
X18228571Y-14205652D01*
X18238095Y-14196128D01*
X18238095Y-14215176D01*
X18361905Y-14100890D02*
X18342857Y-14091367D01*
X18333333Y-14081843D01*
X18323810Y-14062795D01*
X18323810Y-14053271D01*
X18333333Y-14034224D01*
X18342857Y-14024700D01*
X18361905Y-14015176D01*
X18400000Y-14015176D01*
X18419048Y-14024700D01*
X18428571Y-14034224D01*
X18438095Y-14053271D01*
X18438095Y-14062795D01*
X18428571Y-14081843D01*
X18419048Y-14091367D01*
X18400000Y-14100890D01*
X18361905Y-14100890D01*
X18342857Y-14110414D01*
X18333333Y-14119938D01*
X18323810Y-14138986D01*
X18323810Y-14177081D01*
X18333333Y-14196128D01*
X18342857Y-14205652D01*
X18361905Y-14215176D01*
X18400000Y-14215176D01*
X18419048Y-14205652D01*
X18428571Y-14196128D01*
X18438095Y-14177081D01*
X18438095Y-14138986D01*
X18428571Y-14119938D01*
X18419048Y-14110414D01*
X18400000Y-14100890D01*
X18561905Y-14015176D02*
X18580952Y-14015176D01*
X18600000Y-14024700D01*
X18609524Y-14034224D01*
X18619048Y-14053271D01*
X18628571Y-14091367D01*
X18628571Y-14138986D01*
X18619048Y-14177081D01*
X18609524Y-14196128D01*
X18600000Y-14205652D01*
X18580952Y-14215176D01*
X18561905Y-14215176D01*
X18542857Y-14205652D01*
X18533333Y-14196128D01*
X18523810Y-14177081D01*
X18514286Y-14138986D01*
X18514286Y-14091367D01*
X18523810Y-14053271D01*
X18533333Y-14034224D01*
X18542857Y-14024700D01*
X18561905Y-14015176D01*
X18752381Y-14015176D02*
X18771429Y-14015176D01*
X18790476Y-14024700D01*
X18800000Y-14034224D01*
X18809524Y-14053271D01*
X18819048Y-14091367D01*
X18819048Y-14138986D01*
X18809524Y-14177081D01*
X18800000Y-14196128D01*
X18790476Y-14205652D01*
X18771429Y-14215176D01*
X18752381Y-14215176D01*
X18733333Y-14205652D01*
X18723810Y-14196128D01*
X18714286Y-14177081D01*
X18704762Y-14138986D01*
X18704762Y-14091367D01*
X18714286Y-14053271D01*
X18723810Y-14034224D01*
X18733333Y-14024700D01*
X18752381Y-14015176D01*
X18904762Y-14215176D02*
X18904762Y-14081843D01*
X18904762Y-14100890D02*
X18914286Y-14091367D01*
X18933333Y-14081843D01*
X18961905Y-14081843D01*
X18980952Y-14091367D01*
X18990476Y-14110414D01*
X18990476Y-14215176D01*
X18990476Y-14110414D02*
X19000000Y-14091367D01*
X19019048Y-14081843D01*
X19047619Y-14081843D01*
X19066667Y-14091367D01*
X19076190Y-14110414D01*
X19076190Y-14215176D01*
X19171429Y-14215176D02*
X19171429Y-14081843D01*
X19171429Y-14100890D02*
X19180952Y-14091367D01*
X19200000Y-14081843D01*
X19228571Y-14081843D01*
X19247619Y-14091367D01*
X19257143Y-14110414D01*
X19257143Y-14215176D01*
X19257143Y-14110414D02*
X19266667Y-14091367D01*
X19285714Y-14081843D01*
X19314286Y-14081843D01*
X19333333Y-14091367D01*
X19342857Y-14110414D01*
X19342857Y-14215176D01*
X19733333Y-14005652D02*
X19561905Y-14262795D01*
X19990476Y-14015176D02*
X20009524Y-14015176D01*
X20028571Y-14024700D01*
X20038095Y-14034224D01*
X20047619Y-14053271D01*
X20057143Y-14091367D01*
X20057143Y-14138986D01*
X20047619Y-14177081D01*
X20038095Y-14196128D01*
X20028571Y-14205652D01*
X20009524Y-14215176D01*
X19990476Y-14215176D01*
X19971429Y-14205652D01*
X19961905Y-14196128D01*
X19952381Y-14177081D01*
X19942857Y-14138986D01*
X19942857Y-14091367D01*
X19952381Y-14053271D01*
X19961905Y-14034224D01*
X19971429Y-14024700D01*
X19990476Y-14015176D01*
X20142857Y-14196128D02*
X20152381Y-14205652D01*
X20142857Y-14215176D01*
X20133333Y-14205652D01*
X20142857Y-14196128D01*
X20142857Y-14215176D01*
X20276190Y-14015176D02*
X20295238Y-14015176D01*
X20314286Y-14024700D01*
X20323810Y-14034224D01*
X20333333Y-14053271D01*
X20342857Y-14091367D01*
X20342857Y-14138986D01*
X20333333Y-14177081D01*
X20323810Y-14196128D01*
X20314286Y-14205652D01*
X20295238Y-14215176D01*
X20276190Y-14215176D01*
X20257143Y-14205652D01*
X20247619Y-14196128D01*
X20238095Y-14177081D01*
X20228571Y-14138986D01*
X20228571Y-14091367D01*
X20238095Y-14053271D01*
X20247619Y-14034224D01*
X20257143Y-14024700D01*
X20276190Y-14015176D01*
X20409524Y-14015176D02*
X20533333Y-14015176D01*
X20466667Y-14091367D01*
X20495238Y-14091367D01*
X20514286Y-14100890D01*
X20523810Y-14110414D01*
X20533333Y-14129462D01*
X20533333Y-14177081D01*
X20523810Y-14196128D01*
X20514286Y-14205652D01*
X20495238Y-14215176D01*
X20438095Y-14215176D01*
X20419048Y-14205652D01*
X20409524Y-14196128D01*
X20723810Y-14215176D02*
X20609524Y-14215176D01*
X20666667Y-14215176D02*
X20666667Y-14015176D01*
X20647619Y-14043748D01*
X20628571Y-14062795D01*
X20609524Y-14072319D01*
X20904762Y-14015176D02*
X20809524Y-14015176D01*
X20800000Y-14110414D01*
X20809524Y-14100890D01*
X20828571Y-14091367D01*
X20876190Y-14091367D01*
X20895238Y-14100890D01*
X20904762Y-14110414D01*
X20914286Y-14129462D01*
X20914286Y-14177081D01*
X20904762Y-14196128D01*
X20895238Y-14205652D01*
X20876190Y-14215176D01*
X20828571Y-14215176D01*
X20809524Y-14205652D01*
X20800000Y-14196128D01*
X20990476Y-14015176D02*
X20990476Y-14053271D01*
X21066667Y-14015176D02*
X21066667Y-14053271D01*
X21361905Y-14291367D02*
X21352381Y-14281843D01*
X21333333Y-14253271D01*
X21323810Y-14234224D01*
X21314286Y-14205652D01*
X21304762Y-14158033D01*
X21304762Y-14119938D01*
X21314286Y-14072319D01*
X21323810Y-14043748D01*
X21333333Y-14024700D01*
X21352381Y-13996128D01*
X21361905Y-13986605D01*
X21523810Y-14015176D02*
X21485714Y-14015176D01*
X21466667Y-14024700D01*
X21457143Y-14034224D01*
X21438095Y-14062795D01*
X21428571Y-14100890D01*
X21428571Y-14177081D01*
X21438095Y-14196128D01*
X21447619Y-14205652D01*
X21466667Y-14215176D01*
X21504762Y-14215176D01*
X21523810Y-14205652D01*
X21533333Y-14196128D01*
X21542857Y-14177081D01*
X21542857Y-14129462D01*
X21533333Y-14110414D01*
X21523810Y-14100890D01*
X21504762Y-14091367D01*
X21466667Y-14091367D01*
X21447619Y-14100890D01*
X21438095Y-14110414D01*
X21428571Y-14129462D01*
X21780952Y-14215176D02*
X21780952Y-14015176D01*
X21866667Y-14215176D02*
X21866667Y-14110414D01*
X21857143Y-14091367D01*
X21838095Y-14081843D01*
X21809524Y-14081843D01*
X21790476Y-14091367D01*
X21780952Y-14100890D01*
X21990476Y-14215176D02*
X21971429Y-14205652D01*
X21961905Y-14196128D01*
X21952381Y-14177081D01*
X21952381Y-14119938D01*
X21961905Y-14100890D01*
X21971429Y-14091367D01*
X21990476Y-14081843D01*
X22019048Y-14081843D01*
X22038095Y-14091367D01*
X22047619Y-14100890D01*
X22057143Y-14119938D01*
X22057143Y-14177081D01*
X22047619Y-14196128D01*
X22038095Y-14205652D01*
X22019048Y-14215176D01*
X21990476Y-14215176D01*
X22171429Y-14215176D02*
X22152381Y-14205652D01*
X22142857Y-14186605D01*
X22142857Y-14015176D01*
X22323810Y-14205652D02*
X22304762Y-14215176D01*
X22266667Y-14215176D01*
X22247619Y-14205652D01*
X22238095Y-14186605D01*
X22238095Y-14110414D01*
X22247619Y-14091367D01*
X22266667Y-14081843D01*
X22304762Y-14081843D01*
X22323810Y-14091367D01*
X22333333Y-14110414D01*
X22333333Y-14129462D01*
X22238095Y-14148509D01*
X22409524Y-14205652D02*
X22428571Y-14215176D01*
X22466667Y-14215176D01*
X22485714Y-14205652D01*
X22495238Y-14186605D01*
X22495238Y-14177081D01*
X22485714Y-14158033D01*
X22466667Y-14148509D01*
X22438095Y-14148509D01*
X22419048Y-14138986D01*
X22409524Y-14119938D01*
X22409524Y-14110414D01*
X22419048Y-14091367D01*
X22438095Y-14081843D01*
X22466667Y-14081843D01*
X22485714Y-14091367D01*
X22733333Y-14138986D02*
X22885714Y-14138986D01*
X22809524Y-14215176D02*
X22809524Y-14062795D01*
X23123809Y-14034224D02*
X23133333Y-14024700D01*
X23152381Y-14015176D01*
X23200000Y-14015176D01*
X23219048Y-14024700D01*
X23228571Y-14034224D01*
X23238095Y-14053271D01*
X23238095Y-14072319D01*
X23228571Y-14100890D01*
X23114286Y-14215176D01*
X23238095Y-14215176D01*
X23314286Y-14034224D02*
X23323809Y-14024700D01*
X23342857Y-14015176D01*
X23390476Y-14015176D01*
X23409524Y-14024700D01*
X23419048Y-14034224D01*
X23428571Y-14053271D01*
X23428571Y-14072319D01*
X23419048Y-14100890D01*
X23304762Y-14215176D01*
X23428571Y-14215176D01*
X23657143Y-14205652D02*
X23676190Y-14215176D01*
X23714286Y-14215176D01*
X23733333Y-14205652D01*
X23742857Y-14186605D01*
X23742857Y-14177081D01*
X23733333Y-14158033D01*
X23714286Y-14148509D01*
X23685714Y-14148509D01*
X23666667Y-14138986D01*
X23657143Y-14119938D01*
X23657143Y-14110414D01*
X23666667Y-14091367D01*
X23685714Y-14081843D01*
X23714286Y-14081843D01*
X23733333Y-14091367D01*
X23857143Y-14215176D02*
X23838095Y-14205652D01*
X23828571Y-14186605D01*
X23828571Y-14015176D01*
X23961905Y-14215176D02*
X23942857Y-14205652D01*
X23933333Y-14196128D01*
X23923809Y-14177081D01*
X23923809Y-14119938D01*
X23933333Y-14100890D01*
X23942857Y-14091367D01*
X23961905Y-14081843D01*
X23990476Y-14081843D01*
X24009524Y-14091367D01*
X24019048Y-14100890D01*
X24028571Y-14119938D01*
X24028571Y-14177081D01*
X24019048Y-14196128D01*
X24009524Y-14205652D01*
X23990476Y-14215176D01*
X23961905Y-14215176D01*
X24085714Y-14081843D02*
X24161905Y-14081843D01*
X24114286Y-14015176D02*
X24114286Y-14186605D01*
X24123809Y-14205652D01*
X24142857Y-14215176D01*
X24161905Y-14215176D01*
X24219048Y-14205652D02*
X24238095Y-14215176D01*
X24276190Y-14215176D01*
X24295238Y-14205652D01*
X24304762Y-14186605D01*
X24304762Y-14177081D01*
X24295238Y-14158033D01*
X24276190Y-14148509D01*
X24247619Y-14148509D01*
X24228571Y-14138986D01*
X24219048Y-14119938D01*
X24219048Y-14110414D01*
X24228571Y-14091367D01*
X24247619Y-14081843D01*
X24276190Y-14081843D01*
X24295238Y-14091367D01*
X24371428Y-14291367D02*
X24380952Y-14281843D01*
X24400000Y-14253271D01*
X24409524Y-14234224D01*
X24419048Y-14205652D01*
X24428571Y-14158033D01*
X24428571Y-14119938D01*
X24419048Y-14072319D01*
X24409524Y-14043748D01*
X24400000Y-14024700D01*
X24380952Y-13996128D01*
X24371428Y-13986605D01*
D14*
X17745550Y-14344250D02*
X17745550Y-14433150D01*
X17701100Y-14388700D02*
X17790000Y-14388700D01*
D11*
X18085714Y-14279176D02*
X18104762Y-14279176D01*
X18123810Y-14288700D01*
X18133333Y-14298224D01*
X18142857Y-14317271D01*
X18152381Y-14355367D01*
X18152381Y-14402986D01*
X18142857Y-14441081D01*
X18133333Y-14460128D01*
X18123810Y-14469652D01*
X18104762Y-14479176D01*
X18085714Y-14479176D01*
X18066667Y-14469652D01*
X18057143Y-14460128D01*
X18047619Y-14441081D01*
X18038095Y-14402986D01*
X18038095Y-14355367D01*
X18047619Y-14317271D01*
X18057143Y-14298224D01*
X18066667Y-14288700D01*
X18085714Y-14279176D01*
X18238095Y-14460128D02*
X18247619Y-14469652D01*
X18238095Y-14479176D01*
X18228571Y-14469652D01*
X18238095Y-14460128D01*
X18238095Y-14479176D01*
X18361905Y-14364890D02*
X18342857Y-14355367D01*
X18333333Y-14345843D01*
X18323810Y-14326795D01*
X18323810Y-14317271D01*
X18333333Y-14298224D01*
X18342857Y-14288700D01*
X18361905Y-14279176D01*
X18400000Y-14279176D01*
X18419048Y-14288700D01*
X18428571Y-14298224D01*
X18438095Y-14317271D01*
X18438095Y-14326795D01*
X18428571Y-14345843D01*
X18419048Y-14355367D01*
X18400000Y-14364890D01*
X18361905Y-14364890D01*
X18342857Y-14374414D01*
X18333333Y-14383938D01*
X18323810Y-14402986D01*
X18323810Y-14441081D01*
X18333333Y-14460128D01*
X18342857Y-14469652D01*
X18361905Y-14479176D01*
X18400000Y-14479176D01*
X18419048Y-14469652D01*
X18428571Y-14460128D01*
X18438095Y-14441081D01*
X18438095Y-14402986D01*
X18428571Y-14383938D01*
X18419048Y-14374414D01*
X18400000Y-14364890D01*
X18552381Y-14364890D02*
X18533333Y-14355367D01*
X18523810Y-14345843D01*
X18514286Y-14326795D01*
X18514286Y-14317271D01*
X18523810Y-14298224D01*
X18533333Y-14288700D01*
X18552381Y-14279176D01*
X18590476Y-14279176D01*
X18609524Y-14288700D01*
X18619048Y-14298224D01*
X18628571Y-14317271D01*
X18628571Y-14326795D01*
X18619048Y-14345843D01*
X18609524Y-14355367D01*
X18590476Y-14364890D01*
X18552381Y-14364890D01*
X18533333Y-14374414D01*
X18523810Y-14383938D01*
X18514286Y-14402986D01*
X18514286Y-14441081D01*
X18523810Y-14460128D01*
X18533333Y-14469652D01*
X18552381Y-14479176D01*
X18590476Y-14479176D01*
X18609524Y-14469652D01*
X18619048Y-14460128D01*
X18628571Y-14441081D01*
X18628571Y-14402986D01*
X18619048Y-14383938D01*
X18609524Y-14374414D01*
X18590476Y-14364890D01*
X18723810Y-14479176D02*
X18761905Y-14479176D01*
X18780952Y-14469652D01*
X18790476Y-14460128D01*
X18809524Y-14431557D01*
X18819048Y-14393462D01*
X18819048Y-14317271D01*
X18809524Y-14298224D01*
X18800000Y-14288700D01*
X18780952Y-14279176D01*
X18742857Y-14279176D01*
X18723810Y-14288700D01*
X18714286Y-14298224D01*
X18704762Y-14317271D01*
X18704762Y-14364890D01*
X18714286Y-14383938D01*
X18723810Y-14393462D01*
X18742857Y-14402986D01*
X18780952Y-14402986D01*
X18800000Y-14393462D01*
X18809524Y-14383938D01*
X18819048Y-14364890D01*
X18904762Y-14479176D02*
X18904762Y-14345843D01*
X18904762Y-14364890D02*
X18914286Y-14355367D01*
X18933333Y-14345843D01*
X18961905Y-14345843D01*
X18980952Y-14355367D01*
X18990476Y-14374414D01*
X18990476Y-14479176D01*
X18990476Y-14374414D02*
X19000000Y-14355367D01*
X19019048Y-14345843D01*
X19047619Y-14345843D01*
X19066667Y-14355367D01*
X19076190Y-14374414D01*
X19076190Y-14479176D01*
X19171429Y-14479176D02*
X19171429Y-14345843D01*
X19171429Y-14364890D02*
X19180952Y-14355367D01*
X19200000Y-14345843D01*
X19228571Y-14345843D01*
X19247619Y-14355367D01*
X19257143Y-14374414D01*
X19257143Y-14479176D01*
X19257143Y-14374414D02*
X19266667Y-14355367D01*
X19285714Y-14345843D01*
X19314286Y-14345843D01*
X19333333Y-14355367D01*
X19342857Y-14374414D01*
X19342857Y-14479176D01*
X19733333Y-14269652D02*
X19561905Y-14526795D01*
X19990476Y-14279176D02*
X20009524Y-14279176D01*
X20028571Y-14288700D01*
X20038095Y-14298224D01*
X20047619Y-14317271D01*
X20057143Y-14355367D01*
X20057143Y-14402986D01*
X20047619Y-14441081D01*
X20038095Y-14460128D01*
X20028571Y-14469652D01*
X20009524Y-14479176D01*
X19990476Y-14479176D01*
X19971429Y-14469652D01*
X19961905Y-14460128D01*
X19952381Y-14441081D01*
X19942857Y-14402986D01*
X19942857Y-14355367D01*
X19952381Y-14317271D01*
X19961905Y-14298224D01*
X19971429Y-14288700D01*
X19990476Y-14279176D01*
X20142857Y-14460128D02*
X20152381Y-14469652D01*
X20142857Y-14479176D01*
X20133333Y-14469652D01*
X20142857Y-14460128D01*
X20142857Y-14479176D01*
X20276190Y-14279176D02*
X20295238Y-14279176D01*
X20314286Y-14288700D01*
X20323810Y-14298224D01*
X20333333Y-14317271D01*
X20342857Y-14355367D01*
X20342857Y-14402986D01*
X20333333Y-14441081D01*
X20323810Y-14460128D01*
X20314286Y-14469652D01*
X20295238Y-14479176D01*
X20276190Y-14479176D01*
X20257143Y-14469652D01*
X20247619Y-14460128D01*
X20238095Y-14441081D01*
X20228571Y-14402986D01*
X20228571Y-14355367D01*
X20238095Y-14317271D01*
X20247619Y-14298224D01*
X20257143Y-14288700D01*
X20276190Y-14279176D01*
X20409524Y-14279176D02*
X20533333Y-14279176D01*
X20466667Y-14355367D01*
X20495238Y-14355367D01*
X20514286Y-14364890D01*
X20523810Y-14374414D01*
X20533333Y-14393462D01*
X20533333Y-14441081D01*
X20523810Y-14460128D01*
X20514286Y-14469652D01*
X20495238Y-14479176D01*
X20438095Y-14479176D01*
X20419048Y-14469652D01*
X20409524Y-14460128D01*
X20714286Y-14279176D02*
X20619048Y-14279176D01*
X20609524Y-14374414D01*
X20619048Y-14364890D01*
X20638095Y-14355367D01*
X20685714Y-14355367D01*
X20704762Y-14364890D01*
X20714286Y-14374414D01*
X20723810Y-14393462D01*
X20723810Y-14441081D01*
X20714286Y-14460128D01*
X20704762Y-14469652D01*
X20685714Y-14479176D01*
X20638095Y-14479176D01*
X20619048Y-14469652D01*
X20609524Y-14460128D01*
X20847619Y-14279176D02*
X20866667Y-14279176D01*
X20885714Y-14288700D01*
X20895238Y-14298224D01*
X20904762Y-14317271D01*
X20914286Y-14355367D01*
X20914286Y-14402986D01*
X20904762Y-14441081D01*
X20895238Y-14460128D01*
X20885714Y-14469652D01*
X20866667Y-14479176D01*
X20847619Y-14479176D01*
X20828571Y-14469652D01*
X20819048Y-14460128D01*
X20809524Y-14441081D01*
X20800000Y-14402986D01*
X20800000Y-14355367D01*
X20809524Y-14317271D01*
X20819048Y-14298224D01*
X20828571Y-14288700D01*
X20847619Y-14279176D01*
X20990476Y-14279176D02*
X20990476Y-14317271D01*
X21066667Y-14279176D02*
X21066667Y-14317271D01*
X21361905Y-14555367D02*
X21352381Y-14545843D01*
X21333333Y-14517271D01*
X21323810Y-14498224D01*
X21314286Y-14469652D01*
X21304762Y-14422033D01*
X21304762Y-14383938D01*
X21314286Y-14336319D01*
X21323810Y-14307748D01*
X21333333Y-14288700D01*
X21352381Y-14260128D01*
X21361905Y-14250605D01*
X21428571Y-14298224D02*
X21438095Y-14288700D01*
X21457143Y-14279176D01*
X21504762Y-14279176D01*
X21523810Y-14288700D01*
X21533333Y-14298224D01*
X21542857Y-14317271D01*
X21542857Y-14336319D01*
X21533333Y-14364890D01*
X21419048Y-14479176D01*
X21542857Y-14479176D01*
X21780952Y-14479176D02*
X21780952Y-14279176D01*
X21866667Y-14479176D02*
X21866667Y-14374414D01*
X21857143Y-14355367D01*
X21838095Y-14345843D01*
X21809524Y-14345843D01*
X21790476Y-14355367D01*
X21780952Y-14364890D01*
X21990476Y-14479176D02*
X21971429Y-14469652D01*
X21961905Y-14460128D01*
X21952381Y-14441081D01*
X21952381Y-14383938D01*
X21961905Y-14364890D01*
X21971429Y-14355367D01*
X21990476Y-14345843D01*
X22019048Y-14345843D01*
X22038095Y-14355367D01*
X22047619Y-14364890D01*
X22057143Y-14383938D01*
X22057143Y-14441081D01*
X22047619Y-14460128D01*
X22038095Y-14469652D01*
X22019048Y-14479176D01*
X21990476Y-14479176D01*
X22171429Y-14479176D02*
X22152381Y-14469652D01*
X22142857Y-14450605D01*
X22142857Y-14279176D01*
X22323810Y-14469652D02*
X22304762Y-14479176D01*
X22266667Y-14479176D01*
X22247619Y-14469652D01*
X22238095Y-14450605D01*
X22238095Y-14374414D01*
X22247619Y-14355367D01*
X22266667Y-14345843D01*
X22304762Y-14345843D01*
X22323810Y-14355367D01*
X22333333Y-14374414D01*
X22333333Y-14393462D01*
X22238095Y-14412509D01*
X22409524Y-14469652D02*
X22428571Y-14479176D01*
X22466667Y-14479176D01*
X22485714Y-14469652D01*
X22495238Y-14450605D01*
X22495238Y-14441081D01*
X22485714Y-14422033D01*
X22466667Y-14412509D01*
X22438095Y-14412509D01*
X22419048Y-14402986D01*
X22409524Y-14383938D01*
X22409524Y-14374414D01*
X22419048Y-14355367D01*
X22438095Y-14345843D01*
X22466667Y-14345843D01*
X22485714Y-14355367D01*
X22733333Y-14402986D02*
X22885714Y-14402986D01*
X22809524Y-14479176D02*
X22809524Y-14326795D01*
X23114286Y-14279176D02*
X23238095Y-14279176D01*
X23171428Y-14355367D01*
X23200000Y-14355367D01*
X23219048Y-14364890D01*
X23228571Y-14374414D01*
X23238095Y-14393462D01*
X23238095Y-14441081D01*
X23228571Y-14460128D01*
X23219048Y-14469652D01*
X23200000Y-14479176D01*
X23142857Y-14479176D01*
X23123809Y-14469652D01*
X23114286Y-14460128D01*
X23466667Y-14469652D02*
X23485714Y-14479176D01*
X23523809Y-14479176D01*
X23542857Y-14469652D01*
X23552381Y-14450605D01*
X23552381Y-14441081D01*
X23542857Y-14422033D01*
X23523809Y-14412509D01*
X23495238Y-14412509D01*
X23476190Y-14402986D01*
X23466667Y-14383938D01*
X23466667Y-14374414D01*
X23476190Y-14355367D01*
X23495238Y-14345843D01*
X23523809Y-14345843D01*
X23542857Y-14355367D01*
X23666667Y-14479176D02*
X23647619Y-14469652D01*
X23638095Y-14450605D01*
X23638095Y-14279176D01*
X23771428Y-14479176D02*
X23752381Y-14469652D01*
X23742857Y-14460128D01*
X23733333Y-14441081D01*
X23733333Y-14383938D01*
X23742857Y-14364890D01*
X23752381Y-14355367D01*
X23771428Y-14345843D01*
X23800000Y-14345843D01*
X23819048Y-14355367D01*
X23828571Y-14364890D01*
X23838095Y-14383938D01*
X23838095Y-14441081D01*
X23828571Y-14460128D01*
X23819048Y-14469652D01*
X23800000Y-14479176D01*
X23771428Y-14479176D01*
X23895238Y-14345843D02*
X23971428Y-14345843D01*
X23923809Y-14279176D02*
X23923809Y-14450605D01*
X23933333Y-14469652D01*
X23952381Y-14479176D01*
X23971428Y-14479176D01*
X24028571Y-14469652D02*
X24047619Y-14479176D01*
X24085714Y-14479176D01*
X24104762Y-14469652D01*
X24114286Y-14450605D01*
X24114286Y-14441081D01*
X24104762Y-14422033D01*
X24085714Y-14412509D01*
X24057143Y-14412509D01*
X24038095Y-14402986D01*
X24028571Y-14383938D01*
X24028571Y-14374414D01*
X24038095Y-14355367D01*
X24057143Y-14345843D01*
X24085714Y-14345843D01*
X24104762Y-14355367D01*
X24180952Y-14555367D02*
X24190476Y-14545843D01*
X24209524Y-14517271D01*
X24219048Y-14498224D01*
X24228571Y-14469652D01*
X24238095Y-14422033D01*
X24238095Y-14383938D01*
X24228571Y-14336319D01*
X24219048Y-14307748D01*
X24209524Y-14288700D01*
X24190476Y-14260128D01*
X24180952Y-14250605D01*
D10*
X17775356Y-14688056D02*
X17775356Y-14617344D01*
X17704644Y-14617344D01*
X17704644Y-14688056D01*
X17775356Y-14688056D01*
D11*
X18152381Y-14743176D02*
X18038095Y-14743176D01*
X18095238Y-14743176D02*
X18095238Y-14543176D01*
X18076190Y-14571748D01*
X18057143Y-14590795D01*
X18038095Y-14600319D01*
X18238095Y-14724128D02*
X18247619Y-14733652D01*
X18238095Y-14743176D01*
X18228571Y-14733652D01*
X18238095Y-14724128D01*
X18238095Y-14743176D01*
X18371429Y-14543176D02*
X18390476Y-14543176D01*
X18409524Y-14552700D01*
X18419048Y-14562224D01*
X18428571Y-14581271D01*
X18438095Y-14619367D01*
X18438095Y-14666986D01*
X18428571Y-14705081D01*
X18419048Y-14724128D01*
X18409524Y-14733652D01*
X18390476Y-14743176D01*
X18371429Y-14743176D01*
X18352381Y-14733652D01*
X18342857Y-14724128D01*
X18333333Y-14705081D01*
X18323810Y-14666986D01*
X18323810Y-14619367D01*
X18333333Y-14581271D01*
X18342857Y-14562224D01*
X18352381Y-14552700D01*
X18371429Y-14543176D01*
X18561905Y-14543176D02*
X18580952Y-14543176D01*
X18600000Y-14552700D01*
X18609524Y-14562224D01*
X18619048Y-14581271D01*
X18628571Y-14619367D01*
X18628571Y-14666986D01*
X18619048Y-14705081D01*
X18609524Y-14724128D01*
X18600000Y-14733652D01*
X18580952Y-14743176D01*
X18561905Y-14743176D01*
X18542857Y-14733652D01*
X18533333Y-14724128D01*
X18523810Y-14705081D01*
X18514286Y-14666986D01*
X18514286Y-14619367D01*
X18523810Y-14581271D01*
X18533333Y-14562224D01*
X18542857Y-14552700D01*
X18561905Y-14543176D01*
X18752381Y-14543176D02*
X18771429Y-14543176D01*
X18790476Y-14552700D01*
X18800000Y-14562224D01*
X18809524Y-14581271D01*
X18819048Y-14619367D01*
X18819048Y-14666986D01*
X18809524Y-14705081D01*
X18800000Y-14724128D01*
X18790476Y-14733652D01*
X18771429Y-14743176D01*
X18752381Y-14743176D01*
X18733333Y-14733652D01*
X18723810Y-14724128D01*
X18714286Y-14705081D01*
X18704762Y-14666986D01*
X18704762Y-14619367D01*
X18714286Y-14581271D01*
X18723810Y-14562224D01*
X18733333Y-14552700D01*
X18752381Y-14543176D01*
X18904762Y-14743176D02*
X18904762Y-14609843D01*
X18904762Y-14628890D02*
X18914286Y-14619367D01*
X18933333Y-14609843D01*
X18961905Y-14609843D01*
X18980952Y-14619367D01*
X18990476Y-14638414D01*
X18990476Y-14743176D01*
X18990476Y-14638414D02*
X19000000Y-14619367D01*
X19019048Y-14609843D01*
X19047619Y-14609843D01*
X19066667Y-14619367D01*
X19076190Y-14638414D01*
X19076190Y-14743176D01*
X19171429Y-14743176D02*
X19171429Y-14609843D01*
X19171429Y-14628890D02*
X19180952Y-14619367D01*
X19200000Y-14609843D01*
X19228571Y-14609843D01*
X19247619Y-14619367D01*
X19257143Y-14638414D01*
X19257143Y-14743176D01*
X19257143Y-14638414D02*
X19266667Y-14619367D01*
X19285714Y-14609843D01*
X19314286Y-14609843D01*
X19333333Y-14619367D01*
X19342857Y-14638414D01*
X19342857Y-14743176D01*
X19733333Y-14533652D02*
X19561905Y-14790795D01*
X19990476Y-14543176D02*
X20009524Y-14543176D01*
X20028571Y-14552700D01*
X20038095Y-14562224D01*
X20047619Y-14581271D01*
X20057143Y-14619367D01*
X20057143Y-14666986D01*
X20047619Y-14705081D01*
X20038095Y-14724128D01*
X20028571Y-14733652D01*
X20009524Y-14743176D01*
X19990476Y-14743176D01*
X19971429Y-14733652D01*
X19961905Y-14724128D01*
X19952381Y-14705081D01*
X19942857Y-14666986D01*
X19942857Y-14619367D01*
X19952381Y-14581271D01*
X19961905Y-14562224D01*
X19971429Y-14552700D01*
X19990476Y-14543176D01*
X20142857Y-14724128D02*
X20152381Y-14733652D01*
X20142857Y-14743176D01*
X20133333Y-14733652D01*
X20142857Y-14724128D01*
X20142857Y-14743176D01*
X20276190Y-14543176D02*
X20295238Y-14543176D01*
X20314286Y-14552700D01*
X20323810Y-14562224D01*
X20333333Y-14581271D01*
X20342857Y-14619367D01*
X20342857Y-14666986D01*
X20333333Y-14705081D01*
X20323810Y-14724128D01*
X20314286Y-14733652D01*
X20295238Y-14743176D01*
X20276190Y-14743176D01*
X20257143Y-14733652D01*
X20247619Y-14724128D01*
X20238095Y-14705081D01*
X20228571Y-14666986D01*
X20228571Y-14619367D01*
X20238095Y-14581271D01*
X20247619Y-14562224D01*
X20257143Y-14552700D01*
X20276190Y-14543176D01*
X20409524Y-14543176D02*
X20533333Y-14543176D01*
X20466667Y-14619367D01*
X20495238Y-14619367D01*
X20514286Y-14628890D01*
X20523810Y-14638414D01*
X20533333Y-14657462D01*
X20533333Y-14705081D01*
X20523810Y-14724128D01*
X20514286Y-14733652D01*
X20495238Y-14743176D01*
X20438095Y-14743176D01*
X20419048Y-14733652D01*
X20409524Y-14724128D01*
X20628571Y-14743176D02*
X20666667Y-14743176D01*
X20685714Y-14733652D01*
X20695238Y-14724128D01*
X20714286Y-14695557D01*
X20723810Y-14657462D01*
X20723810Y-14581271D01*
X20714286Y-14562224D01*
X20704762Y-14552700D01*
X20685714Y-14543176D01*
X20647619Y-14543176D01*
X20628571Y-14552700D01*
X20619048Y-14562224D01*
X20609524Y-14581271D01*
X20609524Y-14628890D01*
X20619048Y-14647938D01*
X20628571Y-14657462D01*
X20647619Y-14666986D01*
X20685714Y-14666986D01*
X20704762Y-14657462D01*
X20714286Y-14647938D01*
X20723810Y-14628890D01*
X20895238Y-14609843D02*
X20895238Y-14743176D01*
X20847619Y-14533652D02*
X20800000Y-14676509D01*
X20923810Y-14676509D01*
X20990476Y-14543176D02*
X20990476Y-14581271D01*
X21066667Y-14543176D02*
X21066667Y-14581271D01*
X21361905Y-14819367D02*
X21352381Y-14809843D01*
X21333333Y-14781271D01*
X21323810Y-14762224D01*
X21314286Y-14733652D01*
X21304762Y-14686033D01*
X21304762Y-14647938D01*
X21314286Y-14600319D01*
X21323810Y-14571748D01*
X21333333Y-14552700D01*
X21352381Y-14524128D01*
X21361905Y-14514605D01*
X21533333Y-14543176D02*
X21438095Y-14543176D01*
X21428571Y-14638414D01*
X21438095Y-14628890D01*
X21457143Y-14619367D01*
X21504762Y-14619367D01*
X21523810Y-14628890D01*
X21533333Y-14638414D01*
X21542857Y-14657462D01*
X21542857Y-14705081D01*
X21533333Y-14724128D01*
X21523810Y-14733652D01*
X21504762Y-14743176D01*
X21457143Y-14743176D01*
X21438095Y-14733652D01*
X21428571Y-14724128D01*
X21638095Y-14743176D02*
X21676190Y-14743176D01*
X21695238Y-14733652D01*
X21704762Y-14724128D01*
X21723810Y-14695557D01*
X21733333Y-14657462D01*
X21733333Y-14581271D01*
X21723810Y-14562224D01*
X21714286Y-14552700D01*
X21695238Y-14543176D01*
X21657143Y-14543176D01*
X21638095Y-14552700D01*
X21628571Y-14562224D01*
X21619048Y-14581271D01*
X21619048Y-14628890D01*
X21628571Y-14647938D01*
X21638095Y-14657462D01*
X21657143Y-14666986D01*
X21695238Y-14666986D01*
X21714286Y-14657462D01*
X21723810Y-14647938D01*
X21733333Y-14628890D01*
X21971429Y-14743176D02*
X21971429Y-14543176D01*
X22057143Y-14743176D02*
X22057143Y-14638414D01*
X22047619Y-14619367D01*
X22028571Y-14609843D01*
X22000000Y-14609843D01*
X21980952Y-14619367D01*
X21971429Y-14628890D01*
X22180952Y-14743176D02*
X22161905Y-14733652D01*
X22152381Y-14724128D01*
X22142857Y-14705081D01*
X22142857Y-14647938D01*
X22152381Y-14628890D01*
X22161905Y-14619367D01*
X22180952Y-14609843D01*
X22209524Y-14609843D01*
X22228571Y-14619367D01*
X22238095Y-14628890D01*
X22247619Y-14647938D01*
X22247619Y-14705081D01*
X22238095Y-14724128D01*
X22228571Y-14733652D01*
X22209524Y-14743176D01*
X22180952Y-14743176D01*
X22361905Y-14743176D02*
X22342857Y-14733652D01*
X22333333Y-14714605D01*
X22333333Y-14543176D01*
X22514286Y-14733652D02*
X22495238Y-14743176D01*
X22457143Y-14743176D01*
X22438095Y-14733652D01*
X22428571Y-14714605D01*
X22428571Y-14638414D01*
X22438095Y-14619367D01*
X22457143Y-14609843D01*
X22495238Y-14609843D01*
X22514286Y-14619367D01*
X22523809Y-14638414D01*
X22523809Y-14657462D01*
X22428571Y-14676509D01*
X22600000Y-14733652D02*
X22619048Y-14743176D01*
X22657143Y-14743176D01*
X22676190Y-14733652D01*
X22685714Y-14714605D01*
X22685714Y-14705081D01*
X22676190Y-14686033D01*
X22657143Y-14676509D01*
X22628571Y-14676509D01*
X22609524Y-14666986D01*
X22600000Y-14647938D01*
X22600000Y-14638414D01*
X22609524Y-14619367D01*
X22628571Y-14609843D01*
X22657143Y-14609843D01*
X22676190Y-14619367D01*
X22752381Y-14819367D02*
X22761905Y-14809843D01*
X22780952Y-14781271D01*
X22790476Y-14762224D01*
X22800000Y-14733652D01*
X22809524Y-14686033D01*
X22809524Y-14647938D01*
X22800000Y-14600319D01*
X22790476Y-14571748D01*
X22780952Y-14552700D01*
X22761905Y-14524128D01*
X22752381Y-14514605D01*
D15*
X17739200Y-14967500D02*
X17790000Y-14916700D01*
X17739200Y-14865900D01*
X17688400Y-14916700D01*
X17739200Y-14967500D01*
D11*
X18152381Y-15007176D02*
X18038095Y-15007176D01*
X18095238Y-15007176D02*
X18095238Y-14807176D01*
X18076190Y-14835748D01*
X18057143Y-14854795D01*
X18038095Y-14864319D01*
X18238095Y-14988128D02*
X18247619Y-14997652D01*
X18238095Y-15007176D01*
X18228571Y-14997652D01*
X18238095Y-14988128D01*
X18238095Y-15007176D01*
X18371429Y-14807176D02*
X18390476Y-14807176D01*
X18409524Y-14816700D01*
X18419048Y-14826224D01*
X18428571Y-14845271D01*
X18438095Y-14883367D01*
X18438095Y-14930986D01*
X18428571Y-14969081D01*
X18419048Y-14988128D01*
X18409524Y-14997652D01*
X18390476Y-15007176D01*
X18371429Y-15007176D01*
X18352381Y-14997652D01*
X18342857Y-14988128D01*
X18333333Y-14969081D01*
X18323810Y-14930986D01*
X18323810Y-14883367D01*
X18333333Y-14845271D01*
X18342857Y-14826224D01*
X18352381Y-14816700D01*
X18371429Y-14807176D01*
X18628571Y-15007176D02*
X18514286Y-15007176D01*
X18571429Y-15007176D02*
X18571429Y-14807176D01*
X18552381Y-14835748D01*
X18533333Y-14854795D01*
X18514286Y-14864319D01*
X18800000Y-14807176D02*
X18761905Y-14807176D01*
X18742857Y-14816700D01*
X18733333Y-14826224D01*
X18714286Y-14854795D01*
X18704762Y-14892890D01*
X18704762Y-14969081D01*
X18714286Y-14988128D01*
X18723810Y-14997652D01*
X18742857Y-15007176D01*
X18780952Y-15007176D01*
X18800000Y-14997652D01*
X18809524Y-14988128D01*
X18819048Y-14969081D01*
X18819048Y-14921462D01*
X18809524Y-14902414D01*
X18800000Y-14892890D01*
X18780952Y-14883367D01*
X18742857Y-14883367D01*
X18723810Y-14892890D01*
X18714286Y-14902414D01*
X18704762Y-14921462D01*
X18904762Y-15007176D02*
X18904762Y-14873843D01*
X18904762Y-14892890D02*
X18914286Y-14883367D01*
X18933333Y-14873843D01*
X18961905Y-14873843D01*
X18980952Y-14883367D01*
X18990476Y-14902414D01*
X18990476Y-15007176D01*
X18990476Y-14902414D02*
X19000000Y-14883367D01*
X19019048Y-14873843D01*
X19047619Y-14873843D01*
X19066667Y-14883367D01*
X19076190Y-14902414D01*
X19076190Y-15007176D01*
X19171429Y-15007176D02*
X19171429Y-14873843D01*
X19171429Y-14892890D02*
X19180952Y-14883367D01*
X19200000Y-14873843D01*
X19228571Y-14873843D01*
X19247619Y-14883367D01*
X19257143Y-14902414D01*
X19257143Y-15007176D01*
X19257143Y-14902414D02*
X19266667Y-14883367D01*
X19285714Y-14873843D01*
X19314286Y-14873843D01*
X19333333Y-14883367D01*
X19342857Y-14902414D01*
X19342857Y-15007176D01*
X19733333Y-14797652D02*
X19561905Y-15054795D01*
X19990476Y-14807176D02*
X20009524Y-14807176D01*
X20028571Y-14816700D01*
X20038095Y-14826224D01*
X20047619Y-14845271D01*
X20057143Y-14883367D01*
X20057143Y-14930986D01*
X20047619Y-14969081D01*
X20038095Y-14988128D01*
X20028571Y-14997652D01*
X20009524Y-15007176D01*
X19990476Y-15007176D01*
X19971429Y-14997652D01*
X19961905Y-14988128D01*
X19952381Y-14969081D01*
X19942857Y-14930986D01*
X19942857Y-14883367D01*
X19952381Y-14845271D01*
X19961905Y-14826224D01*
X19971429Y-14816700D01*
X19990476Y-14807176D01*
X20142857Y-14988128D02*
X20152381Y-14997652D01*
X20142857Y-15007176D01*
X20133333Y-14997652D01*
X20142857Y-14988128D01*
X20142857Y-15007176D01*
X20276190Y-14807176D02*
X20295238Y-14807176D01*
X20314286Y-14816700D01*
X20323810Y-14826224D01*
X20333333Y-14845271D01*
X20342857Y-14883367D01*
X20342857Y-14930986D01*
X20333333Y-14969081D01*
X20323810Y-14988128D01*
X20314286Y-14997652D01*
X20295238Y-15007176D01*
X20276190Y-15007176D01*
X20257143Y-14997652D01*
X20247619Y-14988128D01*
X20238095Y-14969081D01*
X20228571Y-14930986D01*
X20228571Y-14883367D01*
X20238095Y-14845271D01*
X20247619Y-14826224D01*
X20257143Y-14816700D01*
X20276190Y-14807176D01*
X20514286Y-14873843D02*
X20514286Y-15007176D01*
X20466667Y-14797652D02*
X20419048Y-14940509D01*
X20542857Y-14940509D01*
X20657143Y-14807176D02*
X20676190Y-14807176D01*
X20695238Y-14816700D01*
X20704762Y-14826224D01*
X20714286Y-14845271D01*
X20723810Y-14883367D01*
X20723810Y-14930986D01*
X20714286Y-14969081D01*
X20704762Y-14988128D01*
X20695238Y-14997652D01*
X20676190Y-15007176D01*
X20657143Y-15007176D01*
X20638095Y-14997652D01*
X20628571Y-14988128D01*
X20619048Y-14969081D01*
X20609524Y-14930986D01*
X20609524Y-14883367D01*
X20619048Y-14845271D01*
X20628571Y-14826224D01*
X20638095Y-14816700D01*
X20657143Y-14807176D01*
X20847619Y-14807176D02*
X20866667Y-14807176D01*
X20885714Y-14816700D01*
X20895238Y-14826224D01*
X20904762Y-14845271D01*
X20914286Y-14883367D01*
X20914286Y-14930986D01*
X20904762Y-14969081D01*
X20895238Y-14988128D01*
X20885714Y-14997652D01*
X20866667Y-15007176D01*
X20847619Y-15007176D01*
X20828571Y-14997652D01*
X20819048Y-14988128D01*
X20809524Y-14969081D01*
X20800000Y-14930986D01*
X20800000Y-14883367D01*
X20809524Y-14845271D01*
X20819048Y-14826224D01*
X20828571Y-14816700D01*
X20847619Y-14807176D01*
X20990476Y-14807176D02*
X20990476Y-14845271D01*
X21066667Y-14807176D02*
X21066667Y-14845271D01*
X21361905Y-15083367D02*
X21352381Y-15073843D01*
X21333333Y-15045271D01*
X21323810Y-15026224D01*
X21314286Y-14997652D01*
X21304762Y-14950033D01*
X21304762Y-14911938D01*
X21314286Y-14864319D01*
X21323810Y-14835748D01*
X21333333Y-14816700D01*
X21352381Y-14788128D01*
X21361905Y-14778605D01*
X21419048Y-14807176D02*
X21542857Y-14807176D01*
X21476190Y-14883367D01*
X21504762Y-14883367D01*
X21523810Y-14892890D01*
X21533333Y-14902414D01*
X21542857Y-14921462D01*
X21542857Y-14969081D01*
X21533333Y-14988128D01*
X21523810Y-14997652D01*
X21504762Y-15007176D01*
X21447619Y-15007176D01*
X21428571Y-14997652D01*
X21419048Y-14988128D01*
X21714286Y-14807176D02*
X21676190Y-14807176D01*
X21657143Y-14816700D01*
X21647619Y-14826224D01*
X21628571Y-14854795D01*
X21619048Y-14892890D01*
X21619048Y-14969081D01*
X21628571Y-14988128D01*
X21638095Y-14997652D01*
X21657143Y-15007176D01*
X21695238Y-15007176D01*
X21714286Y-14997652D01*
X21723810Y-14988128D01*
X21733333Y-14969081D01*
X21733333Y-14921462D01*
X21723810Y-14902414D01*
X21714286Y-14892890D01*
X21695238Y-14883367D01*
X21657143Y-14883367D01*
X21638095Y-14892890D01*
X21628571Y-14902414D01*
X21619048Y-14921462D01*
X21971429Y-15007176D02*
X21971429Y-14807176D01*
X22057143Y-15007176D02*
X22057143Y-14902414D01*
X22047619Y-14883367D01*
X22028571Y-14873843D01*
X22000000Y-14873843D01*
X21980952Y-14883367D01*
X21971429Y-14892890D01*
X22180952Y-15007176D02*
X22161905Y-14997652D01*
X22152381Y-14988128D01*
X22142857Y-14969081D01*
X22142857Y-14911938D01*
X22152381Y-14892890D01*
X22161905Y-14883367D01*
X22180952Y-14873843D01*
X22209524Y-14873843D01*
X22228571Y-14883367D01*
X22238095Y-14892890D01*
X22247619Y-14911938D01*
X22247619Y-14969081D01*
X22238095Y-14988128D01*
X22228571Y-14997652D01*
X22209524Y-15007176D01*
X22180952Y-15007176D01*
X22361905Y-15007176D02*
X22342857Y-14997652D01*
X22333333Y-14978605D01*
X22333333Y-14807176D01*
X22514286Y-14997652D02*
X22495238Y-15007176D01*
X22457143Y-15007176D01*
X22438095Y-14997652D01*
X22428571Y-14978605D01*
X22428571Y-14902414D01*
X22438095Y-14883367D01*
X22457143Y-14873843D01*
X22495238Y-14873843D01*
X22514286Y-14883367D01*
X22523809Y-14902414D01*
X22523809Y-14921462D01*
X22428571Y-14940509D01*
X22600000Y-14997652D02*
X22619048Y-15007176D01*
X22657143Y-15007176D01*
X22676190Y-14997652D01*
X22685714Y-14978605D01*
X22685714Y-14969081D01*
X22676190Y-14950033D01*
X22657143Y-14940509D01*
X22628571Y-14940509D01*
X22609524Y-14930986D01*
X22600000Y-14911938D01*
X22600000Y-14902414D01*
X22609524Y-14883367D01*
X22628571Y-14873843D01*
X22657143Y-14873843D01*
X22676190Y-14883367D01*
X22752381Y-15083367D02*
X22761905Y-15073843D01*
X22780952Y-15045271D01*
X22790476Y-15026224D01*
X22800000Y-14997652D01*
X22809524Y-14950033D01*
X22809524Y-14911938D01*
X22800000Y-14864319D01*
X22790476Y-14835748D01*
X22780952Y-14816700D01*
X22761905Y-14788128D01*
X22752381Y-14778605D01*
M02*
